G75*
%MOIN*%
%OFA0B0*%
%FSLAX25Y25*%
%IPPOS*%
%LPD*%
%AMOC8*
5,1,8,0,0,1.08239X$1,22.5*
%
%ADD10OC8,0.07200*%
%ADD11C,0.07096*%
%ADD12OC8,0.06900*%
%ADD13C,0.06900*%
%ADD14C,0.06600*%
%ADD15C,0.06600*%
%ADD16C,0.04362*%
D10*
X0184300Y0176433D03*
X0194300Y0176433D03*
X0194300Y0186433D03*
X0184300Y0186433D03*
X0184300Y0196433D03*
X0194300Y0196433D03*
X0194300Y0206433D03*
X0184300Y0206433D03*
X0184300Y0216433D03*
X0194300Y0216433D03*
D11*
X0192391Y0136433D03*
X0180580Y0136433D03*
X0206209Y0136433D03*
X0218020Y0136433D03*
X0251485Y0136433D03*
X0276209Y0136433D03*
X0288020Y0136433D03*
X0321485Y0136433D03*
X0346209Y0136433D03*
X0358020Y0136433D03*
X0391485Y0136433D03*
X0391485Y0096433D03*
X0358020Y0096433D03*
X0346209Y0096433D03*
X0321485Y0096433D03*
X0288020Y0096433D03*
X0276209Y0096433D03*
X0251485Y0096433D03*
X0218020Y0096433D03*
X0206209Y0096433D03*
X0192391Y0096433D03*
X0180580Y0096433D03*
X0147115Y0096433D03*
X0122391Y0096433D03*
X0110580Y0096433D03*
X0077115Y0096433D03*
X0052391Y0096433D03*
X0040580Y0096433D03*
X0007115Y0096433D03*
X0007115Y0136433D03*
X0040580Y0136433D03*
X0052391Y0136433D03*
X0077115Y0136433D03*
X0110580Y0136433D03*
X0122391Y0136433D03*
X0147115Y0136433D03*
D12*
X0229300Y0183933D03*
X0239300Y0208933D03*
X0344300Y0208933D03*
X0344300Y0183933D03*
X0051800Y0183933D03*
X0051800Y0208933D03*
D13*
X0041800Y0208933D03*
X0041800Y0183933D03*
X0229300Y0208933D03*
X0239300Y0183933D03*
X0354300Y0183933D03*
X0354300Y0208933D03*
D14*
X0366800Y0216433D03*
X0376800Y0216433D03*
X0376800Y0206433D03*
X0376800Y0226433D03*
X0376800Y0186433D03*
X0376800Y0176433D03*
X0386800Y0176433D03*
X0376800Y0166433D03*
X0026800Y0176433D03*
X0016800Y0176433D03*
X0016800Y0166433D03*
X0016800Y0186433D03*
X0016800Y0206433D03*
X0016800Y0216433D03*
X0006800Y0216433D03*
X0016800Y0226433D03*
D15*
X0119300Y0089433D02*
X0119300Y0083433D01*
X0129300Y0083433D02*
X0129300Y0089433D01*
X0139300Y0089433D02*
X0139300Y0083433D01*
X0206300Y0106433D02*
X0212300Y0106433D01*
X0212300Y0116433D02*
X0206300Y0116433D01*
X0206300Y0126433D02*
X0212300Y0126433D01*
X0259300Y0143433D02*
X0259300Y0149433D01*
X0269300Y0149433D02*
X0269300Y0143433D01*
X0279300Y0143433D02*
X0279300Y0149433D01*
X0279300Y0163433D02*
X0279300Y0169433D01*
X0269300Y0169433D02*
X0269300Y0163433D01*
X0259300Y0163433D02*
X0259300Y0169433D01*
X0212300Y0186433D02*
X0206300Y0186433D01*
X0206300Y0196433D02*
X0212300Y0196433D01*
X0212300Y0206433D02*
X0206300Y0206433D01*
X0259300Y0223433D02*
X0259300Y0229433D01*
X0269300Y0229433D02*
X0269300Y0223433D01*
X0279300Y0223433D02*
X0279300Y0229433D01*
X0369300Y0199433D02*
X0369300Y0193433D01*
X0379300Y0193433D02*
X0379300Y0199433D01*
X0389300Y0199433D02*
X0389300Y0193433D01*
X0389300Y0119433D02*
X0389300Y0113433D01*
X0379300Y0113433D02*
X0379300Y0119433D01*
X0369300Y0119433D02*
X0369300Y0113433D01*
X0279300Y0089433D02*
X0279300Y0083433D01*
X0269300Y0083433D02*
X0269300Y0089433D01*
X0259300Y0089433D02*
X0259300Y0083433D01*
X0139300Y0143433D02*
X0139300Y0149433D01*
X0129300Y0149433D02*
X0129300Y0143433D01*
X0119300Y0143433D02*
X0119300Y0149433D01*
X0119300Y0163433D02*
X0119300Y0169433D01*
X0129300Y0169433D02*
X0129300Y0163433D01*
X0139300Y0163433D02*
X0139300Y0169433D01*
X0139300Y0223433D02*
X0139300Y0229433D01*
X0129300Y0229433D02*
X0129300Y0223433D01*
X0119300Y0223433D02*
X0119300Y0229433D01*
X0026800Y0199433D02*
X0026800Y0193433D01*
X0016800Y0193433D02*
X0016800Y0199433D01*
X0006800Y0199433D02*
X0006800Y0193433D01*
X0006800Y0119433D02*
X0006800Y0113433D01*
X0016800Y0113433D02*
X0016800Y0119433D01*
X0026800Y0119433D02*
X0026800Y0113433D01*
D16*
X0059300Y0113933D03*
X0059300Y0123933D03*
X0085550Y0116433D03*
X0069300Y0086433D03*
X0146800Y0110183D03*
X0164300Y0116433D03*
X0171800Y0116433D03*
X0176800Y0142683D03*
X0149300Y0173933D03*
X0159300Y0176433D03*
X0139300Y0177683D03*
X0161800Y0195183D03*
X0164300Y0208933D03*
X0159300Y0216433D03*
X0149300Y0216433D03*
X0149300Y0223933D03*
X0159300Y0223933D03*
X0139300Y0215183D03*
X0134300Y0201433D03*
X0101800Y0183933D03*
X0102300Y0178933D03*
X0084300Y0173933D03*
X0083050Y0168933D03*
X0068050Y0165183D03*
X0081800Y0178933D03*
X0066800Y0191433D03*
X0071800Y0201433D03*
X0086800Y0201433D03*
X0086800Y0218933D03*
X0086800Y0228933D03*
X0064300Y0221433D03*
X0026800Y0226433D03*
X0026800Y0166433D03*
X0069300Y0146433D03*
X0220550Y0090183D03*
X0234300Y0116433D03*
X0250550Y0122683D03*
X0301800Y0123933D03*
X0320550Y0116433D03*
X0301800Y0108933D03*
X0329300Y0086433D03*
X0329300Y0146433D03*
X0329300Y0163933D03*
X0334300Y0166433D03*
X0309300Y0168933D03*
X0306800Y0178933D03*
X0290550Y0172683D03*
X0286800Y0181433D03*
X0271800Y0196433D03*
X0259300Y0211433D03*
X0286800Y0216433D03*
X0308050Y0215183D03*
X0308050Y0221433D03*
X0330550Y0228933D03*
X0340550Y0221433D03*
X0334300Y0211433D03*
X0314300Y0196433D03*
X0321800Y0193933D03*
X0366800Y0166433D03*
X0366800Y0226433D03*
X0238050Y0171433D03*
M02*
