G75*
%MOIN*%
%OFA0B0*%
%FSLAX25Y25*%
%IPPOS*%
%LPD*%
%AMOC8*
5,1,8,0,0,1.08239X$1,22.5*
%
%ADD10C,0.18898*%
%ADD11C,0.32822*%
%ADD12C,0.01000*%
D10*
X0055744Y0113461D03*
X0537033Y0113461D03*
D11*
X0481433Y0103933D03*
X0411433Y0103933D03*
X0341433Y0103933D03*
X0276433Y0103933D03*
X0206433Y0103933D03*
X0136433Y0103933D03*
X0136433Y0143933D03*
X0206433Y0143933D03*
X0276433Y0143933D03*
X0341433Y0143933D03*
X0411433Y0143933D03*
X0481433Y0143933D03*
D12*
X0045933Y0161933D02*
X0045933Y0085933D01*
X0546933Y0085933D01*
X0546933Y0161933D01*
X0045933Y0161933D01*
X0045933Y0161817D02*
X0546933Y0161817D01*
X0546933Y0160818D02*
X0045933Y0160818D01*
X0045933Y0159820D02*
X0546933Y0159820D01*
X0546933Y0158821D02*
X0045933Y0158821D01*
X0045933Y0157823D02*
X0546933Y0157823D01*
X0546933Y0156824D02*
X0045933Y0156824D01*
X0045933Y0155826D02*
X0546933Y0155826D01*
X0546933Y0154827D02*
X0045933Y0154827D01*
X0045933Y0153829D02*
X0546933Y0153829D01*
X0546933Y0152830D02*
X0045933Y0152830D01*
X0045933Y0151832D02*
X0546933Y0151832D01*
X0546933Y0150833D02*
X0045933Y0150833D01*
X0045933Y0149835D02*
X0546933Y0149835D01*
X0546933Y0148836D02*
X0045933Y0148836D01*
X0045933Y0147838D02*
X0546933Y0147838D01*
X0546933Y0146839D02*
X0045933Y0146839D01*
X0045933Y0145841D02*
X0546933Y0145841D01*
X0546933Y0144842D02*
X0045933Y0144842D01*
X0045933Y0143844D02*
X0546933Y0143844D01*
X0546933Y0142845D02*
X0045933Y0142845D01*
X0045933Y0141847D02*
X0546933Y0141847D01*
X0546933Y0140848D02*
X0045933Y0140848D01*
X0045933Y0139850D02*
X0546933Y0139850D01*
X0546933Y0138851D02*
X0045933Y0138851D01*
X0045933Y0137853D02*
X0546933Y0137853D01*
X0546933Y0136854D02*
X0045933Y0136854D01*
X0045933Y0135856D02*
X0546933Y0135856D01*
X0546933Y0134857D02*
X0045933Y0134857D01*
X0045933Y0133859D02*
X0546933Y0133859D01*
X0546933Y0132860D02*
X0045933Y0132860D01*
X0045933Y0131862D02*
X0546933Y0131862D01*
X0546933Y0130863D02*
X0045933Y0130863D01*
X0045933Y0129865D02*
X0546933Y0129865D01*
X0546933Y0128866D02*
X0045933Y0128866D01*
X0045933Y0127868D02*
X0546933Y0127868D01*
X0546933Y0126869D02*
X0045933Y0126869D01*
X0045933Y0125871D02*
X0546933Y0125871D01*
X0546933Y0124872D02*
X0045933Y0124872D01*
X0045933Y0123874D02*
X0546933Y0123874D01*
X0546933Y0122875D02*
X0045933Y0122875D01*
X0045933Y0121877D02*
X0546933Y0121877D01*
X0546933Y0120878D02*
X0045933Y0120878D01*
X0045933Y0119879D02*
X0546933Y0119879D01*
X0546933Y0118881D02*
X0045933Y0118881D01*
X0045933Y0117882D02*
X0546933Y0117882D01*
X0546933Y0116884D02*
X0045933Y0116884D01*
X0045933Y0115885D02*
X0546933Y0115885D01*
X0546933Y0114887D02*
X0045933Y0114887D01*
X0045933Y0113888D02*
X0546933Y0113888D01*
X0546933Y0112890D02*
X0045933Y0112890D01*
X0045933Y0111891D02*
X0546933Y0111891D01*
X0546933Y0110893D02*
X0045933Y0110893D01*
X0045933Y0109894D02*
X0546933Y0109894D01*
X0546933Y0108896D02*
X0045933Y0108896D01*
X0045933Y0107897D02*
X0546933Y0107897D01*
X0546933Y0106899D02*
X0045933Y0106899D01*
X0045933Y0105900D02*
X0546933Y0105900D01*
X0546933Y0104902D02*
X0045933Y0104902D01*
X0045933Y0103903D02*
X0546933Y0103903D01*
X0546933Y0102905D02*
X0045933Y0102905D01*
X0045933Y0101906D02*
X0546933Y0101906D01*
X0546933Y0100908D02*
X0045933Y0100908D01*
X0045933Y0099909D02*
X0546933Y0099909D01*
X0546933Y0098911D02*
X0045933Y0098911D01*
X0045933Y0097912D02*
X0546933Y0097912D01*
X0546933Y0096914D02*
X0045933Y0096914D01*
X0045933Y0095915D02*
X0546933Y0095915D01*
X0546933Y0094917D02*
X0045933Y0094917D01*
X0045933Y0093918D02*
X0546933Y0093918D01*
X0546933Y0092920D02*
X0045933Y0092920D01*
X0045933Y0091921D02*
X0546933Y0091921D01*
X0546933Y0090923D02*
X0045933Y0090923D01*
X0045933Y0089924D02*
X0546933Y0089924D01*
X0546933Y0088926D02*
X0045933Y0088926D01*
X0045933Y0087927D02*
X0546933Y0087927D01*
X0546933Y0086929D02*
X0045933Y0086929D01*
M02*
