G75*
%MOIN*%
%OFA0B0*%
%FSLAX25Y25*%
%IPPOS*%
%LPD*%
%AMOC8*
5,1,8,0,0,1.08239X$1,22.5*
%
%ADD10C,0.00600*%
%ADD11C,0.00500*%
%ADD12C,0.00300*%
%ADD13R,0.40000X0.10000*%
%ADD14R,0.02000X0.04500*%
%ADD15C,0.00400*%
%ADD16R,0.01800X0.02300*%
%ADD17C,0.01200*%
%ADD18C,0.00800*%
%ADD19R,0.04331X0.01929*%
D10*
X0080186Y0081433D02*
X0083414Y0081433D01*
X0083414Y0086433D02*
X0080186Y0086433D01*
X0105186Y0086433D02*
X0108414Y0086433D01*
X0114300Y0083933D02*
X0114300Y0088933D01*
X0116800Y0091433D01*
X0121800Y0091433D01*
X0124300Y0088933D01*
X0126800Y0091433D01*
X0131800Y0091433D01*
X0134300Y0088933D01*
X0136800Y0091433D01*
X0141800Y0091433D01*
X0144300Y0088933D01*
X0144300Y0083933D01*
X0141800Y0081433D01*
X0136800Y0081433D01*
X0134300Y0083933D01*
X0131800Y0081433D01*
X0126800Y0081433D01*
X0124300Y0083933D01*
X0121800Y0081433D01*
X0116800Y0081433D01*
X0114300Y0083933D01*
X0108414Y0081433D02*
X0105186Y0081433D01*
X0124300Y0083933D02*
X0124300Y0088933D01*
X0134300Y0088933D02*
X0134300Y0083933D01*
X0151200Y0085083D02*
X0162400Y0085083D01*
X0162400Y0090283D01*
X0151200Y0090283D01*
X0151200Y0085083D01*
X0136800Y0099819D02*
X0136800Y0103047D01*
X0131800Y0103047D02*
X0131800Y0099819D01*
X0151200Y0103833D02*
X0151200Y0109033D01*
X0162400Y0109033D01*
X0162400Y0103833D01*
X0151200Y0103833D01*
X0172686Y0106433D02*
X0175914Y0106433D01*
X0175914Y0111433D02*
X0172686Y0111433D01*
X0172686Y0121433D02*
X0175914Y0121433D01*
X0175914Y0126433D02*
X0172686Y0126433D01*
X0162400Y0123833D02*
X0151200Y0123833D01*
X0151200Y0129033D01*
X0162400Y0129033D01*
X0162400Y0123833D01*
X0136800Y0129819D02*
X0136800Y0133047D01*
X0131800Y0133047D02*
X0131800Y0129819D01*
X0131800Y0141433D02*
X0126800Y0141433D01*
X0124300Y0143933D01*
X0121800Y0141433D01*
X0116800Y0141433D01*
X0114300Y0143933D01*
X0114300Y0148933D01*
X0116800Y0151433D01*
X0121800Y0151433D01*
X0124300Y0148933D01*
X0126800Y0151433D01*
X0131800Y0151433D01*
X0134300Y0148933D01*
X0136800Y0151433D01*
X0141800Y0151433D01*
X0144300Y0148933D01*
X0144300Y0143933D01*
X0141800Y0141433D01*
X0136800Y0141433D01*
X0134300Y0143933D01*
X0131800Y0141433D01*
X0134300Y0143933D02*
X0134300Y0148933D01*
X0124300Y0148933D02*
X0124300Y0143933D01*
X0108414Y0146433D02*
X0105186Y0146433D01*
X0105186Y0151433D02*
X0108414Y0151433D01*
X0083414Y0151433D02*
X0080186Y0151433D01*
X0080186Y0146433D02*
X0083414Y0146433D01*
X0079900Y0166333D02*
X0068700Y0166333D01*
X0068700Y0171533D01*
X0079900Y0171533D01*
X0079900Y0166333D01*
X0092686Y0171433D02*
X0095914Y0171433D01*
X0095914Y0176433D02*
X0092686Y0176433D01*
X0097800Y0188733D02*
X0065800Y0188733D01*
X0065724Y0188735D01*
X0065648Y0188741D01*
X0065573Y0188750D01*
X0065498Y0188764D01*
X0065424Y0188781D01*
X0065351Y0188802D01*
X0065279Y0188826D01*
X0065208Y0188855D01*
X0065139Y0188886D01*
X0065072Y0188921D01*
X0065007Y0188960D01*
X0064943Y0189002D01*
X0064882Y0189047D01*
X0064823Y0189095D01*
X0064767Y0189146D01*
X0064713Y0189200D01*
X0064662Y0189256D01*
X0064614Y0189315D01*
X0064569Y0189376D01*
X0064527Y0189440D01*
X0064488Y0189505D01*
X0064453Y0189572D01*
X0064422Y0189641D01*
X0064393Y0189712D01*
X0064369Y0189784D01*
X0064348Y0189857D01*
X0064331Y0189931D01*
X0064317Y0190006D01*
X0064308Y0190081D01*
X0064302Y0190157D01*
X0064300Y0190233D01*
X0064300Y0202633D01*
X0064300Y0202733D02*
X0099300Y0202733D01*
X0099300Y0202633D02*
X0099300Y0198433D01*
X0099300Y0194433D01*
X0099300Y0190233D01*
X0099298Y0190157D01*
X0099292Y0190081D01*
X0099283Y0190006D01*
X0099269Y0189931D01*
X0099252Y0189857D01*
X0099231Y0189784D01*
X0099207Y0189712D01*
X0099178Y0189641D01*
X0099147Y0189572D01*
X0099112Y0189505D01*
X0099073Y0189440D01*
X0099031Y0189376D01*
X0098986Y0189315D01*
X0098938Y0189256D01*
X0098887Y0189200D01*
X0098833Y0189146D01*
X0098777Y0189095D01*
X0098718Y0189047D01*
X0098657Y0189002D01*
X0098593Y0188960D01*
X0098528Y0188921D01*
X0098461Y0188886D01*
X0098392Y0188855D01*
X0098321Y0188826D01*
X0098249Y0188802D01*
X0098176Y0188781D01*
X0098102Y0188764D01*
X0098027Y0188750D01*
X0097952Y0188741D01*
X0097876Y0188735D01*
X0097800Y0188733D01*
X0099300Y0194433D02*
X0099212Y0194435D01*
X0099123Y0194441D01*
X0099035Y0194451D01*
X0098948Y0194464D01*
X0098861Y0194482D01*
X0098775Y0194503D01*
X0098690Y0194528D01*
X0098607Y0194557D01*
X0098524Y0194590D01*
X0098444Y0194626D01*
X0098365Y0194665D01*
X0098287Y0194708D01*
X0098212Y0194755D01*
X0098139Y0194805D01*
X0098068Y0194858D01*
X0097999Y0194914D01*
X0097933Y0194973D01*
X0097870Y0195035D01*
X0097810Y0195099D01*
X0097752Y0195166D01*
X0097698Y0195236D01*
X0097646Y0195308D01*
X0097598Y0195382D01*
X0097553Y0195459D01*
X0097512Y0195537D01*
X0097474Y0195617D01*
X0097440Y0195698D01*
X0097409Y0195781D01*
X0097382Y0195866D01*
X0097359Y0195951D01*
X0097340Y0196037D01*
X0097324Y0196125D01*
X0097312Y0196212D01*
X0097304Y0196300D01*
X0097300Y0196389D01*
X0097300Y0196477D01*
X0097304Y0196566D01*
X0097312Y0196654D01*
X0097324Y0196741D01*
X0097340Y0196829D01*
X0097359Y0196915D01*
X0097382Y0197000D01*
X0097409Y0197085D01*
X0097440Y0197168D01*
X0097474Y0197249D01*
X0097512Y0197329D01*
X0097553Y0197407D01*
X0097598Y0197484D01*
X0097646Y0197558D01*
X0097698Y0197630D01*
X0097752Y0197700D01*
X0097810Y0197767D01*
X0097870Y0197831D01*
X0097933Y0197893D01*
X0097999Y0197952D01*
X0098068Y0198008D01*
X0098139Y0198061D01*
X0098212Y0198111D01*
X0098287Y0198158D01*
X0098365Y0198201D01*
X0098444Y0198240D01*
X0098524Y0198276D01*
X0098607Y0198309D01*
X0098690Y0198338D01*
X0098775Y0198363D01*
X0098861Y0198384D01*
X0098948Y0198402D01*
X0099035Y0198415D01*
X0099123Y0198425D01*
X0099212Y0198431D01*
X0099300Y0198433D01*
X0099300Y0202633D02*
X0099298Y0202709D01*
X0099292Y0202785D01*
X0099283Y0202860D01*
X0099269Y0202935D01*
X0099252Y0203009D01*
X0099231Y0203082D01*
X0099207Y0203154D01*
X0099178Y0203225D01*
X0099147Y0203294D01*
X0099112Y0203361D01*
X0099073Y0203426D01*
X0099031Y0203490D01*
X0098986Y0203551D01*
X0098938Y0203610D01*
X0098887Y0203666D01*
X0098833Y0203720D01*
X0098777Y0203771D01*
X0098718Y0203819D01*
X0098657Y0203864D01*
X0098593Y0203906D01*
X0098528Y0203945D01*
X0098461Y0203980D01*
X0098392Y0204011D01*
X0098321Y0204040D01*
X0098249Y0204064D01*
X0098176Y0204085D01*
X0098102Y0204102D01*
X0098027Y0204116D01*
X0097952Y0204125D01*
X0097876Y0204131D01*
X0097800Y0204133D01*
X0065800Y0204133D01*
X0065724Y0204131D01*
X0065648Y0204125D01*
X0065573Y0204116D01*
X0065498Y0204102D01*
X0065424Y0204085D01*
X0065351Y0204064D01*
X0065279Y0204040D01*
X0065208Y0204011D01*
X0065139Y0203980D01*
X0065072Y0203945D01*
X0065007Y0203906D01*
X0064943Y0203864D01*
X0064882Y0203819D01*
X0064823Y0203771D01*
X0064767Y0203720D01*
X0064713Y0203666D01*
X0064662Y0203610D01*
X0064614Y0203551D01*
X0064569Y0203490D01*
X0064527Y0203426D01*
X0064488Y0203361D01*
X0064453Y0203294D01*
X0064422Y0203225D01*
X0064393Y0203154D01*
X0064369Y0203082D01*
X0064348Y0203009D01*
X0064331Y0202935D01*
X0064317Y0202860D01*
X0064308Y0202785D01*
X0064302Y0202709D01*
X0064300Y0202633D01*
X0035800Y0208933D02*
X0035803Y0209203D01*
X0035813Y0209473D01*
X0035830Y0209742D01*
X0035853Y0210011D01*
X0035883Y0210280D01*
X0035919Y0210547D01*
X0035962Y0210814D01*
X0036011Y0211079D01*
X0036067Y0211343D01*
X0036130Y0211606D01*
X0036198Y0211867D01*
X0036274Y0212126D01*
X0036355Y0212383D01*
X0036443Y0212639D01*
X0036537Y0212892D01*
X0036637Y0213143D01*
X0036744Y0213391D01*
X0036856Y0213636D01*
X0036975Y0213879D01*
X0037099Y0214118D01*
X0037229Y0214355D01*
X0037365Y0214588D01*
X0037507Y0214818D01*
X0037654Y0215044D01*
X0037807Y0215267D01*
X0037965Y0215486D01*
X0038128Y0215701D01*
X0038297Y0215911D01*
X0038471Y0216118D01*
X0038650Y0216320D01*
X0038833Y0216518D01*
X0039022Y0216711D01*
X0039215Y0216900D01*
X0039413Y0217083D01*
X0039615Y0217262D01*
X0039822Y0217436D01*
X0040032Y0217605D01*
X0040247Y0217768D01*
X0040466Y0217926D01*
X0040689Y0218079D01*
X0040915Y0218226D01*
X0041145Y0218368D01*
X0041378Y0218504D01*
X0041615Y0218634D01*
X0041854Y0218758D01*
X0042097Y0218877D01*
X0042342Y0218989D01*
X0042590Y0219096D01*
X0042841Y0219196D01*
X0043094Y0219290D01*
X0043350Y0219378D01*
X0043607Y0219459D01*
X0043866Y0219535D01*
X0044127Y0219603D01*
X0044390Y0219666D01*
X0044654Y0219722D01*
X0044919Y0219771D01*
X0045186Y0219814D01*
X0045453Y0219850D01*
X0045722Y0219880D01*
X0045991Y0219903D01*
X0046260Y0219920D01*
X0046530Y0219930D01*
X0046800Y0219933D01*
X0047070Y0219930D01*
X0047340Y0219920D01*
X0047609Y0219903D01*
X0047878Y0219880D01*
X0048147Y0219850D01*
X0048414Y0219814D01*
X0048681Y0219771D01*
X0048946Y0219722D01*
X0049210Y0219666D01*
X0049473Y0219603D01*
X0049734Y0219535D01*
X0049993Y0219459D01*
X0050250Y0219378D01*
X0050506Y0219290D01*
X0050759Y0219196D01*
X0051010Y0219096D01*
X0051258Y0218989D01*
X0051503Y0218877D01*
X0051746Y0218758D01*
X0051985Y0218634D01*
X0052222Y0218504D01*
X0052455Y0218368D01*
X0052685Y0218226D01*
X0052911Y0218079D01*
X0053134Y0217926D01*
X0053353Y0217768D01*
X0053568Y0217605D01*
X0053778Y0217436D01*
X0053985Y0217262D01*
X0054187Y0217083D01*
X0054385Y0216900D01*
X0054578Y0216711D01*
X0054767Y0216518D01*
X0054950Y0216320D01*
X0055129Y0216118D01*
X0055303Y0215911D01*
X0055472Y0215701D01*
X0055635Y0215486D01*
X0055793Y0215267D01*
X0055946Y0215044D01*
X0056093Y0214818D01*
X0056235Y0214588D01*
X0056371Y0214355D01*
X0056501Y0214118D01*
X0056625Y0213879D01*
X0056744Y0213636D01*
X0056856Y0213391D01*
X0056963Y0213143D01*
X0057063Y0212892D01*
X0057157Y0212639D01*
X0057245Y0212383D01*
X0057326Y0212126D01*
X0057402Y0211867D01*
X0057470Y0211606D01*
X0057533Y0211343D01*
X0057589Y0211079D01*
X0057638Y0210814D01*
X0057681Y0210547D01*
X0057717Y0210280D01*
X0057747Y0210011D01*
X0057770Y0209742D01*
X0057787Y0209473D01*
X0057797Y0209203D01*
X0057800Y0208933D01*
X0057797Y0208663D01*
X0057787Y0208393D01*
X0057770Y0208124D01*
X0057747Y0207855D01*
X0057717Y0207586D01*
X0057681Y0207319D01*
X0057638Y0207052D01*
X0057589Y0206787D01*
X0057533Y0206523D01*
X0057470Y0206260D01*
X0057402Y0205999D01*
X0057326Y0205740D01*
X0057245Y0205483D01*
X0057157Y0205227D01*
X0057063Y0204974D01*
X0056963Y0204723D01*
X0056856Y0204475D01*
X0056744Y0204230D01*
X0056625Y0203987D01*
X0056501Y0203748D01*
X0056371Y0203511D01*
X0056235Y0203278D01*
X0056093Y0203048D01*
X0055946Y0202822D01*
X0055793Y0202599D01*
X0055635Y0202380D01*
X0055472Y0202165D01*
X0055303Y0201955D01*
X0055129Y0201748D01*
X0054950Y0201546D01*
X0054767Y0201348D01*
X0054578Y0201155D01*
X0054385Y0200966D01*
X0054187Y0200783D01*
X0053985Y0200604D01*
X0053778Y0200430D01*
X0053568Y0200261D01*
X0053353Y0200098D01*
X0053134Y0199940D01*
X0052911Y0199787D01*
X0052685Y0199640D01*
X0052455Y0199498D01*
X0052222Y0199362D01*
X0051985Y0199232D01*
X0051746Y0199108D01*
X0051503Y0198989D01*
X0051258Y0198877D01*
X0051010Y0198770D01*
X0050759Y0198670D01*
X0050506Y0198576D01*
X0050250Y0198488D01*
X0049993Y0198407D01*
X0049734Y0198331D01*
X0049473Y0198263D01*
X0049210Y0198200D01*
X0048946Y0198144D01*
X0048681Y0198095D01*
X0048414Y0198052D01*
X0048147Y0198016D01*
X0047878Y0197986D01*
X0047609Y0197963D01*
X0047340Y0197946D01*
X0047070Y0197936D01*
X0046800Y0197933D01*
X0046530Y0197936D01*
X0046260Y0197946D01*
X0045991Y0197963D01*
X0045722Y0197986D01*
X0045453Y0198016D01*
X0045186Y0198052D01*
X0044919Y0198095D01*
X0044654Y0198144D01*
X0044390Y0198200D01*
X0044127Y0198263D01*
X0043866Y0198331D01*
X0043607Y0198407D01*
X0043350Y0198488D01*
X0043094Y0198576D01*
X0042841Y0198670D01*
X0042590Y0198770D01*
X0042342Y0198877D01*
X0042097Y0198989D01*
X0041854Y0199108D01*
X0041615Y0199232D01*
X0041378Y0199362D01*
X0041145Y0199498D01*
X0040915Y0199640D01*
X0040689Y0199787D01*
X0040466Y0199940D01*
X0040247Y0200098D01*
X0040032Y0200261D01*
X0039822Y0200430D01*
X0039615Y0200604D01*
X0039413Y0200783D01*
X0039215Y0200966D01*
X0039022Y0201155D01*
X0038833Y0201348D01*
X0038650Y0201546D01*
X0038471Y0201748D01*
X0038297Y0201955D01*
X0038128Y0202165D01*
X0037965Y0202380D01*
X0037807Y0202599D01*
X0037654Y0202822D01*
X0037507Y0203048D01*
X0037365Y0203278D01*
X0037229Y0203511D01*
X0037099Y0203748D01*
X0036975Y0203987D01*
X0036856Y0204230D01*
X0036744Y0204475D01*
X0036637Y0204723D01*
X0036537Y0204974D01*
X0036443Y0205227D01*
X0036355Y0205483D01*
X0036274Y0205740D01*
X0036198Y0205999D01*
X0036130Y0206260D01*
X0036067Y0206523D01*
X0036011Y0206787D01*
X0035962Y0207052D01*
X0035919Y0207319D01*
X0035883Y0207586D01*
X0035853Y0207855D01*
X0035830Y0208124D01*
X0035813Y0208393D01*
X0035803Y0208663D01*
X0035800Y0208933D01*
X0040300Y0212433D02*
X0040300Y0213933D01*
X0040300Y0215433D01*
X0040300Y0213933D02*
X0041800Y0213933D01*
X0040300Y0213933D02*
X0038800Y0213933D01*
X0039300Y0222319D02*
X0039300Y0225547D01*
X0034300Y0225547D02*
X0034300Y0222319D01*
X0044300Y0222319D02*
X0044300Y0225547D01*
X0049300Y0225547D02*
X0049300Y0222319D01*
X0068700Y0221333D02*
X0079900Y0221333D01*
X0079900Y0226533D01*
X0068700Y0226533D01*
X0068700Y0221333D01*
X0095186Y0221433D02*
X0098414Y0221433D01*
X0098414Y0216433D02*
X0095186Y0216433D01*
X0121800Y0202633D02*
X0121800Y0198433D01*
X0121800Y0194433D01*
X0121800Y0190233D01*
X0121800Y0190133D02*
X0161800Y0190133D01*
X0161800Y0190233D02*
X0161800Y0202633D01*
X0161798Y0202709D01*
X0161792Y0202785D01*
X0161783Y0202860D01*
X0161769Y0202935D01*
X0161752Y0203009D01*
X0161731Y0203082D01*
X0161707Y0203154D01*
X0161678Y0203225D01*
X0161647Y0203294D01*
X0161612Y0203361D01*
X0161573Y0203426D01*
X0161531Y0203490D01*
X0161486Y0203551D01*
X0161438Y0203610D01*
X0161387Y0203666D01*
X0161333Y0203720D01*
X0161277Y0203771D01*
X0161218Y0203819D01*
X0161157Y0203864D01*
X0161093Y0203906D01*
X0161028Y0203945D01*
X0160961Y0203980D01*
X0160892Y0204011D01*
X0160821Y0204040D01*
X0160749Y0204064D01*
X0160676Y0204085D01*
X0160602Y0204102D01*
X0160527Y0204116D01*
X0160452Y0204125D01*
X0160376Y0204131D01*
X0160300Y0204133D01*
X0123300Y0204133D01*
X0123224Y0204131D01*
X0123148Y0204125D01*
X0123073Y0204116D01*
X0122998Y0204102D01*
X0122924Y0204085D01*
X0122851Y0204064D01*
X0122779Y0204040D01*
X0122708Y0204011D01*
X0122639Y0203980D01*
X0122572Y0203945D01*
X0122507Y0203906D01*
X0122443Y0203864D01*
X0122382Y0203819D01*
X0122323Y0203771D01*
X0122267Y0203720D01*
X0122213Y0203666D01*
X0122162Y0203610D01*
X0122114Y0203551D01*
X0122069Y0203490D01*
X0122027Y0203426D01*
X0121988Y0203361D01*
X0121953Y0203294D01*
X0121922Y0203225D01*
X0121893Y0203154D01*
X0121869Y0203082D01*
X0121848Y0203009D01*
X0121831Y0202935D01*
X0121817Y0202860D01*
X0121808Y0202785D01*
X0121802Y0202709D01*
X0121800Y0202633D01*
X0121800Y0198433D02*
X0121888Y0198431D01*
X0121977Y0198425D01*
X0122065Y0198415D01*
X0122152Y0198402D01*
X0122239Y0198384D01*
X0122325Y0198363D01*
X0122410Y0198338D01*
X0122493Y0198309D01*
X0122576Y0198276D01*
X0122656Y0198240D01*
X0122735Y0198201D01*
X0122813Y0198158D01*
X0122888Y0198111D01*
X0122961Y0198061D01*
X0123032Y0198008D01*
X0123101Y0197952D01*
X0123167Y0197893D01*
X0123230Y0197831D01*
X0123290Y0197767D01*
X0123348Y0197700D01*
X0123402Y0197630D01*
X0123454Y0197558D01*
X0123502Y0197484D01*
X0123547Y0197407D01*
X0123588Y0197329D01*
X0123626Y0197249D01*
X0123660Y0197168D01*
X0123691Y0197085D01*
X0123718Y0197000D01*
X0123741Y0196915D01*
X0123760Y0196829D01*
X0123776Y0196741D01*
X0123788Y0196654D01*
X0123796Y0196566D01*
X0123800Y0196477D01*
X0123800Y0196389D01*
X0123796Y0196300D01*
X0123788Y0196212D01*
X0123776Y0196125D01*
X0123760Y0196037D01*
X0123741Y0195951D01*
X0123718Y0195866D01*
X0123691Y0195781D01*
X0123660Y0195698D01*
X0123626Y0195617D01*
X0123588Y0195537D01*
X0123547Y0195459D01*
X0123502Y0195382D01*
X0123454Y0195308D01*
X0123402Y0195236D01*
X0123348Y0195166D01*
X0123290Y0195099D01*
X0123230Y0195035D01*
X0123167Y0194973D01*
X0123101Y0194914D01*
X0123032Y0194858D01*
X0122961Y0194805D01*
X0122888Y0194755D01*
X0122813Y0194708D01*
X0122735Y0194665D01*
X0122656Y0194626D01*
X0122576Y0194590D01*
X0122493Y0194557D01*
X0122410Y0194528D01*
X0122325Y0194503D01*
X0122239Y0194482D01*
X0122152Y0194464D01*
X0122065Y0194451D01*
X0121977Y0194441D01*
X0121888Y0194435D01*
X0121800Y0194433D01*
X0121800Y0190233D02*
X0121802Y0190157D01*
X0121808Y0190081D01*
X0121817Y0190006D01*
X0121831Y0189931D01*
X0121848Y0189857D01*
X0121869Y0189784D01*
X0121893Y0189712D01*
X0121922Y0189641D01*
X0121953Y0189572D01*
X0121988Y0189505D01*
X0122027Y0189440D01*
X0122069Y0189376D01*
X0122114Y0189315D01*
X0122162Y0189256D01*
X0122213Y0189200D01*
X0122267Y0189146D01*
X0122323Y0189095D01*
X0122382Y0189047D01*
X0122443Y0189002D01*
X0122507Y0188960D01*
X0122572Y0188921D01*
X0122639Y0188886D01*
X0122708Y0188855D01*
X0122779Y0188826D01*
X0122851Y0188802D01*
X0122924Y0188781D01*
X0122998Y0188764D01*
X0123073Y0188750D01*
X0123148Y0188741D01*
X0123224Y0188735D01*
X0123300Y0188733D01*
X0160300Y0188733D01*
X0160376Y0188735D01*
X0160452Y0188741D01*
X0160527Y0188750D01*
X0160602Y0188764D01*
X0160676Y0188781D01*
X0160749Y0188802D01*
X0160821Y0188826D01*
X0160892Y0188855D01*
X0160961Y0188886D01*
X0161028Y0188921D01*
X0161093Y0188960D01*
X0161157Y0189002D01*
X0161218Y0189047D01*
X0161277Y0189095D01*
X0161333Y0189146D01*
X0161387Y0189200D01*
X0161438Y0189256D01*
X0161486Y0189315D01*
X0161531Y0189376D01*
X0161573Y0189440D01*
X0161612Y0189505D01*
X0161647Y0189572D01*
X0161678Y0189641D01*
X0161707Y0189712D01*
X0161731Y0189784D01*
X0161752Y0189857D01*
X0161769Y0189931D01*
X0161783Y0190006D01*
X0161792Y0190081D01*
X0161798Y0190157D01*
X0161800Y0190233D01*
X0119300Y0183047D02*
X0119300Y0179819D01*
X0114300Y0179819D02*
X0114300Y0183047D01*
X0151200Y0147783D02*
X0162400Y0147783D01*
X0162400Y0142583D01*
X0151200Y0142583D01*
X0151200Y0147783D01*
X0172686Y0146433D02*
X0175914Y0146433D01*
X0175914Y0151433D02*
X0172686Y0151433D01*
X0202686Y0151433D02*
X0205914Y0151433D01*
X0205914Y0146433D02*
X0202686Y0146433D01*
X0222686Y0146433D02*
X0225914Y0146433D01*
X0225914Y0151433D02*
X0222686Y0151433D01*
X0236200Y0147783D02*
X0236200Y0142583D01*
X0247400Y0142583D01*
X0247400Y0147783D01*
X0236200Y0147783D01*
X0254300Y0148933D02*
X0254300Y0143933D01*
X0256800Y0141433D01*
X0261800Y0141433D01*
X0264300Y0143933D01*
X0266800Y0141433D01*
X0271800Y0141433D01*
X0274300Y0143933D01*
X0276800Y0141433D01*
X0281800Y0141433D01*
X0284300Y0143933D01*
X0284300Y0148933D01*
X0281800Y0151433D01*
X0276800Y0151433D01*
X0274300Y0148933D01*
X0274300Y0143933D01*
X0274300Y0148933D02*
X0271800Y0151433D01*
X0266800Y0151433D01*
X0264300Y0148933D01*
X0264300Y0143933D01*
X0264300Y0148933D02*
X0261800Y0151433D01*
X0256800Y0151433D01*
X0254300Y0148933D01*
X0261800Y0133047D02*
X0261800Y0129819D01*
X0266800Y0129819D02*
X0266800Y0133047D01*
X0247400Y0129033D02*
X0247400Y0123833D01*
X0236200Y0123833D01*
X0236200Y0129033D01*
X0247400Y0129033D01*
X0225914Y0126433D02*
X0222686Y0126433D01*
X0222686Y0121433D02*
X0225914Y0121433D01*
X0214300Y0118933D02*
X0214300Y0113933D01*
X0211800Y0111433D01*
X0214300Y0108933D01*
X0214300Y0103933D01*
X0211800Y0101433D01*
X0206800Y0101433D01*
X0204300Y0103933D01*
X0204300Y0108933D01*
X0206800Y0111433D01*
X0204300Y0113933D01*
X0204300Y0118933D01*
X0206800Y0121433D01*
X0204300Y0123933D01*
X0204300Y0128933D01*
X0206800Y0131433D01*
X0211800Y0131433D01*
X0214300Y0128933D01*
X0214300Y0123933D01*
X0211800Y0121433D01*
X0214300Y0118933D01*
X0211800Y0121433D02*
X0206800Y0121433D01*
X0195914Y0121433D02*
X0192686Y0121433D01*
X0192686Y0126433D02*
X0195914Y0126433D01*
X0195914Y0111433D02*
X0192686Y0111433D01*
X0192686Y0106433D02*
X0195914Y0106433D01*
X0206800Y0111433D02*
X0211800Y0111433D01*
X0222686Y0111433D02*
X0225914Y0111433D01*
X0225914Y0106433D02*
X0222686Y0106433D01*
X0236200Y0103833D02*
X0247400Y0103833D01*
X0247400Y0109033D01*
X0236200Y0109033D01*
X0236200Y0103833D01*
X0254300Y0088933D02*
X0256800Y0091433D01*
X0261800Y0091433D01*
X0264300Y0088933D01*
X0266800Y0091433D01*
X0271800Y0091433D01*
X0274300Y0088933D01*
X0276800Y0091433D01*
X0281800Y0091433D01*
X0284300Y0088933D01*
X0284300Y0083933D01*
X0281800Y0081433D01*
X0276800Y0081433D01*
X0274300Y0083933D01*
X0271800Y0081433D01*
X0266800Y0081433D01*
X0264300Y0083933D01*
X0261800Y0081433D01*
X0256800Y0081433D01*
X0254300Y0083933D01*
X0254300Y0088933D01*
X0247400Y0090283D02*
X0247400Y0085083D01*
X0236200Y0085083D01*
X0236200Y0090283D01*
X0247400Y0090283D01*
X0264300Y0088933D02*
X0264300Y0083933D01*
X0274300Y0083933D02*
X0274300Y0088933D01*
X0266800Y0099819D02*
X0266800Y0103047D01*
X0261800Y0103047D02*
X0261800Y0099819D01*
X0290186Y0106433D02*
X0293414Y0106433D01*
X0293414Y0111433D02*
X0290186Y0111433D01*
X0290186Y0121433D02*
X0293414Y0121433D01*
X0293414Y0126433D02*
X0290186Y0126433D01*
X0315186Y0126433D02*
X0318414Y0126433D01*
X0318414Y0121433D02*
X0315186Y0121433D01*
X0315186Y0111433D02*
X0318414Y0111433D01*
X0318414Y0106433D02*
X0315186Y0106433D01*
X0315186Y0086433D02*
X0318414Y0086433D01*
X0318414Y0081433D02*
X0315186Y0081433D01*
X0293414Y0081433D02*
X0290186Y0081433D01*
X0290186Y0086433D02*
X0293414Y0086433D01*
X0225914Y0086433D02*
X0222686Y0086433D01*
X0222686Y0081433D02*
X0225914Y0081433D01*
X0205914Y0081433D02*
X0202686Y0081433D01*
X0202686Y0086433D02*
X0205914Y0086433D01*
X0175914Y0086433D02*
X0172686Y0086433D01*
X0172686Y0081433D02*
X0175914Y0081433D01*
X0108414Y0106433D02*
X0105186Y0106433D01*
X0105186Y0111433D02*
X0108414Y0111433D01*
X0108414Y0121433D02*
X0105186Y0121433D01*
X0105186Y0126433D02*
X0108414Y0126433D01*
X0083414Y0126433D02*
X0080186Y0126433D01*
X0080186Y0121433D02*
X0083414Y0121433D01*
X0083414Y0111433D02*
X0080186Y0111433D01*
X0080186Y0106433D02*
X0083414Y0106433D01*
X0031800Y0113933D02*
X0029300Y0111433D01*
X0024300Y0111433D01*
X0021800Y0113933D01*
X0019300Y0111433D01*
X0014300Y0111433D01*
X0011800Y0113933D01*
X0009300Y0111433D01*
X0004300Y0111433D01*
X0001800Y0113933D01*
X0001800Y0118933D01*
X0004300Y0121433D01*
X0009300Y0121433D01*
X0011800Y0118933D01*
X0014300Y0121433D01*
X0019300Y0121433D01*
X0021800Y0118933D01*
X0024300Y0121433D01*
X0029300Y0121433D01*
X0031800Y0118933D01*
X0031800Y0113933D01*
X0021800Y0113933D02*
X0021800Y0118933D01*
X0011800Y0118933D02*
X0011800Y0113933D01*
X0025186Y0103933D02*
X0028414Y0103933D01*
X0028414Y0098933D02*
X0025186Y0098933D01*
X0025186Y0088933D02*
X0028414Y0088933D01*
X0028414Y0083933D02*
X0025186Y0083933D01*
X0025186Y0128933D02*
X0028414Y0128933D01*
X0028414Y0133933D02*
X0025186Y0133933D01*
X0025186Y0146433D02*
X0028414Y0146433D01*
X0028414Y0151433D02*
X0025186Y0151433D01*
X0034300Y0167319D02*
X0034300Y0170547D01*
X0039300Y0170547D02*
X0039300Y0167319D01*
X0044300Y0167319D02*
X0044300Y0170547D01*
X0049300Y0170547D02*
X0049300Y0167319D01*
X0035800Y0183933D02*
X0035803Y0184203D01*
X0035813Y0184473D01*
X0035830Y0184742D01*
X0035853Y0185011D01*
X0035883Y0185280D01*
X0035919Y0185547D01*
X0035962Y0185814D01*
X0036011Y0186079D01*
X0036067Y0186343D01*
X0036130Y0186606D01*
X0036198Y0186867D01*
X0036274Y0187126D01*
X0036355Y0187383D01*
X0036443Y0187639D01*
X0036537Y0187892D01*
X0036637Y0188143D01*
X0036744Y0188391D01*
X0036856Y0188636D01*
X0036975Y0188879D01*
X0037099Y0189118D01*
X0037229Y0189355D01*
X0037365Y0189588D01*
X0037507Y0189818D01*
X0037654Y0190044D01*
X0037807Y0190267D01*
X0037965Y0190486D01*
X0038128Y0190701D01*
X0038297Y0190911D01*
X0038471Y0191118D01*
X0038650Y0191320D01*
X0038833Y0191518D01*
X0039022Y0191711D01*
X0039215Y0191900D01*
X0039413Y0192083D01*
X0039615Y0192262D01*
X0039822Y0192436D01*
X0040032Y0192605D01*
X0040247Y0192768D01*
X0040466Y0192926D01*
X0040689Y0193079D01*
X0040915Y0193226D01*
X0041145Y0193368D01*
X0041378Y0193504D01*
X0041615Y0193634D01*
X0041854Y0193758D01*
X0042097Y0193877D01*
X0042342Y0193989D01*
X0042590Y0194096D01*
X0042841Y0194196D01*
X0043094Y0194290D01*
X0043350Y0194378D01*
X0043607Y0194459D01*
X0043866Y0194535D01*
X0044127Y0194603D01*
X0044390Y0194666D01*
X0044654Y0194722D01*
X0044919Y0194771D01*
X0045186Y0194814D01*
X0045453Y0194850D01*
X0045722Y0194880D01*
X0045991Y0194903D01*
X0046260Y0194920D01*
X0046530Y0194930D01*
X0046800Y0194933D01*
X0047070Y0194930D01*
X0047340Y0194920D01*
X0047609Y0194903D01*
X0047878Y0194880D01*
X0048147Y0194850D01*
X0048414Y0194814D01*
X0048681Y0194771D01*
X0048946Y0194722D01*
X0049210Y0194666D01*
X0049473Y0194603D01*
X0049734Y0194535D01*
X0049993Y0194459D01*
X0050250Y0194378D01*
X0050506Y0194290D01*
X0050759Y0194196D01*
X0051010Y0194096D01*
X0051258Y0193989D01*
X0051503Y0193877D01*
X0051746Y0193758D01*
X0051985Y0193634D01*
X0052222Y0193504D01*
X0052455Y0193368D01*
X0052685Y0193226D01*
X0052911Y0193079D01*
X0053134Y0192926D01*
X0053353Y0192768D01*
X0053568Y0192605D01*
X0053778Y0192436D01*
X0053985Y0192262D01*
X0054187Y0192083D01*
X0054385Y0191900D01*
X0054578Y0191711D01*
X0054767Y0191518D01*
X0054950Y0191320D01*
X0055129Y0191118D01*
X0055303Y0190911D01*
X0055472Y0190701D01*
X0055635Y0190486D01*
X0055793Y0190267D01*
X0055946Y0190044D01*
X0056093Y0189818D01*
X0056235Y0189588D01*
X0056371Y0189355D01*
X0056501Y0189118D01*
X0056625Y0188879D01*
X0056744Y0188636D01*
X0056856Y0188391D01*
X0056963Y0188143D01*
X0057063Y0187892D01*
X0057157Y0187639D01*
X0057245Y0187383D01*
X0057326Y0187126D01*
X0057402Y0186867D01*
X0057470Y0186606D01*
X0057533Y0186343D01*
X0057589Y0186079D01*
X0057638Y0185814D01*
X0057681Y0185547D01*
X0057717Y0185280D01*
X0057747Y0185011D01*
X0057770Y0184742D01*
X0057787Y0184473D01*
X0057797Y0184203D01*
X0057800Y0183933D01*
X0057797Y0183663D01*
X0057787Y0183393D01*
X0057770Y0183124D01*
X0057747Y0182855D01*
X0057717Y0182586D01*
X0057681Y0182319D01*
X0057638Y0182052D01*
X0057589Y0181787D01*
X0057533Y0181523D01*
X0057470Y0181260D01*
X0057402Y0180999D01*
X0057326Y0180740D01*
X0057245Y0180483D01*
X0057157Y0180227D01*
X0057063Y0179974D01*
X0056963Y0179723D01*
X0056856Y0179475D01*
X0056744Y0179230D01*
X0056625Y0178987D01*
X0056501Y0178748D01*
X0056371Y0178511D01*
X0056235Y0178278D01*
X0056093Y0178048D01*
X0055946Y0177822D01*
X0055793Y0177599D01*
X0055635Y0177380D01*
X0055472Y0177165D01*
X0055303Y0176955D01*
X0055129Y0176748D01*
X0054950Y0176546D01*
X0054767Y0176348D01*
X0054578Y0176155D01*
X0054385Y0175966D01*
X0054187Y0175783D01*
X0053985Y0175604D01*
X0053778Y0175430D01*
X0053568Y0175261D01*
X0053353Y0175098D01*
X0053134Y0174940D01*
X0052911Y0174787D01*
X0052685Y0174640D01*
X0052455Y0174498D01*
X0052222Y0174362D01*
X0051985Y0174232D01*
X0051746Y0174108D01*
X0051503Y0173989D01*
X0051258Y0173877D01*
X0051010Y0173770D01*
X0050759Y0173670D01*
X0050506Y0173576D01*
X0050250Y0173488D01*
X0049993Y0173407D01*
X0049734Y0173331D01*
X0049473Y0173263D01*
X0049210Y0173200D01*
X0048946Y0173144D01*
X0048681Y0173095D01*
X0048414Y0173052D01*
X0048147Y0173016D01*
X0047878Y0172986D01*
X0047609Y0172963D01*
X0047340Y0172946D01*
X0047070Y0172936D01*
X0046800Y0172933D01*
X0046530Y0172936D01*
X0046260Y0172946D01*
X0045991Y0172963D01*
X0045722Y0172986D01*
X0045453Y0173016D01*
X0045186Y0173052D01*
X0044919Y0173095D01*
X0044654Y0173144D01*
X0044390Y0173200D01*
X0044127Y0173263D01*
X0043866Y0173331D01*
X0043607Y0173407D01*
X0043350Y0173488D01*
X0043094Y0173576D01*
X0042841Y0173670D01*
X0042590Y0173770D01*
X0042342Y0173877D01*
X0042097Y0173989D01*
X0041854Y0174108D01*
X0041615Y0174232D01*
X0041378Y0174362D01*
X0041145Y0174498D01*
X0040915Y0174640D01*
X0040689Y0174787D01*
X0040466Y0174940D01*
X0040247Y0175098D01*
X0040032Y0175261D01*
X0039822Y0175430D01*
X0039615Y0175604D01*
X0039413Y0175783D01*
X0039215Y0175966D01*
X0039022Y0176155D01*
X0038833Y0176348D01*
X0038650Y0176546D01*
X0038471Y0176748D01*
X0038297Y0176955D01*
X0038128Y0177165D01*
X0037965Y0177380D01*
X0037807Y0177599D01*
X0037654Y0177822D01*
X0037507Y0178048D01*
X0037365Y0178278D01*
X0037229Y0178511D01*
X0037099Y0178748D01*
X0036975Y0178987D01*
X0036856Y0179230D01*
X0036744Y0179475D01*
X0036637Y0179723D01*
X0036537Y0179974D01*
X0036443Y0180227D01*
X0036355Y0180483D01*
X0036274Y0180740D01*
X0036198Y0180999D01*
X0036130Y0181260D01*
X0036067Y0181523D01*
X0036011Y0181787D01*
X0035962Y0182052D01*
X0035919Y0182319D01*
X0035883Y0182586D01*
X0035853Y0182855D01*
X0035830Y0183124D01*
X0035813Y0183393D01*
X0035803Y0183663D01*
X0035800Y0183933D01*
X0040300Y0187433D02*
X0040300Y0188933D01*
X0040300Y0190433D01*
X0040300Y0188933D02*
X0038800Y0188933D01*
X0040300Y0188933D02*
X0041800Y0188933D01*
X0215186Y0178933D02*
X0218414Y0178933D01*
X0218414Y0173933D02*
X0215186Y0173933D01*
X0223300Y0183933D02*
X0223303Y0184203D01*
X0223313Y0184473D01*
X0223330Y0184742D01*
X0223353Y0185011D01*
X0223383Y0185280D01*
X0223419Y0185547D01*
X0223462Y0185814D01*
X0223511Y0186079D01*
X0223567Y0186343D01*
X0223630Y0186606D01*
X0223698Y0186867D01*
X0223774Y0187126D01*
X0223855Y0187383D01*
X0223943Y0187639D01*
X0224037Y0187892D01*
X0224137Y0188143D01*
X0224244Y0188391D01*
X0224356Y0188636D01*
X0224475Y0188879D01*
X0224599Y0189118D01*
X0224729Y0189355D01*
X0224865Y0189588D01*
X0225007Y0189818D01*
X0225154Y0190044D01*
X0225307Y0190267D01*
X0225465Y0190486D01*
X0225628Y0190701D01*
X0225797Y0190911D01*
X0225971Y0191118D01*
X0226150Y0191320D01*
X0226333Y0191518D01*
X0226522Y0191711D01*
X0226715Y0191900D01*
X0226913Y0192083D01*
X0227115Y0192262D01*
X0227322Y0192436D01*
X0227532Y0192605D01*
X0227747Y0192768D01*
X0227966Y0192926D01*
X0228189Y0193079D01*
X0228415Y0193226D01*
X0228645Y0193368D01*
X0228878Y0193504D01*
X0229115Y0193634D01*
X0229354Y0193758D01*
X0229597Y0193877D01*
X0229842Y0193989D01*
X0230090Y0194096D01*
X0230341Y0194196D01*
X0230594Y0194290D01*
X0230850Y0194378D01*
X0231107Y0194459D01*
X0231366Y0194535D01*
X0231627Y0194603D01*
X0231890Y0194666D01*
X0232154Y0194722D01*
X0232419Y0194771D01*
X0232686Y0194814D01*
X0232953Y0194850D01*
X0233222Y0194880D01*
X0233491Y0194903D01*
X0233760Y0194920D01*
X0234030Y0194930D01*
X0234300Y0194933D01*
X0234570Y0194930D01*
X0234840Y0194920D01*
X0235109Y0194903D01*
X0235378Y0194880D01*
X0235647Y0194850D01*
X0235914Y0194814D01*
X0236181Y0194771D01*
X0236446Y0194722D01*
X0236710Y0194666D01*
X0236973Y0194603D01*
X0237234Y0194535D01*
X0237493Y0194459D01*
X0237750Y0194378D01*
X0238006Y0194290D01*
X0238259Y0194196D01*
X0238510Y0194096D01*
X0238758Y0193989D01*
X0239003Y0193877D01*
X0239246Y0193758D01*
X0239485Y0193634D01*
X0239722Y0193504D01*
X0239955Y0193368D01*
X0240185Y0193226D01*
X0240411Y0193079D01*
X0240634Y0192926D01*
X0240853Y0192768D01*
X0241068Y0192605D01*
X0241278Y0192436D01*
X0241485Y0192262D01*
X0241687Y0192083D01*
X0241885Y0191900D01*
X0242078Y0191711D01*
X0242267Y0191518D01*
X0242450Y0191320D01*
X0242629Y0191118D01*
X0242803Y0190911D01*
X0242972Y0190701D01*
X0243135Y0190486D01*
X0243293Y0190267D01*
X0243446Y0190044D01*
X0243593Y0189818D01*
X0243735Y0189588D01*
X0243871Y0189355D01*
X0244001Y0189118D01*
X0244125Y0188879D01*
X0244244Y0188636D01*
X0244356Y0188391D01*
X0244463Y0188143D01*
X0244563Y0187892D01*
X0244657Y0187639D01*
X0244745Y0187383D01*
X0244826Y0187126D01*
X0244902Y0186867D01*
X0244970Y0186606D01*
X0245033Y0186343D01*
X0245089Y0186079D01*
X0245138Y0185814D01*
X0245181Y0185547D01*
X0245217Y0185280D01*
X0245247Y0185011D01*
X0245270Y0184742D01*
X0245287Y0184473D01*
X0245297Y0184203D01*
X0245300Y0183933D01*
X0245297Y0183663D01*
X0245287Y0183393D01*
X0245270Y0183124D01*
X0245247Y0182855D01*
X0245217Y0182586D01*
X0245181Y0182319D01*
X0245138Y0182052D01*
X0245089Y0181787D01*
X0245033Y0181523D01*
X0244970Y0181260D01*
X0244902Y0180999D01*
X0244826Y0180740D01*
X0244745Y0180483D01*
X0244657Y0180227D01*
X0244563Y0179974D01*
X0244463Y0179723D01*
X0244356Y0179475D01*
X0244244Y0179230D01*
X0244125Y0178987D01*
X0244001Y0178748D01*
X0243871Y0178511D01*
X0243735Y0178278D01*
X0243593Y0178048D01*
X0243446Y0177822D01*
X0243293Y0177599D01*
X0243135Y0177380D01*
X0242972Y0177165D01*
X0242803Y0176955D01*
X0242629Y0176748D01*
X0242450Y0176546D01*
X0242267Y0176348D01*
X0242078Y0176155D01*
X0241885Y0175966D01*
X0241687Y0175783D01*
X0241485Y0175604D01*
X0241278Y0175430D01*
X0241068Y0175261D01*
X0240853Y0175098D01*
X0240634Y0174940D01*
X0240411Y0174787D01*
X0240185Y0174640D01*
X0239955Y0174498D01*
X0239722Y0174362D01*
X0239485Y0174232D01*
X0239246Y0174108D01*
X0239003Y0173989D01*
X0238758Y0173877D01*
X0238510Y0173770D01*
X0238259Y0173670D01*
X0238006Y0173576D01*
X0237750Y0173488D01*
X0237493Y0173407D01*
X0237234Y0173331D01*
X0236973Y0173263D01*
X0236710Y0173200D01*
X0236446Y0173144D01*
X0236181Y0173095D01*
X0235914Y0173052D01*
X0235647Y0173016D01*
X0235378Y0172986D01*
X0235109Y0172963D01*
X0234840Y0172946D01*
X0234570Y0172936D01*
X0234300Y0172933D01*
X0234030Y0172936D01*
X0233760Y0172946D01*
X0233491Y0172963D01*
X0233222Y0172986D01*
X0232953Y0173016D01*
X0232686Y0173052D01*
X0232419Y0173095D01*
X0232154Y0173144D01*
X0231890Y0173200D01*
X0231627Y0173263D01*
X0231366Y0173331D01*
X0231107Y0173407D01*
X0230850Y0173488D01*
X0230594Y0173576D01*
X0230341Y0173670D01*
X0230090Y0173770D01*
X0229842Y0173877D01*
X0229597Y0173989D01*
X0229354Y0174108D01*
X0229115Y0174232D01*
X0228878Y0174362D01*
X0228645Y0174498D01*
X0228415Y0174640D01*
X0228189Y0174787D01*
X0227966Y0174940D01*
X0227747Y0175098D01*
X0227532Y0175261D01*
X0227322Y0175430D01*
X0227115Y0175604D01*
X0226913Y0175783D01*
X0226715Y0175966D01*
X0226522Y0176155D01*
X0226333Y0176348D01*
X0226150Y0176546D01*
X0225971Y0176748D01*
X0225797Y0176955D01*
X0225628Y0177165D01*
X0225465Y0177380D01*
X0225307Y0177599D01*
X0225154Y0177822D01*
X0225007Y0178048D01*
X0224865Y0178278D01*
X0224729Y0178511D01*
X0224599Y0178748D01*
X0224475Y0178987D01*
X0224356Y0179230D01*
X0224244Y0179475D01*
X0224137Y0179723D01*
X0224037Y0179974D01*
X0223943Y0180227D01*
X0223855Y0180483D01*
X0223774Y0180740D01*
X0223698Y0180999D01*
X0223630Y0181260D01*
X0223567Y0181523D01*
X0223511Y0181787D01*
X0223462Y0182052D01*
X0223419Y0182319D01*
X0223383Y0182586D01*
X0223353Y0182855D01*
X0223330Y0183124D01*
X0223313Y0183393D01*
X0223303Y0183663D01*
X0223300Y0183933D01*
X0239300Y0178933D02*
X0240800Y0178933D01*
X0240800Y0177433D01*
X0240800Y0178933D02*
X0240800Y0180433D01*
X0240800Y0178933D02*
X0242300Y0178933D01*
X0290186Y0151433D02*
X0293414Y0151433D01*
X0293414Y0146433D02*
X0290186Y0146433D01*
X0315186Y0146433D02*
X0318414Y0146433D01*
X0318414Y0151433D02*
X0315186Y0151433D01*
X0344300Y0167319D02*
X0344300Y0170547D01*
X0349300Y0170547D02*
X0349300Y0167319D01*
X0354300Y0167319D02*
X0354300Y0170547D01*
X0359300Y0170547D02*
X0359300Y0167319D01*
X0355800Y0177433D02*
X0355800Y0178933D01*
X0354300Y0178933D01*
X0355800Y0178933D02*
X0355800Y0180433D01*
X0355800Y0178933D02*
X0357300Y0178933D01*
X0338300Y0183933D02*
X0338303Y0184203D01*
X0338313Y0184473D01*
X0338330Y0184742D01*
X0338353Y0185011D01*
X0338383Y0185280D01*
X0338419Y0185547D01*
X0338462Y0185814D01*
X0338511Y0186079D01*
X0338567Y0186343D01*
X0338630Y0186606D01*
X0338698Y0186867D01*
X0338774Y0187126D01*
X0338855Y0187383D01*
X0338943Y0187639D01*
X0339037Y0187892D01*
X0339137Y0188143D01*
X0339244Y0188391D01*
X0339356Y0188636D01*
X0339475Y0188879D01*
X0339599Y0189118D01*
X0339729Y0189355D01*
X0339865Y0189588D01*
X0340007Y0189818D01*
X0340154Y0190044D01*
X0340307Y0190267D01*
X0340465Y0190486D01*
X0340628Y0190701D01*
X0340797Y0190911D01*
X0340971Y0191118D01*
X0341150Y0191320D01*
X0341333Y0191518D01*
X0341522Y0191711D01*
X0341715Y0191900D01*
X0341913Y0192083D01*
X0342115Y0192262D01*
X0342322Y0192436D01*
X0342532Y0192605D01*
X0342747Y0192768D01*
X0342966Y0192926D01*
X0343189Y0193079D01*
X0343415Y0193226D01*
X0343645Y0193368D01*
X0343878Y0193504D01*
X0344115Y0193634D01*
X0344354Y0193758D01*
X0344597Y0193877D01*
X0344842Y0193989D01*
X0345090Y0194096D01*
X0345341Y0194196D01*
X0345594Y0194290D01*
X0345850Y0194378D01*
X0346107Y0194459D01*
X0346366Y0194535D01*
X0346627Y0194603D01*
X0346890Y0194666D01*
X0347154Y0194722D01*
X0347419Y0194771D01*
X0347686Y0194814D01*
X0347953Y0194850D01*
X0348222Y0194880D01*
X0348491Y0194903D01*
X0348760Y0194920D01*
X0349030Y0194930D01*
X0349300Y0194933D01*
X0349570Y0194930D01*
X0349840Y0194920D01*
X0350109Y0194903D01*
X0350378Y0194880D01*
X0350647Y0194850D01*
X0350914Y0194814D01*
X0351181Y0194771D01*
X0351446Y0194722D01*
X0351710Y0194666D01*
X0351973Y0194603D01*
X0352234Y0194535D01*
X0352493Y0194459D01*
X0352750Y0194378D01*
X0353006Y0194290D01*
X0353259Y0194196D01*
X0353510Y0194096D01*
X0353758Y0193989D01*
X0354003Y0193877D01*
X0354246Y0193758D01*
X0354485Y0193634D01*
X0354722Y0193504D01*
X0354955Y0193368D01*
X0355185Y0193226D01*
X0355411Y0193079D01*
X0355634Y0192926D01*
X0355853Y0192768D01*
X0356068Y0192605D01*
X0356278Y0192436D01*
X0356485Y0192262D01*
X0356687Y0192083D01*
X0356885Y0191900D01*
X0357078Y0191711D01*
X0357267Y0191518D01*
X0357450Y0191320D01*
X0357629Y0191118D01*
X0357803Y0190911D01*
X0357972Y0190701D01*
X0358135Y0190486D01*
X0358293Y0190267D01*
X0358446Y0190044D01*
X0358593Y0189818D01*
X0358735Y0189588D01*
X0358871Y0189355D01*
X0359001Y0189118D01*
X0359125Y0188879D01*
X0359244Y0188636D01*
X0359356Y0188391D01*
X0359463Y0188143D01*
X0359563Y0187892D01*
X0359657Y0187639D01*
X0359745Y0187383D01*
X0359826Y0187126D01*
X0359902Y0186867D01*
X0359970Y0186606D01*
X0360033Y0186343D01*
X0360089Y0186079D01*
X0360138Y0185814D01*
X0360181Y0185547D01*
X0360217Y0185280D01*
X0360247Y0185011D01*
X0360270Y0184742D01*
X0360287Y0184473D01*
X0360297Y0184203D01*
X0360300Y0183933D01*
X0360297Y0183663D01*
X0360287Y0183393D01*
X0360270Y0183124D01*
X0360247Y0182855D01*
X0360217Y0182586D01*
X0360181Y0182319D01*
X0360138Y0182052D01*
X0360089Y0181787D01*
X0360033Y0181523D01*
X0359970Y0181260D01*
X0359902Y0180999D01*
X0359826Y0180740D01*
X0359745Y0180483D01*
X0359657Y0180227D01*
X0359563Y0179974D01*
X0359463Y0179723D01*
X0359356Y0179475D01*
X0359244Y0179230D01*
X0359125Y0178987D01*
X0359001Y0178748D01*
X0358871Y0178511D01*
X0358735Y0178278D01*
X0358593Y0178048D01*
X0358446Y0177822D01*
X0358293Y0177599D01*
X0358135Y0177380D01*
X0357972Y0177165D01*
X0357803Y0176955D01*
X0357629Y0176748D01*
X0357450Y0176546D01*
X0357267Y0176348D01*
X0357078Y0176155D01*
X0356885Y0175966D01*
X0356687Y0175783D01*
X0356485Y0175604D01*
X0356278Y0175430D01*
X0356068Y0175261D01*
X0355853Y0175098D01*
X0355634Y0174940D01*
X0355411Y0174787D01*
X0355185Y0174640D01*
X0354955Y0174498D01*
X0354722Y0174362D01*
X0354485Y0174232D01*
X0354246Y0174108D01*
X0354003Y0173989D01*
X0353758Y0173877D01*
X0353510Y0173770D01*
X0353259Y0173670D01*
X0353006Y0173576D01*
X0352750Y0173488D01*
X0352493Y0173407D01*
X0352234Y0173331D01*
X0351973Y0173263D01*
X0351710Y0173200D01*
X0351446Y0173144D01*
X0351181Y0173095D01*
X0350914Y0173052D01*
X0350647Y0173016D01*
X0350378Y0172986D01*
X0350109Y0172963D01*
X0349840Y0172946D01*
X0349570Y0172936D01*
X0349300Y0172933D01*
X0349030Y0172936D01*
X0348760Y0172946D01*
X0348491Y0172963D01*
X0348222Y0172986D01*
X0347953Y0173016D01*
X0347686Y0173052D01*
X0347419Y0173095D01*
X0347154Y0173144D01*
X0346890Y0173200D01*
X0346627Y0173263D01*
X0346366Y0173331D01*
X0346107Y0173407D01*
X0345850Y0173488D01*
X0345594Y0173576D01*
X0345341Y0173670D01*
X0345090Y0173770D01*
X0344842Y0173877D01*
X0344597Y0173989D01*
X0344354Y0174108D01*
X0344115Y0174232D01*
X0343878Y0174362D01*
X0343645Y0174498D01*
X0343415Y0174640D01*
X0343189Y0174787D01*
X0342966Y0174940D01*
X0342747Y0175098D01*
X0342532Y0175261D01*
X0342322Y0175430D01*
X0342115Y0175604D01*
X0341913Y0175783D01*
X0341715Y0175966D01*
X0341522Y0176155D01*
X0341333Y0176348D01*
X0341150Y0176546D01*
X0340971Y0176748D01*
X0340797Y0176955D01*
X0340628Y0177165D01*
X0340465Y0177380D01*
X0340307Y0177599D01*
X0340154Y0177822D01*
X0340007Y0178048D01*
X0339865Y0178278D01*
X0339729Y0178511D01*
X0339599Y0178748D01*
X0339475Y0178987D01*
X0339356Y0179230D01*
X0339244Y0179475D01*
X0339137Y0179723D01*
X0339037Y0179974D01*
X0338943Y0180227D01*
X0338855Y0180483D01*
X0338774Y0180740D01*
X0338698Y0180999D01*
X0338630Y0181260D01*
X0338567Y0181523D01*
X0338511Y0181787D01*
X0338462Y0182052D01*
X0338419Y0182319D01*
X0338383Y0182586D01*
X0338353Y0182855D01*
X0338330Y0183124D01*
X0338313Y0183393D01*
X0338303Y0183663D01*
X0338300Y0183933D01*
X0326800Y0190233D02*
X0326800Y0194433D01*
X0326800Y0198433D01*
X0326800Y0202633D01*
X0326800Y0202733D02*
X0291800Y0202733D01*
X0291800Y0202633D02*
X0291800Y0190233D01*
X0291802Y0190157D01*
X0291808Y0190081D01*
X0291817Y0190006D01*
X0291831Y0189931D01*
X0291848Y0189857D01*
X0291869Y0189784D01*
X0291893Y0189712D01*
X0291922Y0189641D01*
X0291953Y0189572D01*
X0291988Y0189505D01*
X0292027Y0189440D01*
X0292069Y0189376D01*
X0292114Y0189315D01*
X0292162Y0189256D01*
X0292213Y0189200D01*
X0292267Y0189146D01*
X0292323Y0189095D01*
X0292382Y0189047D01*
X0292443Y0189002D01*
X0292507Y0188960D01*
X0292572Y0188921D01*
X0292639Y0188886D01*
X0292708Y0188855D01*
X0292779Y0188826D01*
X0292851Y0188802D01*
X0292924Y0188781D01*
X0292998Y0188764D01*
X0293073Y0188750D01*
X0293148Y0188741D01*
X0293224Y0188735D01*
X0293300Y0188733D01*
X0325300Y0188733D01*
X0325376Y0188735D01*
X0325452Y0188741D01*
X0325527Y0188750D01*
X0325602Y0188764D01*
X0325676Y0188781D01*
X0325749Y0188802D01*
X0325821Y0188826D01*
X0325892Y0188855D01*
X0325961Y0188886D01*
X0326028Y0188921D01*
X0326093Y0188960D01*
X0326157Y0189002D01*
X0326218Y0189047D01*
X0326277Y0189095D01*
X0326333Y0189146D01*
X0326387Y0189200D01*
X0326438Y0189256D01*
X0326486Y0189315D01*
X0326531Y0189376D01*
X0326573Y0189440D01*
X0326612Y0189505D01*
X0326647Y0189572D01*
X0326678Y0189641D01*
X0326707Y0189712D01*
X0326731Y0189784D01*
X0326752Y0189857D01*
X0326769Y0189931D01*
X0326783Y0190006D01*
X0326792Y0190081D01*
X0326798Y0190157D01*
X0326800Y0190233D01*
X0326800Y0194433D02*
X0326712Y0194435D01*
X0326623Y0194441D01*
X0326535Y0194451D01*
X0326448Y0194464D01*
X0326361Y0194482D01*
X0326275Y0194503D01*
X0326190Y0194528D01*
X0326107Y0194557D01*
X0326024Y0194590D01*
X0325944Y0194626D01*
X0325865Y0194665D01*
X0325787Y0194708D01*
X0325712Y0194755D01*
X0325639Y0194805D01*
X0325568Y0194858D01*
X0325499Y0194914D01*
X0325433Y0194973D01*
X0325370Y0195035D01*
X0325310Y0195099D01*
X0325252Y0195166D01*
X0325198Y0195236D01*
X0325146Y0195308D01*
X0325098Y0195382D01*
X0325053Y0195459D01*
X0325012Y0195537D01*
X0324974Y0195617D01*
X0324940Y0195698D01*
X0324909Y0195781D01*
X0324882Y0195866D01*
X0324859Y0195951D01*
X0324840Y0196037D01*
X0324824Y0196125D01*
X0324812Y0196212D01*
X0324804Y0196300D01*
X0324800Y0196389D01*
X0324800Y0196477D01*
X0324804Y0196566D01*
X0324812Y0196654D01*
X0324824Y0196741D01*
X0324840Y0196829D01*
X0324859Y0196915D01*
X0324882Y0197000D01*
X0324909Y0197085D01*
X0324940Y0197168D01*
X0324974Y0197249D01*
X0325012Y0197329D01*
X0325053Y0197407D01*
X0325098Y0197484D01*
X0325146Y0197558D01*
X0325198Y0197630D01*
X0325252Y0197700D01*
X0325310Y0197767D01*
X0325370Y0197831D01*
X0325433Y0197893D01*
X0325499Y0197952D01*
X0325568Y0198008D01*
X0325639Y0198061D01*
X0325712Y0198111D01*
X0325787Y0198158D01*
X0325865Y0198201D01*
X0325944Y0198240D01*
X0326024Y0198276D01*
X0326107Y0198309D01*
X0326190Y0198338D01*
X0326275Y0198363D01*
X0326361Y0198384D01*
X0326448Y0198402D01*
X0326535Y0198415D01*
X0326623Y0198425D01*
X0326712Y0198431D01*
X0326800Y0198433D01*
X0326800Y0202633D02*
X0326798Y0202709D01*
X0326792Y0202785D01*
X0326783Y0202860D01*
X0326769Y0202935D01*
X0326752Y0203009D01*
X0326731Y0203082D01*
X0326707Y0203154D01*
X0326678Y0203225D01*
X0326647Y0203294D01*
X0326612Y0203361D01*
X0326573Y0203426D01*
X0326531Y0203490D01*
X0326486Y0203551D01*
X0326438Y0203610D01*
X0326387Y0203666D01*
X0326333Y0203720D01*
X0326277Y0203771D01*
X0326218Y0203819D01*
X0326157Y0203864D01*
X0326093Y0203906D01*
X0326028Y0203945D01*
X0325961Y0203980D01*
X0325892Y0204011D01*
X0325821Y0204040D01*
X0325749Y0204064D01*
X0325676Y0204085D01*
X0325602Y0204102D01*
X0325527Y0204116D01*
X0325452Y0204125D01*
X0325376Y0204131D01*
X0325300Y0204133D01*
X0293300Y0204133D01*
X0293224Y0204131D01*
X0293148Y0204125D01*
X0293073Y0204116D01*
X0292998Y0204102D01*
X0292924Y0204085D01*
X0292851Y0204064D01*
X0292779Y0204040D01*
X0292708Y0204011D01*
X0292639Y0203980D01*
X0292572Y0203945D01*
X0292507Y0203906D01*
X0292443Y0203864D01*
X0292382Y0203819D01*
X0292323Y0203771D01*
X0292267Y0203720D01*
X0292213Y0203666D01*
X0292162Y0203610D01*
X0292114Y0203551D01*
X0292069Y0203490D01*
X0292027Y0203426D01*
X0291988Y0203361D01*
X0291953Y0203294D01*
X0291922Y0203225D01*
X0291893Y0203154D01*
X0291869Y0203082D01*
X0291848Y0203009D01*
X0291831Y0202935D01*
X0291817Y0202860D01*
X0291808Y0202785D01*
X0291802Y0202709D01*
X0291800Y0202633D01*
X0317686Y0216433D02*
X0320914Y0216433D01*
X0320914Y0221433D02*
X0317686Y0221433D01*
X0302400Y0218833D02*
X0291200Y0218833D01*
X0291200Y0224033D01*
X0302400Y0224033D01*
X0302400Y0218833D01*
X0344300Y0222319D02*
X0344300Y0225547D01*
X0349300Y0225547D02*
X0349300Y0222319D01*
X0354300Y0222319D02*
X0354300Y0225547D01*
X0359300Y0225547D02*
X0359300Y0222319D01*
X0338300Y0208933D02*
X0338303Y0209203D01*
X0338313Y0209473D01*
X0338330Y0209742D01*
X0338353Y0210011D01*
X0338383Y0210280D01*
X0338419Y0210547D01*
X0338462Y0210814D01*
X0338511Y0211079D01*
X0338567Y0211343D01*
X0338630Y0211606D01*
X0338698Y0211867D01*
X0338774Y0212126D01*
X0338855Y0212383D01*
X0338943Y0212639D01*
X0339037Y0212892D01*
X0339137Y0213143D01*
X0339244Y0213391D01*
X0339356Y0213636D01*
X0339475Y0213879D01*
X0339599Y0214118D01*
X0339729Y0214355D01*
X0339865Y0214588D01*
X0340007Y0214818D01*
X0340154Y0215044D01*
X0340307Y0215267D01*
X0340465Y0215486D01*
X0340628Y0215701D01*
X0340797Y0215911D01*
X0340971Y0216118D01*
X0341150Y0216320D01*
X0341333Y0216518D01*
X0341522Y0216711D01*
X0341715Y0216900D01*
X0341913Y0217083D01*
X0342115Y0217262D01*
X0342322Y0217436D01*
X0342532Y0217605D01*
X0342747Y0217768D01*
X0342966Y0217926D01*
X0343189Y0218079D01*
X0343415Y0218226D01*
X0343645Y0218368D01*
X0343878Y0218504D01*
X0344115Y0218634D01*
X0344354Y0218758D01*
X0344597Y0218877D01*
X0344842Y0218989D01*
X0345090Y0219096D01*
X0345341Y0219196D01*
X0345594Y0219290D01*
X0345850Y0219378D01*
X0346107Y0219459D01*
X0346366Y0219535D01*
X0346627Y0219603D01*
X0346890Y0219666D01*
X0347154Y0219722D01*
X0347419Y0219771D01*
X0347686Y0219814D01*
X0347953Y0219850D01*
X0348222Y0219880D01*
X0348491Y0219903D01*
X0348760Y0219920D01*
X0349030Y0219930D01*
X0349300Y0219933D01*
X0349570Y0219930D01*
X0349840Y0219920D01*
X0350109Y0219903D01*
X0350378Y0219880D01*
X0350647Y0219850D01*
X0350914Y0219814D01*
X0351181Y0219771D01*
X0351446Y0219722D01*
X0351710Y0219666D01*
X0351973Y0219603D01*
X0352234Y0219535D01*
X0352493Y0219459D01*
X0352750Y0219378D01*
X0353006Y0219290D01*
X0353259Y0219196D01*
X0353510Y0219096D01*
X0353758Y0218989D01*
X0354003Y0218877D01*
X0354246Y0218758D01*
X0354485Y0218634D01*
X0354722Y0218504D01*
X0354955Y0218368D01*
X0355185Y0218226D01*
X0355411Y0218079D01*
X0355634Y0217926D01*
X0355853Y0217768D01*
X0356068Y0217605D01*
X0356278Y0217436D01*
X0356485Y0217262D01*
X0356687Y0217083D01*
X0356885Y0216900D01*
X0357078Y0216711D01*
X0357267Y0216518D01*
X0357450Y0216320D01*
X0357629Y0216118D01*
X0357803Y0215911D01*
X0357972Y0215701D01*
X0358135Y0215486D01*
X0358293Y0215267D01*
X0358446Y0215044D01*
X0358593Y0214818D01*
X0358735Y0214588D01*
X0358871Y0214355D01*
X0359001Y0214118D01*
X0359125Y0213879D01*
X0359244Y0213636D01*
X0359356Y0213391D01*
X0359463Y0213143D01*
X0359563Y0212892D01*
X0359657Y0212639D01*
X0359745Y0212383D01*
X0359826Y0212126D01*
X0359902Y0211867D01*
X0359970Y0211606D01*
X0360033Y0211343D01*
X0360089Y0211079D01*
X0360138Y0210814D01*
X0360181Y0210547D01*
X0360217Y0210280D01*
X0360247Y0210011D01*
X0360270Y0209742D01*
X0360287Y0209473D01*
X0360297Y0209203D01*
X0360300Y0208933D01*
X0360297Y0208663D01*
X0360287Y0208393D01*
X0360270Y0208124D01*
X0360247Y0207855D01*
X0360217Y0207586D01*
X0360181Y0207319D01*
X0360138Y0207052D01*
X0360089Y0206787D01*
X0360033Y0206523D01*
X0359970Y0206260D01*
X0359902Y0205999D01*
X0359826Y0205740D01*
X0359745Y0205483D01*
X0359657Y0205227D01*
X0359563Y0204974D01*
X0359463Y0204723D01*
X0359356Y0204475D01*
X0359244Y0204230D01*
X0359125Y0203987D01*
X0359001Y0203748D01*
X0358871Y0203511D01*
X0358735Y0203278D01*
X0358593Y0203048D01*
X0358446Y0202822D01*
X0358293Y0202599D01*
X0358135Y0202380D01*
X0357972Y0202165D01*
X0357803Y0201955D01*
X0357629Y0201748D01*
X0357450Y0201546D01*
X0357267Y0201348D01*
X0357078Y0201155D01*
X0356885Y0200966D01*
X0356687Y0200783D01*
X0356485Y0200604D01*
X0356278Y0200430D01*
X0356068Y0200261D01*
X0355853Y0200098D01*
X0355634Y0199940D01*
X0355411Y0199787D01*
X0355185Y0199640D01*
X0354955Y0199498D01*
X0354722Y0199362D01*
X0354485Y0199232D01*
X0354246Y0199108D01*
X0354003Y0198989D01*
X0353758Y0198877D01*
X0353510Y0198770D01*
X0353259Y0198670D01*
X0353006Y0198576D01*
X0352750Y0198488D01*
X0352493Y0198407D01*
X0352234Y0198331D01*
X0351973Y0198263D01*
X0351710Y0198200D01*
X0351446Y0198144D01*
X0351181Y0198095D01*
X0350914Y0198052D01*
X0350647Y0198016D01*
X0350378Y0197986D01*
X0350109Y0197963D01*
X0349840Y0197946D01*
X0349570Y0197936D01*
X0349300Y0197933D01*
X0349030Y0197936D01*
X0348760Y0197946D01*
X0348491Y0197963D01*
X0348222Y0197986D01*
X0347953Y0198016D01*
X0347686Y0198052D01*
X0347419Y0198095D01*
X0347154Y0198144D01*
X0346890Y0198200D01*
X0346627Y0198263D01*
X0346366Y0198331D01*
X0346107Y0198407D01*
X0345850Y0198488D01*
X0345594Y0198576D01*
X0345341Y0198670D01*
X0345090Y0198770D01*
X0344842Y0198877D01*
X0344597Y0198989D01*
X0344354Y0199108D01*
X0344115Y0199232D01*
X0343878Y0199362D01*
X0343645Y0199498D01*
X0343415Y0199640D01*
X0343189Y0199787D01*
X0342966Y0199940D01*
X0342747Y0200098D01*
X0342532Y0200261D01*
X0342322Y0200430D01*
X0342115Y0200604D01*
X0341913Y0200783D01*
X0341715Y0200966D01*
X0341522Y0201155D01*
X0341333Y0201348D01*
X0341150Y0201546D01*
X0340971Y0201748D01*
X0340797Y0201955D01*
X0340628Y0202165D01*
X0340465Y0202380D01*
X0340307Y0202599D01*
X0340154Y0202822D01*
X0340007Y0203048D01*
X0339865Y0203278D01*
X0339729Y0203511D01*
X0339599Y0203748D01*
X0339475Y0203987D01*
X0339356Y0204230D01*
X0339244Y0204475D01*
X0339137Y0204723D01*
X0339037Y0204974D01*
X0338943Y0205227D01*
X0338855Y0205483D01*
X0338774Y0205740D01*
X0338698Y0205999D01*
X0338630Y0206260D01*
X0338567Y0206523D01*
X0338511Y0206787D01*
X0338462Y0207052D01*
X0338419Y0207319D01*
X0338383Y0207586D01*
X0338353Y0207855D01*
X0338330Y0208124D01*
X0338313Y0208393D01*
X0338303Y0208663D01*
X0338300Y0208933D01*
X0354300Y0203933D02*
X0355800Y0203933D01*
X0355800Y0202433D01*
X0355800Y0203933D02*
X0355800Y0205433D01*
X0355800Y0203933D02*
X0357300Y0203933D01*
X0320914Y0176433D02*
X0317686Y0176433D01*
X0317686Y0171433D02*
X0320914Y0171433D01*
X0304900Y0170083D02*
X0293700Y0170083D01*
X0293700Y0175283D01*
X0304900Y0175283D01*
X0304900Y0170083D01*
X0370186Y0148933D02*
X0373414Y0148933D01*
X0373414Y0143933D02*
X0370186Y0143933D01*
X0371800Y0121433D02*
X0366800Y0121433D01*
X0364300Y0118933D01*
X0364300Y0113933D01*
X0366800Y0111433D01*
X0371800Y0111433D01*
X0374300Y0113933D01*
X0376800Y0111433D01*
X0381800Y0111433D01*
X0384300Y0113933D01*
X0386800Y0111433D01*
X0391800Y0111433D01*
X0394300Y0113933D01*
X0394300Y0118933D01*
X0391800Y0121433D01*
X0386800Y0121433D01*
X0384300Y0118933D01*
X0384300Y0113933D01*
X0384300Y0118933D02*
X0381800Y0121433D01*
X0376800Y0121433D01*
X0374300Y0118933D01*
X0374300Y0113933D01*
X0374300Y0118933D02*
X0371800Y0121433D01*
X0370186Y0088933D02*
X0373414Y0088933D01*
X0373414Y0083933D02*
X0370186Y0083933D01*
X0223300Y0208933D02*
X0223303Y0209203D01*
X0223313Y0209473D01*
X0223330Y0209742D01*
X0223353Y0210011D01*
X0223383Y0210280D01*
X0223419Y0210547D01*
X0223462Y0210814D01*
X0223511Y0211079D01*
X0223567Y0211343D01*
X0223630Y0211606D01*
X0223698Y0211867D01*
X0223774Y0212126D01*
X0223855Y0212383D01*
X0223943Y0212639D01*
X0224037Y0212892D01*
X0224137Y0213143D01*
X0224244Y0213391D01*
X0224356Y0213636D01*
X0224475Y0213879D01*
X0224599Y0214118D01*
X0224729Y0214355D01*
X0224865Y0214588D01*
X0225007Y0214818D01*
X0225154Y0215044D01*
X0225307Y0215267D01*
X0225465Y0215486D01*
X0225628Y0215701D01*
X0225797Y0215911D01*
X0225971Y0216118D01*
X0226150Y0216320D01*
X0226333Y0216518D01*
X0226522Y0216711D01*
X0226715Y0216900D01*
X0226913Y0217083D01*
X0227115Y0217262D01*
X0227322Y0217436D01*
X0227532Y0217605D01*
X0227747Y0217768D01*
X0227966Y0217926D01*
X0228189Y0218079D01*
X0228415Y0218226D01*
X0228645Y0218368D01*
X0228878Y0218504D01*
X0229115Y0218634D01*
X0229354Y0218758D01*
X0229597Y0218877D01*
X0229842Y0218989D01*
X0230090Y0219096D01*
X0230341Y0219196D01*
X0230594Y0219290D01*
X0230850Y0219378D01*
X0231107Y0219459D01*
X0231366Y0219535D01*
X0231627Y0219603D01*
X0231890Y0219666D01*
X0232154Y0219722D01*
X0232419Y0219771D01*
X0232686Y0219814D01*
X0232953Y0219850D01*
X0233222Y0219880D01*
X0233491Y0219903D01*
X0233760Y0219920D01*
X0234030Y0219930D01*
X0234300Y0219933D01*
X0234570Y0219930D01*
X0234840Y0219920D01*
X0235109Y0219903D01*
X0235378Y0219880D01*
X0235647Y0219850D01*
X0235914Y0219814D01*
X0236181Y0219771D01*
X0236446Y0219722D01*
X0236710Y0219666D01*
X0236973Y0219603D01*
X0237234Y0219535D01*
X0237493Y0219459D01*
X0237750Y0219378D01*
X0238006Y0219290D01*
X0238259Y0219196D01*
X0238510Y0219096D01*
X0238758Y0218989D01*
X0239003Y0218877D01*
X0239246Y0218758D01*
X0239485Y0218634D01*
X0239722Y0218504D01*
X0239955Y0218368D01*
X0240185Y0218226D01*
X0240411Y0218079D01*
X0240634Y0217926D01*
X0240853Y0217768D01*
X0241068Y0217605D01*
X0241278Y0217436D01*
X0241485Y0217262D01*
X0241687Y0217083D01*
X0241885Y0216900D01*
X0242078Y0216711D01*
X0242267Y0216518D01*
X0242450Y0216320D01*
X0242629Y0216118D01*
X0242803Y0215911D01*
X0242972Y0215701D01*
X0243135Y0215486D01*
X0243293Y0215267D01*
X0243446Y0215044D01*
X0243593Y0214818D01*
X0243735Y0214588D01*
X0243871Y0214355D01*
X0244001Y0214118D01*
X0244125Y0213879D01*
X0244244Y0213636D01*
X0244356Y0213391D01*
X0244463Y0213143D01*
X0244563Y0212892D01*
X0244657Y0212639D01*
X0244745Y0212383D01*
X0244826Y0212126D01*
X0244902Y0211867D01*
X0244970Y0211606D01*
X0245033Y0211343D01*
X0245089Y0211079D01*
X0245138Y0210814D01*
X0245181Y0210547D01*
X0245217Y0210280D01*
X0245247Y0210011D01*
X0245270Y0209742D01*
X0245287Y0209473D01*
X0245297Y0209203D01*
X0245300Y0208933D01*
X0245297Y0208663D01*
X0245287Y0208393D01*
X0245270Y0208124D01*
X0245247Y0207855D01*
X0245217Y0207586D01*
X0245181Y0207319D01*
X0245138Y0207052D01*
X0245089Y0206787D01*
X0245033Y0206523D01*
X0244970Y0206260D01*
X0244902Y0205999D01*
X0244826Y0205740D01*
X0244745Y0205483D01*
X0244657Y0205227D01*
X0244563Y0204974D01*
X0244463Y0204723D01*
X0244356Y0204475D01*
X0244244Y0204230D01*
X0244125Y0203987D01*
X0244001Y0203748D01*
X0243871Y0203511D01*
X0243735Y0203278D01*
X0243593Y0203048D01*
X0243446Y0202822D01*
X0243293Y0202599D01*
X0243135Y0202380D01*
X0242972Y0202165D01*
X0242803Y0201955D01*
X0242629Y0201748D01*
X0242450Y0201546D01*
X0242267Y0201348D01*
X0242078Y0201155D01*
X0241885Y0200966D01*
X0241687Y0200783D01*
X0241485Y0200604D01*
X0241278Y0200430D01*
X0241068Y0200261D01*
X0240853Y0200098D01*
X0240634Y0199940D01*
X0240411Y0199787D01*
X0240185Y0199640D01*
X0239955Y0199498D01*
X0239722Y0199362D01*
X0239485Y0199232D01*
X0239246Y0199108D01*
X0239003Y0198989D01*
X0238758Y0198877D01*
X0238510Y0198770D01*
X0238259Y0198670D01*
X0238006Y0198576D01*
X0237750Y0198488D01*
X0237493Y0198407D01*
X0237234Y0198331D01*
X0236973Y0198263D01*
X0236710Y0198200D01*
X0236446Y0198144D01*
X0236181Y0198095D01*
X0235914Y0198052D01*
X0235647Y0198016D01*
X0235378Y0197986D01*
X0235109Y0197963D01*
X0234840Y0197946D01*
X0234570Y0197936D01*
X0234300Y0197933D01*
X0234030Y0197936D01*
X0233760Y0197946D01*
X0233491Y0197963D01*
X0233222Y0197986D01*
X0232953Y0198016D01*
X0232686Y0198052D01*
X0232419Y0198095D01*
X0232154Y0198144D01*
X0231890Y0198200D01*
X0231627Y0198263D01*
X0231366Y0198331D01*
X0231107Y0198407D01*
X0230850Y0198488D01*
X0230594Y0198576D01*
X0230341Y0198670D01*
X0230090Y0198770D01*
X0229842Y0198877D01*
X0229597Y0198989D01*
X0229354Y0199108D01*
X0229115Y0199232D01*
X0228878Y0199362D01*
X0228645Y0199498D01*
X0228415Y0199640D01*
X0228189Y0199787D01*
X0227966Y0199940D01*
X0227747Y0200098D01*
X0227532Y0200261D01*
X0227322Y0200430D01*
X0227115Y0200604D01*
X0226913Y0200783D01*
X0226715Y0200966D01*
X0226522Y0201155D01*
X0226333Y0201348D01*
X0226150Y0201546D01*
X0225971Y0201748D01*
X0225797Y0201955D01*
X0225628Y0202165D01*
X0225465Y0202380D01*
X0225307Y0202599D01*
X0225154Y0202822D01*
X0225007Y0203048D01*
X0224865Y0203278D01*
X0224729Y0203511D01*
X0224599Y0203748D01*
X0224475Y0203987D01*
X0224356Y0204230D01*
X0224244Y0204475D01*
X0224137Y0204723D01*
X0224037Y0204974D01*
X0223943Y0205227D01*
X0223855Y0205483D01*
X0223774Y0205740D01*
X0223698Y0205999D01*
X0223630Y0206260D01*
X0223567Y0206523D01*
X0223511Y0206787D01*
X0223462Y0207052D01*
X0223419Y0207319D01*
X0223383Y0207586D01*
X0223353Y0207855D01*
X0223330Y0208124D01*
X0223313Y0208393D01*
X0223303Y0208663D01*
X0223300Y0208933D01*
X0227800Y0212433D02*
X0227800Y0213933D01*
X0227800Y0215433D01*
X0227800Y0213933D02*
X0229300Y0213933D01*
X0227800Y0213933D02*
X0226300Y0213933D01*
X0218414Y0213933D02*
X0215186Y0213933D01*
X0215186Y0218933D02*
X0218414Y0218933D01*
D11*
X0221800Y0220183D02*
X0224300Y0220183D01*
X0224300Y0212683D01*
X0221800Y0212683D01*
X0211800Y0212683D02*
X0209300Y0212683D01*
X0209300Y0220183D01*
X0211800Y0220183D01*
X0206800Y0206433D02*
X0201800Y0206433D01*
X0201800Y0186433D01*
X0206800Y0186433D01*
X0206800Y0158933D01*
X0171800Y0158933D01*
X0171800Y0233933D01*
X0206800Y0233933D01*
X0206800Y0206433D01*
X0171800Y0203933D02*
X0168050Y0203933D01*
X0168050Y0205183D01*
X0168050Y0203933D02*
X0164300Y0203933D01*
X0164300Y0188933D02*
X0168050Y0188933D01*
X0168050Y0187683D01*
X0168050Y0188933D02*
X0171800Y0188933D01*
X0209300Y0180183D02*
X0209300Y0172683D01*
X0211800Y0172683D01*
X0221800Y0172683D02*
X0224300Y0172683D01*
X0224300Y0180183D01*
X0221800Y0180183D01*
X0211800Y0180183D02*
X0209300Y0180183D01*
X0209300Y0152683D02*
X0211800Y0152683D01*
X0211800Y0145183D01*
X0209300Y0145183D01*
X0216800Y0145183D02*
X0219300Y0145183D01*
X0216800Y0145183D02*
X0216800Y0152683D01*
X0219300Y0152683D01*
X0229300Y0152683D02*
X0231800Y0152683D01*
X0231800Y0145183D01*
X0229300Y0145183D01*
X0229300Y0127683D02*
X0231800Y0127683D01*
X0231800Y0120183D01*
X0229300Y0120183D01*
X0219300Y0120183D02*
X0216800Y0120183D01*
X0216800Y0127683D01*
X0219300Y0127683D01*
X0201800Y0127683D02*
X0201800Y0120183D01*
X0199300Y0120183D01*
X0199300Y0112683D02*
X0201800Y0112683D01*
X0201800Y0105183D01*
X0199300Y0105183D01*
X0189300Y0105183D02*
X0186800Y0105183D01*
X0186800Y0112683D01*
X0189300Y0112683D01*
X0181800Y0112683D02*
X0179300Y0112683D01*
X0181800Y0112683D02*
X0181800Y0105183D01*
X0179300Y0105183D01*
X0169300Y0105183D02*
X0166800Y0105183D01*
X0166800Y0112683D01*
X0169300Y0112683D01*
X0169300Y0120183D02*
X0166800Y0120183D01*
X0166800Y0127683D01*
X0169300Y0127683D01*
X0179300Y0127683D02*
X0181800Y0127683D01*
X0181800Y0120183D01*
X0179300Y0120183D01*
X0186800Y0120183D02*
X0189300Y0120183D01*
X0186800Y0120183D02*
X0186800Y0127683D01*
X0189300Y0127683D01*
X0199300Y0127683D02*
X0201800Y0127683D01*
X0216800Y0112683D02*
X0219300Y0112683D01*
X0216800Y0112683D02*
X0216800Y0105183D01*
X0219300Y0105183D01*
X0229300Y0105183D02*
X0231800Y0105183D01*
X0231800Y0112683D01*
X0229300Y0112683D01*
X0260550Y0108933D02*
X0260550Y0106433D01*
X0260550Y0108933D02*
X0268050Y0108933D01*
X0268050Y0106433D01*
X0268050Y0096433D02*
X0268050Y0093933D01*
X0260550Y0093933D01*
X0260550Y0096433D01*
X0284300Y0087683D02*
X0286800Y0087683D01*
X0284300Y0087683D02*
X0284300Y0080183D01*
X0286800Y0080183D01*
X0296800Y0080183D02*
X0299300Y0080183D01*
X0299300Y0087683D01*
X0296800Y0087683D01*
X0296800Y0090183D02*
X0296800Y0093933D01*
X0295550Y0093933D01*
X0296800Y0093933D02*
X0296800Y0097683D01*
X0299300Y0101433D02*
X0309300Y0101433D01*
X0306800Y0101359D02*
X0301949Y0101359D01*
X0301800Y0101433D02*
X0306800Y0098933D01*
X0306800Y0103933D01*
X0301800Y0101433D01*
X0302648Y0101857D02*
X0306800Y0101857D01*
X0306800Y0102356D02*
X0303645Y0102356D01*
X0304642Y0102854D02*
X0306800Y0102854D01*
X0306800Y0103353D02*
X0305639Y0103353D01*
X0306636Y0103851D02*
X0306800Y0103851D01*
X0309300Y0105183D02*
X0311800Y0105183D01*
X0309300Y0105183D02*
X0309300Y0112683D01*
X0311800Y0112683D01*
X0321800Y0112683D02*
X0324300Y0112683D01*
X0324300Y0105183D01*
X0321800Y0105183D01*
X0311800Y0097683D02*
X0311800Y0093933D01*
X0313050Y0093933D01*
X0311800Y0093933D02*
X0311800Y0090183D01*
X0311800Y0087683D02*
X0309300Y0087683D01*
X0309300Y0080183D01*
X0311800Y0080183D01*
X0321800Y0080183D02*
X0324300Y0080183D01*
X0324300Y0087683D01*
X0321800Y0087683D01*
X0306800Y0099365D02*
X0305937Y0099365D01*
X0306800Y0099863D02*
X0304940Y0099863D01*
X0303943Y0100362D02*
X0306800Y0100362D01*
X0306800Y0100860D02*
X0302946Y0100860D01*
X0299300Y0105183D02*
X0296800Y0105183D01*
X0299300Y0105183D02*
X0299300Y0112683D01*
X0296800Y0112683D01*
X0296800Y0120183D02*
X0299300Y0120183D01*
X0299300Y0127683D01*
X0296800Y0127683D01*
X0299300Y0132683D02*
X0309300Y0132683D01*
X0306800Y0132765D02*
X0301964Y0132765D01*
X0301800Y0132683D02*
X0306800Y0130183D01*
X0306800Y0135183D01*
X0301800Y0132683D01*
X0302633Y0132266D02*
X0306800Y0132266D01*
X0306800Y0131768D02*
X0303630Y0131768D01*
X0304628Y0131269D02*
X0306800Y0131269D01*
X0306800Y0130771D02*
X0305625Y0130771D01*
X0306622Y0130272D02*
X0306800Y0130272D01*
X0306800Y0133263D02*
X0302961Y0133263D01*
X0303958Y0133762D02*
X0306800Y0133762D01*
X0306800Y0134260D02*
X0304955Y0134260D01*
X0305952Y0134759D02*
X0306800Y0134759D01*
X0311800Y0136433D02*
X0311800Y0140183D01*
X0313050Y0140183D01*
X0311800Y0140183D02*
X0311800Y0143933D01*
X0311800Y0145183D02*
X0309300Y0145183D01*
X0309300Y0152683D01*
X0311800Y0152683D01*
X0321800Y0152683D02*
X0324300Y0152683D01*
X0324300Y0145183D01*
X0321800Y0145183D01*
X0299300Y0145183D02*
X0296800Y0145183D01*
X0296800Y0143933D02*
X0296800Y0140183D01*
X0295550Y0140183D01*
X0296800Y0140183D02*
X0296800Y0136433D01*
X0286800Y0127683D02*
X0284300Y0127683D01*
X0284300Y0120183D01*
X0286800Y0120183D01*
X0286800Y0112683D02*
X0284300Y0112683D01*
X0284300Y0105183D01*
X0286800Y0105183D01*
X0309300Y0120183D02*
X0311800Y0120183D01*
X0309300Y0120183D02*
X0309300Y0127683D01*
X0311800Y0127683D01*
X0321800Y0127683D02*
X0324300Y0127683D01*
X0324300Y0120183D01*
X0321800Y0120183D01*
X0299300Y0145183D02*
X0299300Y0152683D01*
X0296800Y0152683D01*
X0286800Y0152683D02*
X0284300Y0152683D01*
X0284300Y0145183D01*
X0286800Y0145183D01*
X0268050Y0138933D02*
X0268050Y0136433D01*
X0268050Y0138933D02*
X0260550Y0138933D01*
X0260550Y0136433D01*
X0260550Y0126433D02*
X0260550Y0123933D01*
X0268050Y0123933D01*
X0268050Y0126433D01*
X0311800Y0160183D02*
X0311800Y0163933D01*
X0310550Y0163933D01*
X0311800Y0163933D02*
X0311800Y0167683D01*
X0311800Y0170183D02*
X0314300Y0170183D01*
X0311800Y0170183D02*
X0311800Y0177683D01*
X0314300Y0177683D01*
X0324300Y0177683D02*
X0326800Y0177683D01*
X0326800Y0170183D01*
X0324300Y0170183D01*
X0326800Y0167683D02*
X0326800Y0163933D01*
X0328050Y0163933D01*
X0326800Y0163933D02*
X0326800Y0160183D01*
X0343050Y0161433D02*
X0343050Y0163933D01*
X0343050Y0161433D02*
X0350550Y0161433D01*
X0350550Y0163933D01*
X0353050Y0163933D02*
X0353050Y0161433D01*
X0360550Y0161433D01*
X0360550Y0163933D01*
X0361800Y0163933D02*
X0361800Y0161433D01*
X0391800Y0161433D01*
X0391800Y0191433D01*
X0361800Y0191433D01*
X0361800Y0188933D01*
X0363050Y0188933D01*
X0363050Y0186433D01*
X0363050Y0182683D01*
X0361800Y0182683D01*
X0361800Y0178933D01*
X0361800Y0173933D01*
X0363050Y0173933D01*
X0363050Y0170183D01*
X0361800Y0170183D01*
X0361800Y0166433D01*
X0363050Y0166433D01*
X0363050Y0170183D01*
X0361800Y0170183D02*
X0361800Y0173933D01*
X0360550Y0173933D02*
X0360550Y0176433D01*
X0353050Y0176433D01*
X0353050Y0173933D01*
X0350550Y0173933D02*
X0350550Y0176433D01*
X0343050Y0176433D01*
X0343050Y0173933D01*
X0336800Y0178933D02*
X0331800Y0178933D01*
X0334300Y0183933D01*
X0336800Y0178933D01*
X0336703Y0179126D02*
X0331897Y0179126D01*
X0332146Y0179625D02*
X0336454Y0179625D01*
X0336205Y0180123D02*
X0332395Y0180123D01*
X0332644Y0180622D02*
X0335956Y0180622D01*
X0335706Y0181120D02*
X0332894Y0181120D01*
X0333143Y0181619D02*
X0335457Y0181619D01*
X0335208Y0182117D02*
X0333392Y0182117D01*
X0333641Y0182616D02*
X0334959Y0182616D01*
X0334709Y0183114D02*
X0333891Y0183114D01*
X0334140Y0183613D02*
X0334460Y0183613D01*
X0334300Y0186433D02*
X0334300Y0176433D01*
X0361800Y0178933D02*
X0363050Y0178933D01*
X0363050Y0173933D01*
X0363050Y0178933D02*
X0363050Y0182683D01*
X0361800Y0182683D02*
X0361800Y0186433D01*
X0363050Y0186433D01*
X0361800Y0186433D02*
X0361800Y0188933D01*
X0365550Y0186433D02*
X0365552Y0186503D01*
X0365558Y0186573D01*
X0365568Y0186642D01*
X0365581Y0186711D01*
X0365599Y0186779D01*
X0365620Y0186846D01*
X0365645Y0186911D01*
X0365674Y0186975D01*
X0365706Y0187038D01*
X0365742Y0187098D01*
X0365781Y0187156D01*
X0365823Y0187212D01*
X0365868Y0187266D01*
X0365916Y0187317D01*
X0365967Y0187365D01*
X0366021Y0187410D01*
X0366077Y0187452D01*
X0366135Y0187491D01*
X0366195Y0187527D01*
X0366258Y0187559D01*
X0366322Y0187588D01*
X0366387Y0187613D01*
X0366454Y0187634D01*
X0366522Y0187652D01*
X0366591Y0187665D01*
X0366660Y0187675D01*
X0366730Y0187681D01*
X0366800Y0187683D01*
X0366870Y0187681D01*
X0366940Y0187675D01*
X0367009Y0187665D01*
X0367078Y0187652D01*
X0367146Y0187634D01*
X0367213Y0187613D01*
X0367278Y0187588D01*
X0367342Y0187559D01*
X0367405Y0187527D01*
X0367465Y0187491D01*
X0367523Y0187452D01*
X0367579Y0187410D01*
X0367633Y0187365D01*
X0367684Y0187317D01*
X0367732Y0187266D01*
X0367777Y0187212D01*
X0367819Y0187156D01*
X0367858Y0187098D01*
X0367894Y0187038D01*
X0367926Y0186975D01*
X0367955Y0186911D01*
X0367980Y0186846D01*
X0368001Y0186779D01*
X0368019Y0186711D01*
X0368032Y0186642D01*
X0368042Y0186573D01*
X0368048Y0186503D01*
X0368050Y0186433D01*
X0368048Y0186363D01*
X0368042Y0186293D01*
X0368032Y0186224D01*
X0368019Y0186155D01*
X0368001Y0186087D01*
X0367980Y0186020D01*
X0367955Y0185955D01*
X0367926Y0185891D01*
X0367894Y0185828D01*
X0367858Y0185768D01*
X0367819Y0185710D01*
X0367777Y0185654D01*
X0367732Y0185600D01*
X0367684Y0185549D01*
X0367633Y0185501D01*
X0367579Y0185456D01*
X0367523Y0185414D01*
X0367465Y0185375D01*
X0367405Y0185339D01*
X0367342Y0185307D01*
X0367278Y0185278D01*
X0367213Y0185253D01*
X0367146Y0185232D01*
X0367078Y0185214D01*
X0367009Y0185201D01*
X0366940Y0185191D01*
X0366870Y0185185D01*
X0366800Y0185183D01*
X0366730Y0185185D01*
X0366660Y0185191D01*
X0366591Y0185201D01*
X0366522Y0185214D01*
X0366454Y0185232D01*
X0366387Y0185253D01*
X0366322Y0185278D01*
X0366258Y0185307D01*
X0366195Y0185339D01*
X0366135Y0185375D01*
X0366077Y0185414D01*
X0366021Y0185456D01*
X0365967Y0185501D01*
X0365916Y0185549D01*
X0365868Y0185600D01*
X0365823Y0185654D01*
X0365781Y0185710D01*
X0365742Y0185768D01*
X0365706Y0185828D01*
X0365674Y0185891D01*
X0365645Y0185955D01*
X0365620Y0186020D01*
X0365599Y0186087D01*
X0365581Y0186155D01*
X0365568Y0186224D01*
X0365558Y0186293D01*
X0365552Y0186363D01*
X0365550Y0186433D01*
X0366800Y0181433D02*
X0366926Y0181676D01*
X0367057Y0181916D01*
X0367194Y0182152D01*
X0367336Y0182386D01*
X0367485Y0182615D01*
X0367639Y0182841D01*
X0367798Y0183063D01*
X0367963Y0183281D01*
X0368133Y0183495D01*
X0368308Y0183705D01*
X0368489Y0183911D01*
X0368674Y0184112D01*
X0368864Y0184308D01*
X0369059Y0184500D01*
X0369259Y0184687D01*
X0369463Y0184869D01*
X0369671Y0185046D01*
X0369884Y0185217D01*
X0370101Y0185384D01*
X0370322Y0185545D01*
X0370547Y0185701D01*
X0370775Y0185851D01*
X0371007Y0185995D01*
X0371243Y0186134D01*
X0371482Y0186267D01*
X0371724Y0186394D01*
X0371969Y0186515D01*
X0372217Y0186630D01*
X0372468Y0186739D01*
X0372721Y0186842D01*
X0372977Y0186939D01*
X0373235Y0187029D01*
X0373495Y0187113D01*
X0373757Y0187191D01*
X0374021Y0187262D01*
X0374287Y0187327D01*
X0374554Y0187385D01*
X0374822Y0187437D01*
X0375092Y0187482D01*
X0375363Y0187520D01*
X0375634Y0187552D01*
X0375907Y0187577D01*
X0376179Y0187596D01*
X0376453Y0187608D01*
X0376726Y0187613D01*
X0376999Y0187611D01*
X0377273Y0187603D01*
X0377546Y0187588D01*
X0377818Y0187567D01*
X0378090Y0187538D01*
X0378361Y0187503D01*
X0378632Y0187462D01*
X0378901Y0187414D01*
X0379169Y0187359D01*
X0379435Y0187298D01*
X0379700Y0187230D01*
X0379963Y0187156D01*
X0380224Y0187076D01*
X0380484Y0186989D01*
X0380741Y0186895D01*
X0380995Y0186796D01*
X0381248Y0186690D01*
X0381497Y0186578D01*
X0381744Y0186461D01*
X0381987Y0186337D01*
X0382228Y0186207D01*
X0382465Y0186071D01*
X0382699Y0185930D01*
X0382930Y0185783D01*
X0383157Y0185630D01*
X0383380Y0185472D01*
X0383599Y0185308D01*
X0383814Y0185139D01*
X0384025Y0184965D01*
X0384231Y0184786D01*
X0384433Y0184602D01*
X0384631Y0184413D01*
X0384823Y0184219D01*
X0385011Y0184020D01*
X0385194Y0183817D01*
X0385373Y0183610D01*
X0385545Y0183398D01*
X0385713Y0183182D01*
X0385876Y0182962D01*
X0386032Y0182738D01*
X0386184Y0182510D01*
X0386330Y0182279D01*
X0386470Y0182044D01*
X0386604Y0181806D01*
X0386733Y0181565D01*
X0386855Y0181320D01*
X0386972Y0181073D01*
X0387082Y0180823D01*
X0387186Y0180570D01*
X0387284Y0180315D01*
X0387376Y0180057D01*
X0387462Y0179798D01*
X0387541Y0179536D01*
X0387613Y0179272D01*
X0387680Y0179007D01*
X0387739Y0178740D01*
X0387792Y0178472D01*
X0387839Y0178203D01*
X0387879Y0177932D01*
X0387912Y0177661D01*
X0387939Y0177389D01*
X0387959Y0177116D01*
X0387972Y0176843D01*
X0387979Y0176570D01*
X0387979Y0176296D01*
X0387972Y0176023D01*
X0387959Y0175750D01*
X0387939Y0175477D01*
X0387912Y0175205D01*
X0387879Y0174934D01*
X0387839Y0174663D01*
X0387792Y0174394D01*
X0387739Y0174126D01*
X0387680Y0173859D01*
X0387613Y0173594D01*
X0387541Y0173330D01*
X0387462Y0173068D01*
X0387376Y0172809D01*
X0387284Y0172551D01*
X0387186Y0172296D01*
X0387082Y0172043D01*
X0386972Y0171793D01*
X0386855Y0171546D01*
X0386733Y0171301D01*
X0386604Y0171060D01*
X0386470Y0170822D01*
X0386330Y0170587D01*
X0386184Y0170356D01*
X0386032Y0170128D01*
X0385876Y0169904D01*
X0385713Y0169684D01*
X0385545Y0169468D01*
X0385373Y0169256D01*
X0385194Y0169049D01*
X0385011Y0168846D01*
X0384823Y0168647D01*
X0384631Y0168453D01*
X0384433Y0168264D01*
X0384231Y0168080D01*
X0384025Y0167901D01*
X0383814Y0167727D01*
X0383599Y0167558D01*
X0383380Y0167394D01*
X0383157Y0167236D01*
X0382930Y0167083D01*
X0382699Y0166936D01*
X0382465Y0166795D01*
X0382228Y0166659D01*
X0381987Y0166529D01*
X0381744Y0166405D01*
X0381497Y0166288D01*
X0381248Y0166176D01*
X0380995Y0166070D01*
X0380741Y0165971D01*
X0380484Y0165877D01*
X0380224Y0165790D01*
X0379963Y0165710D01*
X0379700Y0165636D01*
X0379435Y0165568D01*
X0379169Y0165507D01*
X0378901Y0165452D01*
X0378632Y0165404D01*
X0378361Y0165363D01*
X0378090Y0165328D01*
X0377818Y0165299D01*
X0377546Y0165278D01*
X0377273Y0165263D01*
X0376999Y0165255D01*
X0376726Y0165253D01*
X0376453Y0165258D01*
X0376179Y0165270D01*
X0375907Y0165289D01*
X0375634Y0165314D01*
X0375363Y0165346D01*
X0375092Y0165384D01*
X0374822Y0165429D01*
X0374554Y0165481D01*
X0374287Y0165539D01*
X0374021Y0165604D01*
X0373757Y0165675D01*
X0373495Y0165753D01*
X0373235Y0165837D01*
X0372977Y0165927D01*
X0372721Y0166024D01*
X0372468Y0166127D01*
X0372217Y0166236D01*
X0371969Y0166351D01*
X0371724Y0166472D01*
X0371482Y0166599D01*
X0371243Y0166732D01*
X0371007Y0166871D01*
X0370775Y0167015D01*
X0370547Y0167165D01*
X0370322Y0167321D01*
X0370101Y0167482D01*
X0369884Y0167649D01*
X0369671Y0167820D01*
X0369463Y0167997D01*
X0369259Y0168179D01*
X0369059Y0168366D01*
X0368864Y0168558D01*
X0368674Y0168754D01*
X0368489Y0168955D01*
X0368308Y0169161D01*
X0368133Y0169371D01*
X0367963Y0169585D01*
X0367798Y0169803D01*
X0367639Y0170025D01*
X0367485Y0170251D01*
X0367336Y0170480D01*
X0367194Y0170714D01*
X0367057Y0170950D01*
X0366926Y0171190D01*
X0366800Y0171433D01*
X0363050Y0166433D02*
X0363050Y0163933D01*
X0361800Y0163933D01*
X0361800Y0166433D01*
X0364300Y0150183D02*
X0366800Y0150183D01*
X0364300Y0150183D02*
X0364300Y0142683D01*
X0366800Y0142683D01*
X0376800Y0142683D02*
X0379300Y0142683D01*
X0379300Y0150183D01*
X0376800Y0150183D01*
X0374959Y0128387D02*
X0374959Y0123883D01*
X0373458Y0123883D02*
X0376460Y0123883D01*
X0378062Y0124634D02*
X0378812Y0123883D01*
X0380314Y0123883D01*
X0381064Y0124634D01*
X0381064Y0125384D01*
X0380314Y0126135D01*
X0379563Y0126135D01*
X0380314Y0126135D02*
X0381064Y0126886D01*
X0381064Y0127636D01*
X0380314Y0128387D01*
X0378812Y0128387D01*
X0378062Y0127636D01*
X0374959Y0128387D02*
X0373458Y0126886D01*
X0371856Y0127636D02*
X0371856Y0126135D01*
X0371106Y0125384D01*
X0368854Y0125384D01*
X0368854Y0123883D02*
X0368854Y0128387D01*
X0371106Y0128387D01*
X0371856Y0127636D01*
X0367253Y0128387D02*
X0365751Y0128387D01*
X0366502Y0128387D02*
X0366502Y0124634D01*
X0365751Y0123883D01*
X0365001Y0123883D01*
X0364250Y0124634D01*
X0364300Y0090183D02*
X0366800Y0090183D01*
X0364300Y0090183D02*
X0364300Y0082683D01*
X0366800Y0082683D01*
X0376800Y0082683D02*
X0379300Y0082683D01*
X0379300Y0090183D01*
X0376800Y0090183D01*
X0231800Y0087683D02*
X0231800Y0080183D01*
X0229300Y0080183D01*
X0219300Y0080183D02*
X0216800Y0080183D01*
X0216800Y0087683D01*
X0219300Y0087683D01*
X0211800Y0087683D02*
X0209300Y0087683D01*
X0211800Y0087683D02*
X0211800Y0080183D01*
X0209300Y0080183D01*
X0199300Y0080183D02*
X0196800Y0080183D01*
X0196800Y0087683D01*
X0199300Y0087683D01*
X0181800Y0087683D02*
X0181800Y0080183D01*
X0179300Y0080183D01*
X0169300Y0080183D02*
X0166800Y0080183D01*
X0166800Y0087683D01*
X0169300Y0087683D01*
X0179300Y0087683D02*
X0181800Y0087683D01*
X0138050Y0093933D02*
X0138050Y0096433D01*
X0138050Y0093933D02*
X0130550Y0093933D01*
X0130550Y0096433D01*
X0130550Y0106433D02*
X0130550Y0108933D01*
X0138050Y0108933D01*
X0138050Y0106433D01*
X0114300Y0105183D02*
X0111800Y0105183D01*
X0114300Y0105183D02*
X0114300Y0112683D01*
X0111800Y0112683D01*
X0111800Y0120183D02*
X0114300Y0120183D01*
X0114300Y0127683D01*
X0111800Y0127683D01*
X0101800Y0127683D02*
X0099300Y0127683D01*
X0099300Y0120183D01*
X0101800Y0120183D01*
X0101800Y0112683D02*
X0099300Y0112683D01*
X0099300Y0105183D01*
X0101800Y0105183D01*
X0099300Y0101433D02*
X0089300Y0101433D01*
X0091800Y0101359D02*
X0096651Y0101359D01*
X0096800Y0101433D02*
X0091800Y0103933D01*
X0091800Y0098933D01*
X0096800Y0101433D01*
X0095952Y0101857D02*
X0091800Y0101857D01*
X0091800Y0102356D02*
X0094955Y0102356D01*
X0093958Y0102854D02*
X0091800Y0102854D01*
X0091800Y0103353D02*
X0092961Y0103353D01*
X0091964Y0103851D02*
X0091800Y0103851D01*
X0089300Y0105183D02*
X0086800Y0105183D01*
X0089300Y0105183D02*
X0089300Y0112683D01*
X0086800Y0112683D01*
X0076800Y0112683D02*
X0074300Y0112683D01*
X0074300Y0105183D01*
X0076800Y0105183D01*
X0086800Y0097683D02*
X0086800Y0093933D01*
X0085550Y0093933D01*
X0086800Y0093933D02*
X0086800Y0090183D01*
X0086800Y0087683D02*
X0089300Y0087683D01*
X0089300Y0080183D01*
X0086800Y0080183D01*
X0076800Y0080183D02*
X0074300Y0080183D01*
X0074300Y0087683D01*
X0076800Y0087683D01*
X0091800Y0099365D02*
X0092663Y0099365D01*
X0091800Y0099863D02*
X0093660Y0099863D01*
X0094657Y0100362D02*
X0091800Y0100362D01*
X0091800Y0100860D02*
X0095654Y0100860D01*
X0101800Y0097683D02*
X0101800Y0093933D01*
X0103050Y0093933D01*
X0101800Y0093933D02*
X0101800Y0090183D01*
X0101800Y0087683D02*
X0099300Y0087683D01*
X0099300Y0080183D01*
X0101800Y0080183D01*
X0111800Y0080183D02*
X0114300Y0080183D01*
X0114300Y0087683D01*
X0111800Y0087683D01*
X0089300Y0120183D02*
X0086800Y0120183D01*
X0089300Y0120183D02*
X0089300Y0127683D01*
X0086800Y0127683D01*
X0089300Y0131433D02*
X0099300Y0131433D01*
X0096800Y0131433D02*
X0091800Y0133933D01*
X0091800Y0128933D01*
X0096800Y0131433D01*
X0096472Y0131269D02*
X0091800Y0131269D01*
X0091800Y0130771D02*
X0095475Y0130771D01*
X0094478Y0130272D02*
X0091800Y0130272D01*
X0091800Y0129774D02*
X0093481Y0129774D01*
X0092484Y0129275D02*
X0091800Y0129275D01*
X0091800Y0131768D02*
X0096130Y0131768D01*
X0095133Y0132266D02*
X0091800Y0132266D01*
X0091800Y0132765D02*
X0094136Y0132765D01*
X0093139Y0133263D02*
X0091800Y0133263D01*
X0091800Y0133762D02*
X0092142Y0133762D01*
X0086800Y0135183D02*
X0086800Y0138933D01*
X0085550Y0138933D01*
X0086800Y0138933D02*
X0086800Y0142683D01*
X0086800Y0145183D02*
X0089300Y0145183D01*
X0089300Y0152683D01*
X0086800Y0152683D01*
X0076800Y0152683D02*
X0074300Y0152683D01*
X0074300Y0145183D01*
X0076800Y0145183D01*
X0099300Y0145183D02*
X0101800Y0145183D01*
X0101800Y0142683D02*
X0101800Y0138933D01*
X0103050Y0138933D01*
X0101800Y0138933D02*
X0101800Y0135183D01*
X0099300Y0145183D02*
X0099300Y0152683D01*
X0101800Y0152683D01*
X0101800Y0160183D02*
X0101800Y0163933D01*
X0103050Y0163933D01*
X0101800Y0163933D02*
X0101800Y0167683D01*
X0101800Y0170183D02*
X0099300Y0170183D01*
X0101800Y0170183D02*
X0101800Y0177683D01*
X0099300Y0177683D01*
X0104300Y0181433D02*
X0108050Y0181433D01*
X0108050Y0182683D01*
X0108050Y0181433D02*
X0111800Y0181433D01*
X0113050Y0176433D02*
X0113050Y0173933D01*
X0120550Y0173933D01*
X0120550Y0176433D01*
X0120550Y0186433D02*
X0120550Y0188933D01*
X0113050Y0188933D01*
X0113050Y0186433D01*
X0109300Y0188933D02*
X0105550Y0188933D01*
X0105550Y0187683D01*
X0105550Y0188933D02*
X0101800Y0188933D01*
X0089300Y0177683D02*
X0086800Y0177683D01*
X0086800Y0170183D01*
X0089300Y0170183D01*
X0086800Y0167683D02*
X0086800Y0163933D01*
X0085550Y0163933D01*
X0086800Y0163933D02*
X0086800Y0160183D01*
X0104300Y0166433D02*
X0108050Y0166433D01*
X0108050Y0165183D01*
X0108050Y0166433D02*
X0111800Y0166433D01*
X0111800Y0152683D02*
X0114300Y0152683D01*
X0114300Y0145183D01*
X0111800Y0145183D01*
X0130550Y0138933D02*
X0130550Y0136433D01*
X0130550Y0138933D02*
X0138050Y0138933D01*
X0138050Y0136433D01*
X0138050Y0126433D02*
X0138050Y0123933D01*
X0130550Y0123933D01*
X0130550Y0126433D01*
X0166800Y0145183D02*
X0169300Y0145183D01*
X0166800Y0145183D02*
X0166800Y0152683D01*
X0169300Y0152683D01*
X0179300Y0152683D02*
X0181800Y0152683D01*
X0181800Y0145183D01*
X0179300Y0145183D01*
X0196800Y0145183D02*
X0199300Y0145183D01*
X0196800Y0145183D02*
X0196800Y0152683D01*
X0199300Y0152683D01*
X0280550Y0188933D02*
X0284300Y0188933D01*
X0284300Y0187683D01*
X0284300Y0188933D02*
X0288050Y0188933D01*
X0288050Y0203933D02*
X0284300Y0203933D01*
X0284300Y0205183D01*
X0284300Y0203933D02*
X0280550Y0203933D01*
X0311800Y0215183D02*
X0311800Y0222683D01*
X0314300Y0222683D01*
X0311800Y0225183D02*
X0311800Y0228933D01*
X0310550Y0228933D01*
X0311800Y0228933D02*
X0311800Y0232683D01*
X0326800Y0232683D02*
X0326800Y0228933D01*
X0328050Y0228933D01*
X0326800Y0228933D02*
X0326800Y0225183D01*
X0326800Y0222683D02*
X0324300Y0222683D01*
X0326800Y0222683D02*
X0326800Y0215183D01*
X0324300Y0215183D01*
X0331800Y0213933D02*
X0334300Y0208933D01*
X0336800Y0213933D01*
X0331800Y0213933D01*
X0332005Y0213524D02*
X0336595Y0213524D01*
X0336346Y0213025D02*
X0332254Y0213025D01*
X0332503Y0212527D02*
X0336097Y0212527D01*
X0335848Y0212028D02*
X0332752Y0212028D01*
X0333002Y0211530D02*
X0335598Y0211530D01*
X0335349Y0211031D02*
X0333251Y0211031D01*
X0333500Y0210533D02*
X0335100Y0210533D01*
X0334851Y0210034D02*
X0333749Y0210034D01*
X0333999Y0209536D02*
X0334601Y0209536D01*
X0334352Y0209037D02*
X0334248Y0209037D01*
X0334300Y0206433D02*
X0334300Y0216433D01*
X0343050Y0216433D02*
X0343050Y0218933D01*
X0343050Y0216433D02*
X0350550Y0216433D01*
X0350550Y0218933D01*
X0353050Y0218933D02*
X0353050Y0216433D01*
X0360550Y0216433D01*
X0360550Y0218933D01*
X0360550Y0228933D02*
X0360550Y0231433D01*
X0353050Y0231433D01*
X0353050Y0228933D01*
X0350550Y0228933D02*
X0350550Y0231433D01*
X0343050Y0231433D01*
X0343050Y0228933D01*
X0361800Y0231433D02*
X0361800Y0201433D01*
X0391800Y0201433D01*
X0391800Y0203933D01*
X0390550Y0203933D01*
X0390550Y0206433D01*
X0390550Y0210183D01*
X0391800Y0210183D01*
X0391800Y0213933D01*
X0391800Y0218933D01*
X0390550Y0218933D01*
X0390550Y0222683D01*
X0391800Y0222683D01*
X0391800Y0226433D01*
X0390550Y0226433D01*
X0390550Y0222683D01*
X0391800Y0222683D02*
X0391800Y0218933D01*
X0390550Y0218933D02*
X0390550Y0213933D01*
X0391800Y0213933D01*
X0390550Y0213933D02*
X0390550Y0210183D01*
X0391800Y0210183D02*
X0391800Y0206433D01*
X0390550Y0206433D01*
X0391800Y0206433D02*
X0391800Y0203933D01*
X0385550Y0206433D02*
X0385552Y0206503D01*
X0385558Y0206573D01*
X0385568Y0206642D01*
X0385581Y0206711D01*
X0385599Y0206779D01*
X0385620Y0206846D01*
X0385645Y0206911D01*
X0385674Y0206975D01*
X0385706Y0207038D01*
X0385742Y0207098D01*
X0385781Y0207156D01*
X0385823Y0207212D01*
X0385868Y0207266D01*
X0385916Y0207317D01*
X0385967Y0207365D01*
X0386021Y0207410D01*
X0386077Y0207452D01*
X0386135Y0207491D01*
X0386195Y0207527D01*
X0386258Y0207559D01*
X0386322Y0207588D01*
X0386387Y0207613D01*
X0386454Y0207634D01*
X0386522Y0207652D01*
X0386591Y0207665D01*
X0386660Y0207675D01*
X0386730Y0207681D01*
X0386800Y0207683D01*
X0386870Y0207681D01*
X0386940Y0207675D01*
X0387009Y0207665D01*
X0387078Y0207652D01*
X0387146Y0207634D01*
X0387213Y0207613D01*
X0387278Y0207588D01*
X0387342Y0207559D01*
X0387405Y0207527D01*
X0387465Y0207491D01*
X0387523Y0207452D01*
X0387579Y0207410D01*
X0387633Y0207365D01*
X0387684Y0207317D01*
X0387732Y0207266D01*
X0387777Y0207212D01*
X0387819Y0207156D01*
X0387858Y0207098D01*
X0387894Y0207038D01*
X0387926Y0206975D01*
X0387955Y0206911D01*
X0387980Y0206846D01*
X0388001Y0206779D01*
X0388019Y0206711D01*
X0388032Y0206642D01*
X0388042Y0206573D01*
X0388048Y0206503D01*
X0388050Y0206433D01*
X0388048Y0206363D01*
X0388042Y0206293D01*
X0388032Y0206224D01*
X0388019Y0206155D01*
X0388001Y0206087D01*
X0387980Y0206020D01*
X0387955Y0205955D01*
X0387926Y0205891D01*
X0387894Y0205828D01*
X0387858Y0205768D01*
X0387819Y0205710D01*
X0387777Y0205654D01*
X0387732Y0205600D01*
X0387684Y0205549D01*
X0387633Y0205501D01*
X0387579Y0205456D01*
X0387523Y0205414D01*
X0387465Y0205375D01*
X0387405Y0205339D01*
X0387342Y0205307D01*
X0387278Y0205278D01*
X0387213Y0205253D01*
X0387146Y0205232D01*
X0387078Y0205214D01*
X0387009Y0205201D01*
X0386940Y0205191D01*
X0386870Y0205185D01*
X0386800Y0205183D01*
X0386730Y0205185D01*
X0386660Y0205191D01*
X0386591Y0205201D01*
X0386522Y0205214D01*
X0386454Y0205232D01*
X0386387Y0205253D01*
X0386322Y0205278D01*
X0386258Y0205307D01*
X0386195Y0205339D01*
X0386135Y0205375D01*
X0386077Y0205414D01*
X0386021Y0205456D01*
X0385967Y0205501D01*
X0385916Y0205549D01*
X0385868Y0205600D01*
X0385823Y0205654D01*
X0385781Y0205710D01*
X0385742Y0205768D01*
X0385706Y0205828D01*
X0385674Y0205891D01*
X0385645Y0205955D01*
X0385620Y0206020D01*
X0385599Y0206087D01*
X0385581Y0206155D01*
X0385568Y0206224D01*
X0385558Y0206293D01*
X0385552Y0206363D01*
X0385550Y0206433D01*
X0386800Y0211433D02*
X0386674Y0211190D01*
X0386543Y0210950D01*
X0386406Y0210714D01*
X0386264Y0210480D01*
X0386115Y0210251D01*
X0385961Y0210025D01*
X0385802Y0209803D01*
X0385637Y0209585D01*
X0385467Y0209371D01*
X0385292Y0209161D01*
X0385111Y0208955D01*
X0384926Y0208754D01*
X0384736Y0208558D01*
X0384541Y0208366D01*
X0384341Y0208179D01*
X0384137Y0207997D01*
X0383929Y0207820D01*
X0383716Y0207649D01*
X0383499Y0207482D01*
X0383278Y0207321D01*
X0383053Y0207165D01*
X0382825Y0207015D01*
X0382593Y0206871D01*
X0382357Y0206732D01*
X0382118Y0206599D01*
X0381876Y0206472D01*
X0381631Y0206351D01*
X0381383Y0206236D01*
X0381132Y0206127D01*
X0380879Y0206024D01*
X0380623Y0205927D01*
X0380365Y0205837D01*
X0380105Y0205753D01*
X0379843Y0205675D01*
X0379579Y0205604D01*
X0379313Y0205539D01*
X0379046Y0205481D01*
X0378778Y0205429D01*
X0378508Y0205384D01*
X0378237Y0205346D01*
X0377966Y0205314D01*
X0377693Y0205289D01*
X0377421Y0205270D01*
X0377147Y0205258D01*
X0376874Y0205253D01*
X0376601Y0205255D01*
X0376327Y0205263D01*
X0376054Y0205278D01*
X0375782Y0205299D01*
X0375510Y0205328D01*
X0375239Y0205363D01*
X0374968Y0205404D01*
X0374699Y0205452D01*
X0374431Y0205507D01*
X0374165Y0205568D01*
X0373900Y0205636D01*
X0373637Y0205710D01*
X0373376Y0205790D01*
X0373116Y0205877D01*
X0372859Y0205971D01*
X0372605Y0206070D01*
X0372352Y0206176D01*
X0372103Y0206288D01*
X0371856Y0206405D01*
X0371613Y0206529D01*
X0371372Y0206659D01*
X0371135Y0206795D01*
X0370901Y0206936D01*
X0370670Y0207083D01*
X0370443Y0207236D01*
X0370220Y0207394D01*
X0370001Y0207558D01*
X0369786Y0207727D01*
X0369575Y0207901D01*
X0369369Y0208080D01*
X0369167Y0208264D01*
X0368969Y0208453D01*
X0368777Y0208647D01*
X0368589Y0208846D01*
X0368406Y0209049D01*
X0368227Y0209256D01*
X0368055Y0209468D01*
X0367887Y0209684D01*
X0367724Y0209904D01*
X0367568Y0210128D01*
X0367416Y0210356D01*
X0367270Y0210587D01*
X0367130Y0210822D01*
X0366996Y0211060D01*
X0366867Y0211301D01*
X0366745Y0211546D01*
X0366628Y0211793D01*
X0366518Y0212043D01*
X0366414Y0212296D01*
X0366316Y0212551D01*
X0366224Y0212809D01*
X0366138Y0213068D01*
X0366059Y0213330D01*
X0365987Y0213594D01*
X0365920Y0213859D01*
X0365861Y0214126D01*
X0365808Y0214394D01*
X0365761Y0214663D01*
X0365721Y0214934D01*
X0365688Y0215205D01*
X0365661Y0215477D01*
X0365641Y0215750D01*
X0365628Y0216023D01*
X0365621Y0216296D01*
X0365621Y0216570D01*
X0365628Y0216843D01*
X0365641Y0217116D01*
X0365661Y0217389D01*
X0365688Y0217661D01*
X0365721Y0217932D01*
X0365761Y0218203D01*
X0365808Y0218472D01*
X0365861Y0218740D01*
X0365920Y0219007D01*
X0365987Y0219272D01*
X0366059Y0219536D01*
X0366138Y0219798D01*
X0366224Y0220057D01*
X0366316Y0220315D01*
X0366414Y0220570D01*
X0366518Y0220823D01*
X0366628Y0221073D01*
X0366745Y0221320D01*
X0366867Y0221565D01*
X0366996Y0221806D01*
X0367130Y0222044D01*
X0367270Y0222279D01*
X0367416Y0222510D01*
X0367568Y0222738D01*
X0367724Y0222962D01*
X0367887Y0223182D01*
X0368055Y0223398D01*
X0368227Y0223610D01*
X0368406Y0223817D01*
X0368589Y0224020D01*
X0368777Y0224219D01*
X0368969Y0224413D01*
X0369167Y0224602D01*
X0369369Y0224786D01*
X0369575Y0224965D01*
X0369786Y0225139D01*
X0370001Y0225308D01*
X0370220Y0225472D01*
X0370443Y0225630D01*
X0370670Y0225783D01*
X0370901Y0225930D01*
X0371135Y0226071D01*
X0371372Y0226207D01*
X0371613Y0226337D01*
X0371856Y0226461D01*
X0372103Y0226578D01*
X0372352Y0226690D01*
X0372605Y0226796D01*
X0372859Y0226895D01*
X0373116Y0226989D01*
X0373376Y0227076D01*
X0373637Y0227156D01*
X0373900Y0227230D01*
X0374165Y0227298D01*
X0374431Y0227359D01*
X0374699Y0227414D01*
X0374968Y0227462D01*
X0375239Y0227503D01*
X0375510Y0227538D01*
X0375782Y0227567D01*
X0376054Y0227588D01*
X0376327Y0227603D01*
X0376601Y0227611D01*
X0376874Y0227613D01*
X0377147Y0227608D01*
X0377421Y0227596D01*
X0377693Y0227577D01*
X0377966Y0227552D01*
X0378237Y0227520D01*
X0378508Y0227482D01*
X0378778Y0227437D01*
X0379046Y0227385D01*
X0379313Y0227327D01*
X0379579Y0227262D01*
X0379843Y0227191D01*
X0380105Y0227113D01*
X0380365Y0227029D01*
X0380623Y0226939D01*
X0380879Y0226842D01*
X0381132Y0226739D01*
X0381383Y0226630D01*
X0381631Y0226515D01*
X0381876Y0226394D01*
X0382118Y0226267D01*
X0382357Y0226134D01*
X0382593Y0225995D01*
X0382825Y0225851D01*
X0383053Y0225701D01*
X0383278Y0225545D01*
X0383499Y0225384D01*
X0383716Y0225217D01*
X0383929Y0225046D01*
X0384137Y0224869D01*
X0384341Y0224687D01*
X0384541Y0224500D01*
X0384736Y0224308D01*
X0384926Y0224112D01*
X0385111Y0223911D01*
X0385292Y0223705D01*
X0385467Y0223495D01*
X0385637Y0223281D01*
X0385802Y0223063D01*
X0385961Y0222841D01*
X0386115Y0222615D01*
X0386264Y0222386D01*
X0386406Y0222152D01*
X0386543Y0221916D01*
X0386674Y0221676D01*
X0386800Y0221433D01*
X0390550Y0226433D02*
X0390550Y0228933D01*
X0391800Y0228933D01*
X0391800Y0231433D01*
X0361800Y0231433D01*
X0391800Y0228933D02*
X0391800Y0226433D01*
X0314300Y0215183D02*
X0311800Y0215183D01*
X0109300Y0203933D02*
X0105550Y0203933D01*
X0105550Y0205183D01*
X0105550Y0203933D02*
X0101800Y0203933D01*
X0101800Y0215183D02*
X0104300Y0215183D01*
X0104300Y0222683D01*
X0101800Y0222683D01*
X0104300Y0225183D02*
X0104300Y0228933D01*
X0105550Y0228933D01*
X0104300Y0228933D02*
X0104300Y0232683D01*
X0089300Y0232683D02*
X0089300Y0228933D01*
X0088050Y0228933D01*
X0089300Y0228933D02*
X0089300Y0225183D01*
X0089300Y0222683D02*
X0091800Y0222683D01*
X0089300Y0222683D02*
X0089300Y0215183D01*
X0091800Y0215183D01*
X0061800Y0223933D02*
X0059300Y0218933D01*
X0056800Y0223933D01*
X0061800Y0223933D01*
X0061580Y0223494D02*
X0057020Y0223494D01*
X0057269Y0222995D02*
X0061331Y0222995D01*
X0061082Y0222497D02*
X0057518Y0222497D01*
X0057767Y0221998D02*
X0060833Y0221998D01*
X0060583Y0221500D02*
X0058017Y0221500D01*
X0058266Y0221001D02*
X0060334Y0221001D01*
X0060085Y0220503D02*
X0058515Y0220503D01*
X0058764Y0220004D02*
X0059836Y0220004D01*
X0059586Y0219506D02*
X0059014Y0219506D01*
X0059263Y0219007D02*
X0059337Y0219007D01*
X0059300Y0216433D02*
X0059300Y0226433D01*
X0050550Y0228933D02*
X0050550Y0231433D01*
X0043050Y0231433D01*
X0043050Y0228933D01*
X0040550Y0228933D02*
X0040550Y0231433D01*
X0033050Y0231433D01*
X0033050Y0228933D01*
X0031800Y0228933D02*
X0031800Y0226433D01*
X0030550Y0226433D01*
X0030550Y0222683D01*
X0031800Y0222683D01*
X0031800Y0226433D01*
X0030550Y0226433D02*
X0030550Y0228933D01*
X0031800Y0228933D01*
X0031800Y0231433D01*
X0001800Y0231433D01*
X0001800Y0201433D01*
X0031800Y0201433D01*
X0031800Y0203933D01*
X0030550Y0203933D01*
X0030550Y0206433D01*
X0030550Y0210183D01*
X0031800Y0210183D01*
X0031800Y0213933D01*
X0031800Y0218933D01*
X0030550Y0218933D01*
X0030550Y0222683D01*
X0031800Y0222683D02*
X0031800Y0218933D01*
X0030550Y0218933D02*
X0030550Y0213933D01*
X0031800Y0213933D01*
X0030550Y0213933D02*
X0030550Y0210183D01*
X0031800Y0210183D02*
X0031800Y0206433D01*
X0030550Y0206433D01*
X0031800Y0206433D02*
X0031800Y0203933D01*
X0025550Y0206433D02*
X0025552Y0206503D01*
X0025558Y0206573D01*
X0025568Y0206642D01*
X0025581Y0206711D01*
X0025599Y0206779D01*
X0025620Y0206846D01*
X0025645Y0206911D01*
X0025674Y0206975D01*
X0025706Y0207038D01*
X0025742Y0207098D01*
X0025781Y0207156D01*
X0025823Y0207212D01*
X0025868Y0207266D01*
X0025916Y0207317D01*
X0025967Y0207365D01*
X0026021Y0207410D01*
X0026077Y0207452D01*
X0026135Y0207491D01*
X0026195Y0207527D01*
X0026258Y0207559D01*
X0026322Y0207588D01*
X0026387Y0207613D01*
X0026454Y0207634D01*
X0026522Y0207652D01*
X0026591Y0207665D01*
X0026660Y0207675D01*
X0026730Y0207681D01*
X0026800Y0207683D01*
X0026870Y0207681D01*
X0026940Y0207675D01*
X0027009Y0207665D01*
X0027078Y0207652D01*
X0027146Y0207634D01*
X0027213Y0207613D01*
X0027278Y0207588D01*
X0027342Y0207559D01*
X0027405Y0207527D01*
X0027465Y0207491D01*
X0027523Y0207452D01*
X0027579Y0207410D01*
X0027633Y0207365D01*
X0027684Y0207317D01*
X0027732Y0207266D01*
X0027777Y0207212D01*
X0027819Y0207156D01*
X0027858Y0207098D01*
X0027894Y0207038D01*
X0027926Y0206975D01*
X0027955Y0206911D01*
X0027980Y0206846D01*
X0028001Y0206779D01*
X0028019Y0206711D01*
X0028032Y0206642D01*
X0028042Y0206573D01*
X0028048Y0206503D01*
X0028050Y0206433D01*
X0028048Y0206363D01*
X0028042Y0206293D01*
X0028032Y0206224D01*
X0028019Y0206155D01*
X0028001Y0206087D01*
X0027980Y0206020D01*
X0027955Y0205955D01*
X0027926Y0205891D01*
X0027894Y0205828D01*
X0027858Y0205768D01*
X0027819Y0205710D01*
X0027777Y0205654D01*
X0027732Y0205600D01*
X0027684Y0205549D01*
X0027633Y0205501D01*
X0027579Y0205456D01*
X0027523Y0205414D01*
X0027465Y0205375D01*
X0027405Y0205339D01*
X0027342Y0205307D01*
X0027278Y0205278D01*
X0027213Y0205253D01*
X0027146Y0205232D01*
X0027078Y0205214D01*
X0027009Y0205201D01*
X0026940Y0205191D01*
X0026870Y0205185D01*
X0026800Y0205183D01*
X0026730Y0205185D01*
X0026660Y0205191D01*
X0026591Y0205201D01*
X0026522Y0205214D01*
X0026454Y0205232D01*
X0026387Y0205253D01*
X0026322Y0205278D01*
X0026258Y0205307D01*
X0026195Y0205339D01*
X0026135Y0205375D01*
X0026077Y0205414D01*
X0026021Y0205456D01*
X0025967Y0205501D01*
X0025916Y0205549D01*
X0025868Y0205600D01*
X0025823Y0205654D01*
X0025781Y0205710D01*
X0025742Y0205768D01*
X0025706Y0205828D01*
X0025674Y0205891D01*
X0025645Y0205955D01*
X0025620Y0206020D01*
X0025599Y0206087D01*
X0025581Y0206155D01*
X0025568Y0206224D01*
X0025558Y0206293D01*
X0025552Y0206363D01*
X0025550Y0206433D01*
X0033050Y0216433D02*
X0033050Y0218933D01*
X0033050Y0216433D02*
X0040550Y0216433D01*
X0040550Y0218933D01*
X0043050Y0218933D02*
X0043050Y0216433D01*
X0050550Y0216433D01*
X0050550Y0218933D01*
X0026800Y0221433D02*
X0026674Y0221676D01*
X0026543Y0221916D01*
X0026406Y0222152D01*
X0026264Y0222386D01*
X0026115Y0222615D01*
X0025961Y0222841D01*
X0025802Y0223063D01*
X0025637Y0223281D01*
X0025467Y0223495D01*
X0025292Y0223705D01*
X0025111Y0223911D01*
X0024926Y0224112D01*
X0024736Y0224308D01*
X0024541Y0224500D01*
X0024341Y0224687D01*
X0024137Y0224869D01*
X0023929Y0225046D01*
X0023716Y0225217D01*
X0023499Y0225384D01*
X0023278Y0225545D01*
X0023053Y0225701D01*
X0022825Y0225851D01*
X0022593Y0225995D01*
X0022357Y0226134D01*
X0022118Y0226267D01*
X0021876Y0226394D01*
X0021631Y0226515D01*
X0021383Y0226630D01*
X0021132Y0226739D01*
X0020879Y0226842D01*
X0020623Y0226939D01*
X0020365Y0227029D01*
X0020105Y0227113D01*
X0019843Y0227191D01*
X0019579Y0227262D01*
X0019313Y0227327D01*
X0019046Y0227385D01*
X0018778Y0227437D01*
X0018508Y0227482D01*
X0018237Y0227520D01*
X0017966Y0227552D01*
X0017693Y0227577D01*
X0017421Y0227596D01*
X0017147Y0227608D01*
X0016874Y0227613D01*
X0016601Y0227611D01*
X0016327Y0227603D01*
X0016054Y0227588D01*
X0015782Y0227567D01*
X0015510Y0227538D01*
X0015239Y0227503D01*
X0014968Y0227462D01*
X0014699Y0227414D01*
X0014431Y0227359D01*
X0014165Y0227298D01*
X0013900Y0227230D01*
X0013637Y0227156D01*
X0013376Y0227076D01*
X0013116Y0226989D01*
X0012859Y0226895D01*
X0012605Y0226796D01*
X0012352Y0226690D01*
X0012103Y0226578D01*
X0011856Y0226461D01*
X0011613Y0226337D01*
X0011372Y0226207D01*
X0011135Y0226071D01*
X0010901Y0225930D01*
X0010670Y0225783D01*
X0010443Y0225630D01*
X0010220Y0225472D01*
X0010001Y0225308D01*
X0009786Y0225139D01*
X0009575Y0224965D01*
X0009369Y0224786D01*
X0009167Y0224602D01*
X0008969Y0224413D01*
X0008777Y0224219D01*
X0008589Y0224020D01*
X0008406Y0223817D01*
X0008227Y0223610D01*
X0008055Y0223398D01*
X0007887Y0223182D01*
X0007724Y0222962D01*
X0007568Y0222738D01*
X0007416Y0222510D01*
X0007270Y0222279D01*
X0007130Y0222044D01*
X0006996Y0221806D01*
X0006867Y0221565D01*
X0006745Y0221320D01*
X0006628Y0221073D01*
X0006518Y0220823D01*
X0006414Y0220570D01*
X0006316Y0220315D01*
X0006224Y0220057D01*
X0006138Y0219798D01*
X0006059Y0219536D01*
X0005987Y0219272D01*
X0005920Y0219007D01*
X0005861Y0218740D01*
X0005808Y0218472D01*
X0005761Y0218203D01*
X0005721Y0217932D01*
X0005688Y0217661D01*
X0005661Y0217389D01*
X0005641Y0217116D01*
X0005628Y0216843D01*
X0005621Y0216570D01*
X0005621Y0216296D01*
X0005628Y0216023D01*
X0005641Y0215750D01*
X0005661Y0215477D01*
X0005688Y0215205D01*
X0005721Y0214934D01*
X0005761Y0214663D01*
X0005808Y0214394D01*
X0005861Y0214126D01*
X0005920Y0213859D01*
X0005987Y0213594D01*
X0006059Y0213330D01*
X0006138Y0213068D01*
X0006224Y0212809D01*
X0006316Y0212551D01*
X0006414Y0212296D01*
X0006518Y0212043D01*
X0006628Y0211793D01*
X0006745Y0211546D01*
X0006867Y0211301D01*
X0006996Y0211060D01*
X0007130Y0210822D01*
X0007270Y0210587D01*
X0007416Y0210356D01*
X0007568Y0210128D01*
X0007724Y0209904D01*
X0007887Y0209684D01*
X0008055Y0209468D01*
X0008227Y0209256D01*
X0008406Y0209049D01*
X0008589Y0208846D01*
X0008777Y0208647D01*
X0008969Y0208453D01*
X0009167Y0208264D01*
X0009369Y0208080D01*
X0009575Y0207901D01*
X0009786Y0207727D01*
X0010001Y0207558D01*
X0010220Y0207394D01*
X0010443Y0207236D01*
X0010670Y0207083D01*
X0010901Y0206936D01*
X0011135Y0206795D01*
X0011372Y0206659D01*
X0011613Y0206529D01*
X0011856Y0206405D01*
X0012103Y0206288D01*
X0012352Y0206176D01*
X0012605Y0206070D01*
X0012859Y0205971D01*
X0013116Y0205877D01*
X0013376Y0205790D01*
X0013637Y0205710D01*
X0013900Y0205636D01*
X0014165Y0205568D01*
X0014431Y0205507D01*
X0014699Y0205452D01*
X0014968Y0205404D01*
X0015239Y0205363D01*
X0015510Y0205328D01*
X0015782Y0205299D01*
X0016054Y0205278D01*
X0016327Y0205263D01*
X0016601Y0205255D01*
X0016874Y0205253D01*
X0017147Y0205258D01*
X0017421Y0205270D01*
X0017693Y0205289D01*
X0017966Y0205314D01*
X0018237Y0205346D01*
X0018508Y0205384D01*
X0018778Y0205429D01*
X0019046Y0205481D01*
X0019313Y0205539D01*
X0019579Y0205604D01*
X0019843Y0205675D01*
X0020105Y0205753D01*
X0020365Y0205837D01*
X0020623Y0205927D01*
X0020879Y0206024D01*
X0021132Y0206127D01*
X0021383Y0206236D01*
X0021631Y0206351D01*
X0021876Y0206472D01*
X0022118Y0206599D01*
X0022357Y0206732D01*
X0022593Y0206871D01*
X0022825Y0207015D01*
X0023053Y0207165D01*
X0023278Y0207321D01*
X0023499Y0207482D01*
X0023716Y0207649D01*
X0023929Y0207820D01*
X0024137Y0207997D01*
X0024341Y0208179D01*
X0024541Y0208366D01*
X0024736Y0208558D01*
X0024926Y0208754D01*
X0025111Y0208955D01*
X0025292Y0209161D01*
X0025467Y0209371D01*
X0025637Y0209585D01*
X0025802Y0209803D01*
X0025961Y0210025D01*
X0026115Y0210251D01*
X0026264Y0210480D01*
X0026406Y0210714D01*
X0026543Y0210950D01*
X0026674Y0211190D01*
X0026800Y0211433D01*
X0031800Y0191433D02*
X0001800Y0191433D01*
X0001800Y0188933D01*
X0003050Y0188933D01*
X0003050Y0186433D01*
X0003050Y0182683D01*
X0001800Y0182683D01*
X0001800Y0178933D01*
X0001800Y0173933D01*
X0003050Y0173933D01*
X0003050Y0170183D01*
X0001800Y0170183D01*
X0001800Y0166433D01*
X0003050Y0166433D01*
X0003050Y0170183D01*
X0001800Y0170183D02*
X0001800Y0173933D01*
X0003050Y0173933D02*
X0003050Y0178933D01*
X0001800Y0178933D01*
X0003050Y0178933D02*
X0003050Y0182683D01*
X0001800Y0182683D02*
X0001800Y0186433D01*
X0003050Y0186433D01*
X0001800Y0186433D02*
X0001800Y0188933D01*
X0005550Y0186433D02*
X0005552Y0186503D01*
X0005558Y0186573D01*
X0005568Y0186642D01*
X0005581Y0186711D01*
X0005599Y0186779D01*
X0005620Y0186846D01*
X0005645Y0186911D01*
X0005674Y0186975D01*
X0005706Y0187038D01*
X0005742Y0187098D01*
X0005781Y0187156D01*
X0005823Y0187212D01*
X0005868Y0187266D01*
X0005916Y0187317D01*
X0005967Y0187365D01*
X0006021Y0187410D01*
X0006077Y0187452D01*
X0006135Y0187491D01*
X0006195Y0187527D01*
X0006258Y0187559D01*
X0006322Y0187588D01*
X0006387Y0187613D01*
X0006454Y0187634D01*
X0006522Y0187652D01*
X0006591Y0187665D01*
X0006660Y0187675D01*
X0006730Y0187681D01*
X0006800Y0187683D01*
X0006870Y0187681D01*
X0006940Y0187675D01*
X0007009Y0187665D01*
X0007078Y0187652D01*
X0007146Y0187634D01*
X0007213Y0187613D01*
X0007278Y0187588D01*
X0007342Y0187559D01*
X0007405Y0187527D01*
X0007465Y0187491D01*
X0007523Y0187452D01*
X0007579Y0187410D01*
X0007633Y0187365D01*
X0007684Y0187317D01*
X0007732Y0187266D01*
X0007777Y0187212D01*
X0007819Y0187156D01*
X0007858Y0187098D01*
X0007894Y0187038D01*
X0007926Y0186975D01*
X0007955Y0186911D01*
X0007980Y0186846D01*
X0008001Y0186779D01*
X0008019Y0186711D01*
X0008032Y0186642D01*
X0008042Y0186573D01*
X0008048Y0186503D01*
X0008050Y0186433D01*
X0008048Y0186363D01*
X0008042Y0186293D01*
X0008032Y0186224D01*
X0008019Y0186155D01*
X0008001Y0186087D01*
X0007980Y0186020D01*
X0007955Y0185955D01*
X0007926Y0185891D01*
X0007894Y0185828D01*
X0007858Y0185768D01*
X0007819Y0185710D01*
X0007777Y0185654D01*
X0007732Y0185600D01*
X0007684Y0185549D01*
X0007633Y0185501D01*
X0007579Y0185456D01*
X0007523Y0185414D01*
X0007465Y0185375D01*
X0007405Y0185339D01*
X0007342Y0185307D01*
X0007278Y0185278D01*
X0007213Y0185253D01*
X0007146Y0185232D01*
X0007078Y0185214D01*
X0007009Y0185201D01*
X0006940Y0185191D01*
X0006870Y0185185D01*
X0006800Y0185183D01*
X0006730Y0185185D01*
X0006660Y0185191D01*
X0006591Y0185201D01*
X0006522Y0185214D01*
X0006454Y0185232D01*
X0006387Y0185253D01*
X0006322Y0185278D01*
X0006258Y0185307D01*
X0006195Y0185339D01*
X0006135Y0185375D01*
X0006077Y0185414D01*
X0006021Y0185456D01*
X0005967Y0185501D01*
X0005916Y0185549D01*
X0005868Y0185600D01*
X0005823Y0185654D01*
X0005781Y0185710D01*
X0005742Y0185768D01*
X0005706Y0185828D01*
X0005674Y0185891D01*
X0005645Y0185955D01*
X0005620Y0186020D01*
X0005599Y0186087D01*
X0005581Y0186155D01*
X0005568Y0186224D01*
X0005558Y0186293D01*
X0005552Y0186363D01*
X0005550Y0186433D01*
X0006800Y0181433D02*
X0006926Y0181676D01*
X0007057Y0181916D01*
X0007194Y0182152D01*
X0007336Y0182386D01*
X0007485Y0182615D01*
X0007639Y0182841D01*
X0007798Y0183063D01*
X0007963Y0183281D01*
X0008133Y0183495D01*
X0008308Y0183705D01*
X0008489Y0183911D01*
X0008674Y0184112D01*
X0008864Y0184308D01*
X0009059Y0184500D01*
X0009259Y0184687D01*
X0009463Y0184869D01*
X0009671Y0185046D01*
X0009884Y0185217D01*
X0010101Y0185384D01*
X0010322Y0185545D01*
X0010547Y0185701D01*
X0010775Y0185851D01*
X0011007Y0185995D01*
X0011243Y0186134D01*
X0011482Y0186267D01*
X0011724Y0186394D01*
X0011969Y0186515D01*
X0012217Y0186630D01*
X0012468Y0186739D01*
X0012721Y0186842D01*
X0012977Y0186939D01*
X0013235Y0187029D01*
X0013495Y0187113D01*
X0013757Y0187191D01*
X0014021Y0187262D01*
X0014287Y0187327D01*
X0014554Y0187385D01*
X0014822Y0187437D01*
X0015092Y0187482D01*
X0015363Y0187520D01*
X0015634Y0187552D01*
X0015907Y0187577D01*
X0016179Y0187596D01*
X0016453Y0187608D01*
X0016726Y0187613D01*
X0016999Y0187611D01*
X0017273Y0187603D01*
X0017546Y0187588D01*
X0017818Y0187567D01*
X0018090Y0187538D01*
X0018361Y0187503D01*
X0018632Y0187462D01*
X0018901Y0187414D01*
X0019169Y0187359D01*
X0019435Y0187298D01*
X0019700Y0187230D01*
X0019963Y0187156D01*
X0020224Y0187076D01*
X0020484Y0186989D01*
X0020741Y0186895D01*
X0020995Y0186796D01*
X0021248Y0186690D01*
X0021497Y0186578D01*
X0021744Y0186461D01*
X0021987Y0186337D01*
X0022228Y0186207D01*
X0022465Y0186071D01*
X0022699Y0185930D01*
X0022930Y0185783D01*
X0023157Y0185630D01*
X0023380Y0185472D01*
X0023599Y0185308D01*
X0023814Y0185139D01*
X0024025Y0184965D01*
X0024231Y0184786D01*
X0024433Y0184602D01*
X0024631Y0184413D01*
X0024823Y0184219D01*
X0025011Y0184020D01*
X0025194Y0183817D01*
X0025373Y0183610D01*
X0025545Y0183398D01*
X0025713Y0183182D01*
X0025876Y0182962D01*
X0026032Y0182738D01*
X0026184Y0182510D01*
X0026330Y0182279D01*
X0026470Y0182044D01*
X0026604Y0181806D01*
X0026733Y0181565D01*
X0026855Y0181320D01*
X0026972Y0181073D01*
X0027082Y0180823D01*
X0027186Y0180570D01*
X0027284Y0180315D01*
X0027376Y0180057D01*
X0027462Y0179798D01*
X0027541Y0179536D01*
X0027613Y0179272D01*
X0027680Y0179007D01*
X0027739Y0178740D01*
X0027792Y0178472D01*
X0027839Y0178203D01*
X0027879Y0177932D01*
X0027912Y0177661D01*
X0027939Y0177389D01*
X0027959Y0177116D01*
X0027972Y0176843D01*
X0027979Y0176570D01*
X0027979Y0176296D01*
X0027972Y0176023D01*
X0027959Y0175750D01*
X0027939Y0175477D01*
X0027912Y0175205D01*
X0027879Y0174934D01*
X0027839Y0174663D01*
X0027792Y0174394D01*
X0027739Y0174126D01*
X0027680Y0173859D01*
X0027613Y0173594D01*
X0027541Y0173330D01*
X0027462Y0173068D01*
X0027376Y0172809D01*
X0027284Y0172551D01*
X0027186Y0172296D01*
X0027082Y0172043D01*
X0026972Y0171793D01*
X0026855Y0171546D01*
X0026733Y0171301D01*
X0026604Y0171060D01*
X0026470Y0170822D01*
X0026330Y0170587D01*
X0026184Y0170356D01*
X0026032Y0170128D01*
X0025876Y0169904D01*
X0025713Y0169684D01*
X0025545Y0169468D01*
X0025373Y0169256D01*
X0025194Y0169049D01*
X0025011Y0168846D01*
X0024823Y0168647D01*
X0024631Y0168453D01*
X0024433Y0168264D01*
X0024231Y0168080D01*
X0024025Y0167901D01*
X0023814Y0167727D01*
X0023599Y0167558D01*
X0023380Y0167394D01*
X0023157Y0167236D01*
X0022930Y0167083D01*
X0022699Y0166936D01*
X0022465Y0166795D01*
X0022228Y0166659D01*
X0021987Y0166529D01*
X0021744Y0166405D01*
X0021497Y0166288D01*
X0021248Y0166176D01*
X0020995Y0166070D01*
X0020741Y0165971D01*
X0020484Y0165877D01*
X0020224Y0165790D01*
X0019963Y0165710D01*
X0019700Y0165636D01*
X0019435Y0165568D01*
X0019169Y0165507D01*
X0018901Y0165452D01*
X0018632Y0165404D01*
X0018361Y0165363D01*
X0018090Y0165328D01*
X0017818Y0165299D01*
X0017546Y0165278D01*
X0017273Y0165263D01*
X0016999Y0165255D01*
X0016726Y0165253D01*
X0016453Y0165258D01*
X0016179Y0165270D01*
X0015907Y0165289D01*
X0015634Y0165314D01*
X0015363Y0165346D01*
X0015092Y0165384D01*
X0014822Y0165429D01*
X0014554Y0165481D01*
X0014287Y0165539D01*
X0014021Y0165604D01*
X0013757Y0165675D01*
X0013495Y0165753D01*
X0013235Y0165837D01*
X0012977Y0165927D01*
X0012721Y0166024D01*
X0012468Y0166127D01*
X0012217Y0166236D01*
X0011969Y0166351D01*
X0011724Y0166472D01*
X0011482Y0166599D01*
X0011243Y0166732D01*
X0011007Y0166871D01*
X0010775Y0167015D01*
X0010547Y0167165D01*
X0010322Y0167321D01*
X0010101Y0167482D01*
X0009884Y0167649D01*
X0009671Y0167820D01*
X0009463Y0167997D01*
X0009259Y0168179D01*
X0009059Y0168366D01*
X0008864Y0168558D01*
X0008674Y0168754D01*
X0008489Y0168955D01*
X0008308Y0169161D01*
X0008133Y0169371D01*
X0007963Y0169585D01*
X0007798Y0169803D01*
X0007639Y0170025D01*
X0007485Y0170251D01*
X0007336Y0170480D01*
X0007194Y0170714D01*
X0007057Y0170950D01*
X0006926Y0171190D01*
X0006800Y0171433D01*
X0003050Y0166433D02*
X0003050Y0163933D01*
X0001800Y0163933D01*
X0001800Y0161433D01*
X0031800Y0161433D01*
X0031800Y0191433D01*
X0033050Y0176433D02*
X0033050Y0173933D01*
X0033050Y0176433D02*
X0040550Y0176433D01*
X0040550Y0173933D01*
X0043050Y0173933D02*
X0043050Y0176433D01*
X0050550Y0176433D01*
X0050550Y0173933D01*
X0057659Y0170652D02*
X0060941Y0170652D01*
X0060691Y0171150D02*
X0057909Y0171150D01*
X0058158Y0171649D02*
X0060442Y0171649D01*
X0060193Y0172147D02*
X0058407Y0172147D01*
X0058656Y0172646D02*
X0059944Y0172646D01*
X0059694Y0173144D02*
X0058906Y0173144D01*
X0059155Y0173643D02*
X0059445Y0173643D01*
X0059300Y0173933D02*
X0056800Y0168933D01*
X0061800Y0168933D01*
X0059300Y0173933D01*
X0059300Y0176433D02*
X0059300Y0166433D01*
X0056912Y0169156D02*
X0061688Y0169156D01*
X0061439Y0169655D02*
X0057161Y0169655D01*
X0057410Y0170153D02*
X0061190Y0170153D01*
X0050550Y0163933D02*
X0050550Y0161433D01*
X0043050Y0161433D01*
X0043050Y0163933D01*
X0040550Y0163933D02*
X0040550Y0161433D01*
X0033050Y0161433D01*
X0033050Y0163933D01*
X0034300Y0152683D02*
X0031800Y0152683D01*
X0034300Y0152683D02*
X0034300Y0145183D01*
X0031800Y0145183D01*
X0021800Y0145183D02*
X0019300Y0145183D01*
X0019300Y0152683D01*
X0021800Y0152683D01*
X0001800Y0163933D02*
X0001800Y0166433D01*
X0019300Y0135183D02*
X0021800Y0135183D01*
X0019300Y0135183D02*
X0019300Y0127683D01*
X0021800Y0127683D01*
X0031800Y0127683D02*
X0034300Y0127683D01*
X0034300Y0135183D01*
X0031800Y0135183D01*
X0049300Y0123933D02*
X0049302Y0124003D01*
X0049308Y0124073D01*
X0049318Y0124142D01*
X0049331Y0124211D01*
X0049349Y0124279D01*
X0049370Y0124346D01*
X0049395Y0124411D01*
X0049424Y0124475D01*
X0049456Y0124538D01*
X0049492Y0124598D01*
X0049531Y0124656D01*
X0049573Y0124712D01*
X0049618Y0124766D01*
X0049666Y0124817D01*
X0049717Y0124865D01*
X0049771Y0124910D01*
X0049827Y0124952D01*
X0049885Y0124991D01*
X0049945Y0125027D01*
X0050008Y0125059D01*
X0050072Y0125088D01*
X0050137Y0125113D01*
X0050204Y0125134D01*
X0050272Y0125152D01*
X0050341Y0125165D01*
X0050410Y0125175D01*
X0050480Y0125181D01*
X0050550Y0125183D01*
X0050620Y0125181D01*
X0050690Y0125175D01*
X0050759Y0125165D01*
X0050828Y0125152D01*
X0050896Y0125134D01*
X0050963Y0125113D01*
X0051028Y0125088D01*
X0051092Y0125059D01*
X0051155Y0125027D01*
X0051215Y0124991D01*
X0051273Y0124952D01*
X0051329Y0124910D01*
X0051383Y0124865D01*
X0051434Y0124817D01*
X0051482Y0124766D01*
X0051527Y0124712D01*
X0051569Y0124656D01*
X0051608Y0124598D01*
X0051644Y0124538D01*
X0051676Y0124475D01*
X0051705Y0124411D01*
X0051730Y0124346D01*
X0051751Y0124279D01*
X0051769Y0124211D01*
X0051782Y0124142D01*
X0051792Y0124073D01*
X0051798Y0124003D01*
X0051800Y0123933D01*
X0051798Y0123863D01*
X0051792Y0123793D01*
X0051782Y0123724D01*
X0051769Y0123655D01*
X0051751Y0123587D01*
X0051730Y0123520D01*
X0051705Y0123455D01*
X0051676Y0123391D01*
X0051644Y0123328D01*
X0051608Y0123268D01*
X0051569Y0123210D01*
X0051527Y0123154D01*
X0051482Y0123100D01*
X0051434Y0123049D01*
X0051383Y0123001D01*
X0051329Y0122956D01*
X0051273Y0122914D01*
X0051215Y0122875D01*
X0051155Y0122839D01*
X0051092Y0122807D01*
X0051028Y0122778D01*
X0050963Y0122753D01*
X0050896Y0122732D01*
X0050828Y0122714D01*
X0050759Y0122701D01*
X0050690Y0122691D01*
X0050620Y0122685D01*
X0050550Y0122683D01*
X0050480Y0122685D01*
X0050410Y0122691D01*
X0050341Y0122701D01*
X0050272Y0122714D01*
X0050204Y0122732D01*
X0050137Y0122753D01*
X0050072Y0122778D01*
X0050008Y0122807D01*
X0049945Y0122839D01*
X0049885Y0122875D01*
X0049827Y0122914D01*
X0049771Y0122956D01*
X0049717Y0123001D01*
X0049666Y0123049D01*
X0049618Y0123100D01*
X0049573Y0123154D01*
X0049531Y0123210D01*
X0049492Y0123268D01*
X0049456Y0123328D01*
X0049424Y0123391D01*
X0049395Y0123455D01*
X0049370Y0123520D01*
X0049349Y0123587D01*
X0049331Y0123655D01*
X0049318Y0123724D01*
X0049308Y0123793D01*
X0049302Y0123863D01*
X0049300Y0123933D01*
X0074300Y0120183D02*
X0076800Y0120183D01*
X0074300Y0120183D02*
X0074300Y0127683D01*
X0076800Y0127683D01*
X0034300Y0105183D02*
X0031800Y0105183D01*
X0034300Y0105183D02*
X0034300Y0097683D01*
X0031800Y0097683D01*
X0021800Y0097683D02*
X0019300Y0097683D01*
X0019300Y0105183D01*
X0021800Y0105183D01*
X0021800Y0090183D02*
X0019300Y0090183D01*
X0019300Y0082683D01*
X0021800Y0082683D01*
X0031800Y0082683D02*
X0034300Y0082683D01*
X0034300Y0090183D01*
X0031800Y0090183D01*
X0229300Y0087683D02*
X0231800Y0087683D01*
D12*
X0062530Y0083786D02*
X0062530Y0080883D01*
X0062530Y0081851D02*
X0063981Y0081851D01*
X0064465Y0082334D01*
X0064465Y0083302D01*
X0063981Y0083786D01*
X0062530Y0083786D01*
X0063498Y0081851D02*
X0064465Y0080883D01*
X0065477Y0081367D02*
X0065960Y0080883D01*
X0066928Y0080883D01*
X0067412Y0081367D01*
X0067412Y0081851D01*
X0066928Y0082334D01*
X0066444Y0082334D01*
X0066928Y0082334D02*
X0067412Y0082818D01*
X0067412Y0083302D01*
X0066928Y0083786D01*
X0065960Y0083786D01*
X0065477Y0083302D01*
X0068423Y0083786D02*
X0070358Y0083786D01*
X0070358Y0083302D01*
X0068423Y0081367D01*
X0068423Y0080883D01*
X0077434Y0091583D02*
X0078401Y0091583D01*
X0078885Y0092067D01*
X0079897Y0091583D02*
X0081831Y0091583D01*
X0080864Y0091583D02*
X0080864Y0094486D01*
X0079897Y0093518D01*
X0078885Y0094002D02*
X0078401Y0094486D01*
X0077434Y0094486D01*
X0076950Y0094002D01*
X0076950Y0092067D01*
X0077434Y0091583D01*
X0082843Y0092067D02*
X0082843Y0094002D01*
X0083327Y0094486D01*
X0084294Y0094486D01*
X0084778Y0094002D01*
X0082843Y0092067D01*
X0083327Y0091583D01*
X0084294Y0091583D01*
X0084778Y0092067D01*
X0084778Y0094002D01*
X0081705Y0102133D02*
X0081705Y0105036D01*
X0080253Y0103584D01*
X0082188Y0103584D01*
X0079242Y0102617D02*
X0079242Y0104552D01*
X0078758Y0105036D01*
X0077307Y0105036D01*
X0077307Y0102133D01*
X0078758Y0102133D01*
X0079242Y0102617D01*
X0072858Y0108867D02*
X0072374Y0108383D01*
X0071407Y0108383D01*
X0070923Y0108867D01*
X0070923Y0109351D01*
X0071407Y0109834D01*
X0072374Y0109834D01*
X0072858Y0109351D01*
X0072858Y0108867D01*
X0072374Y0109834D02*
X0072858Y0110318D01*
X0072858Y0110802D01*
X0072374Y0111286D01*
X0071407Y0111286D01*
X0070923Y0110802D01*
X0070923Y0110318D01*
X0071407Y0109834D01*
X0069912Y0109351D02*
X0069912Y0108867D01*
X0069428Y0108383D01*
X0068460Y0108383D01*
X0067977Y0108867D01*
X0066965Y0108383D02*
X0065998Y0109351D01*
X0066481Y0109351D02*
X0065030Y0109351D01*
X0065030Y0108383D02*
X0065030Y0111286D01*
X0066481Y0111286D01*
X0066965Y0110802D01*
X0066965Y0109834D01*
X0066481Y0109351D01*
X0067977Y0110802D02*
X0068460Y0111286D01*
X0069428Y0111286D01*
X0069912Y0110802D01*
X0069912Y0110318D01*
X0069428Y0109834D01*
X0069912Y0109351D01*
X0069428Y0109834D02*
X0068944Y0109834D01*
X0067977Y0121583D02*
X0069912Y0123518D01*
X0069912Y0124002D01*
X0069428Y0124486D01*
X0068460Y0124486D01*
X0067977Y0124002D01*
X0066965Y0124002D02*
X0066965Y0123034D01*
X0066481Y0122551D01*
X0065030Y0122551D01*
X0065998Y0122551D02*
X0066965Y0121583D01*
X0067977Y0121583D02*
X0069912Y0121583D01*
X0070923Y0122067D02*
X0071407Y0121583D01*
X0072374Y0121583D01*
X0072858Y0122067D01*
X0072858Y0122551D01*
X0072374Y0123034D01*
X0070923Y0123034D01*
X0070923Y0122067D01*
X0070923Y0123034D02*
X0071891Y0124002D01*
X0072858Y0124486D01*
X0066965Y0124002D02*
X0066481Y0124486D01*
X0065030Y0124486D01*
X0065030Y0121583D01*
X0053796Y0127083D02*
X0051861Y0127083D01*
X0053796Y0129018D01*
X0053796Y0129502D01*
X0053312Y0129986D01*
X0052345Y0129986D01*
X0051861Y0129502D01*
X0050849Y0129502D02*
X0050366Y0129986D01*
X0049398Y0129986D01*
X0048914Y0129502D01*
X0048914Y0127567D01*
X0049398Y0127083D01*
X0050366Y0127083D01*
X0050849Y0127567D01*
X0047917Y0127083D02*
X0046950Y0127083D01*
X0047434Y0127083D02*
X0047434Y0129986D01*
X0047917Y0129986D02*
X0046950Y0129986D01*
X0030358Y0137067D02*
X0030358Y0139002D01*
X0028423Y0137067D01*
X0028907Y0136583D01*
X0029874Y0136583D01*
X0030358Y0137067D01*
X0028423Y0137067D02*
X0028423Y0139002D01*
X0028907Y0139486D01*
X0029874Y0139486D01*
X0030358Y0139002D01*
X0029874Y0140883D02*
X0028907Y0140883D01*
X0028423Y0141367D01*
X0028423Y0142334D02*
X0029391Y0142818D01*
X0029874Y0142818D01*
X0030358Y0142334D01*
X0030358Y0141367D01*
X0029874Y0140883D01*
X0028423Y0142334D02*
X0028423Y0143786D01*
X0030358Y0143786D01*
X0027412Y0143302D02*
X0027412Y0142818D01*
X0026928Y0142334D01*
X0027412Y0141851D01*
X0027412Y0141367D01*
X0026928Y0140883D01*
X0025960Y0140883D01*
X0025477Y0141367D01*
X0024465Y0140883D02*
X0023498Y0141851D01*
X0023981Y0141851D02*
X0022530Y0141851D01*
X0022530Y0140883D02*
X0022530Y0143786D01*
X0023981Y0143786D01*
X0024465Y0143302D01*
X0024465Y0142334D01*
X0023981Y0141851D01*
X0025477Y0143302D02*
X0025960Y0143786D01*
X0026928Y0143786D01*
X0027412Y0143302D01*
X0026928Y0142334D02*
X0026444Y0142334D01*
X0025477Y0139486D02*
X0025477Y0138034D01*
X0026444Y0138518D01*
X0026928Y0138518D01*
X0027412Y0138034D01*
X0027412Y0137067D01*
X0026928Y0136583D01*
X0025960Y0136583D01*
X0025477Y0137067D01*
X0024465Y0136583D02*
X0023498Y0137551D01*
X0023981Y0137551D02*
X0022530Y0137551D01*
X0022530Y0136583D02*
X0022530Y0139486D01*
X0023981Y0139486D01*
X0024465Y0139002D01*
X0024465Y0138034D01*
X0023981Y0137551D01*
X0025477Y0139486D02*
X0027412Y0139486D01*
X0062530Y0149083D02*
X0062530Y0151986D01*
X0063981Y0151986D01*
X0064465Y0151502D01*
X0064465Y0150534D01*
X0063981Y0150051D01*
X0062530Y0150051D01*
X0063498Y0150051D02*
X0064465Y0149083D01*
X0065477Y0149083D02*
X0067412Y0151018D01*
X0067412Y0151502D01*
X0066928Y0151986D01*
X0065960Y0151986D01*
X0065477Y0151502D01*
X0065477Y0149083D02*
X0067412Y0149083D01*
X0068423Y0149567D02*
X0068907Y0149083D01*
X0069874Y0149083D01*
X0070358Y0149567D01*
X0070358Y0150534D01*
X0069874Y0151018D01*
X0069391Y0151018D01*
X0068423Y0150534D01*
X0068423Y0151986D01*
X0070358Y0151986D01*
X0078594Y0160883D02*
X0079562Y0160883D01*
X0080045Y0161367D01*
X0081057Y0160883D02*
X0082992Y0160883D01*
X0082024Y0160883D02*
X0082024Y0163786D01*
X0081057Y0162818D01*
X0080045Y0163302D02*
X0079562Y0163786D01*
X0078594Y0163786D01*
X0078110Y0163302D01*
X0078110Y0161367D01*
X0078594Y0160883D01*
X0084003Y0160883D02*
X0085938Y0162818D01*
X0085938Y0163302D01*
X0085455Y0163786D01*
X0084487Y0163786D01*
X0084003Y0163302D01*
X0084003Y0160883D02*
X0085938Y0160883D01*
X0086280Y0177133D02*
X0086280Y0180036D01*
X0087731Y0180036D01*
X0088215Y0179552D01*
X0088215Y0178584D01*
X0087731Y0178101D01*
X0086280Y0178101D01*
X0087248Y0178101D02*
X0088215Y0177133D01*
X0089227Y0178584D02*
X0091162Y0178584D01*
X0092173Y0178101D02*
X0092657Y0178584D01*
X0093624Y0178584D01*
X0094108Y0178101D01*
X0094108Y0177617D01*
X0093624Y0177133D01*
X0092657Y0177133D01*
X0092173Y0177617D01*
X0092173Y0178101D01*
X0092657Y0178584D02*
X0092173Y0179068D01*
X0092173Y0179552D01*
X0092657Y0180036D01*
X0093624Y0180036D01*
X0094108Y0179552D01*
X0094108Y0179068D01*
X0093624Y0178584D01*
X0090678Y0177133D02*
X0090678Y0180036D01*
X0089227Y0178584D01*
X0073528Y0178518D02*
X0073528Y0179002D01*
X0073044Y0179486D01*
X0072077Y0179486D01*
X0071593Y0179002D01*
X0073528Y0178518D02*
X0071593Y0176583D01*
X0073528Y0176583D01*
X0070581Y0176583D02*
X0068647Y0176583D01*
X0069614Y0176583D02*
X0069614Y0179486D01*
X0068647Y0178518D01*
X0067635Y0179486D02*
X0065700Y0179486D01*
X0066667Y0179486D02*
X0066667Y0176583D01*
X0062350Y0183190D02*
X0059448Y0183190D01*
X0059448Y0184641D01*
X0059931Y0185125D01*
X0061866Y0185125D01*
X0062350Y0184641D01*
X0062350Y0183190D01*
X0061866Y0186137D02*
X0061383Y0186137D01*
X0060899Y0186620D01*
X0060899Y0187588D01*
X0061383Y0188072D01*
X0061866Y0188072D01*
X0062350Y0187588D01*
X0062350Y0186620D01*
X0061866Y0186137D01*
X0060899Y0186620D02*
X0060415Y0186137D01*
X0059931Y0186137D01*
X0059448Y0186620D01*
X0059448Y0187588D01*
X0059931Y0188072D01*
X0060415Y0188072D01*
X0060899Y0187588D01*
X0052778Y0190083D02*
X0050843Y0190083D01*
X0051811Y0190083D02*
X0051811Y0192986D01*
X0050843Y0192018D01*
X0049831Y0190083D02*
X0047897Y0190083D01*
X0048864Y0190083D02*
X0048864Y0192986D01*
X0047897Y0192018D01*
X0046885Y0192502D02*
X0046401Y0192986D01*
X0045434Y0192986D01*
X0044950Y0192502D01*
X0044950Y0190567D01*
X0045434Y0190083D01*
X0046401Y0190083D01*
X0046885Y0190567D01*
X0034850Y0184508D02*
X0034850Y0183540D01*
X0034366Y0183056D01*
X0033399Y0183056D02*
X0032915Y0184024D01*
X0032915Y0184508D01*
X0033399Y0184991D01*
X0034366Y0184991D01*
X0034850Y0184508D01*
X0033399Y0183056D02*
X0031948Y0183056D01*
X0031948Y0184991D01*
X0033399Y0182045D02*
X0033399Y0180110D01*
X0031948Y0181561D01*
X0034850Y0181561D01*
X0034850Y0179098D02*
X0033883Y0178131D01*
X0033883Y0178615D02*
X0033883Y0177163D01*
X0034850Y0177163D02*
X0031948Y0177163D01*
X0031948Y0178615D01*
X0032431Y0179098D01*
X0033399Y0179098D01*
X0033883Y0178615D01*
X0051948Y0172008D02*
X0053399Y0170556D01*
X0053399Y0172491D01*
X0054850Y0172008D02*
X0051948Y0172008D01*
X0053399Y0169545D02*
X0053399Y0167610D01*
X0051948Y0169061D01*
X0054850Y0169061D01*
X0054850Y0166598D02*
X0053883Y0165631D01*
X0053883Y0166115D02*
X0053883Y0164663D01*
X0054850Y0164663D02*
X0051948Y0164663D01*
X0051948Y0166115D01*
X0052431Y0166598D01*
X0053399Y0166598D01*
X0053883Y0166115D01*
X0079450Y0141502D02*
X0079450Y0139567D01*
X0079934Y0139083D01*
X0080901Y0139083D01*
X0081385Y0139567D01*
X0082397Y0139567D02*
X0082397Y0139083D01*
X0082397Y0139567D02*
X0084331Y0141502D01*
X0084331Y0141986D01*
X0082397Y0141986D01*
X0081385Y0141502D02*
X0080901Y0141986D01*
X0079934Y0141986D01*
X0079450Y0141502D01*
X0078758Y0132536D02*
X0077307Y0132536D01*
X0077307Y0129633D01*
X0078758Y0129633D01*
X0079242Y0130117D01*
X0079242Y0132052D01*
X0078758Y0132536D01*
X0080253Y0132052D02*
X0080737Y0132536D01*
X0081705Y0132536D01*
X0082188Y0132052D01*
X0082188Y0131568D01*
X0081705Y0131084D01*
X0082188Y0130601D01*
X0082188Y0130117D01*
X0081705Y0129633D01*
X0080737Y0129633D01*
X0080253Y0130117D01*
X0081221Y0131084D02*
X0081705Y0131084D01*
X0105030Y0140883D02*
X0105030Y0143786D01*
X0106481Y0143786D01*
X0106965Y0143302D01*
X0106965Y0142334D01*
X0106481Y0141851D01*
X0105030Y0141851D01*
X0105998Y0141851D02*
X0106965Y0140883D01*
X0107977Y0140883D02*
X0109912Y0142818D01*
X0109912Y0143302D01*
X0109428Y0143786D01*
X0108460Y0143786D01*
X0107977Y0143302D01*
X0107977Y0140883D02*
X0109912Y0140883D01*
X0110923Y0140883D02*
X0110923Y0141367D01*
X0112858Y0143302D01*
X0112858Y0143786D01*
X0110923Y0143786D01*
X0111731Y0160333D02*
X0113666Y0160333D01*
X0114150Y0160817D01*
X0114150Y0161784D01*
X0113666Y0162268D01*
X0114150Y0163280D02*
X0114150Y0165215D01*
X0114150Y0164247D02*
X0111248Y0164247D01*
X0112215Y0163280D01*
X0111731Y0162268D02*
X0111248Y0161784D01*
X0111248Y0160817D01*
X0111731Y0160333D01*
X0111731Y0166226D02*
X0111248Y0166710D01*
X0111248Y0167677D01*
X0111731Y0168161D01*
X0112215Y0168161D01*
X0112699Y0167677D01*
X0113183Y0168161D01*
X0113666Y0168161D01*
X0114150Y0167677D01*
X0114150Y0166710D01*
X0113666Y0166226D01*
X0112699Y0167194D02*
X0112699Y0167677D01*
X0146950Y0150736D02*
X0148885Y0150736D01*
X0147917Y0150736D02*
X0147917Y0147833D01*
X0149897Y0148317D02*
X0149897Y0148801D01*
X0150380Y0149284D01*
X0151348Y0149284D01*
X0151831Y0148801D01*
X0151831Y0148317D01*
X0151348Y0147833D01*
X0150380Y0147833D01*
X0149897Y0148317D01*
X0150380Y0149284D02*
X0149897Y0149768D01*
X0149897Y0150252D01*
X0150380Y0150736D01*
X0151348Y0150736D01*
X0151831Y0150252D01*
X0151831Y0149768D01*
X0151348Y0149284D01*
X0170030Y0144486D02*
X0170030Y0141583D01*
X0170030Y0142551D02*
X0171481Y0142551D01*
X0171965Y0143034D01*
X0171965Y0144002D01*
X0171481Y0144486D01*
X0170030Y0144486D01*
X0170998Y0142551D02*
X0171965Y0141583D01*
X0172977Y0142067D02*
X0173460Y0141583D01*
X0174428Y0141583D01*
X0174912Y0142067D01*
X0174912Y0142551D01*
X0174428Y0143034D01*
X0173944Y0143034D01*
X0174428Y0143034D02*
X0174912Y0143518D01*
X0174912Y0144002D01*
X0174428Y0144486D01*
X0173460Y0144486D01*
X0172977Y0144002D01*
X0175923Y0144002D02*
X0175923Y0142067D01*
X0177858Y0144002D01*
X0177858Y0142067D01*
X0177374Y0141583D01*
X0176407Y0141583D01*
X0175923Y0142067D01*
X0175923Y0144002D02*
X0176407Y0144486D01*
X0177374Y0144486D01*
X0177858Y0144002D01*
X0190253Y0147833D02*
X0190253Y0150736D01*
X0191705Y0150736D01*
X0192188Y0150252D01*
X0192188Y0149284D01*
X0191705Y0148801D01*
X0190253Y0148801D01*
X0191221Y0148801D02*
X0192188Y0147833D01*
X0193200Y0147833D02*
X0193200Y0148317D01*
X0195135Y0150252D01*
X0195135Y0150736D01*
X0193200Y0150736D01*
X0193460Y0131986D02*
X0194428Y0131986D01*
X0194912Y0131502D01*
X0194912Y0131018D01*
X0194428Y0130534D01*
X0194912Y0130051D01*
X0194912Y0129567D01*
X0194428Y0129083D01*
X0193460Y0129083D01*
X0192977Y0129567D01*
X0191965Y0129083D02*
X0190998Y0130051D01*
X0191481Y0130051D02*
X0190030Y0130051D01*
X0190030Y0129083D02*
X0190030Y0131986D01*
X0191481Y0131986D01*
X0191965Y0131502D01*
X0191965Y0130534D01*
X0191481Y0130051D01*
X0192977Y0131502D02*
X0193460Y0131986D01*
X0193944Y0130534D02*
X0194428Y0130534D01*
X0195923Y0131018D02*
X0196891Y0131986D01*
X0196891Y0129083D01*
X0197858Y0129083D02*
X0195923Y0129083D01*
X0177858Y0129567D02*
X0177374Y0129083D01*
X0176407Y0129083D01*
X0175923Y0129567D01*
X0176407Y0130534D02*
X0177858Y0130534D01*
X0177858Y0129567D02*
X0177858Y0131502D01*
X0177374Y0131986D01*
X0176407Y0131986D01*
X0175923Y0131502D01*
X0175923Y0131018D01*
X0176407Y0130534D01*
X0174912Y0131018D02*
X0172977Y0129083D01*
X0174912Y0129083D01*
X0174912Y0131018D02*
X0174912Y0131502D01*
X0174428Y0131986D01*
X0173460Y0131986D01*
X0172977Y0131502D01*
X0171965Y0131502D02*
X0171965Y0130534D01*
X0171481Y0130051D01*
X0170030Y0130051D01*
X0170998Y0130051D02*
X0171965Y0129083D01*
X0170030Y0129083D02*
X0170030Y0131986D01*
X0171481Y0131986D01*
X0171965Y0131502D01*
X0151831Y0131502D02*
X0149897Y0129567D01*
X0149897Y0129083D01*
X0147917Y0129083D02*
X0147917Y0131986D01*
X0146950Y0131986D02*
X0148885Y0131986D01*
X0149897Y0131986D02*
X0151831Y0131986D01*
X0151831Y0131502D01*
X0142350Y0131561D02*
X0142350Y0130594D01*
X0141866Y0130110D01*
X0142350Y0129098D02*
X0141383Y0128131D01*
X0141383Y0128615D02*
X0141383Y0127163D01*
X0142350Y0127163D02*
X0139448Y0127163D01*
X0139448Y0128615D01*
X0139931Y0129098D01*
X0140899Y0129098D01*
X0141383Y0128615D01*
X0139931Y0130110D02*
X0139448Y0130594D01*
X0139448Y0131561D01*
X0139931Y0132045D01*
X0140415Y0132045D01*
X0140899Y0131561D01*
X0141383Y0132045D01*
X0141866Y0132045D01*
X0142350Y0131561D01*
X0140899Y0131561D02*
X0140899Y0131077D01*
X0140899Y0133056D02*
X0140899Y0134991D01*
X0142350Y0134508D02*
X0139448Y0134508D01*
X0140899Y0133056D01*
X0124108Y0124002D02*
X0124108Y0123518D01*
X0123624Y0123034D01*
X0122657Y0123034D01*
X0122173Y0123518D01*
X0122173Y0124002D01*
X0122657Y0124486D01*
X0123624Y0124486D01*
X0124108Y0124002D01*
X0123624Y0123034D02*
X0124108Y0122551D01*
X0124108Y0122067D01*
X0123624Y0121583D01*
X0122657Y0121583D01*
X0122173Y0122067D01*
X0122173Y0122551D01*
X0122657Y0123034D01*
X0121162Y0123518D02*
X0121162Y0124002D01*
X0120678Y0124486D01*
X0119710Y0124486D01*
X0119227Y0124002D01*
X0118215Y0124002D02*
X0118215Y0123034D01*
X0117731Y0122551D01*
X0116280Y0122551D01*
X0117248Y0122551D02*
X0118215Y0121583D01*
X0119227Y0121583D02*
X0121162Y0123518D01*
X0121162Y0121583D02*
X0119227Y0121583D01*
X0118215Y0124002D02*
X0117731Y0124486D01*
X0116280Y0124486D01*
X0116280Y0121583D01*
X0116280Y0111286D02*
X0117731Y0111286D01*
X0118215Y0110802D01*
X0118215Y0109834D01*
X0117731Y0109351D01*
X0116280Y0109351D01*
X0117248Y0109351D02*
X0118215Y0108383D01*
X0119227Y0109834D02*
X0121162Y0109834D01*
X0122173Y0108867D02*
X0124108Y0110802D01*
X0124108Y0108867D01*
X0123624Y0108383D01*
X0122657Y0108383D01*
X0122173Y0108867D01*
X0122173Y0110802D01*
X0122657Y0111286D01*
X0123624Y0111286D01*
X0124108Y0110802D01*
X0120678Y0111286D02*
X0120678Y0108383D01*
X0119227Y0109834D02*
X0120678Y0111286D01*
X0116280Y0111286D02*
X0116280Y0108383D01*
X0139448Y0104991D02*
X0139931Y0104024D01*
X0140899Y0103056D01*
X0140899Y0104508D01*
X0141383Y0104991D01*
X0141866Y0104991D01*
X0142350Y0104508D01*
X0142350Y0103540D01*
X0141866Y0103056D01*
X0140899Y0103056D01*
X0140899Y0102045D02*
X0140899Y0100110D01*
X0139448Y0101561D01*
X0142350Y0101561D01*
X0142350Y0099098D02*
X0141383Y0098131D01*
X0141383Y0098615D02*
X0141383Y0097163D01*
X0142350Y0097163D02*
X0139448Y0097163D01*
X0139448Y0098615D01*
X0139931Y0099098D01*
X0140899Y0099098D01*
X0141383Y0098615D01*
X0144078Y0103383D02*
X0144078Y0106286D01*
X0145045Y0106286D02*
X0143110Y0106286D01*
X0146057Y0105318D02*
X0147024Y0106286D01*
X0147024Y0103383D01*
X0146057Y0103383D02*
X0147992Y0103383D01*
X0149003Y0103867D02*
X0150938Y0105802D01*
X0150938Y0103867D01*
X0150455Y0103383D01*
X0149487Y0103383D01*
X0149003Y0103867D01*
X0149003Y0105802D01*
X0149487Y0106286D01*
X0150455Y0106286D01*
X0150938Y0105802D01*
X0170030Y0103786D02*
X0170030Y0100883D01*
X0170030Y0101851D02*
X0171481Y0101851D01*
X0171965Y0102334D01*
X0171965Y0103302D01*
X0171481Y0103786D01*
X0170030Y0103786D01*
X0170998Y0101851D02*
X0171965Y0100883D01*
X0172977Y0102334D02*
X0174912Y0102334D01*
X0175923Y0102818D02*
X0176891Y0103786D01*
X0176891Y0100883D01*
X0177858Y0100883D02*
X0175923Y0100883D01*
X0174428Y0100883D02*
X0174428Y0103786D01*
X0172977Y0102334D01*
X0174428Y0091986D02*
X0172977Y0090534D01*
X0174912Y0090534D01*
X0175923Y0091502D02*
X0176407Y0091986D01*
X0177374Y0091986D01*
X0177858Y0091502D01*
X0177858Y0091018D01*
X0175923Y0089083D01*
X0177858Y0089083D01*
X0174428Y0089083D02*
X0174428Y0091986D01*
X0171965Y0091502D02*
X0171965Y0090534D01*
X0171481Y0090051D01*
X0170030Y0090051D01*
X0170998Y0090051D02*
X0171965Y0089083D01*
X0170030Y0089083D02*
X0170030Y0091986D01*
X0171481Y0091986D01*
X0171965Y0091502D01*
X0187530Y0085736D02*
X0187530Y0082833D01*
X0187530Y0083801D02*
X0188981Y0083801D01*
X0189465Y0084284D01*
X0189465Y0085252D01*
X0188981Y0085736D01*
X0187530Y0085736D01*
X0188498Y0083801D02*
X0189465Y0082833D01*
X0190477Y0082833D02*
X0192412Y0082833D01*
X0191444Y0082833D02*
X0191444Y0085736D01*
X0190477Y0084768D01*
X0193423Y0084768D02*
X0193907Y0084284D01*
X0195358Y0084284D01*
X0195358Y0083317D02*
X0195358Y0085252D01*
X0194874Y0085736D01*
X0193907Y0085736D01*
X0193423Y0085252D01*
X0193423Y0084768D01*
X0193423Y0083317D02*
X0193907Y0082833D01*
X0194874Y0082833D01*
X0195358Y0083317D01*
X0220030Y0089083D02*
X0220030Y0091986D01*
X0221481Y0091986D01*
X0221965Y0091502D01*
X0221965Y0090534D01*
X0221481Y0090051D01*
X0220030Y0090051D01*
X0220998Y0090051D02*
X0221965Y0089083D01*
X0222977Y0089083D02*
X0224912Y0089083D01*
X0223944Y0089083D02*
X0223944Y0091986D01*
X0222977Y0091018D01*
X0225923Y0091018D02*
X0226407Y0090534D01*
X0227374Y0090534D01*
X0227858Y0090051D01*
X0227858Y0089567D01*
X0227374Y0089083D01*
X0226407Y0089083D01*
X0225923Y0089567D01*
X0225923Y0090051D01*
X0226407Y0090534D01*
X0225923Y0091018D02*
X0225923Y0091502D01*
X0226407Y0091986D01*
X0227374Y0091986D01*
X0227858Y0091502D01*
X0227858Y0091018D01*
X0227374Y0090534D01*
X0246057Y0085036D02*
X0247992Y0085036D01*
X0247024Y0085036D02*
X0247024Y0082133D01*
X0249003Y0082617D02*
X0249487Y0082133D01*
X0250455Y0082133D01*
X0250938Y0082617D01*
X0250938Y0083584D01*
X0250455Y0084068D01*
X0249971Y0084068D01*
X0249003Y0083584D01*
X0249003Y0085036D01*
X0250938Y0085036D01*
X0269448Y0097163D02*
X0269448Y0098615D01*
X0269931Y0099098D01*
X0270899Y0099098D01*
X0271383Y0098615D01*
X0271383Y0097163D01*
X0272350Y0097163D02*
X0269448Y0097163D01*
X0271383Y0098131D02*
X0272350Y0099098D01*
X0272350Y0100110D02*
X0270415Y0102045D01*
X0269931Y0102045D01*
X0269448Y0101561D01*
X0269448Y0100594D01*
X0269931Y0100110D01*
X0272350Y0100110D02*
X0272350Y0102045D01*
X0272350Y0103056D02*
X0270415Y0104991D01*
X0269931Y0104991D01*
X0269448Y0104508D01*
X0269448Y0103540D01*
X0269931Y0103056D01*
X0272350Y0103056D02*
X0272350Y0104991D01*
X0275030Y0108383D02*
X0275030Y0111286D01*
X0276481Y0111286D01*
X0276965Y0110802D01*
X0276965Y0109834D01*
X0276481Y0109351D01*
X0275030Y0109351D01*
X0275998Y0109351D02*
X0276965Y0108383D01*
X0277977Y0108383D02*
X0279912Y0108383D01*
X0278944Y0108383D02*
X0278944Y0111286D01*
X0277977Y0110318D01*
X0280923Y0109834D02*
X0282374Y0109834D01*
X0282858Y0109351D01*
X0282858Y0108867D01*
X0282374Y0108383D01*
X0281407Y0108383D01*
X0280923Y0108867D01*
X0280923Y0109834D01*
X0281891Y0110802D01*
X0282858Y0111286D01*
X0282151Y0121583D02*
X0282151Y0124486D01*
X0280700Y0123034D01*
X0282635Y0123034D01*
X0279688Y0123034D02*
X0279205Y0122551D01*
X0277753Y0122551D01*
X0277753Y0121583D02*
X0277753Y0124486D01*
X0279205Y0124486D01*
X0279688Y0124002D01*
X0279688Y0123034D01*
X0278721Y0122551D02*
X0279688Y0121583D01*
X0272350Y0127163D02*
X0269448Y0127163D01*
X0269448Y0128615D01*
X0269931Y0129098D01*
X0270899Y0129098D01*
X0271383Y0128615D01*
X0271383Y0127163D01*
X0271383Y0128131D02*
X0272350Y0129098D01*
X0272350Y0130110D02*
X0272350Y0132045D01*
X0272350Y0131077D02*
X0269448Y0131077D01*
X0270415Y0130110D01*
X0269931Y0133056D02*
X0269448Y0133540D01*
X0269448Y0134508D01*
X0269931Y0134991D01*
X0271866Y0133056D01*
X0272350Y0133540D01*
X0272350Y0134508D01*
X0271866Y0134991D01*
X0269931Y0134991D01*
X0269931Y0133056D02*
X0271866Y0133056D01*
X0289003Y0140883D02*
X0289003Y0143786D01*
X0290455Y0143786D01*
X0290938Y0143302D01*
X0290938Y0142334D01*
X0290455Y0141851D01*
X0289003Y0141851D01*
X0289971Y0141851D02*
X0290938Y0140883D01*
X0291950Y0141367D02*
X0292434Y0140883D01*
X0293401Y0140883D01*
X0293885Y0141367D01*
X0293885Y0141851D01*
X0293401Y0142334D01*
X0292917Y0142334D01*
X0293401Y0142334D02*
X0293885Y0142818D01*
X0293885Y0143302D01*
X0293401Y0143786D01*
X0292434Y0143786D01*
X0291950Y0143302D01*
X0313557Y0142052D02*
X0313557Y0140117D01*
X0314041Y0139633D01*
X0315008Y0139633D01*
X0315492Y0140117D01*
X0316503Y0139633D02*
X0318438Y0139633D01*
X0317471Y0139633D02*
X0317471Y0142536D01*
X0316503Y0141568D01*
X0315492Y0142052D02*
X0315008Y0142536D01*
X0314041Y0142536D01*
X0313557Y0142052D01*
X0326503Y0149633D02*
X0326503Y0152536D01*
X0327955Y0152536D01*
X0328438Y0152052D01*
X0328438Y0151084D01*
X0327955Y0150601D01*
X0326503Y0150601D01*
X0327471Y0150601D02*
X0328438Y0149633D01*
X0329450Y0149633D02*
X0331385Y0149633D01*
X0330417Y0149633D02*
X0330417Y0152536D01*
X0329450Y0151568D01*
X0338748Y0164663D02*
X0338748Y0166115D01*
X0339231Y0166598D01*
X0340199Y0166598D01*
X0340683Y0166115D01*
X0340683Y0164663D01*
X0341650Y0164663D02*
X0338748Y0164663D01*
X0340683Y0165631D02*
X0341650Y0166598D01*
X0341650Y0167610D02*
X0339715Y0169545D01*
X0339231Y0169545D01*
X0338748Y0169061D01*
X0338748Y0168094D01*
X0339231Y0167610D01*
X0341650Y0167610D02*
X0341650Y0169545D01*
X0341166Y0170556D02*
X0339231Y0172491D01*
X0341166Y0172491D01*
X0341650Y0172008D01*
X0341650Y0171040D01*
X0341166Y0170556D01*
X0339231Y0170556D01*
X0338748Y0171040D01*
X0338748Y0172008D01*
X0339231Y0172491D01*
X0331100Y0176940D02*
X0331100Y0178391D01*
X0330616Y0178875D01*
X0328681Y0178875D01*
X0328198Y0178391D01*
X0328198Y0176940D01*
X0331100Y0176940D01*
X0330616Y0179887D02*
X0331100Y0180370D01*
X0331100Y0181338D01*
X0330616Y0181822D01*
X0330133Y0181822D01*
X0329649Y0181338D01*
X0329649Y0179887D01*
X0330616Y0179887D01*
X0329649Y0179887D02*
X0328681Y0180854D01*
X0328198Y0181822D01*
X0322858Y0179284D02*
X0320923Y0179284D01*
X0322374Y0180736D01*
X0322374Y0177833D01*
X0319912Y0177833D02*
X0317977Y0177833D01*
X0319912Y0179768D01*
X0319912Y0180252D01*
X0319428Y0180736D01*
X0318460Y0180736D01*
X0317977Y0180252D01*
X0316965Y0180252D02*
X0316965Y0179284D01*
X0316481Y0178801D01*
X0315030Y0178801D01*
X0315998Y0178801D02*
X0316965Y0177833D01*
X0315030Y0177833D02*
X0315030Y0180736D01*
X0316481Y0180736D01*
X0316965Y0180252D01*
X0327948Y0195726D02*
X0327948Y0196693D01*
X0327948Y0196209D02*
X0330850Y0196209D01*
X0330850Y0195726D02*
X0330850Y0196693D01*
X0330366Y0197690D02*
X0330850Y0198174D01*
X0330850Y0199141D01*
X0330366Y0199625D01*
X0330850Y0200637D02*
X0330850Y0202572D01*
X0330850Y0201604D02*
X0327948Y0201604D01*
X0328915Y0200637D01*
X0328431Y0199625D02*
X0327948Y0199141D01*
X0327948Y0198174D01*
X0328431Y0197690D01*
X0330366Y0197690D01*
X0331100Y0208190D02*
X0328198Y0208190D01*
X0328198Y0209641D01*
X0328681Y0210125D01*
X0330616Y0210125D01*
X0331100Y0209641D01*
X0331100Y0208190D01*
X0330616Y0211137D02*
X0331100Y0211620D01*
X0331100Y0212588D01*
X0330616Y0213072D01*
X0329649Y0213072D01*
X0329165Y0212588D01*
X0329165Y0212104D01*
X0329649Y0211137D01*
X0328198Y0211137D01*
X0328198Y0213072D01*
X0322858Y0213101D02*
X0322858Y0212617D01*
X0322374Y0212133D01*
X0321407Y0212133D01*
X0320923Y0212617D01*
X0319912Y0212133D02*
X0317977Y0212133D01*
X0318944Y0212133D02*
X0318944Y0215036D01*
X0317977Y0214068D01*
X0316965Y0213584D02*
X0316481Y0213101D01*
X0315030Y0213101D01*
X0315998Y0213101D02*
X0316965Y0212133D01*
X0316965Y0213584D02*
X0316965Y0214552D01*
X0316481Y0215036D01*
X0315030Y0215036D01*
X0315030Y0212133D01*
X0320923Y0214552D02*
X0321407Y0215036D01*
X0322374Y0215036D01*
X0322858Y0214552D01*
X0322858Y0214068D01*
X0322374Y0213584D01*
X0322858Y0213101D01*
X0322374Y0213584D02*
X0321891Y0213584D01*
X0338748Y0226137D02*
X0338748Y0227588D01*
X0339231Y0228072D01*
X0340199Y0228072D01*
X0340683Y0227588D01*
X0340683Y0226137D01*
X0341650Y0226137D02*
X0338748Y0226137D01*
X0340683Y0227104D02*
X0341650Y0228072D01*
X0341166Y0229083D02*
X0340683Y0229083D01*
X0340199Y0229567D01*
X0340199Y0230534D01*
X0340683Y0231018D01*
X0341166Y0231018D01*
X0341650Y0230534D01*
X0341650Y0229567D01*
X0341166Y0229083D01*
X0340199Y0229567D02*
X0339715Y0229083D01*
X0339231Y0229083D01*
X0338748Y0229567D01*
X0338748Y0230534D01*
X0339231Y0231018D01*
X0339715Y0231018D01*
X0340199Y0230534D01*
X0363198Y0229284D02*
X0363198Y0228317D01*
X0363681Y0227833D01*
X0364165Y0227833D01*
X0364649Y0228317D01*
X0364649Y0229768D01*
X0365616Y0229768D02*
X0363681Y0229768D01*
X0363198Y0229284D01*
X0365616Y0229768D02*
X0366100Y0229284D01*
X0366100Y0228317D01*
X0365616Y0227833D01*
X0366100Y0226822D02*
X0365133Y0225854D01*
X0365133Y0226338D02*
X0365133Y0224887D01*
X0366100Y0224887D02*
X0363198Y0224887D01*
X0363198Y0226338D01*
X0363681Y0226822D01*
X0364649Y0226822D01*
X0365133Y0226338D01*
X0385348Y0219024D02*
X0388250Y0219024D01*
X0388250Y0219991D02*
X0388250Y0218056D01*
X0388250Y0217045D02*
X0387283Y0216077D01*
X0387283Y0216561D02*
X0387283Y0215110D01*
X0388250Y0215110D02*
X0385348Y0215110D01*
X0385348Y0216561D01*
X0385831Y0217045D01*
X0386799Y0217045D01*
X0387283Y0216561D01*
X0386315Y0218056D02*
X0385348Y0219024D01*
X0385348Y0214098D02*
X0385348Y0212163D01*
X0385348Y0213131D02*
X0388250Y0213131D01*
X0352938Y0202302D02*
X0352455Y0202786D01*
X0351487Y0202786D01*
X0351003Y0202302D01*
X0349992Y0202302D02*
X0349508Y0202786D01*
X0348541Y0202786D01*
X0348057Y0202302D01*
X0348057Y0200367D01*
X0348541Y0199883D01*
X0349508Y0199883D01*
X0349992Y0200367D01*
X0351003Y0199883D02*
X0352938Y0201818D01*
X0352938Y0202302D01*
X0352938Y0199883D02*
X0351003Y0199883D01*
X0351003Y0192786D02*
X0351003Y0191334D01*
X0351971Y0191818D01*
X0352455Y0191818D01*
X0352938Y0191334D01*
X0352938Y0190367D01*
X0352455Y0189883D01*
X0351487Y0189883D01*
X0351003Y0190367D01*
X0349992Y0190367D02*
X0349508Y0189883D01*
X0348541Y0189883D01*
X0348057Y0190367D01*
X0348057Y0192302D01*
X0348541Y0192786D01*
X0349508Y0192786D01*
X0349992Y0192302D01*
X0351003Y0192786D02*
X0352938Y0192786D01*
X0365831Y0179991D02*
X0365348Y0179508D01*
X0365348Y0178540D01*
X0365831Y0178056D01*
X0365831Y0177045D02*
X0366799Y0177045D01*
X0367283Y0176561D01*
X0367283Y0175110D01*
X0368250Y0175110D02*
X0365348Y0175110D01*
X0365348Y0176561D01*
X0365831Y0177045D01*
X0367283Y0176077D02*
X0368250Y0177045D01*
X0368250Y0178056D02*
X0366315Y0179991D01*
X0365831Y0179991D01*
X0368250Y0179991D02*
X0368250Y0178056D01*
X0365348Y0174098D02*
X0365348Y0172163D01*
X0365348Y0173131D02*
X0368250Y0173131D01*
X0365400Y0169991D02*
X0365400Y0168056D01*
X0365400Y0169024D02*
X0362498Y0169024D01*
X0363465Y0168056D01*
X0363465Y0167045D02*
X0362981Y0167045D01*
X0362498Y0166561D01*
X0362498Y0165594D01*
X0362981Y0165110D01*
X0362981Y0164098D02*
X0363949Y0164098D01*
X0364433Y0163615D01*
X0364433Y0162163D01*
X0365400Y0162163D02*
X0362498Y0162163D01*
X0362498Y0163615D01*
X0362981Y0164098D01*
X0364433Y0163131D02*
X0365400Y0164098D01*
X0365400Y0165110D02*
X0363465Y0167045D01*
X0365400Y0167045D02*
X0365400Y0165110D01*
X0367530Y0154486D02*
X0368981Y0154486D01*
X0369465Y0154002D01*
X0369465Y0153034D01*
X0368981Y0152551D01*
X0367530Y0152551D01*
X0368498Y0152551D02*
X0369465Y0151583D01*
X0370477Y0151583D02*
X0372412Y0151583D01*
X0371444Y0151583D02*
X0371444Y0154486D01*
X0370477Y0153518D01*
X0373423Y0153518D02*
X0374391Y0154486D01*
X0374391Y0151583D01*
X0375358Y0151583D02*
X0373423Y0151583D01*
X0367530Y0151583D02*
X0367530Y0154486D01*
X0320864Y0133236D02*
X0320864Y0130333D01*
X0319897Y0130333D02*
X0321831Y0130333D01*
X0319897Y0132268D02*
X0320864Y0133236D01*
X0318885Y0132752D02*
X0318401Y0133236D01*
X0316950Y0133236D01*
X0316950Y0130333D01*
X0318401Y0130333D01*
X0318885Y0130817D01*
X0318885Y0132752D01*
X0326503Y0124486D02*
X0327955Y0124486D01*
X0328438Y0124002D01*
X0328438Y0123034D01*
X0327955Y0122551D01*
X0326503Y0122551D01*
X0326503Y0121583D02*
X0326503Y0124486D01*
X0327471Y0122551D02*
X0328438Y0121583D01*
X0329450Y0121583D02*
X0331385Y0123518D01*
X0331385Y0124002D01*
X0330901Y0124486D01*
X0329934Y0124486D01*
X0329450Y0124002D01*
X0329450Y0121583D02*
X0331385Y0121583D01*
X0330194Y0111286D02*
X0330194Y0108383D01*
X0329227Y0108383D02*
X0331162Y0108383D01*
X0332173Y0109834D02*
X0334108Y0109834D01*
X0333624Y0108383D02*
X0333624Y0111286D01*
X0332173Y0109834D01*
X0330194Y0111286D02*
X0329227Y0110318D01*
X0328215Y0110802D02*
X0328215Y0109834D01*
X0327731Y0109351D01*
X0326280Y0109351D01*
X0327248Y0109351D02*
X0328215Y0108383D01*
X0326280Y0108383D02*
X0326280Y0111286D01*
X0327731Y0111286D01*
X0328215Y0110802D01*
X0321348Y0103236D02*
X0320380Y0103236D01*
X0319897Y0102752D01*
X0318885Y0102752D02*
X0318401Y0103236D01*
X0316950Y0103236D01*
X0316950Y0100333D01*
X0318401Y0100333D01*
X0318885Y0100817D01*
X0318885Y0102752D01*
X0321348Y0103236D02*
X0321831Y0102752D01*
X0321831Y0102268D01*
X0319897Y0100333D01*
X0321831Y0100333D01*
X0317955Y0093786D02*
X0316503Y0092334D01*
X0318438Y0092334D01*
X0317955Y0090883D02*
X0317955Y0093786D01*
X0315492Y0093302D02*
X0315008Y0093786D01*
X0314041Y0093786D01*
X0313557Y0093302D01*
X0313557Y0091367D01*
X0314041Y0090883D01*
X0315008Y0090883D01*
X0315492Y0091367D01*
X0326280Y0083236D02*
X0327731Y0083236D01*
X0328215Y0082752D01*
X0328215Y0081784D01*
X0327731Y0081301D01*
X0326280Y0081301D01*
X0327248Y0081301D02*
X0328215Y0080333D01*
X0329227Y0080333D02*
X0331162Y0080333D01*
X0330194Y0080333D02*
X0330194Y0083236D01*
X0329227Y0082268D01*
X0332173Y0082752D02*
X0332657Y0083236D01*
X0333624Y0083236D01*
X0334108Y0082752D01*
X0334108Y0082268D01*
X0332173Y0080333D01*
X0334108Y0080333D01*
X0326280Y0080333D02*
X0326280Y0083236D01*
X0295358Y0089567D02*
X0294874Y0089083D01*
X0293907Y0089083D01*
X0293423Y0089567D01*
X0293423Y0090534D02*
X0294391Y0091018D01*
X0294874Y0091018D01*
X0295358Y0090534D01*
X0295358Y0089567D01*
X0293423Y0090534D02*
X0293423Y0091986D01*
X0295358Y0091986D01*
X0291444Y0091986D02*
X0291444Y0089083D01*
X0290477Y0089083D02*
X0292412Y0089083D01*
X0290477Y0091018D02*
X0291444Y0091986D01*
X0289465Y0091502D02*
X0289465Y0090534D01*
X0288981Y0090051D01*
X0287530Y0090051D01*
X0288498Y0090051D02*
X0289465Y0089083D01*
X0287530Y0089083D02*
X0287530Y0091986D01*
X0288981Y0091986D01*
X0289465Y0091502D01*
X0250938Y0104834D02*
X0249003Y0104834D01*
X0250455Y0106286D01*
X0250455Y0103383D01*
X0247024Y0103383D02*
X0247024Y0106286D01*
X0246057Y0106286D02*
X0247992Y0106286D01*
X0227858Y0103786D02*
X0227858Y0103302D01*
X0225923Y0101367D01*
X0225923Y0100883D01*
X0224912Y0100883D02*
X0222977Y0100883D01*
X0223944Y0100883D02*
X0223944Y0103786D01*
X0222977Y0102818D01*
X0221965Y0102334D02*
X0221481Y0101851D01*
X0220030Y0101851D01*
X0220998Y0101851D02*
X0221965Y0100883D01*
X0221965Y0102334D02*
X0221965Y0103302D01*
X0221481Y0103786D01*
X0220030Y0103786D01*
X0220030Y0100883D01*
X0225923Y0103786D02*
X0227858Y0103786D01*
X0197858Y0103302D02*
X0197858Y0102818D01*
X0197374Y0102334D01*
X0197858Y0101851D01*
X0197858Y0101367D01*
X0197374Y0100883D01*
X0196407Y0100883D01*
X0195923Y0101367D01*
X0196891Y0102334D02*
X0197374Y0102334D01*
X0197858Y0103302D02*
X0197374Y0103786D01*
X0196407Y0103786D01*
X0195923Y0103302D01*
X0194912Y0102334D02*
X0192977Y0102334D01*
X0194428Y0103786D01*
X0194428Y0100883D01*
X0191965Y0100883D02*
X0190998Y0101851D01*
X0191481Y0101851D02*
X0190030Y0101851D01*
X0190030Y0100883D02*
X0190030Y0103786D01*
X0191481Y0103786D01*
X0191965Y0103302D01*
X0191965Y0102334D01*
X0191481Y0101851D01*
X0152188Y0080883D02*
X0150253Y0080883D01*
X0151221Y0080883D02*
X0151221Y0083786D01*
X0150253Y0082818D01*
X0149242Y0080883D02*
X0147307Y0080883D01*
X0148274Y0080883D02*
X0148274Y0083786D01*
X0147307Y0082818D01*
X0146295Y0083786D02*
X0144360Y0083786D01*
X0145328Y0083786D02*
X0145328Y0080883D01*
X0112858Y0089567D02*
X0112858Y0091502D01*
X0112374Y0091986D01*
X0111407Y0091986D01*
X0110923Y0091502D01*
X0110923Y0091018D01*
X0111407Y0090534D01*
X0112858Y0090534D01*
X0112858Y0089567D02*
X0112374Y0089083D01*
X0111407Y0089083D01*
X0110923Y0089567D01*
X0109912Y0089567D02*
X0109428Y0089083D01*
X0108460Y0089083D01*
X0107977Y0089567D01*
X0106965Y0089083D02*
X0105998Y0090051D01*
X0106481Y0090051D02*
X0105030Y0090051D01*
X0105030Y0089083D02*
X0105030Y0091986D01*
X0106481Y0091986D01*
X0106965Y0091502D01*
X0106965Y0090534D01*
X0106481Y0090051D01*
X0107977Y0091502D02*
X0108460Y0091986D01*
X0109428Y0091986D01*
X0109912Y0091502D01*
X0109912Y0091018D01*
X0109428Y0090534D01*
X0109912Y0090051D01*
X0109912Y0089567D01*
X0109428Y0090534D02*
X0108944Y0090534D01*
X0030358Y0093867D02*
X0030358Y0095802D01*
X0029874Y0096286D01*
X0028907Y0096286D01*
X0028423Y0095802D01*
X0028423Y0095318D01*
X0028907Y0094834D01*
X0030358Y0094834D01*
X0030358Y0094486D02*
X0030358Y0094002D01*
X0028423Y0092067D01*
X0028423Y0091583D01*
X0026928Y0091583D02*
X0026928Y0094486D01*
X0025477Y0093034D01*
X0027412Y0093034D01*
X0026928Y0093383D02*
X0026928Y0096286D01*
X0025477Y0094834D01*
X0027412Y0094834D01*
X0028423Y0094486D02*
X0030358Y0094486D01*
X0030358Y0093867D02*
X0029874Y0093383D01*
X0028907Y0093383D01*
X0028423Y0093867D01*
X0024465Y0094002D02*
X0024465Y0093034D01*
X0023981Y0092551D01*
X0022530Y0092551D01*
X0022530Y0093383D02*
X0022530Y0096286D01*
X0023981Y0096286D01*
X0024465Y0095802D01*
X0024465Y0094834D01*
X0023981Y0094351D01*
X0022530Y0094351D01*
X0022530Y0094486D02*
X0023981Y0094486D01*
X0024465Y0094002D01*
X0024465Y0093383D02*
X0023498Y0094351D01*
X0022530Y0094486D02*
X0022530Y0091583D01*
X0023498Y0092551D02*
X0024465Y0091583D01*
X0005348Y0172163D02*
X0005348Y0174098D01*
X0005348Y0173131D02*
X0008250Y0173131D01*
X0008250Y0175110D02*
X0005348Y0175110D01*
X0005348Y0176561D01*
X0005831Y0177045D01*
X0006799Y0177045D01*
X0007283Y0176561D01*
X0007283Y0175110D01*
X0007283Y0176077D02*
X0008250Y0177045D01*
X0006799Y0178056D02*
X0006799Y0179991D01*
X0008250Y0179508D02*
X0005348Y0179508D01*
X0006799Y0178056D01*
X0045557Y0200367D02*
X0045557Y0202302D01*
X0046041Y0202786D01*
X0047008Y0202786D01*
X0047492Y0202302D01*
X0048503Y0202302D02*
X0048503Y0201818D01*
X0048987Y0201334D01*
X0049955Y0201334D01*
X0050438Y0200851D01*
X0050438Y0200367D01*
X0049955Y0199883D01*
X0048987Y0199883D01*
X0048503Y0200367D01*
X0048503Y0200851D01*
X0048987Y0201334D01*
X0049955Y0201334D02*
X0050438Y0201818D01*
X0050438Y0202302D01*
X0049955Y0202786D01*
X0048987Y0202786D01*
X0048503Y0202302D01*
X0047492Y0200367D02*
X0047008Y0199883D01*
X0046041Y0199883D01*
X0045557Y0200367D01*
X0034850Y0207163D02*
X0031948Y0207163D01*
X0031948Y0208615D01*
X0032431Y0209098D01*
X0033399Y0209098D01*
X0033883Y0208615D01*
X0033883Y0207163D01*
X0033883Y0208131D02*
X0034850Y0209098D01*
X0034366Y0210110D02*
X0034850Y0210594D01*
X0034850Y0211561D01*
X0034366Y0212045D01*
X0033883Y0212045D01*
X0033399Y0211561D01*
X0033399Y0211077D01*
X0033399Y0211561D02*
X0032915Y0212045D01*
X0032431Y0212045D01*
X0031948Y0211561D01*
X0031948Y0210594D01*
X0032431Y0210110D01*
X0032431Y0213056D02*
X0031948Y0213540D01*
X0031948Y0214508D01*
X0032431Y0214991D01*
X0032915Y0214991D01*
X0033399Y0214508D01*
X0033883Y0214991D01*
X0034366Y0214991D01*
X0034850Y0214508D01*
X0034850Y0213540D01*
X0034366Y0213056D01*
X0033399Y0214024D02*
X0033399Y0214508D01*
X0028250Y0215110D02*
X0025348Y0215110D01*
X0025348Y0216561D01*
X0025831Y0217045D01*
X0026799Y0217045D01*
X0027283Y0216561D01*
X0027283Y0215110D01*
X0027283Y0216077D02*
X0028250Y0217045D01*
X0027766Y0218056D02*
X0028250Y0218540D01*
X0028250Y0219508D01*
X0027766Y0219991D01*
X0027283Y0219991D01*
X0026799Y0219508D01*
X0026799Y0219024D01*
X0026799Y0219508D02*
X0026315Y0219991D01*
X0025831Y0219991D01*
X0025348Y0219508D01*
X0025348Y0218540D01*
X0025831Y0218056D01*
X0025348Y0214098D02*
X0025348Y0212163D01*
X0025348Y0213131D02*
X0028250Y0213131D01*
X0051948Y0219663D02*
X0051948Y0221115D01*
X0052431Y0221598D01*
X0053399Y0221598D01*
X0053883Y0221115D01*
X0053883Y0219663D01*
X0054850Y0219663D02*
X0051948Y0219663D01*
X0053883Y0220631D02*
X0054850Y0221598D01*
X0054366Y0222610D02*
X0054850Y0223094D01*
X0054850Y0224061D01*
X0054366Y0224545D01*
X0053883Y0224545D01*
X0053399Y0224061D01*
X0053399Y0223577D01*
X0053399Y0224061D02*
X0052915Y0224545D01*
X0052431Y0224545D01*
X0051948Y0224061D01*
X0051948Y0223094D01*
X0052431Y0222610D01*
X0052431Y0225556D02*
X0051948Y0226040D01*
X0051948Y0227008D01*
X0052431Y0227491D01*
X0052915Y0227491D01*
X0054850Y0225556D01*
X0054850Y0227491D01*
X0077307Y0218786D02*
X0079242Y0218786D01*
X0078274Y0218786D02*
X0078274Y0215883D01*
X0080253Y0216367D02*
X0080737Y0215883D01*
X0081705Y0215883D01*
X0082188Y0216367D01*
X0082188Y0218302D01*
X0081705Y0218786D01*
X0080737Y0218786D01*
X0080253Y0218302D01*
X0080253Y0217818D01*
X0080737Y0217334D01*
X0082188Y0217334D01*
X0062350Y0208637D02*
X0061866Y0208637D01*
X0059931Y0210572D01*
X0059448Y0210572D01*
X0059448Y0208637D01*
X0059931Y0207625D02*
X0059448Y0207141D01*
X0059448Y0205690D01*
X0062350Y0205690D01*
X0062350Y0207141D01*
X0061866Y0207625D01*
X0059931Y0207625D01*
X0065731Y0201429D02*
X0066215Y0201429D01*
X0066699Y0200945D01*
X0067183Y0201429D01*
X0067666Y0201429D01*
X0068150Y0200945D01*
X0068150Y0199978D01*
X0067666Y0199494D01*
X0067666Y0198482D02*
X0068150Y0197999D01*
X0068150Y0197031D01*
X0067666Y0196547D01*
X0065731Y0196547D01*
X0065248Y0197031D01*
X0065248Y0197999D01*
X0065731Y0198482D01*
X0065731Y0199494D02*
X0065248Y0199978D01*
X0065248Y0200945D01*
X0065731Y0201429D01*
X0066699Y0200945D02*
X0066699Y0200461D01*
X0068150Y0195551D02*
X0068150Y0194583D01*
X0068150Y0195067D02*
X0065248Y0195067D01*
X0065248Y0194583D02*
X0065248Y0195551D01*
X0104998Y0207067D02*
X0105481Y0206583D01*
X0107416Y0206583D01*
X0107900Y0207067D01*
X0107900Y0208034D01*
X0107416Y0208518D01*
X0107416Y0209530D02*
X0107900Y0210013D01*
X0107900Y0210981D01*
X0107416Y0211465D01*
X0105481Y0211465D01*
X0104998Y0210981D01*
X0104998Y0210013D01*
X0105481Y0209530D01*
X0105965Y0209530D01*
X0106449Y0210013D01*
X0106449Y0211465D01*
X0107416Y0212476D02*
X0107900Y0212960D01*
X0107900Y0213927D01*
X0107416Y0214411D01*
X0106933Y0214411D01*
X0106449Y0213927D01*
X0106449Y0213444D01*
X0106449Y0213927D02*
X0105965Y0214411D01*
X0105481Y0214411D01*
X0104998Y0213927D01*
X0104998Y0212960D01*
X0105481Y0212476D01*
X0105481Y0208518D02*
X0104998Y0208034D01*
X0104998Y0207067D01*
X0117748Y0205767D02*
X0119199Y0204316D01*
X0119199Y0206251D01*
X0120650Y0205767D02*
X0117748Y0205767D01*
X0117748Y0203304D02*
X0118231Y0202337D01*
X0119199Y0201369D01*
X0119199Y0202820D01*
X0119683Y0203304D01*
X0120166Y0203304D01*
X0120650Y0202820D01*
X0120650Y0201853D01*
X0120166Y0201369D01*
X0119199Y0201369D01*
X0119683Y0200358D02*
X0119199Y0199874D01*
X0119199Y0199390D01*
X0119199Y0199874D02*
X0118715Y0200358D01*
X0118231Y0200358D01*
X0117748Y0199874D01*
X0117748Y0198906D01*
X0118231Y0198423D01*
X0118231Y0197411D02*
X0118715Y0197411D01*
X0119199Y0196927D01*
X0119683Y0197411D01*
X0120166Y0197411D01*
X0120650Y0196927D01*
X0120650Y0195960D01*
X0120166Y0195476D01*
X0120166Y0194465D02*
X0120650Y0193981D01*
X0120650Y0193013D01*
X0120166Y0192530D01*
X0119199Y0193013D02*
X0119199Y0193981D01*
X0119683Y0194465D01*
X0120166Y0194465D01*
X0119199Y0193013D02*
X0118715Y0192530D01*
X0118231Y0192530D01*
X0117748Y0193013D01*
X0117748Y0193981D01*
X0118231Y0194465D01*
X0118231Y0195476D02*
X0117748Y0195960D01*
X0117748Y0196927D01*
X0118231Y0197411D01*
X0119199Y0196927D02*
X0119199Y0196444D01*
X0120166Y0198423D02*
X0120650Y0198906D01*
X0120650Y0199874D01*
X0120166Y0200358D01*
X0119683Y0200358D01*
X0115400Y0198741D02*
X0115400Y0196806D01*
X0115400Y0197774D02*
X0112498Y0197774D01*
X0113465Y0196806D01*
X0113949Y0195795D02*
X0114916Y0195795D01*
X0115400Y0195311D01*
X0115400Y0194344D01*
X0114916Y0193860D01*
X0113949Y0193860D02*
X0113465Y0194827D01*
X0113465Y0195311D01*
X0113949Y0195795D01*
X0112498Y0195795D02*
X0112498Y0193860D01*
X0113949Y0193860D01*
X0113949Y0192848D02*
X0114433Y0192365D01*
X0114433Y0190913D01*
X0115400Y0190913D02*
X0112498Y0190913D01*
X0112498Y0192365D01*
X0112981Y0192848D01*
X0113949Y0192848D01*
X0114433Y0191881D02*
X0115400Y0192848D01*
X0117748Y0190551D02*
X0118715Y0191518D01*
X0120650Y0191518D01*
X0119199Y0191518D02*
X0119199Y0189583D01*
X0118715Y0189583D02*
X0117748Y0190551D01*
X0118715Y0189583D02*
X0120650Y0189583D01*
X0162498Y0186911D02*
X0162498Y0184976D01*
X0163949Y0184976D01*
X0163465Y0185944D01*
X0163465Y0186427D01*
X0163949Y0186911D01*
X0164916Y0186911D01*
X0165400Y0186427D01*
X0165400Y0185460D01*
X0164916Y0184976D01*
X0164916Y0183965D02*
X0162981Y0183965D01*
X0162498Y0183481D01*
X0162498Y0182513D01*
X0162981Y0182030D01*
X0163465Y0182030D01*
X0163949Y0182513D01*
X0163949Y0183965D01*
X0164916Y0183965D02*
X0165400Y0183481D01*
X0165400Y0182513D01*
X0164916Y0182030D01*
X0164916Y0181018D02*
X0165400Y0180534D01*
X0165400Y0179567D01*
X0164916Y0179083D01*
X0162981Y0179083D01*
X0162498Y0179567D01*
X0162498Y0180534D01*
X0162981Y0181018D01*
X0214003Y0171986D02*
X0214003Y0169083D01*
X0215938Y0169083D01*
X0216950Y0169083D02*
X0218885Y0171018D01*
X0218885Y0171502D01*
X0218401Y0171986D01*
X0217434Y0171986D01*
X0216950Y0171502D01*
X0216950Y0169083D02*
X0218885Y0169083D01*
X0224950Y0170002D02*
X0224950Y0168067D01*
X0225434Y0167583D01*
X0226401Y0167583D01*
X0226885Y0168067D01*
X0227897Y0167583D02*
X0229831Y0167583D01*
X0228864Y0167583D02*
X0228864Y0170486D01*
X0227897Y0169518D01*
X0226885Y0170002D02*
X0226401Y0170486D01*
X0225434Y0170486D01*
X0224950Y0170002D01*
X0230843Y0170002D02*
X0230843Y0168067D01*
X0232778Y0170002D01*
X0232778Y0168067D01*
X0232294Y0167583D01*
X0231327Y0167583D01*
X0230843Y0168067D01*
X0230843Y0170002D02*
X0231327Y0170486D01*
X0232294Y0170486D01*
X0232778Y0170002D01*
X0233790Y0169518D02*
X0234757Y0170486D01*
X0234757Y0167583D01*
X0233790Y0167583D02*
X0235725Y0167583D01*
X0246950Y0150736D02*
X0248885Y0150736D01*
X0247917Y0150736D02*
X0247917Y0147833D01*
X0249897Y0147833D02*
X0251831Y0149768D01*
X0251831Y0150252D01*
X0251348Y0150736D01*
X0250380Y0150736D01*
X0249897Y0150252D01*
X0249897Y0147833D02*
X0251831Y0147833D01*
X0251385Y0129486D02*
X0249450Y0129486D01*
X0250417Y0129486D02*
X0250417Y0126583D01*
X0252397Y0126583D02*
X0254331Y0126583D01*
X0253364Y0126583D02*
X0253364Y0129486D01*
X0252397Y0128518D01*
X0226385Y0129567D02*
X0225901Y0129083D01*
X0224934Y0129083D01*
X0224450Y0129567D01*
X0224450Y0130534D02*
X0225417Y0131018D01*
X0225901Y0131018D01*
X0226385Y0130534D01*
X0226385Y0129567D01*
X0224450Y0130534D02*
X0224450Y0131986D01*
X0226385Y0131986D01*
X0223438Y0131502D02*
X0223438Y0130534D01*
X0222955Y0130051D01*
X0221503Y0130051D01*
X0221503Y0129083D02*
X0221503Y0131986D01*
X0222955Y0131986D01*
X0223438Y0131502D01*
X0222471Y0130051D02*
X0223438Y0129083D01*
X0223438Y0140883D02*
X0222471Y0141851D01*
X0222955Y0141851D02*
X0221503Y0141851D01*
X0221503Y0140883D02*
X0221503Y0143786D01*
X0222955Y0143786D01*
X0223438Y0143302D01*
X0223438Y0142334D01*
X0222955Y0141851D01*
X0224450Y0142334D02*
X0225901Y0142334D01*
X0226385Y0141851D01*
X0226385Y0141367D01*
X0225901Y0140883D01*
X0224934Y0140883D01*
X0224450Y0141367D01*
X0224450Y0142334D01*
X0225417Y0143302D01*
X0226385Y0143786D01*
X0286057Y0167536D02*
X0287992Y0167536D01*
X0287024Y0167536D02*
X0287024Y0164633D01*
X0289003Y0165117D02*
X0289487Y0164633D01*
X0290455Y0164633D01*
X0290938Y0165117D01*
X0290938Y0165601D01*
X0290455Y0166084D01*
X0289003Y0166084D01*
X0289003Y0165117D01*
X0289003Y0166084D02*
X0289971Y0167052D01*
X0290938Y0167536D01*
X0305700Y0162752D02*
X0305700Y0160817D01*
X0306184Y0160333D01*
X0307151Y0160333D01*
X0307635Y0160817D01*
X0308647Y0160817D02*
X0309130Y0160333D01*
X0310098Y0160333D01*
X0310581Y0160817D01*
X0310581Y0161301D01*
X0310098Y0161784D01*
X0308647Y0161784D01*
X0308647Y0160817D01*
X0308647Y0161784D02*
X0309614Y0162752D01*
X0310581Y0163236D01*
X0307635Y0162752D02*
X0307151Y0163236D01*
X0306184Y0163236D01*
X0305700Y0162752D01*
X0278666Y0191583D02*
X0279150Y0192067D01*
X0279150Y0193034D01*
X0278666Y0193518D01*
X0278666Y0194530D02*
X0279150Y0195013D01*
X0279150Y0195981D01*
X0278666Y0196465D01*
X0276731Y0196465D01*
X0276248Y0195981D01*
X0276248Y0195013D01*
X0276731Y0194530D01*
X0277215Y0194530D01*
X0277699Y0195013D01*
X0277699Y0196465D01*
X0277215Y0197476D02*
X0276248Y0198444D01*
X0279150Y0198444D01*
X0279150Y0199411D02*
X0279150Y0197476D01*
X0276731Y0193518D02*
X0276248Y0193034D01*
X0276248Y0192067D01*
X0276731Y0191583D01*
X0278666Y0191583D01*
X0235725Y0223067D02*
X0235241Y0222583D01*
X0234273Y0222583D01*
X0233790Y0223067D01*
X0235725Y0225002D01*
X0235725Y0223067D01*
X0235725Y0225002D02*
X0235241Y0225486D01*
X0234273Y0225486D01*
X0233790Y0225002D01*
X0233790Y0223067D01*
X0232778Y0223067D02*
X0232294Y0222583D01*
X0231327Y0222583D01*
X0230843Y0223067D01*
X0232778Y0225002D01*
X0232778Y0223067D01*
X0232778Y0225002D02*
X0232294Y0225486D01*
X0231327Y0225486D01*
X0230843Y0225002D01*
X0230843Y0223067D01*
X0229831Y0222583D02*
X0227897Y0222583D01*
X0228864Y0222583D02*
X0228864Y0225486D01*
X0227897Y0224518D01*
X0226885Y0225002D02*
X0226401Y0225486D01*
X0225434Y0225486D01*
X0224950Y0225002D01*
X0224950Y0223067D01*
X0225434Y0222583D01*
X0226401Y0222583D01*
X0226885Y0223067D01*
X0218885Y0221583D02*
X0216950Y0221583D01*
X0217917Y0221583D02*
X0217917Y0224486D01*
X0216950Y0223518D01*
X0215938Y0221583D02*
X0214003Y0221583D01*
X0214003Y0224486D01*
X0286057Y0228786D02*
X0287992Y0228786D01*
X0287024Y0228786D02*
X0287024Y0225883D01*
X0289003Y0226367D02*
X0289487Y0225883D01*
X0290455Y0225883D01*
X0290938Y0226367D01*
X0290938Y0226851D01*
X0290455Y0227334D01*
X0289971Y0227334D01*
X0290455Y0227334D02*
X0290938Y0227818D01*
X0290938Y0228302D01*
X0290455Y0228786D01*
X0289487Y0228786D01*
X0289003Y0228302D01*
X0305700Y0230817D02*
X0306184Y0230333D01*
X0307151Y0230333D01*
X0307635Y0230817D01*
X0308647Y0230817D02*
X0309130Y0230333D01*
X0310098Y0230333D01*
X0310581Y0230817D01*
X0310581Y0231301D01*
X0310098Y0231784D01*
X0309614Y0231784D01*
X0310098Y0231784D02*
X0310581Y0232268D01*
X0310581Y0232752D01*
X0310098Y0233236D01*
X0309130Y0233236D01*
X0308647Y0232752D01*
X0307635Y0232752D02*
X0307151Y0233236D01*
X0306184Y0233236D01*
X0305700Y0232752D01*
X0305700Y0230817D01*
X0112858Y0219486D02*
X0111891Y0219002D01*
X0110923Y0218034D01*
X0112374Y0218034D01*
X0112858Y0217551D01*
X0112858Y0217067D01*
X0112374Y0216583D01*
X0111407Y0216583D01*
X0110923Y0217067D01*
X0110923Y0218034D01*
X0109912Y0217551D02*
X0109428Y0218034D01*
X0108944Y0218034D01*
X0109428Y0218034D02*
X0109912Y0218518D01*
X0109912Y0219002D01*
X0109428Y0219486D01*
X0108460Y0219486D01*
X0107977Y0219002D01*
X0106965Y0219002D02*
X0106965Y0218034D01*
X0106481Y0217551D01*
X0105030Y0217551D01*
X0105998Y0217551D02*
X0106965Y0216583D01*
X0107977Y0217067D02*
X0108460Y0216583D01*
X0109428Y0216583D01*
X0109912Y0217067D01*
X0109912Y0217551D01*
X0106965Y0219002D02*
X0106481Y0219486D01*
X0105030Y0219486D01*
X0105030Y0216583D01*
X0107434Y0226583D02*
X0108401Y0226583D01*
X0108885Y0227067D01*
X0109897Y0227067D02*
X0110380Y0226583D01*
X0111348Y0226583D01*
X0111831Y0227067D01*
X0111831Y0229002D01*
X0111348Y0229486D01*
X0110380Y0229486D01*
X0109897Y0229002D01*
X0109897Y0228518D01*
X0110380Y0228034D01*
X0111831Y0228034D01*
X0108885Y0229002D02*
X0108401Y0229486D01*
X0107434Y0229486D01*
X0106950Y0229002D01*
X0106950Y0227067D01*
X0107434Y0226583D01*
X0367530Y0094486D02*
X0367530Y0091583D01*
X0367530Y0092551D02*
X0368981Y0092551D01*
X0369465Y0093034D01*
X0369465Y0094002D01*
X0368981Y0094486D01*
X0367530Y0094486D01*
X0368498Y0092551D02*
X0369465Y0091583D01*
X0370477Y0091583D02*
X0372412Y0093518D01*
X0372412Y0094002D01*
X0371928Y0094486D01*
X0370960Y0094486D01*
X0370477Y0094002D01*
X0370477Y0091583D02*
X0372412Y0091583D01*
X0373423Y0092067D02*
X0373907Y0091583D01*
X0374874Y0091583D01*
X0375358Y0092067D01*
X0375358Y0092551D01*
X0374874Y0093034D01*
X0374391Y0093034D01*
X0374874Y0093034D02*
X0375358Y0093518D01*
X0375358Y0094002D01*
X0374874Y0094486D01*
X0373907Y0094486D01*
X0373423Y0094002D01*
D13*
X0189300Y0176433D03*
D14*
X0159300Y0186483D03*
X0154300Y0186483D03*
X0149300Y0186483D03*
X0144300Y0186483D03*
X0139300Y0186483D03*
X0134300Y0186583D03*
X0129300Y0186483D03*
X0124300Y0186483D03*
X0096800Y0186483D03*
X0091800Y0186483D03*
X0086800Y0186483D03*
X0081800Y0186483D03*
X0076800Y0186483D03*
X0071800Y0186483D03*
X0066800Y0186483D03*
X0066800Y0206383D03*
X0071800Y0206383D03*
X0076800Y0206383D03*
X0081800Y0206383D03*
X0086800Y0206283D03*
X0091800Y0206383D03*
X0096800Y0206383D03*
X0124300Y0206383D03*
X0129300Y0206383D03*
X0134300Y0206383D03*
X0139300Y0206383D03*
X0144300Y0206383D03*
X0149300Y0206383D03*
X0154300Y0206383D03*
X0159300Y0206383D03*
X0294300Y0206383D03*
X0299300Y0206383D03*
X0304300Y0206383D03*
X0309300Y0206383D03*
X0314300Y0206283D03*
X0319300Y0206383D03*
X0324300Y0206383D03*
X0324300Y0186483D03*
X0319300Y0186483D03*
X0314300Y0186483D03*
X0309300Y0186483D03*
X0304300Y0186483D03*
X0299300Y0186483D03*
X0294300Y0186483D03*
D15*
X0286898Y0195031D02*
X0286898Y0197933D01*
X0281702Y0197933D02*
X0281702Y0194933D01*
X0317800Y0166531D02*
X0320800Y0166531D01*
X0320800Y0161335D02*
X0317898Y0161335D01*
X0305702Y0142781D02*
X0302800Y0142781D01*
X0302800Y0137585D02*
X0305800Y0137585D01*
X0305702Y0096531D02*
X0302800Y0096531D01*
X0302800Y0091335D02*
X0305800Y0091335D01*
X0170648Y0195031D02*
X0170648Y0197933D01*
X0165452Y0197933D02*
X0165452Y0194933D01*
X0108148Y0195031D02*
X0108148Y0197933D01*
X0102952Y0197933D02*
X0102952Y0194933D01*
X0105452Y0175335D02*
X0105452Y0172433D01*
X0110648Y0172433D02*
X0110648Y0175433D01*
X0095800Y0166531D02*
X0092800Y0166531D01*
X0092898Y0161335D02*
X0095800Y0161335D01*
X0095800Y0141531D02*
X0092800Y0141531D01*
X0092898Y0136335D02*
X0095800Y0136335D01*
X0095800Y0096531D02*
X0092800Y0096531D01*
X0092898Y0091335D02*
X0095800Y0091335D01*
X0095398Y0226335D02*
X0098300Y0226335D01*
X0098300Y0231531D02*
X0095300Y0231531D01*
X0317800Y0231531D02*
X0320800Y0231531D01*
X0320800Y0226335D02*
X0317898Y0226335D01*
D16*
X0300500Y0217483D03*
X0293100Y0217483D03*
X0296800Y0225383D03*
X0299300Y0176633D03*
X0295600Y0168733D03*
X0303000Y0168733D03*
X0245500Y0141233D03*
X0238100Y0141233D03*
X0241800Y0149133D03*
X0241800Y0130383D03*
X0238100Y0122483D03*
X0245500Y0122483D03*
X0245500Y0110383D03*
X0238100Y0110383D03*
X0241800Y0102483D03*
X0238100Y0091633D03*
X0245500Y0091633D03*
X0241800Y0083733D03*
X0160500Y0091633D03*
X0153100Y0091633D03*
X0156800Y0083733D03*
X0156800Y0102483D03*
X0153100Y0110383D03*
X0160500Y0110383D03*
X0160500Y0122483D03*
X0153100Y0122483D03*
X0156800Y0130383D03*
X0153100Y0141233D03*
X0160500Y0141233D03*
X0156800Y0149133D03*
X0078000Y0172883D03*
X0070600Y0172883D03*
X0074300Y0164983D03*
X0074300Y0219983D03*
X0070600Y0227883D03*
X0078000Y0227883D03*
D17*
X0063300Y0218933D02*
X0055300Y0218933D01*
X0055300Y0173933D02*
X0063300Y0173933D01*
X0096800Y0135433D02*
X0096800Y0127433D01*
X0096800Y0105433D02*
X0096800Y0097433D01*
X0301800Y0097433D02*
X0301800Y0105433D01*
X0301800Y0128683D02*
X0301800Y0136683D01*
X0330300Y0183933D02*
X0338300Y0183933D01*
X0338300Y0208933D02*
X0330300Y0208933D01*
D18*
X0061780Y0125882D02*
X0061780Y0106984D01*
X0048788Y0106984D01*
X0048788Y0125882D01*
X0061780Y0125882D01*
X0048788Y0125882D02*
X0046820Y0125882D01*
X0046820Y0106984D01*
X0048788Y0106984D01*
D19*
X0044261Y0108933D03*
X0044261Y0113933D03*
X0044261Y0118933D03*
X0044261Y0123933D03*
X0064339Y0123933D03*
X0064339Y0118933D03*
X0064339Y0113933D03*
X0064339Y0108933D03*
M02*
