G75*
%MOIN*%
%OFA0B0*%
%FSLAX25Y25*%
%IPPOS*%
%LPD*%
%AMOC8*
5,1,8,0,0,1.08239X$1,22.5*
%
%ADD10C,0.00600*%
D10*
X0067030Y0089233D02*
X0065962Y0090301D01*
X0067030Y0089233D02*
X0069165Y0089233D01*
X0070233Y0090301D01*
X0070233Y0094571D01*
X0069165Y0095639D01*
X0067030Y0095639D01*
X0065962Y0094571D01*
X0076678Y0095639D02*
X0076678Y0089233D01*
X0072408Y0089233D01*
X0079921Y0090301D02*
X0079921Y0095639D01*
X0080988Y0095639D02*
X0078853Y0095639D01*
X0085299Y0094571D02*
X0086366Y0095639D01*
X0088502Y0095639D01*
X0089569Y0094571D01*
X0089569Y0090301D01*
X0088502Y0089233D01*
X0086366Y0089233D01*
X0085299Y0090301D01*
X0083124Y0090301D02*
X0082056Y0089233D01*
X0080988Y0089233D01*
X0079921Y0090301D01*
X0091744Y0089233D02*
X0096015Y0089233D01*
X0096015Y0095639D01*
X0098190Y0095639D02*
X0100325Y0095639D01*
X0099257Y0095639D02*
X0099257Y0090301D01*
X0100325Y0089233D01*
X0101393Y0089233D01*
X0102460Y0090301D01*
X0104635Y0090301D02*
X0105703Y0089233D01*
X0107838Y0089233D01*
X0108906Y0090301D01*
X0108906Y0094571D01*
X0107838Y0095639D01*
X0105703Y0095639D01*
X0104635Y0094571D01*
X0115351Y0095639D02*
X0115351Y0089233D01*
X0111081Y0089233D01*
X0118594Y0090301D02*
X0118594Y0095639D01*
X0119661Y0095639D02*
X0117526Y0095639D01*
X0123972Y0094571D02*
X0125039Y0095639D01*
X0127175Y0095639D01*
X0128242Y0094571D01*
X0128242Y0090301D01*
X0127175Y0089233D01*
X0125039Y0089233D01*
X0123972Y0090301D01*
X0121797Y0090301D02*
X0120729Y0089233D01*
X0119661Y0089233D01*
X0118594Y0090301D01*
X0130417Y0089233D02*
X0134688Y0089233D01*
X0134688Y0095639D01*
X0136863Y0095639D02*
X0138998Y0095639D01*
X0137930Y0095639D02*
X0137930Y0090301D01*
X0138998Y0089233D01*
X0140066Y0089233D01*
X0141133Y0090301D01*
M02*
