G75*
%MOIN*%
%OFA0B0*%
%FSLAX25Y25*%
%IPPOS*%
%LPD*%
%AMOC8*
5,1,8,0,0,1.08239X$1,22.5*
%
%ADD10OC8,0.06600*%
%ADD11C,0.06496*%
%ADD12OC8,0.06300*%
%ADD13C,0.06300*%
%ADD14C,0.06000*%
%ADD15C,0.06000*%
%ADD16C,0.01600*%
%ADD17C,0.03762*%
%ADD18C,0.02400*%
D10*
X0184300Y0176433D03*
X0194300Y0176433D03*
X0194300Y0186433D03*
X0184300Y0186433D03*
X0184300Y0196433D03*
X0194300Y0196433D03*
X0194300Y0206433D03*
X0184300Y0206433D03*
X0184300Y0216433D03*
X0194300Y0216433D03*
D11*
X0192391Y0136433D03*
X0180580Y0136433D03*
X0206209Y0136433D03*
X0218020Y0136433D03*
X0251485Y0136433D03*
X0276209Y0136433D03*
X0288020Y0136433D03*
X0321485Y0136433D03*
X0346209Y0136433D03*
X0358020Y0136433D03*
X0391485Y0136433D03*
X0391485Y0096433D03*
X0358020Y0096433D03*
X0346209Y0096433D03*
X0321485Y0096433D03*
X0288020Y0096433D03*
X0276209Y0096433D03*
X0251485Y0096433D03*
X0218020Y0096433D03*
X0206209Y0096433D03*
X0192391Y0096433D03*
X0180580Y0096433D03*
X0147115Y0096433D03*
X0122391Y0096433D03*
X0110580Y0096433D03*
X0077115Y0096433D03*
X0052391Y0096433D03*
X0040580Y0096433D03*
X0007115Y0096433D03*
X0007115Y0136433D03*
X0040580Y0136433D03*
X0052391Y0136433D03*
X0077115Y0136433D03*
X0110580Y0136433D03*
X0122391Y0136433D03*
X0147115Y0136433D03*
D12*
X0229300Y0183933D03*
X0239300Y0208933D03*
X0344300Y0208933D03*
X0344300Y0183933D03*
X0051800Y0183933D03*
X0051800Y0208933D03*
D13*
X0041800Y0208933D03*
X0041800Y0183933D03*
X0229300Y0208933D03*
X0239300Y0183933D03*
X0354300Y0183933D03*
X0354300Y0208933D03*
D14*
X0366800Y0216433D03*
X0376800Y0216433D03*
X0376800Y0206433D03*
X0376800Y0226433D03*
X0376800Y0186433D03*
X0376800Y0176433D03*
X0386800Y0176433D03*
X0376800Y0166433D03*
X0026800Y0176433D03*
X0016800Y0176433D03*
X0016800Y0166433D03*
X0016800Y0186433D03*
X0016800Y0206433D03*
X0016800Y0216433D03*
X0006800Y0216433D03*
X0016800Y0226433D03*
D15*
X0016800Y0199433D02*
X0016800Y0193433D01*
X0026800Y0193433D02*
X0026800Y0199433D01*
X0006800Y0199433D02*
X0006800Y0193433D01*
X0119300Y0169433D02*
X0119300Y0163433D01*
X0129300Y0163433D02*
X0129300Y0169433D01*
X0139300Y0169433D02*
X0139300Y0163433D01*
X0139300Y0149433D02*
X0139300Y0143433D01*
X0129300Y0143433D02*
X0129300Y0149433D01*
X0119300Y0149433D02*
X0119300Y0143433D01*
X0119300Y0089433D02*
X0119300Y0083433D01*
X0129300Y0083433D02*
X0129300Y0089433D01*
X0139300Y0089433D02*
X0139300Y0083433D01*
X0206300Y0106433D02*
X0212300Y0106433D01*
X0212300Y0116433D02*
X0206300Y0116433D01*
X0206300Y0126433D02*
X0212300Y0126433D01*
X0259300Y0143433D02*
X0259300Y0149433D01*
X0269300Y0149433D02*
X0269300Y0143433D01*
X0279300Y0143433D02*
X0279300Y0149433D01*
X0279300Y0163433D02*
X0279300Y0169433D01*
X0269300Y0169433D02*
X0269300Y0163433D01*
X0259300Y0163433D02*
X0259300Y0169433D01*
X0212300Y0186433D02*
X0206300Y0186433D01*
X0206300Y0196433D02*
X0212300Y0196433D01*
X0212300Y0206433D02*
X0206300Y0206433D01*
X0259300Y0223433D02*
X0259300Y0229433D01*
X0269300Y0229433D02*
X0269300Y0223433D01*
X0279300Y0223433D02*
X0279300Y0229433D01*
X0369300Y0199433D02*
X0369300Y0193433D01*
X0379300Y0193433D02*
X0379300Y0199433D01*
X0389300Y0199433D02*
X0389300Y0193433D01*
X0389300Y0119433D02*
X0389300Y0113433D01*
X0379300Y0113433D02*
X0379300Y0119433D01*
X0369300Y0119433D02*
X0369300Y0113433D01*
X0279300Y0089433D02*
X0279300Y0083433D01*
X0269300Y0083433D02*
X0269300Y0089433D01*
X0259300Y0089433D02*
X0259300Y0083433D01*
X0139300Y0223433D02*
X0139300Y0229433D01*
X0129300Y0229433D02*
X0129300Y0223433D01*
X0119300Y0223433D02*
X0119300Y0229433D01*
X0026800Y0119433D02*
X0026800Y0113433D01*
X0016800Y0113433D02*
X0016800Y0119433D01*
X0006800Y0119433D02*
X0006800Y0113433D01*
D16*
X0004100Y0092875D02*
X0004100Y0081233D01*
X0115449Y0081233D01*
X0114900Y0082558D01*
X0114900Y0083833D01*
X0071340Y0083833D01*
X0071159Y0083651D01*
X0069953Y0083152D01*
X0068647Y0083152D01*
X0067441Y0083651D01*
X0066518Y0084574D01*
X0066019Y0085780D01*
X0066019Y0087086D01*
X0066518Y0088292D01*
X0067441Y0089215D01*
X0068647Y0089714D01*
X0069953Y0089714D01*
X0071159Y0089215D01*
X0071340Y0089033D01*
X0092556Y0089033D01*
X0092556Y0089034D01*
X0092134Y0089292D01*
X0092040Y0089285D01*
X0091773Y0089513D01*
X0091472Y0089697D01*
X0091450Y0089789D01*
X0091074Y0090110D01*
X0090981Y0090117D01*
X0090752Y0090385D01*
X0090484Y0090614D01*
X0090477Y0090707D01*
X0090156Y0091083D01*
X0090064Y0091105D01*
X0089880Y0091406D01*
X0089651Y0091673D01*
X0089659Y0091767D01*
X0089400Y0092189D01*
X0089314Y0092225D01*
X0089179Y0092550D01*
X0088995Y0092850D01*
X0089017Y0092942D01*
X0088828Y0093398D01*
X0088748Y0093447D01*
X0088665Y0093790D01*
X0088531Y0094115D01*
X0088566Y0094202D01*
X0088451Y0094683D01*
X0088380Y0094744D01*
X0088352Y0095095D01*
X0088270Y0095438D01*
X0088319Y0095518D01*
X0088280Y0096011D01*
X0088219Y0096082D01*
X0088247Y0096433D01*
X0088219Y0096784D01*
X0088280Y0096856D01*
X0088319Y0097349D01*
X0088270Y0097429D01*
X0088352Y0097771D01*
X0088380Y0098122D01*
X0088451Y0098183D01*
X0088566Y0098664D01*
X0088531Y0098751D01*
X0088665Y0099076D01*
X0088748Y0099419D01*
X0088828Y0099468D01*
X0089017Y0099925D01*
X0088995Y0100016D01*
X0089179Y0100316D01*
X0089314Y0100642D01*
X0089400Y0100677D01*
X0089659Y0101099D01*
X0089651Y0101193D01*
X0089880Y0101461D01*
X0090064Y0101761D01*
X0090156Y0101783D01*
X0090477Y0102159D01*
X0090484Y0102252D01*
X0090752Y0102481D01*
X0090981Y0102749D01*
X0091074Y0102756D01*
X0091450Y0103078D01*
X0091472Y0103169D01*
X0091773Y0103353D01*
X0092040Y0103582D01*
X0092134Y0103574D01*
X0092556Y0103833D01*
X0092591Y0103919D01*
X0092917Y0104054D01*
X0093217Y0104238D01*
X0093308Y0104216D01*
X0093765Y0104405D01*
X0093814Y0104485D01*
X0094157Y0104568D01*
X0094482Y0104702D01*
X0094569Y0104667D01*
X0095050Y0104782D01*
X0095111Y0104853D01*
X0095462Y0104881D01*
X0095805Y0104963D01*
X0095884Y0104914D01*
X0096378Y0104953D01*
X0096449Y0105014D01*
X0096800Y0104986D01*
X0097151Y0105014D01*
X0097222Y0104953D01*
X0097716Y0104914D01*
X0097795Y0104963D01*
X0098138Y0104881D01*
X0098489Y0104853D01*
X0098550Y0104782D01*
X0099031Y0104667D01*
X0099118Y0104702D01*
X0099443Y0104568D01*
X0099786Y0104485D01*
X0099835Y0104405D01*
X0100292Y0104216D01*
X0100383Y0104238D01*
X0100683Y0104054D01*
X0101009Y0103919D01*
X0101044Y0103833D01*
X0101466Y0103574D01*
X0101560Y0103582D01*
X0101827Y0103353D01*
X0102128Y0103169D01*
X0102150Y0103078D01*
X0102526Y0102756D01*
X0102619Y0102749D01*
X0102848Y0102481D01*
X0103116Y0102252D01*
X0103123Y0102159D01*
X0103444Y0101783D01*
X0103536Y0101761D01*
X0103720Y0101461D01*
X0103948Y0101193D01*
X0103941Y0101099D01*
X0104200Y0100677D01*
X0104286Y0100642D01*
X0104421Y0100316D01*
X0104605Y0100016D01*
X0104583Y0099925D01*
X0104772Y0099468D01*
X0104852Y0099419D01*
X0104935Y0099076D01*
X0105069Y0098751D01*
X0105034Y0098664D01*
X0105149Y0098183D01*
X0105220Y0098122D01*
X0105248Y0097771D01*
X0105330Y0097429D01*
X0105281Y0097349D01*
X0105320Y0096856D01*
X0105381Y0096784D01*
X0105353Y0096433D01*
X0105381Y0096082D01*
X0105320Y0096011D01*
X0105281Y0095518D01*
X0105330Y0095438D01*
X0105248Y0095095D01*
X0105220Y0094744D01*
X0105149Y0094683D01*
X0105034Y0094202D01*
X0105069Y0094115D01*
X0104935Y0093790D01*
X0104852Y0093447D01*
X0104772Y0093398D01*
X0104583Y0092941D01*
X0104605Y0092850D01*
X0104421Y0092550D01*
X0104286Y0092225D01*
X0104200Y0092189D01*
X0103941Y0091767D01*
X0103948Y0091673D01*
X0103720Y0091406D01*
X0103536Y0091105D01*
X0103444Y0091083D01*
X0103123Y0090707D01*
X0103116Y0090614D01*
X0102848Y0090385D01*
X0102619Y0090117D01*
X0102526Y0090110D01*
X0102150Y0089789D01*
X0102128Y0089697D01*
X0101827Y0089513D01*
X0101560Y0089285D01*
X0101466Y0089292D01*
X0101044Y0089034D01*
X0101044Y0089033D01*
X0114900Y0089033D01*
X0114900Y0090308D01*
X0115570Y0091925D01*
X0116808Y0093163D01*
X0118129Y0093710D01*
X0118073Y0093787D01*
X0117712Y0094495D01*
X0117467Y0095251D01*
X0117343Y0096036D01*
X0117343Y0096150D01*
X0122108Y0096150D01*
X0122108Y0096716D01*
X0122108Y0101481D01*
X0121993Y0101481D01*
X0121208Y0101357D01*
X0120453Y0101111D01*
X0119745Y0100751D01*
X0119102Y0100283D01*
X0118540Y0099722D01*
X0118073Y0099079D01*
X0117712Y0098371D01*
X0117467Y0097615D01*
X0117343Y0096830D01*
X0117343Y0096716D01*
X0122108Y0096716D01*
X0122673Y0096716D01*
X0122673Y0101481D01*
X0122788Y0101481D01*
X0123573Y0101357D01*
X0124328Y0101111D01*
X0125036Y0100751D01*
X0125679Y0100283D01*
X0126241Y0099722D01*
X0126708Y0099079D01*
X0127069Y0098371D01*
X0127314Y0097615D01*
X0127439Y0096830D01*
X0127439Y0096716D01*
X0122673Y0096716D01*
X0122673Y0096150D01*
X0127439Y0096150D01*
X0127439Y0096036D01*
X0127314Y0095251D01*
X0127069Y0094495D01*
X0126708Y0093787D01*
X0126241Y0093145D01*
X0125679Y0092583D01*
X0125036Y0092116D01*
X0124328Y0091755D01*
X0123573Y0091509D01*
X0123225Y0091454D01*
X0123700Y0090308D01*
X0123700Y0082558D01*
X0123151Y0081233D01*
X0125449Y0081233D01*
X0124900Y0082558D01*
X0124900Y0090308D01*
X0125570Y0091925D01*
X0126808Y0093163D01*
X0128425Y0093833D01*
X0130175Y0093833D01*
X0131792Y0093163D01*
X0133030Y0091925D01*
X0133700Y0090308D01*
X0133700Y0082558D01*
X0133151Y0081233D01*
X0135449Y0081233D01*
X0134900Y0082558D01*
X0134900Y0090308D01*
X0135570Y0091925D01*
X0136808Y0093163D01*
X0138425Y0093833D01*
X0140175Y0093833D01*
X0141792Y0093163D01*
X0143030Y0091925D01*
X0143700Y0090308D01*
X0143700Y0082558D01*
X0143151Y0081233D01*
X0255449Y0081233D01*
X0254900Y0082558D01*
X0254900Y0090308D01*
X0255570Y0091925D01*
X0256808Y0093163D01*
X0258425Y0093833D01*
X0260175Y0093833D01*
X0261792Y0093163D01*
X0263030Y0091925D01*
X0263700Y0090308D01*
X0263700Y0082558D01*
X0263151Y0081233D01*
X0265449Y0081233D01*
X0264900Y0082558D01*
X0264900Y0090308D01*
X0265570Y0091925D01*
X0266808Y0093163D01*
X0268425Y0093833D01*
X0270175Y0093833D01*
X0271792Y0093163D01*
X0273030Y0091925D01*
X0273700Y0090308D01*
X0273700Y0082558D01*
X0273151Y0081233D01*
X0275449Y0081233D01*
X0274900Y0082558D01*
X0274900Y0090308D01*
X0275375Y0091454D01*
X0275027Y0091509D01*
X0274272Y0091755D01*
X0273564Y0092116D01*
X0272921Y0092583D01*
X0272359Y0093145D01*
X0271892Y0093787D01*
X0271531Y0094495D01*
X0271286Y0095251D01*
X0271161Y0096036D01*
X0271161Y0096150D01*
X0275927Y0096150D01*
X0275927Y0096716D01*
X0275927Y0101481D01*
X0275812Y0101481D01*
X0275027Y0101357D01*
X0274272Y0101111D01*
X0273564Y0100751D01*
X0272921Y0100283D01*
X0272359Y0099722D01*
X0271892Y0099079D01*
X0271531Y0098371D01*
X0271286Y0097615D01*
X0271161Y0096830D01*
X0271161Y0096716D01*
X0275927Y0096716D01*
X0276492Y0096716D01*
X0276492Y0101481D01*
X0276607Y0101481D01*
X0277392Y0101357D01*
X0278147Y0101111D01*
X0278855Y0100751D01*
X0279498Y0100283D01*
X0280060Y0099722D01*
X0280527Y0099079D01*
X0280888Y0098371D01*
X0281133Y0097615D01*
X0281257Y0096830D01*
X0281257Y0096716D01*
X0276492Y0096716D01*
X0276492Y0096150D01*
X0281257Y0096150D01*
X0281257Y0096036D01*
X0281133Y0095251D01*
X0280888Y0094495D01*
X0280527Y0093787D01*
X0280471Y0093710D01*
X0281792Y0093163D01*
X0283030Y0091925D01*
X0283700Y0090308D01*
X0283700Y0089033D01*
X0297556Y0089033D01*
X0297556Y0089034D01*
X0297134Y0089292D01*
X0297040Y0089285D01*
X0296773Y0089513D01*
X0296472Y0089697D01*
X0296450Y0089789D01*
X0296074Y0090110D01*
X0295981Y0090117D01*
X0295752Y0090385D01*
X0295484Y0090614D01*
X0295477Y0090707D01*
X0295156Y0091083D01*
X0295064Y0091105D01*
X0294880Y0091406D01*
X0294651Y0091673D01*
X0294659Y0091767D01*
X0294400Y0092189D01*
X0294314Y0092225D01*
X0294179Y0092550D01*
X0293995Y0092850D01*
X0294017Y0092942D01*
X0293828Y0093398D01*
X0293748Y0093447D01*
X0293665Y0093790D01*
X0293531Y0094115D01*
X0293566Y0094202D01*
X0293451Y0094683D01*
X0293380Y0094744D01*
X0293352Y0095095D01*
X0293270Y0095438D01*
X0293319Y0095518D01*
X0293280Y0096011D01*
X0293219Y0096082D01*
X0293247Y0096433D01*
X0293219Y0096784D01*
X0293280Y0096856D01*
X0293319Y0097349D01*
X0293270Y0097429D01*
X0293352Y0097771D01*
X0293380Y0098122D01*
X0293451Y0098183D01*
X0293566Y0098664D01*
X0293531Y0098751D01*
X0293665Y0099076D01*
X0293748Y0099419D01*
X0293828Y0099468D01*
X0294017Y0099925D01*
X0293995Y0100016D01*
X0294179Y0100316D01*
X0294314Y0100642D01*
X0294400Y0100677D01*
X0294659Y0101099D01*
X0294651Y0101193D01*
X0294880Y0101461D01*
X0295064Y0101761D01*
X0295156Y0101783D01*
X0295477Y0102159D01*
X0295484Y0102252D01*
X0295752Y0102481D01*
X0295981Y0102749D01*
X0296074Y0102756D01*
X0296450Y0103078D01*
X0296472Y0103169D01*
X0296773Y0103353D01*
X0297040Y0103582D01*
X0297134Y0103574D01*
X0297556Y0103833D01*
X0297591Y0103919D01*
X0297917Y0104054D01*
X0298217Y0104238D01*
X0298308Y0104216D01*
X0298765Y0104405D01*
X0298814Y0104485D01*
X0299157Y0104568D01*
X0299482Y0104702D01*
X0299569Y0104667D01*
X0300050Y0104782D01*
X0300111Y0104853D01*
X0300462Y0104881D01*
X0300805Y0104963D01*
X0300884Y0104914D01*
X0301378Y0104953D01*
X0301449Y0105014D01*
X0301800Y0104986D01*
X0302151Y0105014D01*
X0302222Y0104953D01*
X0302716Y0104914D01*
X0302795Y0104963D01*
X0303138Y0104881D01*
X0303489Y0104853D01*
X0303550Y0104782D01*
X0304031Y0104667D01*
X0304118Y0104702D01*
X0304443Y0104568D01*
X0304786Y0104485D01*
X0304835Y0104405D01*
X0305292Y0104216D01*
X0305383Y0104238D01*
X0305683Y0104054D01*
X0306009Y0103919D01*
X0306044Y0103833D01*
X0306466Y0103574D01*
X0306560Y0103582D01*
X0306827Y0103353D01*
X0307128Y0103169D01*
X0307150Y0103078D01*
X0307526Y0102756D01*
X0307619Y0102749D01*
X0307848Y0102481D01*
X0308116Y0102252D01*
X0308123Y0102159D01*
X0308444Y0101783D01*
X0308536Y0101761D01*
X0308720Y0101461D01*
X0308948Y0101193D01*
X0308941Y0101099D01*
X0309200Y0100677D01*
X0309286Y0100642D01*
X0309421Y0100316D01*
X0309605Y0100016D01*
X0309583Y0099925D01*
X0309772Y0099468D01*
X0309852Y0099419D01*
X0309935Y0099076D01*
X0310069Y0098751D01*
X0310034Y0098664D01*
X0310149Y0098183D01*
X0310220Y0098122D01*
X0310248Y0097771D01*
X0310330Y0097429D01*
X0310281Y0097349D01*
X0310320Y0096856D01*
X0310381Y0096784D01*
X0310353Y0096433D01*
X0310381Y0096082D01*
X0310320Y0096011D01*
X0310281Y0095518D01*
X0310330Y0095438D01*
X0310248Y0095095D01*
X0310220Y0094744D01*
X0310149Y0094683D01*
X0310034Y0094202D01*
X0310069Y0094115D01*
X0309935Y0093790D01*
X0309852Y0093447D01*
X0309772Y0093398D01*
X0309583Y0092942D01*
X0309605Y0092850D01*
X0309421Y0092550D01*
X0309286Y0092225D01*
X0309200Y0092189D01*
X0308941Y0091767D01*
X0308948Y0091673D01*
X0308720Y0091406D01*
X0308536Y0091105D01*
X0308444Y0091083D01*
X0308123Y0090707D01*
X0308116Y0090614D01*
X0307848Y0090385D01*
X0307619Y0090117D01*
X0307526Y0090110D01*
X0307150Y0089789D01*
X0307128Y0089697D01*
X0306827Y0089513D01*
X0306560Y0089285D01*
X0306466Y0089292D01*
X0306044Y0089034D01*
X0306044Y0089033D01*
X0327260Y0089033D01*
X0327441Y0089215D01*
X0328647Y0089714D01*
X0329953Y0089714D01*
X0331159Y0089215D01*
X0332082Y0088292D01*
X0332581Y0087086D01*
X0332581Y0085780D01*
X0332082Y0084574D01*
X0331159Y0083651D01*
X0329953Y0083152D01*
X0328647Y0083152D01*
X0327441Y0083651D01*
X0327260Y0083833D01*
X0283700Y0083833D01*
X0283700Y0082558D01*
X0283151Y0081233D01*
X0394500Y0081233D01*
X0394500Y0092875D01*
X0394118Y0092493D01*
X0392410Y0091785D01*
X0390560Y0091785D01*
X0388852Y0092493D01*
X0387545Y0093800D01*
X0386837Y0095509D01*
X0386837Y0097358D01*
X0387545Y0099066D01*
X0388852Y0100373D01*
X0390560Y0101081D01*
X0392410Y0101081D01*
X0394118Y0100373D01*
X0394500Y0099991D01*
X0394500Y0132875D01*
X0394118Y0132493D01*
X0392410Y0131785D01*
X0390560Y0131785D01*
X0388852Y0132493D01*
X0387545Y0133800D01*
X0386837Y0135509D01*
X0386837Y0137358D01*
X0387545Y0139066D01*
X0388852Y0140373D01*
X0390560Y0141081D01*
X0392410Y0141081D01*
X0394118Y0140373D01*
X0394500Y0139991D01*
X0394500Y0151633D01*
X0378347Y0151633D01*
X0377000Y0152980D01*
X0377000Y0159886D01*
X0378347Y0161233D01*
X0392000Y0161233D01*
X0392000Y0189462D01*
X0391816Y0189328D01*
X0391143Y0188985D01*
X0390424Y0188751D01*
X0389678Y0188633D01*
X0389500Y0188633D01*
X0389500Y0196233D01*
X0389100Y0196233D01*
X0389100Y0188633D01*
X0388922Y0188633D01*
X0388176Y0188751D01*
X0387457Y0188985D01*
X0386784Y0189328D01*
X0386173Y0189772D01*
X0385639Y0190306D01*
X0385195Y0190917D01*
X0384852Y0191591D01*
X0384618Y0192309D01*
X0384500Y0193055D01*
X0384500Y0196233D01*
X0389100Y0196233D01*
X0389100Y0196633D01*
X0384500Y0196633D01*
X0384500Y0199811D01*
X0384618Y0200557D01*
X0384852Y0201276D01*
X0385195Y0201949D01*
X0385639Y0202560D01*
X0386173Y0203094D01*
X0386784Y0203538D01*
X0387457Y0203881D01*
X0388176Y0204115D01*
X0388922Y0204233D01*
X0389100Y0204233D01*
X0389100Y0196633D01*
X0389500Y0196633D01*
X0389500Y0204233D01*
X0389678Y0204233D01*
X0390424Y0204115D01*
X0391143Y0203881D01*
X0391816Y0203538D01*
X0392000Y0203405D01*
X0392000Y0231633D01*
X0332490Y0231633D01*
X0333332Y0230792D01*
X0333831Y0229586D01*
X0333831Y0228280D01*
X0333332Y0227074D01*
X0332409Y0226151D01*
X0331203Y0225652D01*
X0329897Y0225652D01*
X0328691Y0226151D01*
X0328510Y0226333D01*
X0283700Y0226333D01*
X0283700Y0222558D01*
X0283030Y0220941D01*
X0281792Y0219703D01*
X0280175Y0219033D01*
X0278425Y0219033D01*
X0276808Y0219703D01*
X0275570Y0220941D01*
X0274900Y0222558D01*
X0274900Y0230308D01*
X0275449Y0231633D01*
X0273151Y0231633D01*
X0273700Y0230308D01*
X0273700Y0222558D01*
X0273030Y0220941D01*
X0271792Y0219703D01*
X0270175Y0219033D01*
X0268425Y0219033D01*
X0266808Y0219703D01*
X0265570Y0220941D01*
X0264900Y0222558D01*
X0264900Y0230308D01*
X0265449Y0231633D01*
X0263151Y0231633D01*
X0263700Y0230308D01*
X0263700Y0222558D01*
X0263030Y0220941D01*
X0261900Y0219811D01*
X0261900Y0213473D01*
X0262082Y0213292D01*
X0262581Y0212086D01*
X0262581Y0210780D01*
X0262082Y0209574D01*
X0261159Y0208651D01*
X0259953Y0208152D01*
X0258647Y0208152D01*
X0257441Y0208651D01*
X0256518Y0209574D01*
X0256019Y0210780D01*
X0256019Y0212086D01*
X0256518Y0213292D01*
X0256700Y0213473D01*
X0256700Y0219811D01*
X0255570Y0220941D01*
X0254900Y0222558D01*
X0254900Y0230308D01*
X0255449Y0231633D01*
X0143151Y0231633D01*
X0143700Y0230308D01*
X0143700Y0222558D01*
X0143030Y0220941D01*
X0141792Y0219703D01*
X0140175Y0219033D01*
X0140011Y0219033D01*
X0139442Y0218464D01*
X0139953Y0218464D01*
X0141159Y0217965D01*
X0142082Y0217042D01*
X0142581Y0215836D01*
X0142581Y0214530D01*
X0142082Y0213324D01*
X0141159Y0212401D01*
X0139953Y0211902D01*
X0138647Y0211902D01*
X0137441Y0212401D01*
X0137260Y0212583D01*
X0112533Y0212583D01*
X0111577Y0212979D01*
X0108223Y0216333D01*
X0088840Y0216333D01*
X0088659Y0216151D01*
X0087453Y0215652D01*
X0086147Y0215652D01*
X0084941Y0216151D01*
X0084018Y0217074D01*
X0083519Y0218280D01*
X0083519Y0219586D01*
X0084018Y0220792D01*
X0084941Y0221715D01*
X0086147Y0222214D01*
X0087453Y0222214D01*
X0088659Y0221715D01*
X0088840Y0221533D01*
X0109817Y0221533D01*
X0109854Y0221518D01*
X0104639Y0226733D01*
X0089240Y0226733D01*
X0088659Y0226151D01*
X0087453Y0225652D01*
X0086147Y0225652D01*
X0084941Y0226151D01*
X0084018Y0227074D01*
X0083519Y0228280D01*
X0083519Y0229586D01*
X0084018Y0230792D01*
X0084860Y0231633D01*
X0004100Y0231633D01*
X0004100Y0219956D01*
X0004308Y0220163D01*
X0005925Y0220833D01*
X0007675Y0220833D01*
X0009292Y0220163D01*
X0010530Y0218925D01*
X0011200Y0217308D01*
X0011200Y0215558D01*
X0010530Y0213941D01*
X0009292Y0212703D01*
X0007675Y0212033D01*
X0005925Y0212033D01*
X0004308Y0212703D01*
X0004100Y0212911D01*
X0004100Y0203405D01*
X0004284Y0203538D01*
X0004957Y0203881D01*
X0005676Y0204115D01*
X0006422Y0204233D01*
X0006600Y0204233D01*
X0006600Y0196633D01*
X0007000Y0196633D01*
X0011600Y0196633D01*
X0011600Y0199811D01*
X0011482Y0200557D01*
X0011248Y0201276D01*
X0010905Y0201949D01*
X0010461Y0202560D01*
X0009927Y0203094D01*
X0009316Y0203538D01*
X0008643Y0203881D01*
X0007924Y0204115D01*
X0007178Y0204233D01*
X0007000Y0204233D01*
X0007000Y0196633D01*
X0007000Y0196233D01*
X0007000Y0188633D01*
X0007178Y0188633D01*
X0007924Y0188751D01*
X0008643Y0188985D01*
X0009316Y0189328D01*
X0009927Y0189772D01*
X0010461Y0190306D01*
X0010905Y0190917D01*
X0011248Y0191591D01*
X0011482Y0192309D01*
X0011600Y0193055D01*
X0011600Y0196233D01*
X0007000Y0196233D01*
X0006600Y0196233D01*
X0006600Y0188633D01*
X0006422Y0188633D01*
X0005676Y0188751D01*
X0004957Y0188985D01*
X0004284Y0189328D01*
X0004100Y0189462D01*
X0004100Y0161233D01*
X0007753Y0161233D01*
X0009100Y0159886D01*
X0009100Y0152980D01*
X0007753Y0151633D01*
X0004100Y0151633D01*
X0004100Y0139991D01*
X0004482Y0140373D01*
X0006190Y0141081D01*
X0008040Y0141081D01*
X0009748Y0140373D01*
X0011055Y0139066D01*
X0011763Y0137358D01*
X0011763Y0135509D01*
X0011055Y0133800D01*
X0009748Y0132493D01*
X0008040Y0131785D01*
X0006190Y0131785D01*
X0004482Y0132493D01*
X0004100Y0132875D01*
X0004100Y0123405D01*
X0004284Y0123538D01*
X0004957Y0123881D01*
X0005676Y0124115D01*
X0006422Y0124233D01*
X0006600Y0124233D01*
X0006600Y0116633D01*
X0007000Y0116633D01*
X0011600Y0116633D01*
X0011600Y0119811D01*
X0011482Y0120557D01*
X0011248Y0121276D01*
X0010905Y0121949D01*
X0010461Y0122560D01*
X0009927Y0123094D01*
X0009316Y0123538D01*
X0008643Y0123881D01*
X0007924Y0124115D01*
X0007178Y0124233D01*
X0007000Y0124233D01*
X0007000Y0116633D01*
X0007000Y0116233D01*
X0007000Y0108633D01*
X0007178Y0108633D01*
X0007924Y0108751D01*
X0008643Y0108985D01*
X0009316Y0109328D01*
X0009927Y0109772D01*
X0010461Y0110306D01*
X0010905Y0110917D01*
X0011248Y0111591D01*
X0011482Y0112309D01*
X0011600Y0113055D01*
X0011600Y0116233D01*
X0007000Y0116233D01*
X0006600Y0116233D01*
X0006600Y0108633D01*
X0006422Y0108633D01*
X0005676Y0108751D01*
X0004957Y0108985D01*
X0004284Y0109328D01*
X0004100Y0109462D01*
X0004100Y0099991D01*
X0004482Y0100373D01*
X0006190Y0101081D01*
X0008040Y0101081D01*
X0009748Y0100373D01*
X0011055Y0099066D01*
X0011763Y0097358D01*
X0011763Y0095509D01*
X0011055Y0093800D01*
X0009748Y0092493D01*
X0008040Y0091785D01*
X0006190Y0091785D01*
X0004482Y0092493D01*
X0004100Y0092875D01*
X0004100Y0092418D02*
X0004662Y0092418D01*
X0004100Y0090820D02*
X0020381Y0090820D01*
X0020477Y0090707D02*
X0020484Y0090614D01*
X0020752Y0090385D01*
X0020981Y0090117D01*
X0021074Y0090110D01*
X0021450Y0089789D01*
X0021472Y0089697D01*
X0021773Y0089513D01*
X0022040Y0089285D01*
X0022134Y0089292D01*
X0022556Y0089034D01*
X0022591Y0088947D01*
X0022917Y0088812D01*
X0023217Y0088628D01*
X0023308Y0088650D01*
X0023765Y0088461D01*
X0023814Y0088381D01*
X0024157Y0088298D01*
X0024482Y0088164D01*
X0024569Y0088200D01*
X0025050Y0088084D01*
X0025111Y0088013D01*
X0025462Y0087985D01*
X0025805Y0087903D01*
X0025884Y0087952D01*
X0026378Y0087913D01*
X0026449Y0087852D01*
X0026800Y0087880D01*
X0027151Y0087852D01*
X0027222Y0087913D01*
X0027716Y0087952D01*
X0027795Y0087903D01*
X0028138Y0087985D01*
X0028489Y0088013D01*
X0028550Y0088084D01*
X0029031Y0088200D01*
X0029118Y0088164D01*
X0029443Y0088298D01*
X0029786Y0088381D01*
X0029835Y0088461D01*
X0030292Y0088650D01*
X0030383Y0088628D01*
X0030683Y0088812D01*
X0031009Y0088947D01*
X0031044Y0089034D01*
X0031466Y0089292D01*
X0031560Y0089285D01*
X0031827Y0089513D01*
X0032128Y0089697D01*
X0032150Y0089789D01*
X0032526Y0090110D01*
X0032619Y0090117D01*
X0032848Y0090385D01*
X0033116Y0090614D01*
X0033123Y0090707D01*
X0033444Y0091083D01*
X0033536Y0091105D01*
X0033720Y0091406D01*
X0033948Y0091673D01*
X0033941Y0091767D01*
X0034200Y0092189D01*
X0034286Y0092225D01*
X0034421Y0092550D01*
X0034605Y0092850D01*
X0034583Y0092942D01*
X0034772Y0093398D01*
X0034852Y0093447D01*
X0034935Y0093790D01*
X0035069Y0094115D01*
X0035034Y0094202D01*
X0035149Y0094683D01*
X0035220Y0094744D01*
X0035248Y0095095D01*
X0035330Y0095438D01*
X0035281Y0095518D01*
X0035320Y0096011D01*
X0035381Y0096082D01*
X0035353Y0096433D01*
X0035381Y0096784D01*
X0035320Y0096856D01*
X0035281Y0097349D01*
X0035330Y0097429D01*
X0035248Y0097771D01*
X0035220Y0098122D01*
X0035149Y0098183D01*
X0035034Y0098664D01*
X0035069Y0098751D01*
X0034935Y0099076D01*
X0034852Y0099419D01*
X0034772Y0099468D01*
X0034583Y0099925D01*
X0034605Y0100016D01*
X0034421Y0100316D01*
X0034286Y0100642D01*
X0034200Y0100677D01*
X0033941Y0101099D01*
X0033948Y0101193D01*
X0033720Y0101461D01*
X0033536Y0101761D01*
X0033444Y0101783D01*
X0033123Y0102159D01*
X0033116Y0102252D01*
X0032848Y0102481D01*
X0032619Y0102749D01*
X0032526Y0102756D01*
X0032150Y0103078D01*
X0032128Y0103169D01*
X0031827Y0103353D01*
X0031560Y0103582D01*
X0031466Y0103574D01*
X0031044Y0103833D01*
X0031009Y0103919D01*
X0030683Y0104054D01*
X0030383Y0104238D01*
X0030292Y0104216D01*
X0029835Y0104405D01*
X0029786Y0104485D01*
X0029443Y0104568D01*
X0029118Y0104702D01*
X0029031Y0104667D01*
X0028550Y0104782D01*
X0028489Y0104853D01*
X0028138Y0104881D01*
X0027795Y0104963D01*
X0027716Y0104914D01*
X0027222Y0104953D01*
X0027151Y0105014D01*
X0026800Y0104986D01*
X0026449Y0105014D01*
X0026378Y0104953D01*
X0025884Y0104914D01*
X0025805Y0104963D01*
X0025462Y0104881D01*
X0025111Y0104853D01*
X0025050Y0104782D01*
X0024569Y0104667D01*
X0024482Y0104702D01*
X0024157Y0104568D01*
X0023814Y0104485D01*
X0023765Y0104405D01*
X0023308Y0104216D01*
X0023217Y0104238D01*
X0022917Y0104054D01*
X0022591Y0103919D01*
X0022556Y0103833D01*
X0022134Y0103574D01*
X0022040Y0103582D01*
X0021773Y0103353D01*
X0021472Y0103169D01*
X0021450Y0103078D01*
X0021074Y0102756D01*
X0020981Y0102749D01*
X0020752Y0102481D01*
X0020484Y0102252D01*
X0020477Y0102159D01*
X0020156Y0101783D01*
X0020064Y0101761D01*
X0019880Y0101461D01*
X0019651Y0101193D01*
X0019659Y0101099D01*
X0019400Y0100677D01*
X0019314Y0100642D01*
X0019179Y0100316D01*
X0018995Y0100016D01*
X0019017Y0099925D01*
X0018828Y0099468D01*
X0018748Y0099419D01*
X0018665Y0099076D01*
X0018531Y0098751D01*
X0018566Y0098664D01*
X0018451Y0098183D01*
X0018380Y0098122D01*
X0018352Y0097771D01*
X0018270Y0097429D01*
X0018319Y0097349D01*
X0018280Y0096856D01*
X0018219Y0096784D01*
X0018247Y0096433D01*
X0018219Y0096082D01*
X0018280Y0096011D01*
X0018319Y0095518D01*
X0018270Y0095438D01*
X0018352Y0095095D01*
X0018380Y0094744D01*
X0018451Y0094683D01*
X0018566Y0094202D01*
X0018531Y0094115D01*
X0018665Y0093790D01*
X0018748Y0093447D01*
X0018828Y0093398D01*
X0019017Y0092942D01*
X0018995Y0092850D01*
X0019179Y0092550D01*
X0019314Y0092225D01*
X0019400Y0092189D01*
X0019659Y0091767D01*
X0019651Y0091673D01*
X0019880Y0091406D01*
X0020064Y0091105D01*
X0020156Y0091083D01*
X0020477Y0090707D01*
X0019234Y0092418D02*
X0009568Y0092418D01*
X0011145Y0094017D02*
X0018571Y0094017D01*
X0018311Y0095615D02*
X0011763Y0095615D01*
X0011763Y0097214D02*
X0018308Y0097214D01*
X0018556Y0098812D02*
X0011160Y0098812D01*
X0009658Y0100411D02*
X0019218Y0100411D01*
X0020349Y0102009D02*
X0004100Y0102009D01*
X0004100Y0100411D02*
X0004572Y0100411D01*
X0004100Y0103608D02*
X0022189Y0103608D01*
X0024308Y0109703D02*
X0025925Y0109033D01*
X0027675Y0109033D01*
X0029292Y0109703D01*
X0030530Y0110941D01*
X0031200Y0112558D01*
X0031200Y0120308D01*
X0030530Y0121925D01*
X0029292Y0123163D01*
X0027675Y0123833D01*
X0025925Y0123833D01*
X0024308Y0123163D01*
X0023070Y0121925D01*
X0022400Y0120308D01*
X0022400Y0112558D01*
X0023070Y0110941D01*
X0024308Y0109703D01*
X0024009Y0110002D02*
X0019591Y0110002D01*
X0019292Y0109703D02*
X0020530Y0110941D01*
X0021200Y0112558D01*
X0021200Y0120308D01*
X0020530Y0121925D01*
X0019292Y0123163D01*
X0017675Y0123833D01*
X0015925Y0123833D01*
X0014308Y0123163D01*
X0013070Y0121925D01*
X0012400Y0120308D01*
X0012400Y0112558D01*
X0013070Y0110941D01*
X0014308Y0109703D01*
X0015925Y0109033D01*
X0017675Y0109033D01*
X0019292Y0109703D01*
X0020803Y0111600D02*
X0022797Y0111600D01*
X0022400Y0113199D02*
X0021200Y0113199D01*
X0021200Y0114797D02*
X0022400Y0114797D01*
X0022400Y0116396D02*
X0021200Y0116396D01*
X0021200Y0117994D02*
X0022400Y0117994D01*
X0022400Y0119593D02*
X0021200Y0119593D01*
X0020834Y0121191D02*
X0022766Y0121191D01*
X0023934Y0122790D02*
X0019666Y0122790D01*
X0013934Y0122790D02*
X0010231Y0122790D01*
X0011276Y0121191D02*
X0012766Y0121191D01*
X0012400Y0119593D02*
X0011600Y0119593D01*
X0011600Y0117994D02*
X0012400Y0117994D01*
X0012400Y0116396D02*
X0007000Y0116396D01*
X0007000Y0117994D02*
X0006600Y0117994D01*
X0006600Y0119593D02*
X0007000Y0119593D01*
X0007000Y0121191D02*
X0006600Y0121191D01*
X0006600Y0122790D02*
X0007000Y0122790D01*
X0004100Y0124388D02*
X0056019Y0124388D01*
X0056019Y0124586D02*
X0056019Y0123280D01*
X0056518Y0122074D01*
X0057441Y0121151D01*
X0058647Y0120652D01*
X0059953Y0120652D01*
X0061159Y0121151D01*
X0061340Y0121333D01*
X0115723Y0121333D01*
X0117827Y0119229D01*
X0118783Y0118833D01*
X0165723Y0118833D01*
X0168519Y0116037D01*
X0168519Y0115780D01*
X0169018Y0114574D01*
X0169941Y0113651D01*
X0171147Y0113152D01*
X0172453Y0113152D01*
X0173659Y0113651D01*
X0174582Y0114574D01*
X0175081Y0115780D01*
X0175081Y0117086D01*
X0174582Y0118292D01*
X0173659Y0119215D01*
X0172453Y0119714D01*
X0172196Y0119714D01*
X0169004Y0122906D01*
X0168273Y0123637D01*
X0167317Y0124033D01*
X0120377Y0124033D01*
X0119004Y0125406D01*
X0118273Y0126137D01*
X0117317Y0126533D01*
X0061340Y0126533D01*
X0061159Y0126715D01*
X0059953Y0127214D01*
X0058647Y0127214D01*
X0057441Y0126715D01*
X0056518Y0125792D01*
X0056019Y0124586D01*
X0056714Y0125987D02*
X0004100Y0125987D01*
X0004100Y0127585D02*
X0202015Y0127585D01*
X0201900Y0127308D02*
X0201900Y0125558D01*
X0202570Y0123941D01*
X0203808Y0122703D01*
X0205425Y0122033D01*
X0213175Y0122033D01*
X0214792Y0122703D01*
X0216030Y0123941D01*
X0216700Y0125558D01*
X0216700Y0127308D01*
X0216030Y0128925D01*
X0214792Y0130163D01*
X0213175Y0130833D01*
X0205425Y0130833D01*
X0203808Y0130163D01*
X0202570Y0128925D01*
X0201900Y0127308D01*
X0201900Y0125987D02*
X0118423Y0125987D01*
X0120022Y0124388D02*
X0202384Y0124388D01*
X0203721Y0122790D02*
X0169120Y0122790D01*
X0170719Y0121191D02*
X0205659Y0121191D01*
X0205922Y0121233D02*
X0205176Y0121115D01*
X0204457Y0120881D01*
X0203784Y0120538D01*
X0203173Y0120094D01*
X0202639Y0119560D01*
X0202195Y0118949D01*
X0201852Y0118276D01*
X0201618Y0117557D01*
X0201500Y0116811D01*
X0201500Y0116633D01*
X0209100Y0116633D01*
X0209100Y0116233D01*
X0209500Y0116233D01*
X0209500Y0111633D01*
X0212678Y0111633D01*
X0213424Y0111751D01*
X0214143Y0111985D01*
X0214816Y0112328D01*
X0215427Y0112772D01*
X0215961Y0113306D01*
X0216405Y0113917D01*
X0216748Y0114591D01*
X0216982Y0115309D01*
X0217100Y0116055D01*
X0217100Y0116233D01*
X0209500Y0116233D01*
X0209500Y0116633D01*
X0217100Y0116633D01*
X0217100Y0116811D01*
X0216982Y0117557D01*
X0216748Y0118276D01*
X0216405Y0118949D01*
X0215961Y0119560D01*
X0215427Y0120094D01*
X0214816Y0120538D01*
X0214143Y0120881D01*
X0213424Y0121115D01*
X0212678Y0121233D01*
X0209500Y0121233D01*
X0209500Y0116633D01*
X0209100Y0116633D01*
X0209100Y0121233D01*
X0205922Y0121233D01*
X0209100Y0121191D02*
X0209500Y0121191D01*
X0209500Y0119593D02*
X0209100Y0119593D01*
X0209100Y0117994D02*
X0209500Y0117994D01*
X0209500Y0116396D02*
X0369100Y0116396D01*
X0369100Y0116233D02*
X0364500Y0116233D01*
X0364500Y0113055D01*
X0364618Y0112309D01*
X0364852Y0111591D01*
X0365195Y0110917D01*
X0365639Y0110306D01*
X0366173Y0109772D01*
X0366784Y0109328D01*
X0367457Y0108985D01*
X0368176Y0108751D01*
X0368922Y0108633D01*
X0369100Y0108633D01*
X0369100Y0116233D01*
X0369500Y0116233D01*
X0369500Y0108633D01*
X0369678Y0108633D01*
X0370424Y0108751D01*
X0371143Y0108985D01*
X0371816Y0109328D01*
X0372427Y0109772D01*
X0372961Y0110306D01*
X0373405Y0110917D01*
X0373748Y0111591D01*
X0373982Y0112309D01*
X0374100Y0113055D01*
X0374100Y0116233D01*
X0369500Y0116233D01*
X0369500Y0116633D01*
X0374100Y0116633D01*
X0374100Y0119811D01*
X0373982Y0120557D01*
X0373748Y0121276D01*
X0373405Y0121949D01*
X0372961Y0122560D01*
X0372427Y0123094D01*
X0371816Y0123538D01*
X0371143Y0123881D01*
X0370424Y0124115D01*
X0369678Y0124233D01*
X0369500Y0124233D01*
X0369500Y0116633D01*
X0369100Y0116633D01*
X0369100Y0116233D01*
X0369100Y0116633D02*
X0364500Y0116633D01*
X0364500Y0119811D01*
X0364618Y0120557D01*
X0364852Y0121276D01*
X0365195Y0121949D01*
X0365639Y0122560D01*
X0366173Y0123094D01*
X0366784Y0123538D01*
X0367457Y0123881D01*
X0368176Y0124115D01*
X0368922Y0124233D01*
X0369100Y0124233D01*
X0369100Y0116633D01*
X0369500Y0116396D02*
X0379100Y0116396D01*
X0379100Y0116233D02*
X0374500Y0116233D01*
X0374500Y0113055D01*
X0374618Y0112309D01*
X0374852Y0111591D01*
X0375195Y0110917D01*
X0375639Y0110306D01*
X0376173Y0109772D01*
X0376784Y0109328D01*
X0377457Y0108985D01*
X0378176Y0108751D01*
X0378922Y0108633D01*
X0379100Y0108633D01*
X0379100Y0116233D01*
X0379500Y0116233D01*
X0379500Y0108633D01*
X0379678Y0108633D01*
X0380424Y0108751D01*
X0381143Y0108985D01*
X0381816Y0109328D01*
X0382427Y0109772D01*
X0382961Y0110306D01*
X0383405Y0110917D01*
X0383748Y0111591D01*
X0383982Y0112309D01*
X0384100Y0113055D01*
X0384100Y0116233D01*
X0379500Y0116233D01*
X0379500Y0116633D01*
X0384100Y0116633D01*
X0384100Y0119811D01*
X0383982Y0120557D01*
X0383748Y0121276D01*
X0383405Y0121949D01*
X0382961Y0122560D01*
X0382427Y0123094D01*
X0381816Y0123538D01*
X0381143Y0123881D01*
X0380424Y0124115D01*
X0379678Y0124233D01*
X0379500Y0124233D01*
X0379500Y0116633D01*
X0379100Y0116633D01*
X0379100Y0116233D01*
X0379100Y0116633D02*
X0374500Y0116633D01*
X0374500Y0119811D01*
X0374618Y0120557D01*
X0374852Y0121276D01*
X0375195Y0121949D01*
X0375639Y0122560D01*
X0376173Y0123094D01*
X0376784Y0123538D01*
X0377457Y0123881D01*
X0378176Y0124115D01*
X0378922Y0124233D01*
X0379100Y0124233D01*
X0379100Y0116633D01*
X0379500Y0116396D02*
X0389100Y0116396D01*
X0389100Y0116233D02*
X0384500Y0116233D01*
X0384500Y0113055D01*
X0384618Y0112309D01*
X0384852Y0111591D01*
X0385195Y0110917D01*
X0385639Y0110306D01*
X0386173Y0109772D01*
X0386784Y0109328D01*
X0387457Y0108985D01*
X0388176Y0108751D01*
X0388922Y0108633D01*
X0389100Y0108633D01*
X0389100Y0116233D01*
X0389500Y0116233D01*
X0389500Y0108633D01*
X0389678Y0108633D01*
X0390424Y0108751D01*
X0391143Y0108985D01*
X0391816Y0109328D01*
X0392427Y0109772D01*
X0392961Y0110306D01*
X0393405Y0110917D01*
X0393748Y0111591D01*
X0393982Y0112309D01*
X0394100Y0113055D01*
X0394100Y0116233D01*
X0389500Y0116233D01*
X0389500Y0116633D01*
X0394100Y0116633D01*
X0394100Y0119811D01*
X0393982Y0120557D01*
X0393748Y0121276D01*
X0393405Y0121949D01*
X0392961Y0122560D01*
X0392427Y0123094D01*
X0391816Y0123538D01*
X0391143Y0123881D01*
X0390424Y0124115D01*
X0389678Y0124233D01*
X0389500Y0124233D01*
X0389500Y0116633D01*
X0389100Y0116633D01*
X0389100Y0116233D01*
X0389100Y0116633D02*
X0384500Y0116633D01*
X0384500Y0119811D01*
X0384618Y0120557D01*
X0384852Y0121276D01*
X0385195Y0121949D01*
X0385639Y0122560D01*
X0386173Y0123094D01*
X0386784Y0123538D01*
X0387457Y0123881D01*
X0388176Y0124115D01*
X0388922Y0124233D01*
X0389100Y0124233D01*
X0389100Y0116633D01*
X0389500Y0116396D02*
X0394500Y0116396D01*
X0394500Y0117994D02*
X0394100Y0117994D01*
X0394100Y0119593D02*
X0394500Y0119593D01*
X0394500Y0121191D02*
X0393776Y0121191D01*
X0394500Y0122790D02*
X0392731Y0122790D01*
X0394500Y0124388D02*
X0216216Y0124388D01*
X0216700Y0125987D02*
X0394500Y0125987D01*
X0394500Y0127585D02*
X0216585Y0127585D01*
X0215772Y0129184D02*
X0227310Y0129184D01*
X0227134Y0129292D02*
X0227556Y0129034D01*
X0227591Y0128947D01*
X0227917Y0128812D01*
X0228217Y0128628D01*
X0228308Y0128650D01*
X0228765Y0128461D01*
X0228814Y0128381D01*
X0229157Y0128298D01*
X0229482Y0128164D01*
X0229569Y0128200D01*
X0230050Y0128084D01*
X0230111Y0128013D01*
X0230462Y0127985D01*
X0230805Y0127903D01*
X0230884Y0127952D01*
X0231378Y0127913D01*
X0231449Y0127852D01*
X0231800Y0127880D01*
X0232151Y0127852D01*
X0232222Y0127913D01*
X0232716Y0127952D01*
X0232795Y0127903D01*
X0233138Y0127985D01*
X0233489Y0128013D01*
X0233550Y0128084D01*
X0234031Y0128200D01*
X0234118Y0128164D01*
X0234443Y0128298D01*
X0234786Y0128381D01*
X0234835Y0128461D01*
X0235292Y0128650D01*
X0235383Y0128628D01*
X0235683Y0128812D01*
X0236009Y0128947D01*
X0236044Y0129034D01*
X0236466Y0129292D01*
X0236560Y0129285D01*
X0236827Y0129513D01*
X0237128Y0129697D01*
X0237150Y0129789D01*
X0237526Y0130110D01*
X0237619Y0130117D01*
X0237848Y0130385D01*
X0238116Y0130614D01*
X0238123Y0130707D01*
X0238444Y0131083D01*
X0238536Y0131105D01*
X0238720Y0131406D01*
X0238948Y0131673D01*
X0238941Y0131767D01*
X0239200Y0132189D01*
X0239286Y0132225D01*
X0239421Y0132550D01*
X0239605Y0132850D01*
X0239583Y0132941D01*
X0239772Y0133398D01*
X0239852Y0133447D01*
X0239935Y0133790D01*
X0240069Y0134115D01*
X0240034Y0134202D01*
X0240149Y0134683D01*
X0240220Y0134744D01*
X0240248Y0135095D01*
X0240330Y0135438D01*
X0240281Y0135518D01*
X0240320Y0136011D01*
X0240381Y0136082D01*
X0240353Y0136433D01*
X0240381Y0136784D01*
X0240320Y0136856D01*
X0240281Y0137349D01*
X0240330Y0137429D01*
X0240248Y0137771D01*
X0240220Y0138122D01*
X0240149Y0138183D01*
X0240034Y0138664D01*
X0240069Y0138751D01*
X0239935Y0139076D01*
X0239852Y0139419D01*
X0239772Y0139468D01*
X0239583Y0139925D01*
X0239605Y0140016D01*
X0239421Y0140316D01*
X0239286Y0140642D01*
X0239200Y0140677D01*
X0238941Y0141099D01*
X0238948Y0141193D01*
X0238720Y0141461D01*
X0238536Y0141761D01*
X0238444Y0141783D01*
X0238123Y0142159D01*
X0238116Y0142252D01*
X0237848Y0142481D01*
X0237619Y0142749D01*
X0237526Y0142756D01*
X0237150Y0143078D01*
X0237128Y0143169D01*
X0236827Y0143353D01*
X0236560Y0143582D01*
X0236466Y0143574D01*
X0236044Y0143833D01*
X0236009Y0143919D01*
X0235683Y0144054D01*
X0235383Y0144238D01*
X0235292Y0144216D01*
X0234835Y0144406D01*
X0234786Y0144485D01*
X0234443Y0144568D01*
X0234118Y0144702D01*
X0234031Y0144667D01*
X0233550Y0144782D01*
X0233489Y0144853D01*
X0233138Y0144881D01*
X0232795Y0144963D01*
X0232716Y0144914D01*
X0232222Y0144953D01*
X0232151Y0145014D01*
X0231800Y0144986D01*
X0231449Y0145014D01*
X0231378Y0144953D01*
X0230884Y0144914D01*
X0230805Y0144963D01*
X0230462Y0144881D01*
X0230111Y0144853D01*
X0230050Y0144782D01*
X0229569Y0144667D01*
X0229482Y0144702D01*
X0229157Y0144568D01*
X0228814Y0144485D01*
X0228765Y0144405D01*
X0228308Y0144216D01*
X0228217Y0144238D01*
X0227917Y0144054D01*
X0227591Y0143919D01*
X0227556Y0143833D01*
X0227134Y0143574D01*
X0227040Y0143582D01*
X0226773Y0143353D01*
X0226472Y0143169D01*
X0226450Y0143078D01*
X0226074Y0142756D01*
X0225981Y0142749D01*
X0225752Y0142481D01*
X0225484Y0142252D01*
X0225477Y0142159D01*
X0225156Y0141783D01*
X0225064Y0141761D01*
X0224880Y0141461D01*
X0224651Y0141193D01*
X0224659Y0141099D01*
X0224400Y0140677D01*
X0224314Y0140642D01*
X0224179Y0140316D01*
X0223995Y0140016D01*
X0224017Y0139925D01*
X0223828Y0139468D01*
X0223748Y0139419D01*
X0223665Y0139076D01*
X0223531Y0138751D01*
X0223566Y0138664D01*
X0223451Y0138183D01*
X0223380Y0138122D01*
X0223352Y0137771D01*
X0223270Y0137429D01*
X0223319Y0137349D01*
X0223280Y0136856D01*
X0223219Y0136784D01*
X0223247Y0136433D01*
X0223219Y0136082D01*
X0223280Y0136011D01*
X0223319Y0135518D01*
X0223270Y0135438D01*
X0223352Y0135095D01*
X0223380Y0134744D01*
X0223451Y0134683D01*
X0223566Y0134202D01*
X0223531Y0134115D01*
X0223665Y0133790D01*
X0223748Y0133447D01*
X0223828Y0133398D01*
X0224017Y0132942D01*
X0223995Y0132850D01*
X0224179Y0132550D01*
X0224314Y0132225D01*
X0224400Y0132189D01*
X0224659Y0131767D01*
X0224651Y0131673D01*
X0224880Y0131406D01*
X0225064Y0131105D01*
X0225156Y0131083D01*
X0225477Y0130707D01*
X0225484Y0130614D01*
X0225752Y0130385D01*
X0225981Y0130117D01*
X0226074Y0130110D01*
X0226450Y0129789D01*
X0226472Y0129697D01*
X0226773Y0129513D01*
X0227040Y0129285D01*
X0227134Y0129292D01*
X0225412Y0130782D02*
X0213297Y0130782D01*
X0215388Y0132493D02*
X0214080Y0133800D01*
X0213372Y0135509D01*
X0213372Y0137358D01*
X0214080Y0139066D01*
X0215388Y0140373D01*
X0215388Y0140374D02*
X0209374Y0140374D01*
X0209498Y0140283D02*
X0208855Y0140751D01*
X0208147Y0141111D01*
X0207392Y0141357D01*
X0206607Y0141481D01*
X0206492Y0141481D01*
X0206492Y0136716D01*
X0205927Y0136716D01*
X0205927Y0141481D01*
X0205812Y0141481D01*
X0205027Y0141357D01*
X0204272Y0141111D01*
X0203564Y0140751D01*
X0202921Y0140283D01*
X0202359Y0139722D01*
X0201892Y0139079D01*
X0201531Y0138371D01*
X0201286Y0137615D01*
X0201161Y0136830D01*
X0201161Y0136716D01*
X0205927Y0136716D01*
X0205927Y0136150D01*
X0206492Y0136150D01*
X0206492Y0131385D01*
X0206607Y0131385D01*
X0207392Y0131509D01*
X0208147Y0131755D01*
X0208855Y0132116D01*
X0209498Y0132583D01*
X0210060Y0133145D01*
X0210527Y0133787D01*
X0210888Y0134495D01*
X0211133Y0135251D01*
X0211257Y0136036D01*
X0211257Y0136150D01*
X0206492Y0136150D01*
X0206492Y0136716D01*
X0211257Y0136716D01*
X0211257Y0136830D01*
X0211133Y0137615D01*
X0210888Y0138371D01*
X0210527Y0139079D01*
X0210060Y0139722D01*
X0209498Y0140283D01*
X0210682Y0138775D02*
X0213960Y0138775D01*
X0213372Y0137177D02*
X0211203Y0137177D01*
X0211185Y0135578D02*
X0213372Y0135578D01*
X0214006Y0133979D02*
X0210625Y0133979D01*
X0209220Y0132381D02*
X0215657Y0132381D01*
X0215388Y0132493D02*
X0217096Y0131785D01*
X0218945Y0131785D01*
X0220653Y0132493D01*
X0221961Y0133800D01*
X0222668Y0135509D01*
X0222668Y0137358D01*
X0221961Y0139066D01*
X0220653Y0140373D01*
X0220653Y0140374D02*
X0224203Y0140374D01*
X0223541Y0138775D02*
X0222081Y0138775D01*
X0222668Y0137177D02*
X0223305Y0137177D01*
X0223314Y0135578D02*
X0222668Y0135578D01*
X0222035Y0133979D02*
X0223587Y0133979D01*
X0224249Y0132381D02*
X0220384Y0132381D01*
X0220653Y0140373D02*
X0218945Y0141081D01*
X0217096Y0141081D01*
X0215388Y0140373D01*
X0225317Y0141972D02*
X0173283Y0141972D01*
X0173123Y0142159D02*
X0173116Y0142252D01*
X0172848Y0142481D01*
X0172619Y0142749D01*
X0172526Y0142756D01*
X0172150Y0143078D01*
X0172128Y0143169D01*
X0171827Y0143353D01*
X0171560Y0143582D01*
X0171466Y0143574D01*
X0171044Y0143833D01*
X0171009Y0143919D01*
X0170683Y0144054D01*
X0170383Y0144238D01*
X0170292Y0144216D01*
X0169835Y0144405D01*
X0169786Y0144485D01*
X0169443Y0144568D01*
X0169118Y0144702D01*
X0169031Y0144667D01*
X0168550Y0144782D01*
X0168489Y0144853D01*
X0168138Y0144881D01*
X0167795Y0144963D01*
X0167716Y0144914D01*
X0167222Y0144953D01*
X0167151Y0145014D01*
X0166800Y0144986D01*
X0166449Y0145014D01*
X0166378Y0144953D01*
X0165884Y0144914D01*
X0165805Y0144963D01*
X0165462Y0144881D01*
X0165111Y0144853D01*
X0165050Y0144782D01*
X0164569Y0144667D01*
X0164482Y0144702D01*
X0164157Y0144568D01*
X0163814Y0144485D01*
X0163765Y0144405D01*
X0163308Y0144216D01*
X0163217Y0144238D01*
X0162917Y0144054D01*
X0162591Y0143919D01*
X0162556Y0143833D01*
X0162134Y0143574D01*
X0162040Y0143582D01*
X0161773Y0143353D01*
X0161472Y0143169D01*
X0161450Y0143078D01*
X0161074Y0142756D01*
X0160981Y0142749D01*
X0160752Y0142481D01*
X0160484Y0142252D01*
X0160477Y0142159D01*
X0160156Y0141783D01*
X0160064Y0141761D01*
X0159880Y0141461D01*
X0159651Y0141193D01*
X0159659Y0141099D01*
X0159400Y0140677D01*
X0159314Y0140642D01*
X0159179Y0140316D01*
X0158995Y0140016D01*
X0159017Y0139925D01*
X0158828Y0139468D01*
X0158748Y0139419D01*
X0158665Y0139076D01*
X0158531Y0138751D01*
X0158566Y0138664D01*
X0158451Y0138183D01*
X0158380Y0138122D01*
X0158352Y0137771D01*
X0158270Y0137429D01*
X0158319Y0137349D01*
X0158280Y0136856D01*
X0158219Y0136784D01*
X0158247Y0136433D01*
X0158219Y0136082D01*
X0158280Y0136011D01*
X0158319Y0135518D01*
X0158270Y0135438D01*
X0158352Y0135095D01*
X0158380Y0134744D01*
X0158451Y0134683D01*
X0158566Y0134202D01*
X0158531Y0134115D01*
X0158665Y0133790D01*
X0158748Y0133447D01*
X0158828Y0133398D01*
X0159017Y0132942D01*
X0158995Y0132850D01*
X0159179Y0132550D01*
X0159314Y0132225D01*
X0159400Y0132189D01*
X0159659Y0131767D01*
X0159651Y0131673D01*
X0159880Y0131406D01*
X0160064Y0131105D01*
X0160156Y0131083D01*
X0160477Y0130707D01*
X0160484Y0130614D01*
X0160752Y0130385D01*
X0160981Y0130117D01*
X0161074Y0130110D01*
X0161450Y0129789D01*
X0161472Y0129697D01*
X0161773Y0129513D01*
X0162040Y0129285D01*
X0162134Y0129292D01*
X0162556Y0129034D01*
X0162591Y0128947D01*
X0162917Y0128812D01*
X0163217Y0128628D01*
X0163308Y0128650D01*
X0163765Y0128461D01*
X0163814Y0128381D01*
X0164157Y0128298D01*
X0164482Y0128164D01*
X0164569Y0128200D01*
X0165050Y0128084D01*
X0165111Y0128013D01*
X0165462Y0127985D01*
X0165805Y0127903D01*
X0165884Y0127952D01*
X0166378Y0127913D01*
X0166449Y0127852D01*
X0166800Y0127880D01*
X0167151Y0127852D01*
X0167222Y0127913D01*
X0167716Y0127952D01*
X0167795Y0127903D01*
X0168138Y0127985D01*
X0168489Y0128013D01*
X0168550Y0128084D01*
X0169031Y0128200D01*
X0169118Y0128164D01*
X0169443Y0128298D01*
X0169786Y0128381D01*
X0169835Y0128461D01*
X0170292Y0128650D01*
X0170383Y0128628D01*
X0170683Y0128812D01*
X0171009Y0128947D01*
X0171044Y0129034D01*
X0171466Y0129292D01*
X0171560Y0129285D01*
X0171827Y0129513D01*
X0172128Y0129697D01*
X0172150Y0129789D01*
X0172526Y0130110D01*
X0172619Y0130117D01*
X0172848Y0130385D01*
X0173116Y0130614D01*
X0173123Y0130707D01*
X0173444Y0131083D01*
X0173536Y0131105D01*
X0173720Y0131406D01*
X0173948Y0131673D01*
X0173941Y0131767D01*
X0174200Y0132189D01*
X0174286Y0132225D01*
X0174421Y0132550D01*
X0174605Y0132850D01*
X0174583Y0132941D01*
X0174772Y0133398D01*
X0174852Y0133447D01*
X0174935Y0133790D01*
X0175069Y0134115D01*
X0175034Y0134202D01*
X0175149Y0134683D01*
X0175220Y0134744D01*
X0175248Y0135095D01*
X0175330Y0135438D01*
X0175281Y0135518D01*
X0175320Y0136011D01*
X0175381Y0136082D01*
X0175353Y0136433D01*
X0175381Y0136784D01*
X0175320Y0136856D01*
X0175281Y0137349D01*
X0175330Y0137429D01*
X0175248Y0137771D01*
X0175220Y0138122D01*
X0175149Y0138183D01*
X0175034Y0138664D01*
X0175069Y0138751D01*
X0174935Y0139076D01*
X0174852Y0139419D01*
X0174772Y0139468D01*
X0174583Y0139925D01*
X0174605Y0140016D01*
X0174421Y0140316D01*
X0174286Y0140642D01*
X0174200Y0140677D01*
X0173941Y0141099D01*
X0173948Y0141193D01*
X0173720Y0141461D01*
X0173536Y0141761D01*
X0173444Y0141783D01*
X0173123Y0142159D01*
X0171573Y0143571D02*
X0227027Y0143571D01*
X0236573Y0143571D02*
X0254900Y0143571D01*
X0254900Y0142558D02*
X0255570Y0140941D01*
X0256808Y0139703D01*
X0258425Y0139033D01*
X0260175Y0139033D01*
X0261792Y0139703D01*
X0263030Y0140941D01*
X0263700Y0142558D01*
X0263700Y0150308D01*
X0263151Y0151633D01*
X0265449Y0151633D01*
X0264900Y0150308D01*
X0264900Y0142558D01*
X0265570Y0140941D01*
X0266808Y0139703D01*
X0268425Y0139033D01*
X0270175Y0139033D01*
X0271792Y0139703D01*
X0273030Y0140941D01*
X0273700Y0142558D01*
X0273700Y0150308D01*
X0273151Y0151633D01*
X0275449Y0151633D01*
X0274900Y0150308D01*
X0274900Y0142558D01*
X0275375Y0141412D01*
X0275027Y0141357D01*
X0274272Y0141111D01*
X0273564Y0140751D01*
X0272921Y0140283D01*
X0272359Y0139722D01*
X0271892Y0139079D01*
X0271531Y0138371D01*
X0271286Y0137615D01*
X0271161Y0136830D01*
X0271161Y0136716D01*
X0275927Y0136716D01*
X0275927Y0136150D01*
X0276492Y0136150D01*
X0276492Y0131385D01*
X0276607Y0131385D01*
X0277392Y0131509D01*
X0278147Y0131755D01*
X0278855Y0132116D01*
X0279498Y0132583D01*
X0280060Y0133145D01*
X0280527Y0133787D01*
X0280888Y0134495D01*
X0281133Y0135251D01*
X0281257Y0136036D01*
X0281257Y0136150D01*
X0276492Y0136150D01*
X0276492Y0136716D01*
X0281257Y0136716D01*
X0281257Y0136830D01*
X0281133Y0137615D01*
X0280888Y0138371D01*
X0280527Y0139079D01*
X0280471Y0139156D01*
X0281792Y0139703D01*
X0283030Y0140941D01*
X0283700Y0142558D01*
X0283700Y0143833D01*
X0297556Y0143833D01*
X0297556Y0143833D01*
X0297134Y0143574D01*
X0297040Y0143582D01*
X0296773Y0143353D01*
X0296472Y0143169D01*
X0296450Y0143078D01*
X0296074Y0142756D01*
X0295981Y0142749D01*
X0295752Y0142481D01*
X0295484Y0142252D01*
X0295477Y0142159D01*
X0295156Y0141783D01*
X0295064Y0141761D01*
X0294880Y0141461D01*
X0294651Y0141193D01*
X0294659Y0141099D01*
X0294400Y0140677D01*
X0294314Y0140642D01*
X0294179Y0140316D01*
X0293995Y0140016D01*
X0294017Y0139925D01*
X0293828Y0139468D01*
X0293748Y0139419D01*
X0293665Y0139076D01*
X0293531Y0138751D01*
X0293566Y0138664D01*
X0293451Y0138183D01*
X0293380Y0138122D01*
X0293352Y0137771D01*
X0293270Y0137429D01*
X0293319Y0137349D01*
X0293280Y0136856D01*
X0293219Y0136784D01*
X0293247Y0136433D01*
X0293219Y0136082D01*
X0293280Y0136011D01*
X0293319Y0135518D01*
X0293270Y0135438D01*
X0293352Y0135095D01*
X0293380Y0134744D01*
X0293451Y0134683D01*
X0293566Y0134202D01*
X0293531Y0134115D01*
X0293665Y0133790D01*
X0293748Y0133447D01*
X0293828Y0133398D01*
X0294017Y0132942D01*
X0293995Y0132850D01*
X0294179Y0132550D01*
X0294314Y0132225D01*
X0294400Y0132189D01*
X0294659Y0131767D01*
X0294651Y0131673D01*
X0294880Y0131406D01*
X0295064Y0131105D01*
X0295156Y0131083D01*
X0295477Y0130707D01*
X0295484Y0130614D01*
X0295752Y0130385D01*
X0295981Y0130117D01*
X0296074Y0130110D01*
X0296450Y0129789D01*
X0296472Y0129697D01*
X0296773Y0129513D01*
X0297040Y0129285D01*
X0297134Y0129292D01*
X0297556Y0129034D01*
X0297591Y0128947D01*
X0297917Y0128812D01*
X0298217Y0128628D01*
X0298308Y0128650D01*
X0298765Y0128461D01*
X0298814Y0128381D01*
X0299157Y0128298D01*
X0299482Y0128164D01*
X0299569Y0128200D01*
X0300050Y0128084D01*
X0300111Y0128013D01*
X0300462Y0127985D01*
X0300805Y0127903D01*
X0300884Y0127952D01*
X0301378Y0127913D01*
X0301449Y0127852D01*
X0301800Y0127880D01*
X0302151Y0127852D01*
X0302222Y0127913D01*
X0302716Y0127952D01*
X0302795Y0127903D01*
X0303138Y0127985D01*
X0303489Y0128013D01*
X0303550Y0128084D01*
X0304031Y0128200D01*
X0304118Y0128164D01*
X0304443Y0128298D01*
X0304786Y0128381D01*
X0304835Y0128461D01*
X0305292Y0128650D01*
X0305383Y0128628D01*
X0305683Y0128812D01*
X0306009Y0128947D01*
X0306044Y0129034D01*
X0306466Y0129292D01*
X0306560Y0129285D01*
X0306827Y0129513D01*
X0307128Y0129697D01*
X0307150Y0129789D01*
X0307526Y0130110D01*
X0307619Y0130117D01*
X0307848Y0130385D01*
X0308116Y0130614D01*
X0308123Y0130707D01*
X0308444Y0131083D01*
X0308536Y0131105D01*
X0308720Y0131406D01*
X0308948Y0131673D01*
X0308941Y0131767D01*
X0309200Y0132189D01*
X0309286Y0132225D01*
X0309421Y0132550D01*
X0309605Y0132850D01*
X0309583Y0132941D01*
X0309772Y0133398D01*
X0309852Y0133447D01*
X0309935Y0133790D01*
X0310069Y0134115D01*
X0310034Y0134202D01*
X0310149Y0134683D01*
X0310220Y0134744D01*
X0310248Y0135095D01*
X0310330Y0135438D01*
X0310281Y0135518D01*
X0310320Y0136011D01*
X0310381Y0136082D01*
X0310353Y0136433D01*
X0310381Y0136784D01*
X0310320Y0136856D01*
X0310281Y0137349D01*
X0310330Y0137429D01*
X0310248Y0137771D01*
X0310220Y0138122D01*
X0310149Y0138183D01*
X0310034Y0138664D01*
X0310069Y0138751D01*
X0309935Y0139076D01*
X0309852Y0139419D01*
X0309772Y0139468D01*
X0309583Y0139925D01*
X0309605Y0140016D01*
X0309421Y0140316D01*
X0309286Y0140642D01*
X0309200Y0140677D01*
X0308941Y0141099D01*
X0308948Y0141193D01*
X0308720Y0141461D01*
X0308536Y0141761D01*
X0308444Y0141783D01*
X0308123Y0142159D01*
X0308116Y0142252D01*
X0307848Y0142481D01*
X0307619Y0142749D01*
X0307526Y0142756D01*
X0307150Y0143078D01*
X0307128Y0143169D01*
X0306827Y0143353D01*
X0306560Y0143582D01*
X0306466Y0143574D01*
X0306044Y0143833D01*
X0327260Y0143833D01*
X0327441Y0143651D01*
X0328647Y0143152D01*
X0329953Y0143152D01*
X0331159Y0143651D01*
X0332082Y0144574D01*
X0332581Y0145780D01*
X0332581Y0147086D01*
X0332082Y0148292D01*
X0331159Y0149215D01*
X0329953Y0149714D01*
X0328647Y0149714D01*
X0327441Y0149215D01*
X0327260Y0149033D01*
X0283700Y0149033D01*
X0283700Y0150308D01*
X0283151Y0151633D01*
X0372753Y0151633D01*
X0374100Y0152980D01*
X0374100Y0159886D01*
X0372753Y0161233D01*
X0331240Y0161233D01*
X0332082Y0162074D01*
X0332581Y0163280D01*
X0332581Y0163594D01*
X0333647Y0163152D01*
X0334953Y0163152D01*
X0336159Y0163651D01*
X0337082Y0164574D01*
X0337581Y0165780D01*
X0337581Y0167086D01*
X0337082Y0168292D01*
X0336159Y0169215D01*
X0334953Y0169714D01*
X0334696Y0169714D01*
X0333273Y0171137D01*
X0332317Y0171533D01*
X0311340Y0171533D01*
X0311159Y0171715D01*
X0309953Y0172214D01*
X0308647Y0172214D01*
X0307441Y0171715D01*
X0306518Y0170792D01*
X0306019Y0169586D01*
X0306019Y0168280D01*
X0306518Y0167074D01*
X0307060Y0166533D01*
X0302877Y0166533D01*
X0300773Y0168637D01*
X0299817Y0169033D01*
X0283700Y0169033D01*
X0283700Y0170308D01*
X0283313Y0171244D01*
X0284077Y0170479D01*
X0285033Y0170083D01*
X0288510Y0170083D01*
X0288691Y0169901D01*
X0289897Y0169402D01*
X0291203Y0169402D01*
X0292409Y0169901D01*
X0293332Y0170824D01*
X0293831Y0172030D01*
X0293831Y0173336D01*
X0293332Y0174542D01*
X0292409Y0175465D01*
X0291203Y0175964D01*
X0289897Y0175964D01*
X0288691Y0175465D01*
X0288510Y0175283D01*
X0286627Y0175283D01*
X0284004Y0177906D01*
X0283273Y0178637D01*
X0282317Y0179033D01*
X0261283Y0179033D01*
X0260327Y0178637D01*
X0259596Y0177906D01*
X0257827Y0176137D01*
X0257096Y0175406D01*
X0256700Y0174450D01*
X0256700Y0173056D01*
X0255570Y0171925D01*
X0254900Y0170308D01*
X0254900Y0162558D01*
X0255449Y0161233D01*
X0143151Y0161233D01*
X0143700Y0162558D01*
X0143700Y0170308D01*
X0143030Y0171925D01*
X0141792Y0173163D01*
X0140175Y0173833D01*
X0138425Y0173833D01*
X0138179Y0173731D01*
X0135577Y0176333D01*
X0136308Y0176333D01*
X0136518Y0175824D01*
X0137441Y0174901D01*
X0138647Y0174402D01*
X0139953Y0174402D01*
X0141159Y0174901D01*
X0142082Y0175824D01*
X0142581Y0177030D01*
X0142581Y0178336D01*
X0142082Y0179542D01*
X0141159Y0180465D01*
X0139953Y0180964D01*
X0139696Y0180964D01*
X0139523Y0181137D01*
X0138567Y0181533D01*
X0113783Y0181533D01*
X0112827Y0181137D01*
X0108223Y0176533D01*
X0086340Y0176533D01*
X0086159Y0176715D01*
X0084953Y0177214D01*
X0083647Y0177214D01*
X0082441Y0176715D01*
X0081518Y0175792D01*
X0081019Y0174586D01*
X0081019Y0173280D01*
X0081518Y0172074D01*
X0081677Y0171916D01*
X0081191Y0171715D01*
X0080268Y0170792D01*
X0079769Y0169586D01*
X0079769Y0168280D01*
X0080268Y0167074D01*
X0081191Y0166151D01*
X0082397Y0165652D01*
X0083703Y0165652D01*
X0084909Y0166151D01*
X0085090Y0166333D01*
X0111067Y0166333D01*
X0112023Y0166729D01*
X0112754Y0167460D01*
X0112754Y0167460D01*
X0114900Y0169606D01*
X0114900Y0162558D01*
X0115449Y0161233D01*
X0013347Y0161233D01*
X0012000Y0159886D01*
X0012000Y0152980D01*
X0013347Y0151633D01*
X0115449Y0151633D01*
X0114900Y0150308D01*
X0114900Y0149033D01*
X0071340Y0149033D01*
X0071159Y0149215D01*
X0069953Y0149714D01*
X0068647Y0149714D01*
X0067441Y0149215D01*
X0066518Y0148292D01*
X0066019Y0147086D01*
X0066019Y0145780D01*
X0066518Y0144574D01*
X0067441Y0143651D01*
X0068647Y0143152D01*
X0069953Y0143152D01*
X0071159Y0143651D01*
X0071340Y0143833D01*
X0092556Y0143833D01*
X0092556Y0143833D01*
X0092134Y0143574D01*
X0092040Y0143582D01*
X0091773Y0143353D01*
X0091472Y0143169D01*
X0091450Y0143078D01*
X0091074Y0142756D01*
X0090981Y0142749D01*
X0090752Y0142481D01*
X0090484Y0142252D01*
X0090477Y0142159D01*
X0090156Y0141783D01*
X0090064Y0141761D01*
X0089880Y0141461D01*
X0089651Y0141193D01*
X0089659Y0141099D01*
X0089400Y0140677D01*
X0089314Y0140642D01*
X0089179Y0140316D01*
X0088995Y0140016D01*
X0089017Y0139925D01*
X0088828Y0139468D01*
X0088748Y0139419D01*
X0088665Y0139076D01*
X0088531Y0138751D01*
X0088566Y0138664D01*
X0088451Y0138183D01*
X0088380Y0138122D01*
X0088352Y0137771D01*
X0088270Y0137429D01*
X0088319Y0137349D01*
X0088280Y0136856D01*
X0088219Y0136784D01*
X0088247Y0136433D01*
X0088219Y0136082D01*
X0088280Y0136011D01*
X0088319Y0135518D01*
X0088270Y0135438D01*
X0088352Y0135095D01*
X0088380Y0134744D01*
X0088451Y0134683D01*
X0088566Y0134202D01*
X0088531Y0134115D01*
X0088665Y0133790D01*
X0088748Y0133447D01*
X0088828Y0133398D01*
X0089017Y0132942D01*
X0088995Y0132850D01*
X0089179Y0132550D01*
X0089314Y0132225D01*
X0089400Y0132189D01*
X0089659Y0131767D01*
X0089651Y0131673D01*
X0089880Y0131406D01*
X0090064Y0131105D01*
X0090156Y0131083D01*
X0090477Y0130707D01*
X0090484Y0130614D01*
X0090752Y0130385D01*
X0090981Y0130117D01*
X0091074Y0130110D01*
X0091450Y0129789D01*
X0091472Y0129697D01*
X0091773Y0129513D01*
X0092040Y0129285D01*
X0092134Y0129292D01*
X0092556Y0129034D01*
X0092591Y0128947D01*
X0092917Y0128812D01*
X0093217Y0128628D01*
X0093308Y0128650D01*
X0093765Y0128461D01*
X0093814Y0128381D01*
X0094157Y0128298D01*
X0094482Y0128164D01*
X0094569Y0128200D01*
X0095050Y0128084D01*
X0095111Y0128013D01*
X0095462Y0127985D01*
X0095805Y0127903D01*
X0095884Y0127952D01*
X0096378Y0127913D01*
X0096449Y0127852D01*
X0096800Y0127880D01*
X0097151Y0127852D01*
X0097222Y0127913D01*
X0097716Y0127952D01*
X0097795Y0127903D01*
X0098138Y0127985D01*
X0098489Y0128013D01*
X0098550Y0128084D01*
X0099031Y0128200D01*
X0099118Y0128164D01*
X0099443Y0128298D01*
X0099786Y0128381D01*
X0099835Y0128461D01*
X0100292Y0128650D01*
X0100383Y0128628D01*
X0100683Y0128812D01*
X0101009Y0128947D01*
X0101044Y0129034D01*
X0101466Y0129292D01*
X0101560Y0129285D01*
X0101827Y0129513D01*
X0102128Y0129697D01*
X0102150Y0129789D01*
X0102526Y0130110D01*
X0102619Y0130117D01*
X0102848Y0130385D01*
X0103116Y0130614D01*
X0103123Y0130707D01*
X0103444Y0131083D01*
X0103536Y0131105D01*
X0103720Y0131406D01*
X0103948Y0131673D01*
X0103941Y0131767D01*
X0104200Y0132189D01*
X0104286Y0132225D01*
X0104421Y0132550D01*
X0104605Y0132850D01*
X0104583Y0132942D01*
X0104772Y0133398D01*
X0104852Y0133447D01*
X0104935Y0133790D01*
X0105069Y0134115D01*
X0105034Y0134202D01*
X0105149Y0134683D01*
X0105220Y0134744D01*
X0105248Y0135095D01*
X0105330Y0135438D01*
X0105281Y0135518D01*
X0105320Y0136011D01*
X0105381Y0136082D01*
X0105353Y0136433D01*
X0105381Y0136784D01*
X0105320Y0136856D01*
X0105281Y0137349D01*
X0105330Y0137429D01*
X0105248Y0137771D01*
X0105220Y0138122D01*
X0105149Y0138183D01*
X0105034Y0138664D01*
X0105069Y0138751D01*
X0104935Y0139076D01*
X0104852Y0139419D01*
X0104772Y0139468D01*
X0104583Y0139925D01*
X0104605Y0140016D01*
X0104421Y0140316D01*
X0104286Y0140642D01*
X0104200Y0140677D01*
X0103941Y0141099D01*
X0103948Y0141193D01*
X0103720Y0141461D01*
X0103536Y0141761D01*
X0103444Y0141783D01*
X0103123Y0142159D01*
X0103116Y0142252D01*
X0102848Y0142481D01*
X0102619Y0142749D01*
X0102526Y0142756D01*
X0102150Y0143078D01*
X0102128Y0143169D01*
X0101827Y0143353D01*
X0101560Y0143582D01*
X0101466Y0143574D01*
X0101044Y0143833D01*
X0114900Y0143833D01*
X0114900Y0142558D01*
X0115570Y0140941D01*
X0116808Y0139703D01*
X0118129Y0139156D01*
X0118073Y0139079D01*
X0117712Y0138371D01*
X0117467Y0137615D01*
X0117343Y0136830D01*
X0117343Y0136716D01*
X0122108Y0136716D01*
X0122108Y0136150D01*
X0122673Y0136150D01*
X0122673Y0131385D01*
X0122788Y0131385D01*
X0123573Y0131509D01*
X0124328Y0131755D01*
X0125036Y0132116D01*
X0125679Y0132583D01*
X0126241Y0133145D01*
X0126708Y0133787D01*
X0127069Y0134495D01*
X0127314Y0135251D01*
X0127439Y0136036D01*
X0127439Y0136150D01*
X0122673Y0136150D01*
X0122673Y0136716D01*
X0127439Y0136716D01*
X0127439Y0136830D01*
X0127314Y0137615D01*
X0127069Y0138371D01*
X0126708Y0139079D01*
X0126241Y0139722D01*
X0125679Y0140283D01*
X0125036Y0140751D01*
X0124328Y0141111D01*
X0123573Y0141357D01*
X0123225Y0141412D01*
X0123700Y0142558D01*
X0123700Y0150308D01*
X0123151Y0151633D01*
X0125449Y0151633D01*
X0124900Y0150308D01*
X0124900Y0142558D01*
X0125570Y0140941D01*
X0126808Y0139703D01*
X0128425Y0139033D01*
X0130175Y0139033D01*
X0131792Y0139703D01*
X0133030Y0140941D01*
X0133700Y0142558D01*
X0133700Y0150308D01*
X0133151Y0151633D01*
X0135449Y0151633D01*
X0134900Y0150308D01*
X0134900Y0142558D01*
X0135570Y0140941D01*
X0136808Y0139703D01*
X0138425Y0139033D01*
X0140175Y0139033D01*
X0141792Y0139703D01*
X0143030Y0140941D01*
X0143700Y0142558D01*
X0143700Y0150308D01*
X0143151Y0151633D01*
X0255449Y0151633D01*
X0254900Y0150308D01*
X0254900Y0142558D01*
X0255143Y0141972D02*
X0238283Y0141972D01*
X0239397Y0140374D02*
X0248852Y0140374D01*
X0248852Y0140373D02*
X0247545Y0139066D01*
X0246837Y0137358D01*
X0246837Y0135509D01*
X0247545Y0133800D01*
X0248852Y0132493D01*
X0250560Y0131785D01*
X0252410Y0131785D01*
X0254118Y0132493D01*
X0255425Y0133800D01*
X0256133Y0135509D01*
X0256133Y0137358D01*
X0255425Y0139066D01*
X0254118Y0140373D01*
X0252410Y0141081D01*
X0250560Y0141081D01*
X0248852Y0140373D01*
X0247424Y0138775D02*
X0240059Y0138775D01*
X0240295Y0137177D02*
X0246837Y0137177D01*
X0246837Y0135578D02*
X0240286Y0135578D01*
X0240013Y0133979D02*
X0247470Y0133979D01*
X0249122Y0132381D02*
X0239351Y0132381D01*
X0238187Y0130782D02*
X0295412Y0130782D01*
X0294249Y0132381D02*
X0290384Y0132381D01*
X0290653Y0132493D02*
X0291961Y0133800D01*
X0292668Y0135509D01*
X0292668Y0137358D01*
X0291961Y0139066D01*
X0290653Y0140373D01*
X0290653Y0140374D02*
X0294203Y0140374D01*
X0293541Y0138775D02*
X0292081Y0138775D01*
X0292668Y0137177D02*
X0293305Y0137177D01*
X0293314Y0135578D02*
X0292668Y0135578D01*
X0292035Y0133979D02*
X0293587Y0133979D01*
X0290653Y0132493D02*
X0288945Y0131785D01*
X0287096Y0131785D01*
X0285388Y0132493D01*
X0284080Y0133800D01*
X0283372Y0135509D01*
X0283372Y0137358D01*
X0284080Y0139066D01*
X0285388Y0140373D01*
X0285388Y0140374D02*
X0282463Y0140374D01*
X0283457Y0141972D02*
X0295317Y0141972D01*
X0297027Y0143571D02*
X0283700Y0143571D01*
X0285388Y0140373D02*
X0287096Y0141081D01*
X0288945Y0141081D01*
X0290653Y0140373D01*
X0283960Y0138775D02*
X0280682Y0138775D01*
X0281203Y0137177D02*
X0283372Y0137177D01*
X0283372Y0135578D02*
X0281185Y0135578D01*
X0280625Y0133979D02*
X0284006Y0133979D01*
X0285657Y0132381D02*
X0279220Y0132381D01*
X0276492Y0132381D02*
X0275927Y0132381D01*
X0275927Y0131385D02*
X0275927Y0136150D01*
X0271161Y0136150D01*
X0271161Y0136036D01*
X0271286Y0135251D01*
X0271531Y0134495D01*
X0271892Y0133787D01*
X0272359Y0133145D01*
X0272921Y0132583D01*
X0273564Y0132116D01*
X0274272Y0131755D01*
X0275027Y0131509D01*
X0275812Y0131385D01*
X0275927Y0131385D01*
X0275927Y0133979D02*
X0276492Y0133979D01*
X0276492Y0135578D02*
X0275927Y0135578D01*
X0273198Y0132381D02*
X0253848Y0132381D01*
X0255500Y0133979D02*
X0271794Y0133979D01*
X0271234Y0135578D02*
X0256133Y0135578D01*
X0256133Y0137177D02*
X0271216Y0137177D01*
X0271737Y0138775D02*
X0255546Y0138775D01*
X0256137Y0140374D02*
X0254118Y0140374D01*
X0254900Y0145169D02*
X0143700Y0145169D01*
X0143700Y0143571D02*
X0162027Y0143571D01*
X0160317Y0141972D02*
X0143457Y0141972D01*
X0142463Y0140374D02*
X0144482Y0140374D01*
X0144482Y0140373D02*
X0143175Y0139066D01*
X0142467Y0137358D01*
X0142467Y0135509D01*
X0143175Y0133800D01*
X0144482Y0132493D01*
X0146190Y0131785D01*
X0148040Y0131785D01*
X0149748Y0132493D01*
X0151055Y0133800D01*
X0151763Y0135509D01*
X0151763Y0137358D01*
X0151055Y0139066D01*
X0149748Y0140373D01*
X0148040Y0141081D01*
X0146190Y0141081D01*
X0144482Y0140373D01*
X0143054Y0138775D02*
X0126863Y0138775D01*
X0127384Y0137177D02*
X0142467Y0137177D01*
X0142467Y0135578D02*
X0127366Y0135578D01*
X0126806Y0133979D02*
X0143100Y0133979D01*
X0144752Y0132381D02*
X0125402Y0132381D01*
X0122673Y0132381D02*
X0122108Y0132381D01*
X0122108Y0131385D02*
X0122108Y0136150D01*
X0117343Y0136150D01*
X0117343Y0136036D01*
X0117467Y0135251D01*
X0117712Y0134495D01*
X0118073Y0133787D01*
X0118540Y0133145D01*
X0119102Y0132583D01*
X0119745Y0132116D01*
X0120453Y0131755D01*
X0121208Y0131509D01*
X0121993Y0131385D01*
X0122108Y0131385D01*
X0122108Y0133979D02*
X0122673Y0133979D01*
X0122673Y0135578D02*
X0122108Y0135578D01*
X0119380Y0132381D02*
X0112943Y0132381D01*
X0113212Y0132493D02*
X0114520Y0133800D01*
X0115228Y0135509D01*
X0115228Y0137358D01*
X0114520Y0139066D01*
X0113212Y0140373D01*
X0113212Y0140374D02*
X0116137Y0140374D01*
X0115143Y0141972D02*
X0103283Y0141972D01*
X0104397Y0140374D02*
X0107947Y0140374D01*
X0107947Y0140373D02*
X0106639Y0139066D01*
X0105931Y0137358D01*
X0105931Y0135509D01*
X0106639Y0133800D01*
X0107947Y0132493D01*
X0109655Y0131785D01*
X0111504Y0131785D01*
X0113212Y0132493D01*
X0114594Y0133979D02*
X0117975Y0133979D01*
X0117415Y0135578D02*
X0115228Y0135578D01*
X0115228Y0137177D02*
X0117397Y0137177D01*
X0117918Y0138775D02*
X0114640Y0138775D01*
X0113212Y0140373D02*
X0111504Y0141081D01*
X0109655Y0141081D01*
X0107947Y0140373D01*
X0106519Y0138775D02*
X0105059Y0138775D01*
X0105295Y0137177D02*
X0105931Y0137177D01*
X0105931Y0135578D02*
X0105286Y0135578D01*
X0105013Y0133979D02*
X0106565Y0133979D01*
X0108216Y0132381D02*
X0104351Y0132381D01*
X0103187Y0130782D02*
X0160412Y0130782D01*
X0159249Y0132381D02*
X0149478Y0132381D01*
X0151130Y0133979D02*
X0158587Y0133979D01*
X0158314Y0135578D02*
X0151763Y0135578D01*
X0151763Y0137177D02*
X0158305Y0137177D01*
X0158541Y0138775D02*
X0151176Y0138775D01*
X0149748Y0140374D02*
X0159203Y0140374D01*
X0143700Y0146768D02*
X0254900Y0146768D01*
X0254900Y0148366D02*
X0143700Y0148366D01*
X0143700Y0149965D02*
X0254900Y0149965D01*
X0255420Y0151563D02*
X0143180Y0151563D01*
X0135420Y0151563D02*
X0133180Y0151563D01*
X0133700Y0149965D02*
X0134900Y0149965D01*
X0134900Y0148366D02*
X0133700Y0148366D01*
X0133700Y0146768D02*
X0134900Y0146768D01*
X0134900Y0145169D02*
X0133700Y0145169D01*
X0133700Y0143571D02*
X0134900Y0143571D01*
X0135143Y0141972D02*
X0133457Y0141972D01*
X0132463Y0140374D02*
X0136137Y0140374D01*
X0126137Y0140374D02*
X0125555Y0140374D01*
X0125143Y0141972D02*
X0123457Y0141972D01*
X0123700Y0143571D02*
X0124900Y0143571D01*
X0124900Y0145169D02*
X0123700Y0145169D01*
X0123700Y0146768D02*
X0124900Y0146768D01*
X0124900Y0148366D02*
X0123700Y0148366D01*
X0123700Y0149965D02*
X0124900Y0149965D01*
X0125420Y0151563D02*
X0123180Y0151563D01*
X0115420Y0151563D02*
X0004100Y0151563D01*
X0004100Y0149965D02*
X0114900Y0149965D01*
X0114900Y0143571D02*
X0101573Y0143571D01*
X0101044Y0143833D02*
X0101044Y0143833D01*
X0092027Y0143571D02*
X0070963Y0143571D01*
X0067637Y0143571D02*
X0031573Y0143571D01*
X0031560Y0143582D02*
X0031466Y0143574D01*
X0031044Y0143833D01*
X0031009Y0143919D01*
X0030683Y0144054D01*
X0030383Y0144238D01*
X0030292Y0144216D01*
X0029835Y0144405D01*
X0029786Y0144485D01*
X0029443Y0144568D01*
X0029118Y0144702D01*
X0029031Y0144667D01*
X0028550Y0144782D01*
X0028489Y0144853D01*
X0028138Y0144881D01*
X0027795Y0144963D01*
X0027716Y0144914D01*
X0027222Y0144953D01*
X0027151Y0145014D01*
X0026800Y0144986D01*
X0026449Y0145014D01*
X0026378Y0144953D01*
X0025884Y0144914D01*
X0025805Y0144963D01*
X0025462Y0144881D01*
X0025111Y0144853D01*
X0025050Y0144782D01*
X0024569Y0144667D01*
X0024482Y0144702D01*
X0024157Y0144568D01*
X0023814Y0144485D01*
X0023765Y0144405D01*
X0023308Y0144216D01*
X0023217Y0144238D01*
X0022917Y0144054D01*
X0022591Y0143919D01*
X0022556Y0143833D01*
X0022134Y0143574D01*
X0022040Y0143582D01*
X0021773Y0143353D01*
X0021472Y0143169D01*
X0021450Y0143078D01*
X0021074Y0142756D01*
X0020981Y0142749D01*
X0020752Y0142481D01*
X0020484Y0142252D01*
X0020477Y0142159D01*
X0020156Y0141783D01*
X0020064Y0141761D01*
X0019880Y0141461D01*
X0019651Y0141193D01*
X0019659Y0141099D01*
X0019400Y0140677D01*
X0019314Y0140642D01*
X0019179Y0140316D01*
X0018995Y0140016D01*
X0019017Y0139925D01*
X0018828Y0139468D01*
X0018748Y0139419D01*
X0018665Y0139076D01*
X0018531Y0138751D01*
X0018566Y0138664D01*
X0018451Y0138183D01*
X0018380Y0138122D01*
X0018352Y0137771D01*
X0018270Y0137429D01*
X0018319Y0137349D01*
X0018280Y0136856D01*
X0018219Y0136784D01*
X0018247Y0136433D01*
X0018219Y0136082D01*
X0018280Y0136011D01*
X0018319Y0135518D01*
X0018270Y0135438D01*
X0018352Y0135095D01*
X0018380Y0134744D01*
X0018451Y0134683D01*
X0018566Y0134202D01*
X0018531Y0134115D01*
X0018665Y0133790D01*
X0018748Y0133447D01*
X0018828Y0133398D01*
X0019017Y0132942D01*
X0018995Y0132850D01*
X0019179Y0132550D01*
X0019314Y0132225D01*
X0019400Y0132189D01*
X0019659Y0131767D01*
X0019651Y0131673D01*
X0019880Y0131406D01*
X0020064Y0131105D01*
X0020156Y0131083D01*
X0020477Y0130707D01*
X0020484Y0130614D01*
X0020752Y0130385D01*
X0020981Y0130117D01*
X0021074Y0130110D01*
X0021450Y0129789D01*
X0021472Y0129697D01*
X0021773Y0129513D01*
X0022040Y0129285D01*
X0022134Y0129292D01*
X0022556Y0129034D01*
X0022591Y0128947D01*
X0022917Y0128812D01*
X0023217Y0128628D01*
X0023308Y0128650D01*
X0023765Y0128461D01*
X0023814Y0128381D01*
X0024157Y0128298D01*
X0024482Y0128164D01*
X0024569Y0128200D01*
X0025050Y0128084D01*
X0025111Y0128013D01*
X0025462Y0127985D01*
X0025805Y0127903D01*
X0025884Y0127952D01*
X0026378Y0127913D01*
X0026449Y0127852D01*
X0026800Y0127880D01*
X0027151Y0127852D01*
X0027222Y0127913D01*
X0027716Y0127952D01*
X0027795Y0127903D01*
X0028138Y0127985D01*
X0028489Y0128013D01*
X0028550Y0128084D01*
X0029031Y0128200D01*
X0029118Y0128164D01*
X0029443Y0128298D01*
X0029786Y0128381D01*
X0029835Y0128461D01*
X0030292Y0128650D01*
X0030383Y0128628D01*
X0030683Y0128812D01*
X0031009Y0128947D01*
X0031044Y0129034D01*
X0031466Y0129292D01*
X0031560Y0129285D01*
X0031827Y0129513D01*
X0032128Y0129697D01*
X0032150Y0129789D01*
X0032526Y0130110D01*
X0032619Y0130117D01*
X0032848Y0130385D01*
X0033116Y0130614D01*
X0033123Y0130707D01*
X0033444Y0131083D01*
X0033536Y0131105D01*
X0033720Y0131406D01*
X0033948Y0131673D01*
X0033941Y0131767D01*
X0034200Y0132189D01*
X0034286Y0132225D01*
X0034421Y0132550D01*
X0034605Y0132850D01*
X0034583Y0132941D01*
X0034772Y0133398D01*
X0034852Y0133447D01*
X0034935Y0133790D01*
X0035069Y0134115D01*
X0035034Y0134202D01*
X0035149Y0134683D01*
X0035220Y0134744D01*
X0035248Y0135095D01*
X0035330Y0135438D01*
X0035281Y0135518D01*
X0035320Y0136011D01*
X0035381Y0136082D01*
X0035353Y0136433D01*
X0035381Y0136784D01*
X0035320Y0136856D01*
X0035281Y0137349D01*
X0035330Y0137429D01*
X0035248Y0137771D01*
X0035220Y0138122D01*
X0035149Y0138183D01*
X0035034Y0138664D01*
X0035069Y0138751D01*
X0034935Y0139076D01*
X0034852Y0139419D01*
X0034772Y0139468D01*
X0034583Y0139925D01*
X0034605Y0140016D01*
X0034421Y0140316D01*
X0034286Y0140642D01*
X0034200Y0140677D01*
X0033941Y0141099D01*
X0033948Y0141193D01*
X0033720Y0141461D01*
X0033536Y0141761D01*
X0033444Y0141783D01*
X0033123Y0142159D01*
X0033116Y0142252D01*
X0032848Y0142481D01*
X0032619Y0142749D01*
X0032526Y0142756D01*
X0032150Y0143078D01*
X0032128Y0143169D01*
X0031827Y0143353D01*
X0031560Y0143582D01*
X0033283Y0141972D02*
X0090317Y0141972D01*
X0089203Y0140374D02*
X0079748Y0140374D01*
X0079748Y0140373D02*
X0078040Y0141081D01*
X0076190Y0141081D01*
X0074482Y0140373D01*
X0073175Y0139066D01*
X0072467Y0137358D01*
X0072467Y0135509D01*
X0073175Y0133800D01*
X0074482Y0132493D01*
X0076190Y0131785D01*
X0078040Y0131785D01*
X0079748Y0132493D01*
X0081055Y0133800D01*
X0081763Y0135509D01*
X0081763Y0137358D01*
X0081055Y0139066D01*
X0079748Y0140373D01*
X0081176Y0138775D02*
X0088541Y0138775D01*
X0088305Y0137177D02*
X0081763Y0137177D01*
X0081763Y0135578D02*
X0088314Y0135578D01*
X0088587Y0133979D02*
X0081130Y0133979D01*
X0079478Y0132381D02*
X0089249Y0132381D01*
X0090412Y0130782D02*
X0033187Y0130782D01*
X0034351Y0132381D02*
X0038216Y0132381D01*
X0037947Y0132493D02*
X0039655Y0131785D01*
X0041504Y0131785D01*
X0043212Y0132493D01*
X0044520Y0133800D01*
X0045228Y0135509D01*
X0045228Y0137358D01*
X0044520Y0139066D01*
X0043212Y0140373D01*
X0043212Y0140374D02*
X0049226Y0140374D01*
X0049102Y0140283D02*
X0048540Y0139722D01*
X0048073Y0139079D01*
X0047712Y0138371D01*
X0047467Y0137615D01*
X0047343Y0136830D01*
X0047343Y0136716D01*
X0052108Y0136716D01*
X0052108Y0141481D01*
X0051993Y0141481D01*
X0051208Y0141357D01*
X0050453Y0141111D01*
X0049745Y0140751D01*
X0049102Y0140283D01*
X0047918Y0138775D02*
X0044640Y0138775D01*
X0045228Y0137177D02*
X0047397Y0137177D01*
X0047343Y0136150D02*
X0047343Y0136036D01*
X0047467Y0135251D01*
X0047712Y0134495D01*
X0048073Y0133787D01*
X0048540Y0133145D01*
X0049102Y0132583D01*
X0049745Y0132116D01*
X0050453Y0131755D01*
X0051208Y0131509D01*
X0051993Y0131385D01*
X0052108Y0131385D01*
X0052108Y0136150D01*
X0052673Y0136150D01*
X0052673Y0131385D01*
X0052788Y0131385D01*
X0053573Y0131509D01*
X0054328Y0131755D01*
X0055036Y0132116D01*
X0055679Y0132583D01*
X0056241Y0133145D01*
X0056708Y0133787D01*
X0057069Y0134495D01*
X0057314Y0135251D01*
X0057439Y0136036D01*
X0057439Y0136150D01*
X0052673Y0136150D01*
X0052673Y0136716D01*
X0052108Y0136716D01*
X0052108Y0136150D01*
X0047343Y0136150D01*
X0047415Y0135578D02*
X0045228Y0135578D01*
X0044594Y0133979D02*
X0047975Y0133979D01*
X0049380Y0132381D02*
X0042943Y0132381D01*
X0037947Y0132493D02*
X0036639Y0133800D01*
X0035931Y0135509D01*
X0035931Y0137358D01*
X0036639Y0139066D01*
X0037947Y0140373D01*
X0037947Y0140374D02*
X0034397Y0140374D01*
X0035059Y0138775D02*
X0036519Y0138775D01*
X0035931Y0137177D02*
X0035295Y0137177D01*
X0035286Y0135578D02*
X0035931Y0135578D01*
X0036565Y0133979D02*
X0035013Y0133979D01*
X0031290Y0129184D02*
X0092310Y0129184D01*
X0101290Y0129184D02*
X0162310Y0129184D01*
X0171290Y0129184D02*
X0202828Y0129184D01*
X0205303Y0130782D02*
X0173187Y0130782D01*
X0174351Y0132381D02*
X0178216Y0132381D01*
X0177947Y0132493D02*
X0179655Y0131785D01*
X0181504Y0131785D01*
X0183212Y0132493D01*
X0184520Y0133800D01*
X0185228Y0135509D01*
X0185228Y0137358D01*
X0184520Y0139066D01*
X0183212Y0140373D01*
X0183212Y0140374D02*
X0189226Y0140374D01*
X0189102Y0140283D02*
X0188540Y0139722D01*
X0188073Y0139079D01*
X0187712Y0138371D01*
X0187467Y0137615D01*
X0187343Y0136830D01*
X0187343Y0136716D01*
X0192108Y0136716D01*
X0192108Y0141481D01*
X0191993Y0141481D01*
X0191208Y0141357D01*
X0190453Y0141111D01*
X0189745Y0140751D01*
X0189102Y0140283D01*
X0187918Y0138775D02*
X0184640Y0138775D01*
X0185228Y0137177D02*
X0187397Y0137177D01*
X0187343Y0136150D02*
X0187343Y0136036D01*
X0187467Y0135251D01*
X0187712Y0134495D01*
X0188073Y0133787D01*
X0188540Y0133145D01*
X0189102Y0132583D01*
X0189745Y0132116D01*
X0190453Y0131755D01*
X0191208Y0131509D01*
X0191993Y0131385D01*
X0192108Y0131385D01*
X0192108Y0136150D01*
X0192673Y0136150D01*
X0192673Y0131385D01*
X0192788Y0131385D01*
X0193573Y0131509D01*
X0194328Y0131755D01*
X0195036Y0132116D01*
X0195679Y0132583D01*
X0196241Y0133145D01*
X0196708Y0133787D01*
X0197069Y0134495D01*
X0197314Y0135251D01*
X0197439Y0136036D01*
X0197439Y0136150D01*
X0192673Y0136150D01*
X0192673Y0136716D01*
X0192108Y0136716D01*
X0192108Y0136150D01*
X0187343Y0136150D01*
X0187415Y0135578D02*
X0185228Y0135578D01*
X0184594Y0133979D02*
X0187975Y0133979D01*
X0189380Y0132381D02*
X0182943Y0132381D01*
X0177947Y0132493D02*
X0176639Y0133800D01*
X0175931Y0135509D01*
X0175931Y0137358D01*
X0176639Y0139066D01*
X0177947Y0140373D01*
X0177947Y0140374D02*
X0174397Y0140374D01*
X0175059Y0138775D02*
X0176519Y0138775D01*
X0175931Y0137177D02*
X0175295Y0137177D01*
X0175286Y0135578D02*
X0175931Y0135578D01*
X0176565Y0133979D02*
X0175013Y0133979D01*
X0177947Y0140373D02*
X0179655Y0141081D01*
X0181504Y0141081D01*
X0183212Y0140373D01*
X0192108Y0140374D02*
X0192673Y0140374D01*
X0192673Y0141481D02*
X0192673Y0136716D01*
X0197439Y0136716D01*
X0197439Y0136830D01*
X0197314Y0137615D01*
X0197069Y0138371D01*
X0196708Y0139079D01*
X0196241Y0139722D01*
X0195679Y0140283D01*
X0195036Y0140751D01*
X0194328Y0141111D01*
X0193573Y0141357D01*
X0192788Y0141481D01*
X0192673Y0141481D01*
X0195555Y0140374D02*
X0203045Y0140374D01*
X0201737Y0138775D02*
X0196863Y0138775D01*
X0197384Y0137177D02*
X0201216Y0137177D01*
X0201161Y0136150D02*
X0201161Y0136036D01*
X0201286Y0135251D01*
X0201531Y0134495D01*
X0201892Y0133787D01*
X0202359Y0133145D01*
X0202921Y0132583D01*
X0203564Y0132116D01*
X0204272Y0131755D01*
X0205027Y0131509D01*
X0205812Y0131385D01*
X0205927Y0131385D01*
X0205927Y0136150D01*
X0201161Y0136150D01*
X0201234Y0135578D02*
X0197366Y0135578D01*
X0196806Y0133979D02*
X0201794Y0133979D01*
X0203198Y0132381D02*
X0195402Y0132381D01*
X0192673Y0132381D02*
X0192108Y0132381D01*
X0192108Y0133979D02*
X0192673Y0133979D01*
X0192673Y0135578D02*
X0192108Y0135578D01*
X0192108Y0137177D02*
X0192673Y0137177D01*
X0192673Y0138775D02*
X0192108Y0138775D01*
X0205927Y0138775D02*
X0206492Y0138775D01*
X0206492Y0137177D02*
X0205927Y0137177D01*
X0205927Y0135578D02*
X0206492Y0135578D01*
X0206492Y0133979D02*
X0205927Y0133979D01*
X0205927Y0132381D02*
X0206492Y0132381D01*
X0206492Y0140374D02*
X0205927Y0140374D01*
X0214879Y0122790D02*
X0365869Y0122790D01*
X0364824Y0121191D02*
X0212941Y0121191D01*
X0215928Y0119593D02*
X0364500Y0119593D01*
X0364500Y0117994D02*
X0216840Y0117994D01*
X0216816Y0114797D02*
X0364500Y0114797D01*
X0364500Y0113199D02*
X0215854Y0113199D01*
X0214792Y0110163D02*
X0213175Y0110833D01*
X0205425Y0110833D01*
X0203808Y0110163D01*
X0202677Y0109033D01*
X0164127Y0109033D01*
X0155773Y0117387D01*
X0154817Y0117783D01*
X0120033Y0117783D01*
X0119077Y0117387D01*
X0118346Y0116656D01*
X0115723Y0114033D01*
X0062877Y0114033D01*
X0062581Y0114329D01*
X0062581Y0114586D01*
X0062082Y0115792D01*
X0061159Y0116715D01*
X0059953Y0117214D01*
X0058647Y0117214D01*
X0057441Y0116715D01*
X0056518Y0115792D01*
X0056019Y0114586D01*
X0056019Y0113280D01*
X0056518Y0112074D01*
X0057441Y0111151D01*
X0058647Y0110652D01*
X0058904Y0110652D01*
X0059596Y0109960D01*
X0060327Y0109229D01*
X0061283Y0108833D01*
X0117317Y0108833D01*
X0118273Y0109229D01*
X0121627Y0112583D01*
X0153223Y0112583D01*
X0160846Y0104960D01*
X0161577Y0104229D01*
X0162533Y0103833D01*
X0162556Y0103833D01*
X0162556Y0103833D01*
X0162134Y0103574D01*
X0162040Y0103582D01*
X0161773Y0103353D01*
X0161472Y0103169D01*
X0161450Y0103078D01*
X0161074Y0102756D01*
X0160981Y0102749D01*
X0160752Y0102481D01*
X0160484Y0102252D01*
X0160477Y0102159D01*
X0160156Y0101783D01*
X0160064Y0101761D01*
X0159880Y0101461D01*
X0159651Y0101193D01*
X0159659Y0101099D01*
X0159400Y0100677D01*
X0159314Y0100642D01*
X0159179Y0100316D01*
X0158995Y0100016D01*
X0159017Y0099925D01*
X0158828Y0099468D01*
X0158748Y0099419D01*
X0158665Y0099076D01*
X0158531Y0098751D01*
X0158566Y0098664D01*
X0158451Y0098183D01*
X0158380Y0098122D01*
X0158352Y0097771D01*
X0158270Y0097429D01*
X0158319Y0097349D01*
X0158280Y0096856D01*
X0158219Y0096784D01*
X0158247Y0096433D01*
X0158219Y0096082D01*
X0158280Y0096011D01*
X0158319Y0095518D01*
X0158270Y0095438D01*
X0158352Y0095095D01*
X0158380Y0094744D01*
X0158451Y0094683D01*
X0158566Y0094202D01*
X0158531Y0094115D01*
X0158665Y0093790D01*
X0158748Y0093447D01*
X0158828Y0093398D01*
X0159017Y0092942D01*
X0158995Y0092850D01*
X0159179Y0092550D01*
X0159314Y0092225D01*
X0159400Y0092189D01*
X0159659Y0091767D01*
X0159651Y0091673D01*
X0159880Y0091406D01*
X0160064Y0091105D01*
X0160156Y0091083D01*
X0160477Y0090707D01*
X0160484Y0090614D01*
X0160752Y0090385D01*
X0160981Y0090117D01*
X0161074Y0090110D01*
X0161450Y0089789D01*
X0161472Y0089697D01*
X0161773Y0089513D01*
X0162040Y0089285D01*
X0162134Y0089292D01*
X0162556Y0089034D01*
X0162591Y0088947D01*
X0162917Y0088812D01*
X0163217Y0088628D01*
X0163308Y0088650D01*
X0163765Y0088461D01*
X0163814Y0088381D01*
X0164157Y0088298D01*
X0164482Y0088164D01*
X0164569Y0088200D01*
X0165050Y0088084D01*
X0165111Y0088013D01*
X0165462Y0087985D01*
X0165805Y0087903D01*
X0165884Y0087952D01*
X0166378Y0087913D01*
X0166449Y0087852D01*
X0166800Y0087880D01*
X0167151Y0087852D01*
X0167222Y0087913D01*
X0167716Y0087952D01*
X0167795Y0087903D01*
X0168138Y0087985D01*
X0168489Y0088013D01*
X0168550Y0088084D01*
X0169031Y0088200D01*
X0169118Y0088164D01*
X0169443Y0088298D01*
X0169786Y0088381D01*
X0169835Y0088461D01*
X0170292Y0088650D01*
X0170383Y0088628D01*
X0170683Y0088812D01*
X0171009Y0088947D01*
X0171044Y0089034D01*
X0171466Y0089292D01*
X0171560Y0089285D01*
X0171827Y0089513D01*
X0172128Y0089697D01*
X0172150Y0089789D01*
X0172526Y0090110D01*
X0172619Y0090117D01*
X0172848Y0090385D01*
X0173116Y0090614D01*
X0173123Y0090707D01*
X0173444Y0091083D01*
X0173536Y0091105D01*
X0173720Y0091406D01*
X0173948Y0091673D01*
X0173941Y0091767D01*
X0174200Y0092189D01*
X0174286Y0092225D01*
X0174421Y0092550D01*
X0174605Y0092850D01*
X0174583Y0092942D01*
X0174772Y0093398D01*
X0174852Y0093447D01*
X0174935Y0093790D01*
X0175069Y0094115D01*
X0175034Y0094202D01*
X0175149Y0094683D01*
X0175220Y0094744D01*
X0175248Y0095095D01*
X0175330Y0095438D01*
X0175281Y0095518D01*
X0175320Y0096011D01*
X0175381Y0096082D01*
X0175353Y0096433D01*
X0175381Y0096784D01*
X0175320Y0096856D01*
X0175281Y0097349D01*
X0175330Y0097429D01*
X0175248Y0097771D01*
X0175220Y0098122D01*
X0175149Y0098183D01*
X0175034Y0098664D01*
X0175069Y0098751D01*
X0174935Y0099076D01*
X0174852Y0099419D01*
X0174772Y0099468D01*
X0174583Y0099925D01*
X0174605Y0100016D01*
X0174421Y0100316D01*
X0174286Y0100642D01*
X0174200Y0100677D01*
X0173941Y0101099D01*
X0173948Y0101193D01*
X0173720Y0101461D01*
X0173536Y0101761D01*
X0173444Y0101783D01*
X0173123Y0102159D01*
X0173116Y0102252D01*
X0172848Y0102481D01*
X0172619Y0102749D01*
X0172526Y0102756D01*
X0172150Y0103078D01*
X0172128Y0103169D01*
X0171827Y0103353D01*
X0171560Y0103582D01*
X0171466Y0103574D01*
X0171044Y0103833D01*
X0202677Y0103833D01*
X0203808Y0102703D01*
X0205425Y0102033D01*
X0213175Y0102033D01*
X0214792Y0102703D01*
X0216030Y0103941D01*
X0216700Y0105558D01*
X0216700Y0107308D01*
X0216030Y0108925D01*
X0214792Y0110163D01*
X0214954Y0110002D02*
X0365943Y0110002D01*
X0364848Y0111600D02*
X0161560Y0111600D01*
X0163158Y0110002D02*
X0203646Y0110002D01*
X0204457Y0111985D02*
X0205176Y0111751D01*
X0205922Y0111633D01*
X0209100Y0111633D01*
X0209100Y0116233D01*
X0201500Y0116233D01*
X0201500Y0116055D01*
X0201618Y0115309D01*
X0201852Y0114591D01*
X0202195Y0113917D01*
X0202639Y0113306D01*
X0203173Y0112772D01*
X0203784Y0112328D01*
X0204457Y0111985D01*
X0202746Y0113199D02*
X0172566Y0113199D01*
X0171034Y0113199D02*
X0159961Y0113199D01*
X0158363Y0114797D02*
X0168926Y0114797D01*
X0168160Y0116396D02*
X0156764Y0116396D01*
X0154206Y0111600D02*
X0120644Y0111600D01*
X0119046Y0110002D02*
X0155804Y0110002D01*
X0157403Y0108403D02*
X0004100Y0108403D01*
X0004100Y0106805D02*
X0159001Y0106805D01*
X0160600Y0105206D02*
X0004100Y0105206D01*
X0006600Y0110002D02*
X0007000Y0110002D01*
X0007000Y0111600D02*
X0006600Y0111600D01*
X0006600Y0113199D02*
X0007000Y0113199D01*
X0007000Y0114797D02*
X0006600Y0114797D01*
X0011600Y0114797D02*
X0012400Y0114797D01*
X0012400Y0113199D02*
X0011600Y0113199D01*
X0011252Y0111600D02*
X0012797Y0111600D01*
X0014009Y0110002D02*
X0010157Y0110002D01*
X0029591Y0110002D02*
X0059554Y0110002D01*
X0056993Y0111600D02*
X0030803Y0111600D01*
X0031200Y0113199D02*
X0056053Y0113199D01*
X0056107Y0114797D02*
X0031200Y0114797D01*
X0031200Y0116396D02*
X0057123Y0116396D01*
X0061477Y0116396D02*
X0118086Y0116396D01*
X0116487Y0114797D02*
X0062493Y0114797D01*
X0061198Y0121191D02*
X0115865Y0121191D01*
X0117463Y0119593D02*
X0031200Y0119593D01*
X0031200Y0117994D02*
X0166562Y0117994D01*
X0172745Y0119593D02*
X0202672Y0119593D01*
X0201760Y0117994D02*
X0174705Y0117994D01*
X0175081Y0116396D02*
X0209100Y0116396D01*
X0209100Y0114797D02*
X0209500Y0114797D01*
X0209500Y0113199D02*
X0209100Y0113199D01*
X0201784Y0114797D02*
X0174674Y0114797D01*
X0171044Y0103833D02*
X0171044Y0103833D01*
X0171411Y0103608D02*
X0202903Y0103608D01*
X0204272Y0101111D02*
X0203564Y0100751D01*
X0202921Y0100283D01*
X0202359Y0099722D01*
X0201892Y0099079D01*
X0201531Y0098371D01*
X0201286Y0097615D01*
X0201161Y0096830D01*
X0201161Y0096716D01*
X0205927Y0096716D01*
X0205927Y0101481D01*
X0205812Y0101481D01*
X0205027Y0101357D01*
X0204272Y0101111D01*
X0203096Y0100411D02*
X0195504Y0100411D01*
X0195679Y0100283D02*
X0195036Y0100751D01*
X0194328Y0101111D01*
X0193573Y0101357D01*
X0192788Y0101481D01*
X0192673Y0101481D01*
X0192673Y0096716D01*
X0192108Y0096716D01*
X0192108Y0101481D01*
X0191993Y0101481D01*
X0191208Y0101357D01*
X0190453Y0101111D01*
X0189745Y0100751D01*
X0189102Y0100283D01*
X0188540Y0099722D01*
X0188073Y0099079D01*
X0187712Y0098371D01*
X0187467Y0097615D01*
X0187343Y0096830D01*
X0187343Y0096716D01*
X0192108Y0096716D01*
X0192108Y0096150D01*
X0192673Y0096150D01*
X0192673Y0091385D01*
X0192788Y0091385D01*
X0193573Y0091509D01*
X0194328Y0091755D01*
X0195036Y0092116D01*
X0195679Y0092583D01*
X0196241Y0093145D01*
X0196708Y0093787D01*
X0197069Y0094495D01*
X0197314Y0095251D01*
X0197439Y0096036D01*
X0197439Y0096150D01*
X0192673Y0096150D01*
X0192673Y0096716D01*
X0197439Y0096716D01*
X0197439Y0096830D01*
X0197314Y0097615D01*
X0197069Y0098371D01*
X0196708Y0099079D01*
X0196241Y0099722D01*
X0195679Y0100283D01*
X0196844Y0098812D02*
X0201756Y0098812D01*
X0201222Y0097214D02*
X0197378Y0097214D01*
X0197372Y0095615D02*
X0201228Y0095615D01*
X0201286Y0095251D02*
X0201531Y0094495D01*
X0201892Y0093787D01*
X0202359Y0093145D01*
X0202921Y0092583D01*
X0203564Y0092116D01*
X0204272Y0091755D01*
X0205027Y0091509D01*
X0205812Y0091385D01*
X0205927Y0091385D01*
X0205927Y0096150D01*
X0206492Y0096150D01*
X0206492Y0091385D01*
X0206607Y0091385D01*
X0207392Y0091509D01*
X0208147Y0091755D01*
X0208855Y0092116D01*
X0209498Y0092583D01*
X0210060Y0093145D01*
X0210527Y0093787D01*
X0210888Y0094495D01*
X0211133Y0095251D01*
X0211257Y0096036D01*
X0211257Y0096150D01*
X0206492Y0096150D01*
X0206492Y0096716D01*
X0205927Y0096716D01*
X0205927Y0096150D01*
X0201161Y0096150D01*
X0201161Y0096036D01*
X0201286Y0095251D01*
X0201775Y0094017D02*
X0196825Y0094017D01*
X0195453Y0092418D02*
X0203147Y0092418D01*
X0205927Y0092418D02*
X0206492Y0092418D01*
X0206492Y0094017D02*
X0205927Y0094017D01*
X0205927Y0095615D02*
X0206492Y0095615D01*
X0206492Y0096716D02*
X0211257Y0096716D01*
X0211257Y0096830D01*
X0211133Y0097615D01*
X0210888Y0098371D01*
X0210527Y0099079D01*
X0210060Y0099722D01*
X0209498Y0100283D01*
X0208855Y0100751D01*
X0208147Y0101111D01*
X0207392Y0101357D01*
X0206607Y0101481D01*
X0206492Y0101481D01*
X0206492Y0096716D01*
X0206492Y0097214D02*
X0205927Y0097214D01*
X0205927Y0098812D02*
X0206492Y0098812D01*
X0206492Y0100411D02*
X0205927Y0100411D01*
X0209323Y0100411D02*
X0215478Y0100411D01*
X0215388Y0100373D02*
X0214080Y0099066D01*
X0213372Y0097358D01*
X0213372Y0095509D01*
X0214080Y0093800D01*
X0215388Y0092493D01*
X0217096Y0091785D01*
X0218945Y0091785D01*
X0220653Y0092493D01*
X0221961Y0093800D01*
X0222668Y0095509D01*
X0222668Y0097358D01*
X0221961Y0099066D01*
X0220653Y0100373D01*
X0218945Y0101081D01*
X0217096Y0101081D01*
X0215388Y0100373D01*
X0213975Y0098812D02*
X0210663Y0098812D01*
X0211197Y0097214D02*
X0213372Y0097214D01*
X0213372Y0095615D02*
X0211191Y0095615D01*
X0210644Y0094017D02*
X0213990Y0094017D01*
X0215567Y0092418D02*
X0209272Y0092418D01*
X0220474Y0092418D02*
X0224234Y0092418D01*
X0224179Y0092550D02*
X0224314Y0092225D01*
X0224400Y0092189D01*
X0224659Y0091767D01*
X0224651Y0091673D01*
X0224880Y0091406D01*
X0225064Y0091105D01*
X0225156Y0091083D01*
X0225477Y0090707D01*
X0225484Y0090614D01*
X0225752Y0090385D01*
X0225981Y0090117D01*
X0226074Y0090110D01*
X0226450Y0089789D01*
X0226472Y0089697D01*
X0226773Y0089513D01*
X0227040Y0089285D01*
X0227134Y0089292D01*
X0227556Y0089034D01*
X0227591Y0088947D01*
X0227917Y0088812D01*
X0228217Y0088628D01*
X0228308Y0088650D01*
X0228765Y0088461D01*
X0228814Y0088381D01*
X0229157Y0088298D01*
X0229482Y0088164D01*
X0229569Y0088200D01*
X0230050Y0088084D01*
X0230111Y0088013D01*
X0230462Y0087985D01*
X0230805Y0087903D01*
X0230884Y0087952D01*
X0231378Y0087913D01*
X0231449Y0087852D01*
X0231800Y0087880D01*
X0232151Y0087852D01*
X0232222Y0087913D01*
X0232716Y0087952D01*
X0232795Y0087903D01*
X0233138Y0087985D01*
X0233489Y0088013D01*
X0233550Y0088084D01*
X0234031Y0088200D01*
X0234118Y0088164D01*
X0234443Y0088298D01*
X0234786Y0088381D01*
X0234835Y0088461D01*
X0235292Y0088650D01*
X0235383Y0088628D01*
X0235683Y0088812D01*
X0236009Y0088947D01*
X0236044Y0089034D01*
X0236466Y0089292D01*
X0236560Y0089285D01*
X0236827Y0089513D01*
X0237128Y0089697D01*
X0237150Y0089789D01*
X0237526Y0090110D01*
X0237619Y0090117D01*
X0237848Y0090385D01*
X0238116Y0090614D01*
X0238123Y0090707D01*
X0238444Y0091083D01*
X0238536Y0091105D01*
X0238720Y0091406D01*
X0238948Y0091673D01*
X0238941Y0091767D01*
X0239200Y0092189D01*
X0239286Y0092225D01*
X0239421Y0092550D01*
X0239605Y0092850D01*
X0239583Y0092942D01*
X0239772Y0093398D01*
X0239852Y0093447D01*
X0239935Y0093790D01*
X0240069Y0094115D01*
X0240034Y0094202D01*
X0240149Y0094683D01*
X0240220Y0094744D01*
X0240248Y0095095D01*
X0240330Y0095438D01*
X0240281Y0095518D01*
X0240320Y0096011D01*
X0240381Y0096082D01*
X0240353Y0096433D01*
X0240381Y0096784D01*
X0240320Y0096856D01*
X0240281Y0097349D01*
X0240330Y0097429D01*
X0240248Y0097771D01*
X0240220Y0098122D01*
X0240149Y0098183D01*
X0240034Y0098664D01*
X0240069Y0098751D01*
X0239935Y0099076D01*
X0239852Y0099419D01*
X0239772Y0099468D01*
X0239583Y0099925D01*
X0239605Y0100016D01*
X0239421Y0100316D01*
X0239286Y0100642D01*
X0239200Y0100677D01*
X0238941Y0101099D01*
X0238948Y0101193D01*
X0238720Y0101461D01*
X0238536Y0101761D01*
X0238444Y0101783D01*
X0238123Y0102159D01*
X0238116Y0102252D01*
X0237848Y0102481D01*
X0237619Y0102749D01*
X0237526Y0102756D01*
X0237150Y0103078D01*
X0237128Y0103169D01*
X0236827Y0103353D01*
X0236560Y0103582D01*
X0236466Y0103574D01*
X0236044Y0103833D01*
X0236009Y0103919D01*
X0235683Y0104054D01*
X0235383Y0104238D01*
X0235292Y0104216D01*
X0234835Y0104405D01*
X0234786Y0104485D01*
X0234443Y0104568D01*
X0234118Y0104702D01*
X0234031Y0104667D01*
X0233550Y0104782D01*
X0233489Y0104853D01*
X0233138Y0104881D01*
X0232795Y0104963D01*
X0232716Y0104914D01*
X0232222Y0104953D01*
X0232151Y0105014D01*
X0231800Y0104986D01*
X0231449Y0105014D01*
X0231378Y0104953D01*
X0230884Y0104914D01*
X0230805Y0104963D01*
X0230462Y0104881D01*
X0230111Y0104853D01*
X0230050Y0104782D01*
X0229569Y0104667D01*
X0229482Y0104702D01*
X0229157Y0104568D01*
X0228814Y0104485D01*
X0228765Y0104405D01*
X0228308Y0104216D01*
X0228217Y0104238D01*
X0227917Y0104054D01*
X0227591Y0103919D01*
X0227556Y0103833D01*
X0227134Y0103574D01*
X0227040Y0103582D01*
X0226773Y0103353D01*
X0226472Y0103169D01*
X0226450Y0103078D01*
X0226074Y0102756D01*
X0225981Y0102749D01*
X0225752Y0102481D01*
X0225484Y0102252D01*
X0225477Y0102159D01*
X0225156Y0101783D01*
X0225064Y0101761D01*
X0224880Y0101461D01*
X0224651Y0101193D01*
X0224659Y0101099D01*
X0224400Y0100677D01*
X0224314Y0100642D01*
X0224179Y0100316D01*
X0223995Y0100016D01*
X0224017Y0099925D01*
X0223828Y0099468D01*
X0223748Y0099419D01*
X0223665Y0099076D01*
X0223531Y0098751D01*
X0223566Y0098664D01*
X0223451Y0098183D01*
X0223380Y0098122D01*
X0223352Y0097771D01*
X0223270Y0097429D01*
X0223319Y0097349D01*
X0223280Y0096856D01*
X0223219Y0096784D01*
X0223247Y0096433D01*
X0223219Y0096082D01*
X0223280Y0096011D01*
X0223319Y0095518D01*
X0223270Y0095438D01*
X0223352Y0095095D01*
X0223380Y0094744D01*
X0223451Y0094683D01*
X0223566Y0094202D01*
X0223531Y0094115D01*
X0223665Y0093790D01*
X0223748Y0093447D01*
X0223828Y0093398D01*
X0224017Y0092942D01*
X0223995Y0092850D01*
X0224179Y0092550D01*
X0223571Y0094017D02*
X0222051Y0094017D01*
X0222668Y0095615D02*
X0223311Y0095615D01*
X0223308Y0097214D02*
X0222668Y0097214D01*
X0222066Y0098812D02*
X0223556Y0098812D01*
X0224218Y0100411D02*
X0220563Y0100411D01*
X0225349Y0102009D02*
X0173251Y0102009D01*
X0174382Y0100411D02*
X0178037Y0100411D01*
X0177947Y0100373D02*
X0176639Y0099066D01*
X0175931Y0097358D01*
X0175931Y0095509D01*
X0176639Y0093800D01*
X0177947Y0092493D01*
X0179655Y0091785D01*
X0181504Y0091785D01*
X0183212Y0092493D01*
X0184520Y0093800D01*
X0185228Y0095509D01*
X0185228Y0097358D01*
X0184520Y0099066D01*
X0183212Y0100373D01*
X0181504Y0101081D01*
X0179655Y0101081D01*
X0177947Y0100373D01*
X0176534Y0098812D02*
X0175044Y0098812D01*
X0175292Y0097214D02*
X0175931Y0097214D01*
X0175931Y0095615D02*
X0175289Y0095615D01*
X0175029Y0094017D02*
X0176549Y0094017D01*
X0178126Y0092418D02*
X0174366Y0092418D01*
X0173219Y0090820D02*
X0225381Y0090820D01*
X0227249Y0089221D02*
X0171351Y0089221D01*
X0162249Y0089221D02*
X0143700Y0089221D01*
X0143700Y0087623D02*
X0254900Y0087623D01*
X0254900Y0089221D02*
X0236351Y0089221D01*
X0238219Y0090820D02*
X0255112Y0090820D01*
X0256063Y0092418D02*
X0253938Y0092418D01*
X0254118Y0092493D02*
X0255425Y0093800D01*
X0256133Y0095509D01*
X0256133Y0097358D01*
X0255425Y0099066D01*
X0254118Y0100373D01*
X0252410Y0101081D01*
X0250560Y0101081D01*
X0248852Y0100373D01*
X0247545Y0099066D01*
X0246837Y0097358D01*
X0246837Y0095509D01*
X0247545Y0093800D01*
X0248852Y0092493D01*
X0250560Y0091785D01*
X0252410Y0091785D01*
X0254118Y0092493D01*
X0255515Y0094017D02*
X0271775Y0094017D01*
X0271228Y0095615D02*
X0256133Y0095615D01*
X0256133Y0097214D02*
X0271222Y0097214D01*
X0271756Y0098812D02*
X0255531Y0098812D01*
X0254028Y0100411D02*
X0273096Y0100411D01*
X0275927Y0100411D02*
X0276492Y0100411D01*
X0276492Y0098812D02*
X0275927Y0098812D01*
X0275927Y0097214D02*
X0276492Y0097214D01*
X0279323Y0100411D02*
X0285478Y0100411D01*
X0285388Y0100373D02*
X0284080Y0099066D01*
X0283372Y0097358D01*
X0283372Y0095509D01*
X0284080Y0093800D01*
X0285388Y0092493D01*
X0287096Y0091785D01*
X0288945Y0091785D01*
X0290653Y0092493D01*
X0291961Y0093800D01*
X0292668Y0095509D01*
X0292668Y0097358D01*
X0291961Y0099066D01*
X0290653Y0100373D01*
X0288945Y0101081D01*
X0287096Y0101081D01*
X0285388Y0100373D01*
X0283975Y0098812D02*
X0280663Y0098812D01*
X0281197Y0097214D02*
X0283372Y0097214D01*
X0283372Y0095615D02*
X0281191Y0095615D01*
X0280644Y0094017D02*
X0283990Y0094017D01*
X0282537Y0092418D02*
X0285567Y0092418D01*
X0283488Y0090820D02*
X0295381Y0090820D01*
X0294234Y0092418D02*
X0290474Y0092418D01*
X0292051Y0094017D02*
X0293571Y0094017D01*
X0293311Y0095615D02*
X0292668Y0095615D01*
X0292668Y0097214D02*
X0293308Y0097214D01*
X0293556Y0098812D02*
X0292066Y0098812D01*
X0290563Y0100411D02*
X0294218Y0100411D01*
X0295349Y0102009D02*
X0238251Y0102009D01*
X0239382Y0100411D02*
X0248942Y0100411D01*
X0247440Y0098812D02*
X0240044Y0098812D01*
X0240292Y0097214D02*
X0246837Y0097214D01*
X0246837Y0095615D02*
X0240289Y0095615D01*
X0240029Y0094017D02*
X0247455Y0094017D01*
X0249032Y0092418D02*
X0239366Y0092418D01*
X0254900Y0086024D02*
X0143700Y0086024D01*
X0143700Y0084426D02*
X0254900Y0084426D01*
X0254900Y0082827D02*
X0143700Y0082827D01*
X0143488Y0090820D02*
X0160381Y0090820D01*
X0159234Y0092418D02*
X0149568Y0092418D01*
X0149748Y0092493D02*
X0151055Y0093800D01*
X0151763Y0095509D01*
X0151763Y0097358D01*
X0151055Y0099066D01*
X0149748Y0100373D01*
X0148040Y0101081D01*
X0146190Y0101081D01*
X0144482Y0100373D01*
X0143175Y0099066D01*
X0142467Y0097358D01*
X0142467Y0095509D01*
X0143175Y0093800D01*
X0144482Y0092493D01*
X0146190Y0091785D01*
X0148040Y0091785D01*
X0149748Y0092493D01*
X0151145Y0094017D02*
X0158571Y0094017D01*
X0158311Y0095615D02*
X0151763Y0095615D01*
X0151763Y0097214D02*
X0158308Y0097214D01*
X0158556Y0098812D02*
X0151160Y0098812D01*
X0149658Y0100411D02*
X0159218Y0100411D01*
X0160349Y0102009D02*
X0103251Y0102009D01*
X0104382Y0100411D02*
X0108037Y0100411D01*
X0107947Y0100373D02*
X0106639Y0099066D01*
X0105931Y0097358D01*
X0105931Y0095509D01*
X0106639Y0093800D01*
X0107947Y0092493D01*
X0109655Y0091785D01*
X0111504Y0091785D01*
X0113212Y0092493D01*
X0114520Y0093800D01*
X0115228Y0095509D01*
X0115228Y0097358D01*
X0114520Y0099066D01*
X0113212Y0100373D01*
X0111504Y0101081D01*
X0109655Y0101081D01*
X0107947Y0100373D01*
X0106534Y0098812D02*
X0105044Y0098812D01*
X0105292Y0097214D02*
X0105931Y0097214D01*
X0105931Y0095615D02*
X0105289Y0095615D01*
X0105029Y0094017D02*
X0106549Y0094017D01*
X0108126Y0092418D02*
X0104366Y0092418D01*
X0103219Y0090820D02*
X0115112Y0090820D01*
X0114900Y0089221D02*
X0101351Y0089221D01*
X0092249Y0089221D02*
X0071143Y0089221D01*
X0067457Y0089221D02*
X0031351Y0089221D01*
X0033219Y0090820D02*
X0090381Y0090820D01*
X0089234Y0092418D02*
X0079568Y0092418D01*
X0079748Y0092493D02*
X0078040Y0091785D01*
X0076190Y0091785D01*
X0074482Y0092493D01*
X0073175Y0093800D01*
X0072467Y0095509D01*
X0072467Y0097358D01*
X0073175Y0099066D01*
X0074482Y0100373D01*
X0076190Y0101081D01*
X0078040Y0101081D01*
X0079748Y0100373D01*
X0081055Y0099066D01*
X0081763Y0097358D01*
X0081763Y0095509D01*
X0081055Y0093800D01*
X0079748Y0092493D01*
X0081145Y0094017D02*
X0088571Y0094017D01*
X0088311Y0095615D02*
X0081763Y0095615D01*
X0081763Y0097214D02*
X0088308Y0097214D01*
X0088556Y0098812D02*
X0081160Y0098812D01*
X0079658Y0100411D02*
X0089218Y0100411D01*
X0090349Y0102009D02*
X0033251Y0102009D01*
X0034382Y0100411D02*
X0038037Y0100411D01*
X0037947Y0100373D02*
X0036639Y0099066D01*
X0035931Y0097358D01*
X0035931Y0095509D01*
X0036639Y0093800D01*
X0037947Y0092493D01*
X0039655Y0091785D01*
X0041504Y0091785D01*
X0043212Y0092493D01*
X0044520Y0093800D01*
X0045228Y0095509D01*
X0045228Y0097358D01*
X0044520Y0099066D01*
X0043212Y0100373D01*
X0041504Y0101081D01*
X0039655Y0101081D01*
X0037947Y0100373D01*
X0036534Y0098812D02*
X0035044Y0098812D01*
X0035292Y0097214D02*
X0035931Y0097214D01*
X0035931Y0095615D02*
X0035289Y0095615D01*
X0035029Y0094017D02*
X0036549Y0094017D01*
X0038126Y0092418D02*
X0034366Y0092418D01*
X0043033Y0092418D02*
X0049328Y0092418D01*
X0049102Y0092583D02*
X0049745Y0092116D01*
X0050453Y0091755D01*
X0051208Y0091509D01*
X0051993Y0091385D01*
X0052108Y0091385D01*
X0052108Y0096150D01*
X0052673Y0096150D01*
X0052673Y0091385D01*
X0052788Y0091385D01*
X0053573Y0091509D01*
X0054328Y0091755D01*
X0055036Y0092116D01*
X0055679Y0092583D01*
X0056241Y0093145D01*
X0056708Y0093787D01*
X0057069Y0094495D01*
X0057314Y0095251D01*
X0057439Y0096036D01*
X0057439Y0096150D01*
X0052673Y0096150D01*
X0052673Y0096716D01*
X0052108Y0096716D01*
X0052108Y0101481D01*
X0051993Y0101481D01*
X0051208Y0101357D01*
X0050453Y0101111D01*
X0049745Y0100751D01*
X0049102Y0100283D01*
X0048540Y0099722D01*
X0048073Y0099079D01*
X0047712Y0098371D01*
X0047467Y0097615D01*
X0047343Y0096830D01*
X0047343Y0096716D01*
X0052108Y0096716D01*
X0052108Y0096150D01*
X0047343Y0096150D01*
X0047343Y0096036D01*
X0047467Y0095251D01*
X0047712Y0094495D01*
X0048073Y0093787D01*
X0048540Y0093145D01*
X0049102Y0092583D01*
X0047956Y0094017D02*
X0044610Y0094017D01*
X0045228Y0095615D02*
X0047409Y0095615D01*
X0047403Y0097214D02*
X0045228Y0097214D01*
X0044625Y0098812D02*
X0047937Y0098812D01*
X0049277Y0100411D02*
X0043122Y0100411D01*
X0052108Y0100411D02*
X0052673Y0100411D01*
X0052673Y0101481D02*
X0052673Y0096716D01*
X0057439Y0096716D01*
X0057439Y0096830D01*
X0057314Y0097615D01*
X0057069Y0098371D01*
X0056708Y0099079D01*
X0056241Y0099722D01*
X0055679Y0100283D01*
X0055036Y0100751D01*
X0054328Y0101111D01*
X0053573Y0101357D01*
X0052788Y0101481D01*
X0052673Y0101481D01*
X0052673Y0098812D02*
X0052108Y0098812D01*
X0052108Y0097214D02*
X0052673Y0097214D01*
X0052673Y0095615D02*
X0052108Y0095615D01*
X0052108Y0094017D02*
X0052673Y0094017D01*
X0052673Y0092418D02*
X0052108Y0092418D01*
X0055453Y0092418D02*
X0074662Y0092418D01*
X0073085Y0094017D02*
X0056825Y0094017D01*
X0057372Y0095615D02*
X0072467Y0095615D01*
X0072467Y0097214D02*
X0057378Y0097214D01*
X0056844Y0098812D02*
X0073069Y0098812D01*
X0074572Y0100411D02*
X0055504Y0100411D01*
X0066241Y0087623D02*
X0004100Y0087623D01*
X0004100Y0089221D02*
X0022249Y0089221D01*
X0004100Y0086024D02*
X0066019Y0086024D01*
X0066667Y0084426D02*
X0004100Y0084426D01*
X0004100Y0082827D02*
X0114900Y0082827D01*
X0123700Y0082827D02*
X0124900Y0082827D01*
X0124900Y0084426D02*
X0123700Y0084426D01*
X0123700Y0086024D02*
X0124900Y0086024D01*
X0124900Y0087623D02*
X0123700Y0087623D01*
X0123700Y0089221D02*
X0124900Y0089221D01*
X0125112Y0090820D02*
X0123488Y0090820D01*
X0125453Y0092418D02*
X0126063Y0092418D01*
X0126825Y0094017D02*
X0143085Y0094017D01*
X0142537Y0092418D02*
X0144662Y0092418D01*
X0142467Y0095615D02*
X0127372Y0095615D01*
X0127378Y0097214D02*
X0142467Y0097214D01*
X0143069Y0098812D02*
X0126844Y0098812D01*
X0125504Y0100411D02*
X0144572Y0100411D01*
X0136063Y0092418D02*
X0132537Y0092418D01*
X0133488Y0090820D02*
X0135112Y0090820D01*
X0134900Y0089221D02*
X0133700Y0089221D01*
X0133700Y0087623D02*
X0134900Y0087623D01*
X0134900Y0086024D02*
X0133700Y0086024D01*
X0133700Y0084426D02*
X0134900Y0084426D01*
X0134900Y0082827D02*
X0133700Y0082827D01*
X0116063Y0092418D02*
X0113033Y0092418D01*
X0114610Y0094017D02*
X0117956Y0094017D01*
X0117409Y0095615D02*
X0115228Y0095615D01*
X0115228Y0097214D02*
X0117403Y0097214D01*
X0117937Y0098812D02*
X0114625Y0098812D01*
X0113122Y0100411D02*
X0119277Y0100411D01*
X0122108Y0100411D02*
X0122673Y0100411D01*
X0122673Y0098812D02*
X0122108Y0098812D01*
X0122108Y0097214D02*
X0122673Y0097214D01*
X0101411Y0103608D02*
X0162189Y0103608D01*
X0183122Y0100411D02*
X0189277Y0100411D01*
X0187937Y0098812D02*
X0184625Y0098812D01*
X0185228Y0097214D02*
X0187403Y0097214D01*
X0187343Y0096150D02*
X0187343Y0096036D01*
X0187467Y0095251D01*
X0187712Y0094495D01*
X0188073Y0093787D01*
X0188540Y0093145D01*
X0189102Y0092583D01*
X0189745Y0092116D01*
X0190453Y0091755D01*
X0191208Y0091509D01*
X0191993Y0091385D01*
X0192108Y0091385D01*
X0192108Y0096150D01*
X0187343Y0096150D01*
X0187409Y0095615D02*
X0185228Y0095615D01*
X0184610Y0094017D02*
X0187956Y0094017D01*
X0189328Y0092418D02*
X0183033Y0092418D01*
X0192108Y0092418D02*
X0192673Y0092418D01*
X0192673Y0094017D02*
X0192108Y0094017D01*
X0192108Y0095615D02*
X0192673Y0095615D01*
X0192673Y0097214D02*
X0192108Y0097214D01*
X0192108Y0098812D02*
X0192673Y0098812D01*
X0192673Y0100411D02*
X0192108Y0100411D01*
X0215697Y0103608D02*
X0227189Y0103608D01*
X0216554Y0105206D02*
X0394500Y0105206D01*
X0394500Y0103608D02*
X0376411Y0103608D01*
X0376466Y0103574D02*
X0376044Y0103833D01*
X0376009Y0103919D01*
X0375683Y0104054D01*
X0375383Y0104238D01*
X0375292Y0104216D01*
X0374835Y0104405D01*
X0374786Y0104485D01*
X0374443Y0104568D01*
X0374118Y0104702D01*
X0374031Y0104667D01*
X0373550Y0104782D01*
X0373489Y0104853D01*
X0373138Y0104881D01*
X0372795Y0104963D01*
X0372716Y0104914D01*
X0372222Y0104953D01*
X0372151Y0105014D01*
X0371800Y0104986D01*
X0371449Y0105014D01*
X0371378Y0104953D01*
X0370884Y0104914D01*
X0370805Y0104963D01*
X0370462Y0104881D01*
X0370111Y0104853D01*
X0370050Y0104782D01*
X0369569Y0104667D01*
X0369482Y0104702D01*
X0369157Y0104568D01*
X0368814Y0104485D01*
X0368765Y0104405D01*
X0368308Y0104216D01*
X0368217Y0104238D01*
X0367917Y0104054D01*
X0367591Y0103919D01*
X0367556Y0103833D01*
X0367134Y0103574D01*
X0367040Y0103582D01*
X0366773Y0103353D01*
X0366472Y0103169D01*
X0366450Y0103078D01*
X0366074Y0102756D01*
X0365981Y0102749D01*
X0365752Y0102481D01*
X0365484Y0102252D01*
X0365477Y0102159D01*
X0365156Y0101783D01*
X0365064Y0101761D01*
X0364880Y0101461D01*
X0364651Y0101193D01*
X0364659Y0101099D01*
X0364400Y0100677D01*
X0364314Y0100642D01*
X0364179Y0100316D01*
X0363995Y0100016D01*
X0364017Y0099925D01*
X0363828Y0099468D01*
X0363748Y0099419D01*
X0363665Y0099076D01*
X0363531Y0098751D01*
X0363566Y0098664D01*
X0363451Y0098183D01*
X0363380Y0098122D01*
X0363352Y0097771D01*
X0363270Y0097429D01*
X0363319Y0097349D01*
X0363280Y0096856D01*
X0363219Y0096784D01*
X0363247Y0096433D01*
X0363219Y0096082D01*
X0363280Y0096011D01*
X0363319Y0095518D01*
X0363270Y0095438D01*
X0363352Y0095095D01*
X0363380Y0094744D01*
X0363451Y0094683D01*
X0363566Y0094202D01*
X0363531Y0094115D01*
X0363665Y0093790D01*
X0363748Y0093447D01*
X0363828Y0093398D01*
X0364017Y0092942D01*
X0363995Y0092850D01*
X0364179Y0092550D01*
X0364314Y0092225D01*
X0364400Y0092189D01*
X0364659Y0091767D01*
X0364651Y0091673D01*
X0364880Y0091406D01*
X0365064Y0091105D01*
X0365156Y0091083D01*
X0365477Y0090707D01*
X0365484Y0090614D01*
X0365752Y0090385D01*
X0365981Y0090117D01*
X0366074Y0090110D01*
X0366450Y0089789D01*
X0366472Y0089697D01*
X0366773Y0089513D01*
X0367040Y0089285D01*
X0367134Y0089292D01*
X0367556Y0089034D01*
X0367591Y0088947D01*
X0367917Y0088812D01*
X0368217Y0088628D01*
X0368308Y0088650D01*
X0368765Y0088461D01*
X0368814Y0088381D01*
X0369157Y0088298D01*
X0369482Y0088164D01*
X0369569Y0088200D01*
X0370050Y0088084D01*
X0370111Y0088013D01*
X0370462Y0087985D01*
X0370805Y0087903D01*
X0370884Y0087952D01*
X0371378Y0087913D01*
X0371449Y0087852D01*
X0371800Y0087880D01*
X0372151Y0087852D01*
X0372222Y0087913D01*
X0372716Y0087952D01*
X0372795Y0087903D01*
X0373138Y0087985D01*
X0373489Y0088013D01*
X0373550Y0088084D01*
X0374031Y0088200D01*
X0374118Y0088164D01*
X0374443Y0088298D01*
X0374786Y0088381D01*
X0374835Y0088461D01*
X0375292Y0088650D01*
X0375383Y0088628D01*
X0375683Y0088812D01*
X0376009Y0088947D01*
X0376044Y0089034D01*
X0376466Y0089292D01*
X0376560Y0089285D01*
X0376827Y0089513D01*
X0377128Y0089697D01*
X0377150Y0089789D01*
X0377526Y0090110D01*
X0377619Y0090117D01*
X0377848Y0090385D01*
X0378116Y0090614D01*
X0378123Y0090707D01*
X0378444Y0091083D01*
X0378536Y0091105D01*
X0378720Y0091406D01*
X0378948Y0091673D01*
X0378941Y0091767D01*
X0379200Y0092189D01*
X0379286Y0092225D01*
X0379421Y0092550D01*
X0379605Y0092850D01*
X0379583Y0092941D01*
X0379772Y0093398D01*
X0379852Y0093447D01*
X0379935Y0093790D01*
X0380069Y0094115D01*
X0380034Y0094202D01*
X0380149Y0094683D01*
X0380220Y0094744D01*
X0380248Y0095095D01*
X0380330Y0095438D01*
X0380281Y0095518D01*
X0380320Y0096011D01*
X0380381Y0096082D01*
X0380353Y0096433D01*
X0380381Y0096784D01*
X0380320Y0096856D01*
X0380281Y0097349D01*
X0380330Y0097429D01*
X0380248Y0097771D01*
X0380220Y0098122D01*
X0380149Y0098183D01*
X0380034Y0098664D01*
X0380069Y0098751D01*
X0379935Y0099076D01*
X0379852Y0099419D01*
X0379772Y0099468D01*
X0379583Y0099925D01*
X0379605Y0100016D01*
X0379421Y0100316D01*
X0379286Y0100642D01*
X0379200Y0100677D01*
X0378941Y0101099D01*
X0378948Y0101193D01*
X0378720Y0101461D01*
X0378536Y0101761D01*
X0378444Y0101783D01*
X0378123Y0102159D01*
X0378116Y0102252D01*
X0377848Y0102481D01*
X0377619Y0102749D01*
X0377526Y0102756D01*
X0377150Y0103078D01*
X0377128Y0103169D01*
X0376827Y0103353D01*
X0376560Y0103582D01*
X0376466Y0103574D01*
X0378251Y0102009D02*
X0394500Y0102009D01*
X0394500Y0100411D02*
X0394028Y0100411D01*
X0388942Y0100411D02*
X0379382Y0100411D01*
X0380044Y0098812D02*
X0387440Y0098812D01*
X0386837Y0097214D02*
X0380292Y0097214D01*
X0380289Y0095615D02*
X0386837Y0095615D01*
X0387455Y0094017D02*
X0380029Y0094017D01*
X0379366Y0092418D02*
X0389032Y0092418D01*
X0393938Y0092418D02*
X0394500Y0092418D01*
X0394500Y0090820D02*
X0378219Y0090820D01*
X0376351Y0089221D02*
X0394500Y0089221D01*
X0394500Y0087623D02*
X0332359Y0087623D01*
X0332581Y0086024D02*
X0394500Y0086024D01*
X0394500Y0084426D02*
X0331933Y0084426D01*
X0331143Y0089221D02*
X0367249Y0089221D01*
X0365381Y0090820D02*
X0308219Y0090820D01*
X0309366Y0092418D02*
X0319032Y0092418D01*
X0318852Y0092493D02*
X0320560Y0091785D01*
X0322410Y0091785D01*
X0324118Y0092493D01*
X0325425Y0093800D01*
X0326133Y0095509D01*
X0326133Y0097358D01*
X0325425Y0099066D01*
X0324118Y0100373D01*
X0322410Y0101081D01*
X0320560Y0101081D01*
X0318852Y0100373D01*
X0317545Y0099066D01*
X0316837Y0097358D01*
X0316837Y0095509D01*
X0317545Y0093800D01*
X0318852Y0092493D01*
X0317455Y0094017D02*
X0310029Y0094017D01*
X0310289Y0095615D02*
X0316837Y0095615D01*
X0316837Y0097214D02*
X0310292Y0097214D01*
X0310044Y0098812D02*
X0317440Y0098812D01*
X0318942Y0100411D02*
X0309382Y0100411D01*
X0308251Y0102009D02*
X0365349Y0102009D01*
X0364218Y0100411D02*
X0360563Y0100411D01*
X0360653Y0100373D02*
X0358945Y0101081D01*
X0357096Y0101081D01*
X0355388Y0100373D01*
X0354080Y0099066D01*
X0353372Y0097358D01*
X0353372Y0095509D01*
X0354080Y0093800D01*
X0355388Y0092493D01*
X0357096Y0091785D01*
X0358945Y0091785D01*
X0360653Y0092493D01*
X0361961Y0093800D01*
X0362668Y0095509D01*
X0362668Y0097358D01*
X0361961Y0099066D01*
X0360653Y0100373D01*
X0362066Y0098812D02*
X0363556Y0098812D01*
X0363308Y0097214D02*
X0362668Y0097214D01*
X0362668Y0095615D02*
X0363311Y0095615D01*
X0363571Y0094017D02*
X0362051Y0094017D01*
X0360474Y0092418D02*
X0364234Y0092418D01*
X0355567Y0092418D02*
X0349272Y0092418D01*
X0349498Y0092583D02*
X0350060Y0093145D01*
X0350527Y0093787D01*
X0350888Y0094495D01*
X0351133Y0095251D01*
X0351257Y0096036D01*
X0351257Y0096150D01*
X0346492Y0096150D01*
X0346492Y0091385D01*
X0346607Y0091385D01*
X0347392Y0091509D01*
X0348147Y0091755D01*
X0348855Y0092116D01*
X0349498Y0092583D01*
X0350644Y0094017D02*
X0353990Y0094017D01*
X0353372Y0095615D02*
X0351191Y0095615D01*
X0351257Y0096716D02*
X0351257Y0096830D01*
X0351133Y0097615D01*
X0350888Y0098371D01*
X0350527Y0099079D01*
X0350060Y0099722D01*
X0349498Y0100283D01*
X0348855Y0100751D01*
X0348147Y0101111D01*
X0347392Y0101357D01*
X0346607Y0101481D01*
X0346492Y0101481D01*
X0346492Y0096716D01*
X0345927Y0096716D01*
X0345927Y0101481D01*
X0345812Y0101481D01*
X0345027Y0101357D01*
X0344272Y0101111D01*
X0343564Y0100751D01*
X0342921Y0100283D01*
X0342359Y0099722D01*
X0341892Y0099079D01*
X0341531Y0098371D01*
X0341286Y0097615D01*
X0341161Y0096830D01*
X0341161Y0096716D01*
X0345927Y0096716D01*
X0345927Y0096150D01*
X0346492Y0096150D01*
X0346492Y0096716D01*
X0351257Y0096716D01*
X0351197Y0097214D02*
X0353372Y0097214D01*
X0353975Y0098812D02*
X0350663Y0098812D01*
X0349323Y0100411D02*
X0355478Y0100411D01*
X0346492Y0100411D02*
X0345927Y0100411D01*
X0345927Y0098812D02*
X0346492Y0098812D01*
X0346492Y0097214D02*
X0345927Y0097214D01*
X0345927Y0096150D02*
X0341161Y0096150D01*
X0341161Y0096036D01*
X0341286Y0095251D01*
X0341531Y0094495D01*
X0341892Y0093787D01*
X0342359Y0093145D01*
X0342921Y0092583D01*
X0343564Y0092116D01*
X0344272Y0091755D01*
X0345027Y0091509D01*
X0345812Y0091385D01*
X0345927Y0091385D01*
X0345927Y0096150D01*
X0345927Y0095615D02*
X0346492Y0095615D01*
X0346492Y0094017D02*
X0345927Y0094017D01*
X0345927Y0092418D02*
X0346492Y0092418D01*
X0343147Y0092418D02*
X0323938Y0092418D01*
X0325515Y0094017D02*
X0341775Y0094017D01*
X0341228Y0095615D02*
X0326133Y0095615D01*
X0326133Y0097214D02*
X0341222Y0097214D01*
X0341756Y0098812D02*
X0325531Y0098812D01*
X0324028Y0100411D02*
X0343096Y0100411D01*
X0327457Y0089221D02*
X0306351Y0089221D01*
X0297249Y0089221D02*
X0283700Y0089221D01*
X0275112Y0090820D02*
X0273488Y0090820D01*
X0273700Y0089221D02*
X0274900Y0089221D01*
X0274900Y0087623D02*
X0273700Y0087623D01*
X0273700Y0086024D02*
X0274900Y0086024D01*
X0274900Y0084426D02*
X0273700Y0084426D01*
X0273700Y0082827D02*
X0274900Y0082827D01*
X0264900Y0082827D02*
X0263700Y0082827D01*
X0263700Y0084426D02*
X0264900Y0084426D01*
X0264900Y0086024D02*
X0263700Y0086024D01*
X0263700Y0087623D02*
X0264900Y0087623D01*
X0264900Y0089221D02*
X0263700Y0089221D01*
X0263488Y0090820D02*
X0265112Y0090820D01*
X0266063Y0092418D02*
X0262537Y0092418D01*
X0272537Y0092418D02*
X0273147Y0092418D01*
X0283700Y0082827D02*
X0394500Y0082827D01*
X0367189Y0103608D02*
X0306411Y0103608D01*
X0297189Y0103608D02*
X0236411Y0103608D01*
X0216700Y0106805D02*
X0394500Y0106805D01*
X0394500Y0108403D02*
X0216246Y0108403D01*
X0236290Y0129184D02*
X0297310Y0129184D01*
X0306290Y0129184D02*
X0367310Y0129184D01*
X0367134Y0129292D02*
X0367556Y0129034D01*
X0367591Y0128947D01*
X0367917Y0128812D01*
X0368217Y0128628D01*
X0368308Y0128650D01*
X0368765Y0128461D01*
X0368814Y0128381D01*
X0369157Y0128298D01*
X0369482Y0128164D01*
X0369569Y0128200D01*
X0370050Y0128084D01*
X0370111Y0128013D01*
X0370462Y0127985D01*
X0370805Y0127903D01*
X0370884Y0127952D01*
X0371378Y0127913D01*
X0371449Y0127852D01*
X0371800Y0127880D01*
X0372151Y0127852D01*
X0372222Y0127913D01*
X0372716Y0127952D01*
X0372795Y0127903D01*
X0373138Y0127985D01*
X0373489Y0128013D01*
X0373550Y0128084D01*
X0374031Y0128200D01*
X0374118Y0128164D01*
X0374443Y0128298D01*
X0374786Y0128381D01*
X0374835Y0128461D01*
X0375292Y0128650D01*
X0375383Y0128628D01*
X0375683Y0128812D01*
X0376009Y0128947D01*
X0376044Y0129034D01*
X0376466Y0129292D01*
X0376560Y0129285D01*
X0376827Y0129513D01*
X0377128Y0129697D01*
X0377150Y0129789D01*
X0377526Y0130110D01*
X0377619Y0130117D01*
X0377848Y0130385D01*
X0378116Y0130614D01*
X0378123Y0130707D01*
X0378444Y0131083D01*
X0378536Y0131105D01*
X0378720Y0131406D01*
X0378948Y0131673D01*
X0378941Y0131767D01*
X0379200Y0132189D01*
X0379286Y0132225D01*
X0379421Y0132550D01*
X0379605Y0132850D01*
X0379583Y0132942D01*
X0379772Y0133398D01*
X0379852Y0133447D01*
X0379935Y0133790D01*
X0380069Y0134115D01*
X0380034Y0134202D01*
X0380149Y0134683D01*
X0380220Y0134744D01*
X0380248Y0135095D01*
X0380330Y0135438D01*
X0380281Y0135518D01*
X0380320Y0136011D01*
X0380381Y0136082D01*
X0380353Y0136433D01*
X0380381Y0136784D01*
X0380320Y0136856D01*
X0380281Y0137349D01*
X0380330Y0137429D01*
X0380248Y0137771D01*
X0380220Y0138122D01*
X0380149Y0138183D01*
X0380034Y0138664D01*
X0380069Y0138751D01*
X0379935Y0139076D01*
X0379852Y0139419D01*
X0379772Y0139468D01*
X0379583Y0139925D01*
X0379605Y0140016D01*
X0379421Y0140316D01*
X0379286Y0140642D01*
X0379200Y0140677D01*
X0378941Y0141099D01*
X0378948Y0141193D01*
X0378720Y0141461D01*
X0378536Y0141761D01*
X0378444Y0141783D01*
X0378123Y0142159D01*
X0378116Y0142252D01*
X0377848Y0142481D01*
X0377619Y0142749D01*
X0377526Y0142756D01*
X0377150Y0143078D01*
X0377128Y0143169D01*
X0376827Y0143353D01*
X0376560Y0143582D01*
X0376466Y0143574D01*
X0376044Y0143833D01*
X0376009Y0143919D01*
X0375683Y0144054D01*
X0375383Y0144238D01*
X0375292Y0144216D01*
X0374835Y0144405D01*
X0374786Y0144485D01*
X0374443Y0144568D01*
X0374118Y0144702D01*
X0374031Y0144667D01*
X0373550Y0144782D01*
X0373489Y0144853D01*
X0373138Y0144881D01*
X0372795Y0144963D01*
X0372716Y0144914D01*
X0372222Y0144953D01*
X0372151Y0145014D01*
X0371800Y0144986D01*
X0371449Y0145014D01*
X0371378Y0144953D01*
X0370884Y0144914D01*
X0370805Y0144963D01*
X0370462Y0144881D01*
X0370111Y0144853D01*
X0370050Y0144782D01*
X0369569Y0144667D01*
X0369482Y0144702D01*
X0369157Y0144568D01*
X0368814Y0144485D01*
X0368765Y0144405D01*
X0368308Y0144216D01*
X0368217Y0144238D01*
X0367917Y0144054D01*
X0367591Y0143919D01*
X0367556Y0143833D01*
X0367134Y0143574D01*
X0367040Y0143582D01*
X0366773Y0143353D01*
X0366472Y0143169D01*
X0366450Y0143078D01*
X0366074Y0142756D01*
X0365981Y0142749D01*
X0365752Y0142481D01*
X0365484Y0142252D01*
X0365477Y0142159D01*
X0365156Y0141783D01*
X0365064Y0141761D01*
X0364880Y0141461D01*
X0364651Y0141193D01*
X0364659Y0141099D01*
X0364400Y0140677D01*
X0364314Y0140642D01*
X0364179Y0140316D01*
X0363995Y0140016D01*
X0364017Y0139925D01*
X0363828Y0139468D01*
X0363748Y0139419D01*
X0363665Y0139076D01*
X0363531Y0138751D01*
X0363566Y0138664D01*
X0363451Y0138183D01*
X0363380Y0138122D01*
X0363352Y0137771D01*
X0363270Y0137429D01*
X0363319Y0137349D01*
X0363280Y0136856D01*
X0363219Y0136784D01*
X0363247Y0136433D01*
X0363219Y0136082D01*
X0363280Y0136011D01*
X0363319Y0135518D01*
X0363270Y0135438D01*
X0363352Y0135095D01*
X0363380Y0134744D01*
X0363451Y0134683D01*
X0363566Y0134202D01*
X0363531Y0134115D01*
X0363665Y0133790D01*
X0363748Y0133447D01*
X0363828Y0133398D01*
X0364017Y0132942D01*
X0363995Y0132850D01*
X0364179Y0132550D01*
X0364314Y0132225D01*
X0364400Y0132189D01*
X0364659Y0131767D01*
X0364651Y0131673D01*
X0364880Y0131406D01*
X0365064Y0131105D01*
X0365156Y0131083D01*
X0365477Y0130707D01*
X0365484Y0130614D01*
X0365752Y0130385D01*
X0365981Y0130117D01*
X0366074Y0130110D01*
X0366450Y0129789D01*
X0366472Y0129697D01*
X0366773Y0129513D01*
X0367040Y0129285D01*
X0367134Y0129292D01*
X0365412Y0130782D02*
X0308188Y0130782D01*
X0309351Y0132381D02*
X0319122Y0132381D01*
X0318852Y0132493D02*
X0320560Y0131785D01*
X0322410Y0131785D01*
X0324118Y0132493D01*
X0325425Y0133800D01*
X0326133Y0135509D01*
X0326133Y0137358D01*
X0325425Y0139066D01*
X0324118Y0140373D01*
X0322410Y0141081D01*
X0320560Y0141081D01*
X0318852Y0140373D01*
X0317545Y0139066D01*
X0316837Y0137358D01*
X0316837Y0135509D01*
X0317545Y0133800D01*
X0318852Y0132493D01*
X0317470Y0133979D02*
X0310013Y0133979D01*
X0310286Y0135578D02*
X0316837Y0135578D01*
X0316837Y0137177D02*
X0310295Y0137177D01*
X0310059Y0138775D02*
X0317424Y0138775D01*
X0318852Y0140374D02*
X0309397Y0140374D01*
X0308283Y0141972D02*
X0365317Y0141972D01*
X0364203Y0140374D02*
X0360653Y0140374D01*
X0360653Y0140373D02*
X0358945Y0141081D01*
X0357096Y0141081D01*
X0355388Y0140373D01*
X0355388Y0140374D02*
X0349374Y0140374D01*
X0349498Y0140283D02*
X0348855Y0140751D01*
X0348147Y0141111D01*
X0347392Y0141357D01*
X0346607Y0141481D01*
X0346492Y0141481D01*
X0346492Y0136716D01*
X0345927Y0136716D01*
X0345927Y0141481D01*
X0345812Y0141481D01*
X0345027Y0141357D01*
X0344272Y0141111D01*
X0343564Y0140751D01*
X0342921Y0140283D01*
X0342359Y0139722D01*
X0341892Y0139079D01*
X0341531Y0138371D01*
X0341286Y0137615D01*
X0341161Y0136830D01*
X0341161Y0136716D01*
X0345927Y0136716D01*
X0345927Y0136150D01*
X0346492Y0136150D01*
X0346492Y0131385D01*
X0346607Y0131385D01*
X0347392Y0131509D01*
X0348147Y0131755D01*
X0348855Y0132116D01*
X0349498Y0132583D01*
X0350060Y0133145D01*
X0350527Y0133787D01*
X0350888Y0134495D01*
X0351133Y0135251D01*
X0351257Y0136036D01*
X0351257Y0136150D01*
X0346492Y0136150D01*
X0346492Y0136716D01*
X0351257Y0136716D01*
X0351257Y0136830D01*
X0351133Y0137615D01*
X0350888Y0138371D01*
X0350527Y0139079D01*
X0350060Y0139722D01*
X0349498Y0140283D01*
X0350682Y0138775D02*
X0353960Y0138775D01*
X0354080Y0139066D02*
X0353372Y0137358D01*
X0353372Y0135509D01*
X0354080Y0133800D01*
X0355388Y0132493D01*
X0357096Y0131785D01*
X0358945Y0131785D01*
X0360653Y0132493D01*
X0361961Y0133800D01*
X0362668Y0135509D01*
X0362668Y0137358D01*
X0361961Y0139066D01*
X0360653Y0140373D01*
X0362081Y0138775D02*
X0363541Y0138775D01*
X0363305Y0137177D02*
X0362668Y0137177D01*
X0362668Y0135578D02*
X0363314Y0135578D01*
X0363587Y0133979D02*
X0362035Y0133979D01*
X0360384Y0132381D02*
X0364249Y0132381D01*
X0355657Y0132381D02*
X0349220Y0132381D01*
X0350625Y0133979D02*
X0354006Y0133979D01*
X0353372Y0135578D02*
X0351185Y0135578D01*
X0351203Y0137177D02*
X0353372Y0137177D01*
X0354080Y0139066D02*
X0355388Y0140373D01*
X0346492Y0140374D02*
X0345927Y0140374D01*
X0345927Y0138775D02*
X0346492Y0138775D01*
X0346492Y0137177D02*
X0345927Y0137177D01*
X0345927Y0136150D02*
X0341161Y0136150D01*
X0341161Y0136036D01*
X0341286Y0135251D01*
X0341531Y0134495D01*
X0341892Y0133787D01*
X0342359Y0133145D01*
X0342921Y0132583D01*
X0343564Y0132116D01*
X0344272Y0131755D01*
X0345027Y0131509D01*
X0345812Y0131385D01*
X0345927Y0131385D01*
X0345927Y0136150D01*
X0345927Y0135578D02*
X0346492Y0135578D01*
X0346492Y0133979D02*
X0345927Y0133979D01*
X0345927Y0132381D02*
X0346492Y0132381D01*
X0343198Y0132381D02*
X0323848Y0132381D01*
X0325500Y0133979D02*
X0341794Y0133979D01*
X0341234Y0135578D02*
X0326133Y0135578D01*
X0326133Y0137177D02*
X0341216Y0137177D01*
X0341737Y0138775D02*
X0325546Y0138775D01*
X0324118Y0140374D02*
X0343045Y0140374D01*
X0332328Y0145169D02*
X0394500Y0145169D01*
X0394500Y0143571D02*
X0376573Y0143571D01*
X0378283Y0141972D02*
X0394500Y0141972D01*
X0394500Y0140374D02*
X0394118Y0140374D01*
X0388852Y0140374D02*
X0379397Y0140374D01*
X0380059Y0138775D02*
X0387424Y0138775D01*
X0386837Y0137177D02*
X0380295Y0137177D01*
X0380286Y0135578D02*
X0386837Y0135578D01*
X0387470Y0133979D02*
X0380013Y0133979D01*
X0379351Y0132381D02*
X0389122Y0132381D01*
X0393848Y0132381D02*
X0394500Y0132381D01*
X0394500Y0130782D02*
X0378187Y0130782D01*
X0376290Y0129184D02*
X0394500Y0129184D01*
X0389500Y0122790D02*
X0389100Y0122790D01*
X0389100Y0121191D02*
X0389500Y0121191D01*
X0389500Y0119593D02*
X0389100Y0119593D01*
X0389100Y0117994D02*
X0389500Y0117994D01*
X0384500Y0117994D02*
X0384100Y0117994D01*
X0384100Y0119593D02*
X0384500Y0119593D01*
X0384824Y0121191D02*
X0383776Y0121191D01*
X0382731Y0122790D02*
X0385869Y0122790D01*
X0379500Y0122790D02*
X0379100Y0122790D01*
X0379100Y0121191D02*
X0379500Y0121191D01*
X0379500Y0119593D02*
X0379100Y0119593D01*
X0379100Y0117994D02*
X0379500Y0117994D01*
X0374824Y0121191D02*
X0373776Y0121191D01*
X0374100Y0119593D02*
X0374500Y0119593D01*
X0374500Y0117994D02*
X0374100Y0117994D01*
X0369500Y0117994D02*
X0369100Y0117994D01*
X0369100Y0119593D02*
X0369500Y0119593D01*
X0369500Y0121191D02*
X0369100Y0121191D01*
X0369100Y0122790D02*
X0369500Y0122790D01*
X0372731Y0122790D02*
X0375869Y0122790D01*
X0374500Y0114797D02*
X0374100Y0114797D01*
X0374100Y0113199D02*
X0374500Y0113199D01*
X0374848Y0111600D02*
X0373752Y0111600D01*
X0372657Y0110002D02*
X0375943Y0110002D01*
X0379100Y0110002D02*
X0379500Y0110002D01*
X0379500Y0111600D02*
X0379100Y0111600D01*
X0379100Y0113199D02*
X0379500Y0113199D01*
X0379500Y0114797D02*
X0379100Y0114797D01*
X0384100Y0114797D02*
X0384500Y0114797D01*
X0384500Y0113199D02*
X0384100Y0113199D01*
X0383752Y0111600D02*
X0384848Y0111600D01*
X0385943Y0110002D02*
X0382657Y0110002D01*
X0389100Y0110002D02*
X0389500Y0110002D01*
X0389500Y0111600D02*
X0389100Y0111600D01*
X0389100Y0113199D02*
X0389500Y0113199D01*
X0389500Y0114797D02*
X0389100Y0114797D01*
X0394100Y0114797D02*
X0394500Y0114797D01*
X0394500Y0113199D02*
X0394100Y0113199D01*
X0393752Y0111600D02*
X0394500Y0111600D01*
X0394500Y0110002D02*
X0392657Y0110002D01*
X0369500Y0110002D02*
X0369100Y0110002D01*
X0369100Y0111600D02*
X0369500Y0111600D01*
X0369500Y0113199D02*
X0369100Y0113199D01*
X0369100Y0114797D02*
X0369500Y0114797D01*
X0367027Y0143571D02*
X0330963Y0143571D01*
X0327637Y0143571D02*
X0306573Y0143571D01*
X0306044Y0143833D02*
X0306044Y0143833D01*
X0283700Y0149965D02*
X0394500Y0149965D01*
X0394500Y0151563D02*
X0283180Y0151563D01*
X0275420Y0151563D02*
X0273180Y0151563D01*
X0273700Y0149965D02*
X0274900Y0149965D01*
X0274900Y0148366D02*
X0273700Y0148366D01*
X0273700Y0146768D02*
X0274900Y0146768D01*
X0274900Y0145169D02*
X0273700Y0145169D01*
X0273700Y0143571D02*
X0274900Y0143571D01*
X0275143Y0141972D02*
X0273457Y0141972D01*
X0273045Y0140374D02*
X0272463Y0140374D01*
X0266137Y0140374D02*
X0262463Y0140374D01*
X0263457Y0141972D02*
X0265143Y0141972D01*
X0264900Y0143571D02*
X0263700Y0143571D01*
X0263700Y0145169D02*
X0264900Y0145169D01*
X0264900Y0146768D02*
X0263700Y0146768D01*
X0263700Y0148366D02*
X0264900Y0148366D01*
X0264900Y0149965D02*
X0263700Y0149965D01*
X0263180Y0151563D02*
X0265420Y0151563D01*
X0254900Y0162753D02*
X0143700Y0162753D01*
X0143700Y0164351D02*
X0254900Y0164351D01*
X0254900Y0165950D02*
X0143700Y0165950D01*
X0143700Y0167548D02*
X0152008Y0167548D01*
X0152827Y0166729D02*
X0153783Y0166333D01*
X0236067Y0166333D01*
X0237023Y0166729D01*
X0237754Y0167460D01*
X0238446Y0168152D01*
X0238703Y0168152D01*
X0239909Y0168651D01*
X0240832Y0169574D01*
X0241331Y0170780D01*
X0241331Y0172086D01*
X0240832Y0173292D01*
X0239909Y0174215D01*
X0238703Y0174714D01*
X0237397Y0174714D01*
X0236191Y0174215D01*
X0235268Y0173292D01*
X0234769Y0172086D01*
X0234769Y0171829D01*
X0234473Y0171533D01*
X0155377Y0171533D01*
X0152581Y0174329D01*
X0152581Y0174586D01*
X0152082Y0175792D01*
X0151159Y0176715D01*
X0149953Y0177214D01*
X0148647Y0177214D01*
X0147441Y0176715D01*
X0146518Y0175792D01*
X0146019Y0174586D01*
X0146019Y0173280D01*
X0146518Y0172074D01*
X0147441Y0171151D01*
X0148647Y0170652D01*
X0148904Y0170652D01*
X0152827Y0166729D01*
X0150409Y0169147D02*
X0143700Y0169147D01*
X0143519Y0170745D02*
X0148422Y0170745D01*
X0146407Y0172344D02*
X0142612Y0172344D01*
X0146019Y0173942D02*
X0137968Y0173942D01*
X0136802Y0175541D02*
X0136369Y0175541D01*
X0141798Y0175541D02*
X0146415Y0175541D01*
X0148467Y0177139D02*
X0142581Y0177139D01*
X0142415Y0178738D02*
X0179958Y0178738D01*
X0179600Y0178380D02*
X0179600Y0174486D01*
X0182353Y0171733D01*
X0186247Y0171733D01*
X0189000Y0174486D01*
X0189000Y0178380D01*
X0186247Y0181133D01*
X0182353Y0181133D01*
X0179600Y0178380D01*
X0179600Y0177139D02*
X0150133Y0177139D01*
X0152185Y0175541D02*
X0179600Y0175541D01*
X0180144Y0173942D02*
X0152968Y0173942D01*
X0154566Y0172344D02*
X0181743Y0172344D01*
X0186857Y0172344D02*
X0191743Y0172344D01*
X0192353Y0171733D02*
X0196247Y0171733D01*
X0199000Y0174486D01*
X0199000Y0178380D01*
X0196247Y0181133D01*
X0192353Y0181133D01*
X0189600Y0178380D01*
X0189600Y0174486D01*
X0192353Y0171733D01*
X0190144Y0173942D02*
X0188456Y0173942D01*
X0189000Y0175541D02*
X0189600Y0175541D01*
X0189600Y0177139D02*
X0189000Y0177139D01*
X0188642Y0178738D02*
X0189958Y0178738D01*
X0191556Y0180336D02*
X0187044Y0180336D01*
X0186412Y0181333D02*
X0189300Y0184221D01*
X0192188Y0181333D01*
X0194116Y0181333D01*
X0194116Y0186249D01*
X0194484Y0186249D01*
X0194484Y0181333D01*
X0196412Y0181333D01*
X0199400Y0184321D01*
X0199400Y0186249D01*
X0194484Y0186249D01*
X0194484Y0186617D01*
X0199400Y0186617D01*
X0199400Y0188546D01*
X0196512Y0191433D01*
X0199400Y0194321D01*
X0199400Y0196249D01*
X0194484Y0196249D01*
X0194484Y0186617D01*
X0194116Y0186617D01*
X0194116Y0186249D01*
X0184484Y0186249D01*
X0184484Y0181333D01*
X0186412Y0181333D01*
X0187014Y0181935D02*
X0191586Y0181935D01*
X0189987Y0183533D02*
X0188613Y0183533D01*
X0189400Y0186617D02*
X0184484Y0186617D01*
X0184484Y0186249D01*
X0184116Y0186249D01*
X0179200Y0186249D01*
X0179200Y0184321D01*
X0182188Y0181333D01*
X0184116Y0181333D01*
X0184116Y0186249D01*
X0184116Y0186617D01*
X0179200Y0186617D01*
X0179200Y0188546D01*
X0182088Y0191433D01*
X0179200Y0194321D01*
X0179200Y0196249D01*
X0184116Y0196249D01*
X0184116Y0196617D01*
X0179200Y0196617D01*
X0179200Y0198546D01*
X0182088Y0201433D01*
X0179200Y0204321D01*
X0179200Y0206249D01*
X0184116Y0206249D01*
X0184116Y0206617D01*
X0179200Y0206617D01*
X0179200Y0208546D01*
X0182188Y0211533D01*
X0184116Y0211533D01*
X0184116Y0206617D01*
X0184484Y0206617D01*
X0194116Y0206617D01*
X0194116Y0206249D01*
X0189200Y0206249D01*
X0184484Y0206249D01*
X0184484Y0201333D01*
X0184484Y0196617D01*
X0194116Y0196617D01*
X0194116Y0196249D01*
X0194484Y0196249D01*
X0194484Y0196617D01*
X0199400Y0196617D01*
X0199400Y0198546D01*
X0196512Y0201433D01*
X0199400Y0204321D01*
X0199400Y0206249D01*
X0194484Y0206249D01*
X0194484Y0201333D01*
X0194484Y0196617D01*
X0194116Y0196617D01*
X0194116Y0206249D01*
X0194484Y0206249D01*
X0194484Y0206617D01*
X0199400Y0206617D01*
X0199400Y0208546D01*
X0196412Y0211533D01*
X0194484Y0211533D01*
X0194484Y0206617D01*
X0194116Y0206617D01*
X0194116Y0211533D01*
X0192188Y0211533D01*
X0189300Y0208646D01*
X0186412Y0211533D01*
X0184484Y0211533D01*
X0184484Y0206617D01*
X0184484Y0206249D01*
X0184116Y0206249D01*
X0184116Y0196617D01*
X0184484Y0196617D01*
X0184484Y0196249D01*
X0184484Y0186617D01*
X0184116Y0186617D01*
X0184116Y0191333D01*
X0184116Y0196249D01*
X0184484Y0196249D01*
X0189200Y0196249D01*
X0194116Y0196249D01*
X0194116Y0191333D01*
X0194116Y0186617D01*
X0189400Y0186617D01*
X0194116Y0186730D02*
X0194484Y0186730D01*
X0194484Y0185132D02*
X0194116Y0185132D01*
X0194116Y0183533D02*
X0194484Y0183533D01*
X0194484Y0181935D02*
X0194116Y0181935D01*
X0197014Y0181935D02*
X0224864Y0181935D01*
X0224750Y0182048D02*
X0227415Y0179383D01*
X0231185Y0179383D01*
X0233850Y0182048D01*
X0233850Y0185818D01*
X0231185Y0188483D01*
X0227415Y0188483D01*
X0224750Y0185818D01*
X0224750Y0182048D01*
X0224750Y0183533D02*
X0215623Y0183533D01*
X0216030Y0183941D02*
X0216700Y0185558D01*
X0216700Y0187308D01*
X0216030Y0188925D01*
X0214792Y0190163D01*
X0213175Y0190833D01*
X0205425Y0190833D01*
X0203808Y0190163D01*
X0202570Y0188925D01*
X0201900Y0187308D01*
X0201900Y0185558D01*
X0202570Y0183941D01*
X0203808Y0182703D01*
X0205425Y0182033D01*
X0213175Y0182033D01*
X0214792Y0182703D01*
X0216030Y0183941D01*
X0216524Y0185132D02*
X0224750Y0185132D01*
X0225663Y0186730D02*
X0216700Y0186730D01*
X0216277Y0188329D02*
X0227261Y0188329D01*
X0231339Y0188329D02*
X0237024Y0188329D01*
X0236706Y0188167D02*
X0236075Y0187709D01*
X0235524Y0187158D01*
X0235066Y0186527D01*
X0234713Y0185833D01*
X0234472Y0185092D01*
X0234350Y0184323D01*
X0234350Y0183933D01*
X0234350Y0183543D01*
X0234472Y0182774D01*
X0234713Y0182033D01*
X0235066Y0181339D01*
X0235524Y0180708D01*
X0236075Y0180157D01*
X0236706Y0179699D01*
X0237400Y0179346D01*
X0238141Y0179105D01*
X0238910Y0178983D01*
X0239300Y0178983D01*
X0239690Y0178983D01*
X0240459Y0179105D01*
X0241200Y0179346D01*
X0241894Y0179699D01*
X0242525Y0180157D01*
X0243076Y0180708D01*
X0243534Y0181339D01*
X0243887Y0182033D01*
X0244128Y0182774D01*
X0244250Y0183543D01*
X0244250Y0183933D01*
X0239300Y0183933D01*
X0239300Y0178983D01*
X0239300Y0183933D01*
X0239300Y0183933D01*
X0239300Y0183933D01*
X0234350Y0183933D01*
X0239300Y0183933D01*
X0239300Y0183933D01*
X0244250Y0183933D01*
X0244250Y0184323D01*
X0244128Y0185092D01*
X0243887Y0185833D01*
X0243534Y0186527D01*
X0243076Y0187158D01*
X0242525Y0187709D01*
X0241894Y0188167D01*
X0241200Y0188520D01*
X0240459Y0188761D01*
X0239690Y0188883D01*
X0239300Y0188883D01*
X0239300Y0183933D01*
X0239300Y0183933D01*
X0239300Y0188883D01*
X0238910Y0188883D01*
X0238141Y0188761D01*
X0237400Y0188520D01*
X0236706Y0188167D01*
X0235214Y0186730D02*
X0232937Y0186730D01*
X0233850Y0185132D02*
X0234485Y0185132D01*
X0234352Y0183533D02*
X0233850Y0183533D01*
X0233736Y0181935D02*
X0234763Y0181935D01*
X0235896Y0180336D02*
X0232138Y0180336D01*
X0226462Y0180336D02*
X0197044Y0180336D01*
X0198642Y0178738D02*
X0260570Y0178738D01*
X0259596Y0177906D02*
X0259596Y0177906D01*
X0258829Y0177139D02*
X0199000Y0177139D01*
X0199000Y0175541D02*
X0257231Y0175541D01*
X0257827Y0176137D02*
X0257827Y0176137D01*
X0256700Y0173942D02*
X0240181Y0173942D01*
X0241224Y0172344D02*
X0255988Y0172344D01*
X0255081Y0170745D02*
X0241317Y0170745D01*
X0240404Y0169147D02*
X0254900Y0169147D01*
X0254900Y0167548D02*
X0237842Y0167548D01*
X0234876Y0172344D02*
X0196857Y0172344D01*
X0198456Y0173942D02*
X0235919Y0173942D01*
X0239300Y0180336D02*
X0239300Y0180336D01*
X0239300Y0181935D02*
X0239300Y0181935D01*
X0239300Y0183533D02*
X0239300Y0183533D01*
X0239300Y0185132D02*
X0239300Y0185132D01*
X0239300Y0186730D02*
X0239300Y0186730D01*
X0239300Y0188329D02*
X0239300Y0188329D01*
X0241576Y0188329D02*
X0276227Y0188329D01*
X0274629Y0189927D02*
X0215028Y0189927D01*
X0214143Y0191985D02*
X0214816Y0192328D01*
X0215427Y0192772D01*
X0215961Y0193306D01*
X0216405Y0193917D01*
X0216748Y0194591D01*
X0216982Y0195309D01*
X0217100Y0196055D01*
X0217100Y0196233D01*
X0209500Y0196233D01*
X0209500Y0191633D01*
X0212678Y0191633D01*
X0213424Y0191751D01*
X0214143Y0191985D01*
X0215780Y0193124D02*
X0271432Y0193124D01*
X0271404Y0193152D02*
X0283519Y0181037D01*
X0283519Y0180780D01*
X0284018Y0179574D01*
X0284941Y0178651D01*
X0286147Y0178152D01*
X0287453Y0178152D01*
X0288659Y0178651D01*
X0289582Y0179574D01*
X0290081Y0180780D01*
X0290081Y0182086D01*
X0289582Y0183292D01*
X0288659Y0184215D01*
X0287453Y0184714D01*
X0287196Y0184714D01*
X0275477Y0196433D01*
X0288273Y0209229D01*
X0289004Y0209960D01*
X0289400Y0210916D01*
X0289400Y0214393D01*
X0289582Y0214574D01*
X0290081Y0215780D01*
X0290081Y0217086D01*
X0289582Y0218292D01*
X0288659Y0219215D01*
X0287453Y0219714D01*
X0286147Y0219714D01*
X0284941Y0219215D01*
X0284018Y0218292D01*
X0283519Y0217086D01*
X0283519Y0215780D01*
X0284018Y0214574D01*
X0284200Y0214393D01*
X0284200Y0212510D01*
X0271404Y0199714D01*
X0271147Y0199714D01*
X0269941Y0199215D01*
X0269018Y0198292D01*
X0268519Y0197086D01*
X0268519Y0195780D01*
X0269018Y0194574D01*
X0269941Y0193651D01*
X0271147Y0193152D01*
X0271404Y0193152D01*
X0273030Y0191526D02*
X0196605Y0191526D01*
X0194484Y0191526D02*
X0194116Y0191526D01*
X0194116Y0193124D02*
X0194484Y0193124D01*
X0194484Y0194723D02*
X0194116Y0194723D01*
X0194116Y0196321D02*
X0184484Y0196321D01*
X0184116Y0196321D02*
X0164880Y0196321D01*
X0165081Y0195836D02*
X0164582Y0197042D01*
X0164400Y0197223D01*
X0164400Y0201606D01*
X0166504Y0203710D01*
X0166900Y0204666D01*
X0166900Y0206893D01*
X0167082Y0207074D01*
X0167581Y0208280D01*
X0167581Y0209586D01*
X0167082Y0210792D01*
X0166159Y0211715D01*
X0164953Y0212214D01*
X0163647Y0212214D01*
X0162441Y0211715D01*
X0161518Y0210792D01*
X0161019Y0209586D01*
X0161019Y0208280D01*
X0161518Y0207074D01*
X0161700Y0206893D01*
X0161700Y0206260D01*
X0159596Y0204156D01*
X0159200Y0203200D01*
X0159200Y0197223D01*
X0159018Y0197042D01*
X0158519Y0195836D01*
X0158519Y0194530D01*
X0159018Y0193324D01*
X0159941Y0192401D01*
X0161147Y0191902D01*
X0162453Y0191902D01*
X0163659Y0192401D01*
X0164582Y0193324D01*
X0165081Y0194530D01*
X0165081Y0195836D01*
X0165081Y0194723D02*
X0179200Y0194723D01*
X0180396Y0193124D02*
X0164381Y0193124D01*
X0164400Y0197920D02*
X0179200Y0197920D01*
X0180173Y0199518D02*
X0164400Y0199518D01*
X0164400Y0201117D02*
X0181771Y0201117D01*
X0180805Y0202715D02*
X0165509Y0202715D01*
X0166754Y0204314D02*
X0179207Y0204314D01*
X0179200Y0205912D02*
X0166900Y0205912D01*
X0167262Y0207511D02*
X0179200Y0207511D01*
X0179764Y0209110D02*
X0167581Y0209110D01*
X0167116Y0210708D02*
X0181362Y0210708D01*
X0182353Y0211733D02*
X0186247Y0211733D01*
X0189000Y0214486D01*
X0189000Y0218380D01*
X0186247Y0221133D01*
X0182353Y0221133D01*
X0179600Y0218380D01*
X0179600Y0214486D01*
X0182353Y0211733D01*
X0181780Y0212307D02*
X0140929Y0212307D01*
X0142322Y0213905D02*
X0147188Y0213905D01*
X0147441Y0213651D02*
X0148647Y0213152D01*
X0149953Y0213152D01*
X0151159Y0213651D01*
X0151340Y0213833D01*
X0157260Y0213833D01*
X0157441Y0213651D01*
X0158647Y0213152D01*
X0159953Y0213152D01*
X0161159Y0213651D01*
X0162082Y0214574D01*
X0162581Y0215780D01*
X0162581Y0217086D01*
X0162082Y0218292D01*
X0161159Y0219215D01*
X0159953Y0219714D01*
X0158647Y0219714D01*
X0157441Y0219215D01*
X0157260Y0219033D01*
X0151340Y0219033D01*
X0151159Y0219215D01*
X0149953Y0219714D01*
X0148647Y0219714D01*
X0147441Y0219215D01*
X0146518Y0218292D01*
X0146019Y0217086D01*
X0146019Y0215780D01*
X0146518Y0214574D01*
X0147441Y0213651D01*
X0146134Y0215504D02*
X0142581Y0215504D01*
X0142021Y0217102D02*
X0146026Y0217102D01*
X0146927Y0218701D02*
X0139679Y0218701D01*
X0139300Y0221433D02*
X0139300Y0226433D01*
X0143700Y0226693D02*
X0147420Y0226693D01*
X0147441Y0226715D02*
X0146518Y0225792D01*
X0146019Y0224586D01*
X0146019Y0223280D01*
X0146518Y0222074D01*
X0147441Y0221151D01*
X0148647Y0220652D01*
X0149953Y0220652D01*
X0151159Y0221151D01*
X0151340Y0221333D01*
X0157260Y0221333D01*
X0157441Y0221151D01*
X0158647Y0220652D01*
X0159953Y0220652D01*
X0161159Y0221151D01*
X0162082Y0222074D01*
X0162581Y0223280D01*
X0162581Y0224586D01*
X0162082Y0225792D01*
X0161159Y0226715D01*
X0159953Y0227214D01*
X0158647Y0227214D01*
X0157441Y0226715D01*
X0157260Y0226533D01*
X0151340Y0226533D01*
X0151159Y0226715D01*
X0149953Y0227214D01*
X0148647Y0227214D01*
X0147441Y0226715D01*
X0146230Y0225095D02*
X0143700Y0225095D01*
X0143700Y0223496D02*
X0146019Y0223496D01*
X0146695Y0221898D02*
X0143427Y0221898D01*
X0142389Y0220299D02*
X0181519Y0220299D01*
X0179921Y0218701D02*
X0161673Y0218701D01*
X0162574Y0217102D02*
X0179600Y0217102D01*
X0179600Y0215504D02*
X0162466Y0215504D01*
X0161412Y0213905D02*
X0180181Y0213905D01*
X0184116Y0210708D02*
X0184484Y0210708D01*
X0184484Y0209110D02*
X0184116Y0209110D01*
X0184116Y0207511D02*
X0184484Y0207511D01*
X0184484Y0205912D02*
X0184116Y0205912D01*
X0184116Y0204314D02*
X0184484Y0204314D01*
X0184484Y0202715D02*
X0184116Y0202715D01*
X0184116Y0201117D02*
X0184484Y0201117D01*
X0184484Y0199518D02*
X0184116Y0199518D01*
X0184116Y0197920D02*
X0184484Y0197920D01*
X0184484Y0194723D02*
X0184116Y0194723D01*
X0184116Y0193124D02*
X0184484Y0193124D01*
X0184484Y0191526D02*
X0184116Y0191526D01*
X0184116Y0189927D02*
X0184484Y0189927D01*
X0184484Y0188329D02*
X0184116Y0188329D01*
X0184116Y0186730D02*
X0184484Y0186730D01*
X0184484Y0185132D02*
X0184116Y0185132D01*
X0184116Y0183533D02*
X0184484Y0183533D01*
X0184484Y0181935D02*
X0184116Y0181935D01*
X0181586Y0181935D02*
X0104442Y0181935D01*
X0104582Y0182074D02*
X0103659Y0181151D01*
X0102453Y0180652D01*
X0101147Y0180652D01*
X0099941Y0181151D01*
X0099760Y0181333D01*
X0073783Y0181333D01*
X0072827Y0181729D01*
X0066404Y0188152D01*
X0066147Y0188152D01*
X0064941Y0188651D01*
X0064018Y0189574D01*
X0063519Y0190780D01*
X0063519Y0192086D01*
X0064018Y0193292D01*
X0064941Y0194215D01*
X0066147Y0194714D01*
X0067453Y0194714D01*
X0068659Y0194215D01*
X0069582Y0193292D01*
X0070081Y0192086D01*
X0070081Y0191829D01*
X0075377Y0186533D01*
X0099760Y0186533D01*
X0099941Y0186715D01*
X0101147Y0187214D01*
X0102453Y0187214D01*
X0103659Y0186715D01*
X0104582Y0185792D01*
X0105081Y0184586D01*
X0105081Y0183280D01*
X0104582Y0182074D01*
X0105081Y0183533D02*
X0179987Y0183533D01*
X0179200Y0185132D02*
X0104855Y0185132D01*
X0103621Y0186730D02*
X0179200Y0186730D01*
X0179200Y0188329D02*
X0073581Y0188329D01*
X0071983Y0189927D02*
X0180582Y0189927D01*
X0181995Y0191526D02*
X0070384Y0191526D01*
X0069651Y0193124D02*
X0159218Y0193124D01*
X0158519Y0194723D02*
X0031200Y0194723D01*
X0031200Y0196321D02*
X0158720Y0196321D01*
X0159200Y0197920D02*
X0031200Y0197920D01*
X0031200Y0199518D02*
X0069074Y0199518D01*
X0069018Y0199574D02*
X0069941Y0198651D01*
X0071147Y0198152D01*
X0072453Y0198152D01*
X0073659Y0198651D01*
X0074582Y0199574D01*
X0075081Y0200780D01*
X0075081Y0201037D01*
X0077877Y0203833D01*
X0128223Y0203833D01*
X0131019Y0201037D01*
X0131019Y0200780D01*
X0131518Y0199574D01*
X0132441Y0198651D01*
X0133647Y0198152D01*
X0134953Y0198152D01*
X0136159Y0198651D01*
X0137082Y0199574D01*
X0137581Y0200780D01*
X0137581Y0202086D01*
X0137082Y0203292D01*
X0136159Y0204215D01*
X0134953Y0204714D01*
X0134696Y0204714D01*
X0131504Y0207906D01*
X0130773Y0208637D01*
X0129817Y0209033D01*
X0076283Y0209033D01*
X0075327Y0208637D01*
X0071404Y0204714D01*
X0071147Y0204714D01*
X0069941Y0204215D01*
X0069018Y0203292D01*
X0068519Y0202086D01*
X0068519Y0200780D01*
X0069018Y0199574D01*
X0068519Y0201117D02*
X0030865Y0201117D01*
X0030530Y0201925D02*
X0031200Y0200308D01*
X0031200Y0192558D01*
X0030530Y0190941D01*
X0029292Y0189703D01*
X0027675Y0189033D01*
X0025925Y0189033D01*
X0024990Y0189420D01*
X0040377Y0174033D01*
X0061283Y0174033D01*
X0062317Y0174033D01*
X0063273Y0173637D01*
X0068446Y0168464D01*
X0068703Y0168464D01*
X0069909Y0167965D01*
X0070832Y0167042D01*
X0071331Y0165836D01*
X0071331Y0164530D01*
X0070832Y0163324D01*
X0069909Y0162401D01*
X0068703Y0161902D01*
X0067397Y0161902D01*
X0066191Y0162401D01*
X0065268Y0163324D01*
X0064769Y0164530D01*
X0064769Y0164787D01*
X0060723Y0168833D01*
X0038783Y0168833D01*
X0037827Y0169229D01*
X0031200Y0175856D01*
X0031200Y0175558D01*
X0030530Y0173941D01*
X0029292Y0172703D01*
X0027675Y0172033D01*
X0025925Y0172033D01*
X0024308Y0172703D01*
X0023070Y0173941D01*
X0022400Y0175558D01*
X0022400Y0177308D01*
X0023070Y0178925D01*
X0024308Y0180163D01*
X0025925Y0180833D01*
X0026223Y0180833D01*
X0021200Y0185856D01*
X0021200Y0185558D01*
X0020530Y0183941D01*
X0019292Y0182703D01*
X0017675Y0182033D01*
X0015925Y0182033D01*
X0014308Y0182703D01*
X0013070Y0183941D01*
X0012400Y0185558D01*
X0012400Y0187308D01*
X0013070Y0188925D01*
X0014077Y0189933D01*
X0013070Y0190941D01*
X0012400Y0192558D01*
X0012400Y0200308D01*
X0013070Y0201925D01*
X0014077Y0202933D01*
X0013070Y0203941D01*
X0012400Y0205558D01*
X0012400Y0207308D01*
X0013070Y0208925D01*
X0014308Y0210163D01*
X0015925Y0210833D01*
X0017675Y0210833D01*
X0019292Y0210163D01*
X0020530Y0208925D01*
X0020555Y0208865D01*
X0035327Y0223637D01*
X0036283Y0224033D01*
X0062260Y0224033D01*
X0062441Y0224215D01*
X0063647Y0224714D01*
X0064953Y0224714D01*
X0066159Y0224215D01*
X0067082Y0223292D01*
X0067581Y0222086D01*
X0067581Y0220780D01*
X0067082Y0219574D01*
X0066159Y0218651D01*
X0064953Y0218152D01*
X0063647Y0218152D01*
X0062441Y0218651D01*
X0062260Y0218833D01*
X0037877Y0218833D01*
X0024400Y0205356D01*
X0024400Y0203201D01*
X0025925Y0203833D01*
X0027675Y0203833D01*
X0029292Y0203163D01*
X0030530Y0201925D01*
X0029740Y0202715D02*
X0068780Y0202715D01*
X0070181Y0204314D02*
X0054181Y0204314D01*
X0053850Y0203983D02*
X0056750Y0206883D01*
X0056750Y0208933D01*
X0051800Y0208933D01*
X0051800Y0203983D01*
X0053850Y0203983D01*
X0051800Y0203983D02*
X0051800Y0208933D01*
X0051800Y0208933D01*
X0051800Y0208933D01*
X0046850Y0208933D01*
X0046850Y0206883D01*
X0049750Y0203983D01*
X0051800Y0203983D01*
X0051800Y0204314D02*
X0051800Y0204314D01*
X0051800Y0205912D02*
X0051800Y0205912D01*
X0051800Y0207511D02*
X0051800Y0207511D01*
X0051800Y0208933D02*
X0051800Y0208933D01*
X0056750Y0208933D01*
X0056750Y0210983D01*
X0053850Y0213883D01*
X0051800Y0213883D01*
X0051800Y0208933D01*
X0046850Y0208933D01*
X0046850Y0210983D01*
X0049750Y0213883D01*
X0051800Y0213883D01*
X0051800Y0208933D01*
X0051800Y0208933D01*
X0051800Y0209110D02*
X0051800Y0209110D01*
X0051800Y0210708D02*
X0051800Y0210708D01*
X0051800Y0212307D02*
X0051800Y0212307D01*
X0055427Y0212307D02*
X0137671Y0212307D01*
X0131899Y0207511D02*
X0161338Y0207511D01*
X0161352Y0205912D02*
X0133498Y0205912D01*
X0135919Y0204314D02*
X0159754Y0204314D01*
X0159200Y0202715D02*
X0137320Y0202715D01*
X0137581Y0201117D02*
X0159200Y0201117D01*
X0159200Y0199518D02*
X0137026Y0199518D01*
X0131574Y0199518D02*
X0074526Y0199518D01*
X0075161Y0201117D02*
X0130939Y0201117D01*
X0129341Y0202715D02*
X0076759Y0202715D01*
X0072602Y0205912D02*
X0055780Y0205912D01*
X0056750Y0207511D02*
X0074201Y0207511D01*
X0084007Y0217102D02*
X0036146Y0217102D01*
X0037744Y0218701D02*
X0062392Y0218701D01*
X0066208Y0218701D02*
X0083519Y0218701D01*
X0083814Y0220299D02*
X0067382Y0220299D01*
X0067581Y0221898D02*
X0085383Y0221898D01*
X0088217Y0221898D02*
X0109474Y0221898D01*
X0107876Y0223496D02*
X0066877Y0223496D01*
X0083519Y0228292D02*
X0020793Y0228292D01*
X0020530Y0228925D02*
X0019292Y0230163D01*
X0017675Y0230833D01*
X0015925Y0230833D01*
X0014308Y0230163D01*
X0013070Y0228925D01*
X0012400Y0227308D01*
X0012400Y0225558D01*
X0013070Y0223941D01*
X0014308Y0222703D01*
X0015925Y0222033D01*
X0017675Y0222033D01*
X0019292Y0222703D01*
X0020530Y0223941D01*
X0021200Y0225558D01*
X0021200Y0227308D01*
X0020530Y0228925D01*
X0019565Y0229890D02*
X0083645Y0229890D01*
X0084715Y0231489D02*
X0004100Y0231489D01*
X0004100Y0229890D02*
X0014035Y0229890D01*
X0012807Y0228292D02*
X0004100Y0228292D01*
X0004100Y0226693D02*
X0012400Y0226693D01*
X0012592Y0225095D02*
X0004100Y0225095D01*
X0004100Y0223496D02*
X0013514Y0223496D01*
X0014636Y0220299D02*
X0008964Y0220299D01*
X0010623Y0218701D02*
X0012977Y0218701D01*
X0013070Y0218925D02*
X0012400Y0217308D01*
X0012400Y0215558D01*
X0013070Y0213941D01*
X0014308Y0212703D01*
X0015925Y0212033D01*
X0017675Y0212033D01*
X0019292Y0212703D01*
X0020530Y0213941D01*
X0021200Y0215558D01*
X0021200Y0217308D01*
X0020530Y0218925D01*
X0019292Y0220163D01*
X0017675Y0220833D01*
X0015925Y0220833D01*
X0014308Y0220163D01*
X0013070Y0218925D01*
X0012400Y0217102D02*
X0011200Y0217102D01*
X0011177Y0215504D02*
X0012422Y0215504D01*
X0013105Y0213905D02*
X0010495Y0213905D01*
X0008335Y0212307D02*
X0015265Y0212307D01*
X0015623Y0210708D02*
X0004100Y0210708D01*
X0004100Y0209110D02*
X0013254Y0209110D01*
X0012484Y0207511D02*
X0004100Y0207511D01*
X0004100Y0205912D02*
X0012400Y0205912D01*
X0012915Y0204314D02*
X0004100Y0204314D01*
X0006600Y0202715D02*
X0007000Y0202715D01*
X0007000Y0201117D02*
X0006600Y0201117D01*
X0006600Y0199518D02*
X0007000Y0199518D01*
X0007000Y0197920D02*
X0006600Y0197920D01*
X0007000Y0196321D02*
X0012400Y0196321D01*
X0012400Y0194723D02*
X0011600Y0194723D01*
X0011600Y0193124D02*
X0012400Y0193124D01*
X0012827Y0191526D02*
X0011215Y0191526D01*
X0010083Y0189927D02*
X0014072Y0189927D01*
X0012823Y0188329D02*
X0004100Y0188329D01*
X0004100Y0186730D02*
X0012400Y0186730D01*
X0012576Y0185132D02*
X0004100Y0185132D01*
X0004100Y0183533D02*
X0013477Y0183533D01*
X0014726Y0180336D02*
X0004100Y0180336D01*
X0004100Y0178738D02*
X0012992Y0178738D01*
X0013070Y0178925D02*
X0012400Y0177308D01*
X0012400Y0175558D01*
X0013070Y0173941D01*
X0014308Y0172703D01*
X0015925Y0172033D01*
X0017675Y0172033D01*
X0019292Y0172703D01*
X0020530Y0173941D01*
X0021200Y0175558D01*
X0021200Y0177308D01*
X0020530Y0178925D01*
X0019292Y0180163D01*
X0017675Y0180833D01*
X0015925Y0180833D01*
X0014308Y0180163D01*
X0013070Y0178925D01*
X0012400Y0177139D02*
X0004100Y0177139D01*
X0004100Y0175541D02*
X0012407Y0175541D01*
X0013069Y0173942D02*
X0004100Y0173942D01*
X0004100Y0172344D02*
X0015175Y0172344D01*
X0015925Y0170833D02*
X0014308Y0170163D01*
X0013070Y0168925D01*
X0012400Y0167308D01*
X0012400Y0165558D01*
X0013070Y0163941D01*
X0014308Y0162703D01*
X0015925Y0162033D01*
X0017675Y0162033D01*
X0019292Y0162703D01*
X0020530Y0163941D01*
X0021200Y0165558D01*
X0021200Y0167308D01*
X0020530Y0168925D01*
X0019292Y0170163D01*
X0017675Y0170833D01*
X0015925Y0170833D01*
X0015713Y0170745D02*
X0004100Y0170745D01*
X0004100Y0169147D02*
X0013291Y0169147D01*
X0012499Y0167548D02*
X0004100Y0167548D01*
X0004100Y0165950D02*
X0012400Y0165950D01*
X0012900Y0164351D02*
X0004100Y0164351D01*
X0004100Y0162753D02*
X0014258Y0162753D01*
X0013268Y0161154D02*
X0007832Y0161154D01*
X0009100Y0159556D02*
X0012000Y0159556D01*
X0012000Y0157957D02*
X0009100Y0157957D01*
X0009100Y0156359D02*
X0012000Y0156359D01*
X0012000Y0154760D02*
X0009100Y0154760D01*
X0009100Y0153162D02*
X0012000Y0153162D01*
X0004100Y0148366D02*
X0066593Y0148366D01*
X0066019Y0146768D02*
X0004100Y0146768D01*
X0004100Y0145169D02*
X0066272Y0145169D01*
X0074482Y0140374D02*
X0055555Y0140374D01*
X0055679Y0140283D02*
X0055036Y0140751D01*
X0054328Y0141111D01*
X0053573Y0141357D01*
X0052788Y0141481D01*
X0052673Y0141481D01*
X0052673Y0136716D01*
X0057439Y0136716D01*
X0057439Y0136830D01*
X0057314Y0137615D01*
X0057069Y0138371D01*
X0056708Y0139079D01*
X0056241Y0139722D01*
X0055679Y0140283D01*
X0056863Y0138775D02*
X0073054Y0138775D01*
X0072467Y0137177D02*
X0057384Y0137177D01*
X0057366Y0135578D02*
X0072467Y0135578D01*
X0073100Y0133979D02*
X0056806Y0133979D01*
X0055402Y0132381D02*
X0074752Y0132381D01*
X0056222Y0122790D02*
X0029666Y0122790D01*
X0030834Y0121191D02*
X0057402Y0121191D01*
X0052673Y0132381D02*
X0052108Y0132381D01*
X0052108Y0133979D02*
X0052673Y0133979D01*
X0052673Y0135578D02*
X0052108Y0135578D01*
X0052108Y0137177D02*
X0052673Y0137177D01*
X0052673Y0138775D02*
X0052108Y0138775D01*
X0052108Y0140374D02*
X0052673Y0140374D01*
X0043212Y0140373D02*
X0041504Y0141081D01*
X0039655Y0141081D01*
X0037947Y0140373D01*
X0022027Y0143571D02*
X0004100Y0143571D01*
X0004100Y0141972D02*
X0020317Y0141972D01*
X0019203Y0140374D02*
X0009748Y0140374D01*
X0011176Y0138775D02*
X0018541Y0138775D01*
X0018305Y0137177D02*
X0011763Y0137177D01*
X0011763Y0135578D02*
X0018314Y0135578D01*
X0018587Y0133979D02*
X0011130Y0133979D01*
X0009478Y0132381D02*
X0019249Y0132381D01*
X0020412Y0130782D02*
X0004100Y0130782D01*
X0004100Y0129184D02*
X0022310Y0129184D01*
X0004752Y0132381D02*
X0004100Y0132381D01*
X0004100Y0140374D02*
X0004482Y0140374D01*
X0019342Y0162753D02*
X0065840Y0162753D01*
X0064843Y0164351D02*
X0020700Y0164351D01*
X0021200Y0165950D02*
X0063606Y0165950D01*
X0062008Y0167548D02*
X0021101Y0167548D01*
X0020309Y0169147D02*
X0038026Y0169147D01*
X0036311Y0170745D02*
X0017887Y0170745D01*
X0018425Y0172344D02*
X0025175Y0172344D01*
X0023069Y0173942D02*
X0020531Y0173942D01*
X0021193Y0175541D02*
X0022407Y0175541D01*
X0022400Y0177139D02*
X0021200Y0177139D01*
X0020608Y0178738D02*
X0022992Y0178738D01*
X0024726Y0180336D02*
X0018874Y0180336D01*
X0020123Y0183533D02*
X0023523Y0183533D01*
X0025121Y0181935D02*
X0004100Y0181935D01*
X0006600Y0189927D02*
X0007000Y0189927D01*
X0007000Y0191526D02*
X0006600Y0191526D01*
X0006600Y0193124D02*
X0007000Y0193124D01*
X0007000Y0194723D02*
X0006600Y0194723D01*
X0011600Y0197920D02*
X0012400Y0197920D01*
X0012400Y0199518D02*
X0011600Y0199518D01*
X0011300Y0201117D02*
X0012735Y0201117D01*
X0013860Y0202715D02*
X0010306Y0202715D01*
X0020346Y0209110D02*
X0020800Y0209110D01*
X0022398Y0210708D02*
X0017977Y0210708D01*
X0018335Y0212307D02*
X0023997Y0212307D01*
X0025595Y0213905D02*
X0020495Y0213905D01*
X0021177Y0215504D02*
X0027194Y0215504D01*
X0028792Y0217102D02*
X0021200Y0217102D01*
X0020623Y0218701D02*
X0030391Y0218701D01*
X0031989Y0220299D02*
X0018964Y0220299D01*
X0020086Y0223496D02*
X0035186Y0223496D01*
X0033588Y0221898D02*
X0004100Y0221898D01*
X0004100Y0220299D02*
X0004636Y0220299D01*
X0004100Y0212307D02*
X0005265Y0212307D01*
X0024956Y0205912D02*
X0038386Y0205912D01*
X0037943Y0206356D02*
X0039223Y0205076D01*
X0040895Y0204383D01*
X0042705Y0204383D01*
X0044377Y0205076D01*
X0045657Y0206356D01*
X0046350Y0208028D01*
X0046350Y0209838D01*
X0045657Y0211510D01*
X0044377Y0212790D01*
X0042705Y0213483D01*
X0040895Y0213483D01*
X0039223Y0212790D01*
X0037943Y0211510D01*
X0037250Y0209838D01*
X0037250Y0208028D01*
X0037943Y0206356D01*
X0037464Y0207511D02*
X0026555Y0207511D01*
X0028153Y0209110D02*
X0037250Y0209110D01*
X0037610Y0210708D02*
X0029752Y0210708D01*
X0031350Y0212307D02*
X0038739Y0212307D01*
X0032949Y0213905D02*
X0110651Y0213905D01*
X0109053Y0215504D02*
X0034547Y0215504D01*
X0044861Y0212307D02*
X0048173Y0212307D01*
X0046850Y0210708D02*
X0045990Y0210708D01*
X0046350Y0209110D02*
X0046850Y0209110D01*
X0046850Y0207511D02*
X0046136Y0207511D01*
X0045214Y0205912D02*
X0047820Y0205912D01*
X0049419Y0204314D02*
X0024400Y0204314D01*
X0031200Y0193124D02*
X0063949Y0193124D01*
X0063519Y0191526D02*
X0030773Y0191526D01*
X0029517Y0189927D02*
X0063872Y0189927D01*
X0065720Y0188329D02*
X0054405Y0188329D01*
X0053850Y0188883D02*
X0051800Y0188883D01*
X0051800Y0183933D01*
X0051800Y0178983D01*
X0053850Y0178983D01*
X0056750Y0181883D01*
X0056750Y0183933D01*
X0051800Y0183933D01*
X0051800Y0183933D01*
X0051800Y0178983D01*
X0049750Y0178983D01*
X0046850Y0181883D01*
X0046850Y0183933D01*
X0051800Y0183933D01*
X0051800Y0183933D01*
X0051800Y0183933D01*
X0056750Y0183933D01*
X0056750Y0185983D01*
X0053850Y0188883D01*
X0051800Y0188883D02*
X0049750Y0188883D01*
X0046850Y0185983D01*
X0046850Y0183933D01*
X0051800Y0183933D01*
X0051800Y0183933D01*
X0051800Y0188883D01*
X0051800Y0188329D02*
X0051800Y0188329D01*
X0051800Y0186730D02*
X0051800Y0186730D01*
X0051800Y0185132D02*
X0051800Y0185132D01*
X0051800Y0183533D02*
X0051800Y0183533D01*
X0051800Y0181935D02*
X0051800Y0181935D01*
X0051800Y0180336D02*
X0051800Y0180336D01*
X0055204Y0180336D02*
X0112026Y0180336D01*
X0110428Y0178738D02*
X0035672Y0178738D01*
X0034074Y0180336D02*
X0038962Y0180336D01*
X0039223Y0180076D02*
X0040895Y0179383D01*
X0042705Y0179383D01*
X0044377Y0180076D01*
X0045657Y0181356D01*
X0046350Y0183028D01*
X0046350Y0184838D01*
X0045657Y0186510D01*
X0044377Y0187790D01*
X0042705Y0188483D01*
X0040895Y0188483D01*
X0039223Y0187790D01*
X0037943Y0186510D01*
X0037250Y0184838D01*
X0037250Y0183028D01*
X0037943Y0181356D01*
X0039223Y0180076D01*
X0037703Y0181935D02*
X0032475Y0181935D01*
X0030877Y0183533D02*
X0037250Y0183533D01*
X0037372Y0185132D02*
X0029278Y0185132D01*
X0027680Y0186730D02*
X0038163Y0186730D01*
X0040523Y0188329D02*
X0026081Y0188329D01*
X0021924Y0185132D02*
X0021024Y0185132D01*
X0031193Y0175541D02*
X0031515Y0175541D01*
X0030531Y0173942D02*
X0033114Y0173942D01*
X0034712Y0172344D02*
X0028425Y0172344D01*
X0037271Y0177139D02*
X0083467Y0177139D01*
X0085133Y0177139D02*
X0108829Y0177139D01*
X0114441Y0169147D02*
X0114900Y0169147D01*
X0114900Y0167548D02*
X0112842Y0167548D01*
X0114900Y0165950D02*
X0084421Y0165950D01*
X0081679Y0165950D02*
X0071284Y0165950D01*
X0071257Y0164351D02*
X0114900Y0164351D01*
X0114900Y0162753D02*
X0070260Y0162753D01*
X0070325Y0167548D02*
X0080072Y0167548D01*
X0079769Y0169147D02*
X0067763Y0169147D01*
X0066165Y0170745D02*
X0080249Y0170745D01*
X0081407Y0172344D02*
X0064566Y0172344D01*
X0062536Y0173942D02*
X0081019Y0173942D01*
X0081415Y0175541D02*
X0038869Y0175541D01*
X0044638Y0180336D02*
X0048396Y0180336D01*
X0046850Y0181935D02*
X0045897Y0181935D01*
X0046350Y0183533D02*
X0046850Y0183533D01*
X0046850Y0185132D02*
X0046228Y0185132D01*
X0045437Y0186730D02*
X0047597Y0186730D01*
X0049195Y0188329D02*
X0043077Y0188329D01*
X0056003Y0186730D02*
X0067826Y0186730D01*
X0069424Y0185132D02*
X0056750Y0185132D01*
X0056750Y0183533D02*
X0071023Y0183533D01*
X0072621Y0181935D02*
X0056750Y0181935D01*
X0075180Y0186730D02*
X0099979Y0186730D01*
X0139300Y0168933D02*
X0139300Y0166433D01*
X0141287Y0180336D02*
X0181556Y0180336D01*
X0194116Y0188329D02*
X0194484Y0188329D01*
X0194484Y0189927D02*
X0194116Y0189927D01*
X0198018Y0189927D02*
X0203572Y0189927D01*
X0202323Y0188329D02*
X0199400Y0188329D01*
X0199400Y0186730D02*
X0201900Y0186730D01*
X0202076Y0185132D02*
X0199400Y0185132D01*
X0198613Y0183533D02*
X0202977Y0183533D01*
X0205176Y0191751D02*
X0205922Y0191633D01*
X0209100Y0191633D01*
X0209100Y0196233D01*
X0209500Y0196233D01*
X0209500Y0196633D01*
X0217100Y0196633D01*
X0217100Y0196811D01*
X0216982Y0197557D01*
X0216748Y0198276D01*
X0216405Y0198949D01*
X0215961Y0199560D01*
X0215427Y0200094D01*
X0214816Y0200538D01*
X0214143Y0200881D01*
X0213424Y0201115D01*
X0212678Y0201233D01*
X0209500Y0201233D01*
X0209500Y0196633D01*
X0209100Y0196633D01*
X0209100Y0196233D01*
X0201500Y0196233D01*
X0201500Y0196055D01*
X0201618Y0195309D01*
X0201852Y0194591D01*
X0202195Y0193917D01*
X0202639Y0193306D01*
X0203173Y0192772D01*
X0203784Y0192328D01*
X0204457Y0191985D01*
X0205176Y0191751D01*
X0202820Y0193124D02*
X0198204Y0193124D01*
X0199400Y0194723D02*
X0201809Y0194723D01*
X0201500Y0196633D02*
X0209100Y0196633D01*
X0209100Y0201233D01*
X0205922Y0201233D01*
X0205176Y0201115D01*
X0204457Y0200881D01*
X0203784Y0200538D01*
X0203173Y0200094D01*
X0202639Y0199560D01*
X0202195Y0198949D01*
X0201852Y0198276D01*
X0201618Y0197557D01*
X0201500Y0196811D01*
X0201500Y0196633D01*
X0201736Y0197920D02*
X0199400Y0197920D01*
X0198427Y0199518D02*
X0202609Y0199518D01*
X0205189Y0201117D02*
X0196829Y0201117D01*
X0197795Y0202715D02*
X0203795Y0202715D01*
X0203808Y0202703D02*
X0205425Y0202033D01*
X0213175Y0202033D01*
X0214792Y0202703D01*
X0216030Y0203941D01*
X0216700Y0205558D01*
X0216700Y0207308D01*
X0216030Y0208925D01*
X0214792Y0210163D01*
X0213175Y0210833D01*
X0205425Y0210833D01*
X0203808Y0210163D01*
X0202570Y0208925D01*
X0201900Y0207308D01*
X0201900Y0205558D01*
X0202570Y0203941D01*
X0203808Y0202703D01*
X0202415Y0204314D02*
X0199393Y0204314D01*
X0199400Y0205912D02*
X0201900Y0205912D01*
X0201984Y0207511D02*
X0199400Y0207511D01*
X0198836Y0209110D02*
X0202754Y0209110D01*
X0205123Y0210708D02*
X0197238Y0210708D01*
X0196247Y0211733D02*
X0199000Y0214486D01*
X0199000Y0218380D01*
X0196247Y0221133D01*
X0192353Y0221133D01*
X0189600Y0218380D01*
X0189600Y0214486D01*
X0192353Y0211733D01*
X0196247Y0211733D01*
X0196820Y0212307D02*
X0226239Y0212307D01*
X0226723Y0212790D02*
X0225443Y0211510D01*
X0224750Y0209838D01*
X0224750Y0208028D01*
X0225443Y0206356D01*
X0226723Y0205076D01*
X0228395Y0204383D01*
X0230205Y0204383D01*
X0231877Y0205076D01*
X0233157Y0206356D01*
X0233850Y0208028D01*
X0233850Y0209838D01*
X0233157Y0211510D01*
X0231877Y0212790D01*
X0230205Y0213483D01*
X0228395Y0213483D01*
X0226723Y0212790D01*
X0225110Y0210708D02*
X0213477Y0210708D01*
X0215846Y0209110D02*
X0224750Y0209110D01*
X0224964Y0207511D02*
X0216616Y0207511D01*
X0216700Y0205912D02*
X0225886Y0205912D01*
X0232714Y0205912D02*
X0235320Y0205912D01*
X0234350Y0206883D02*
X0237250Y0203983D01*
X0239300Y0203983D01*
X0241350Y0203983D01*
X0244250Y0206883D01*
X0244250Y0208933D01*
X0239300Y0208933D01*
X0239300Y0203983D01*
X0239300Y0208933D01*
X0239300Y0208933D01*
X0239300Y0208933D01*
X0234350Y0208933D01*
X0234350Y0206883D01*
X0234350Y0207511D02*
X0233636Y0207511D01*
X0234350Y0208933D02*
X0239300Y0208933D01*
X0239300Y0208933D01*
X0244250Y0208933D01*
X0244250Y0210983D01*
X0241350Y0213883D01*
X0239300Y0213883D01*
X0239300Y0208933D01*
X0239300Y0208933D01*
X0239300Y0213883D01*
X0237250Y0213883D01*
X0234350Y0210983D01*
X0234350Y0208933D01*
X0234350Y0209110D02*
X0233850Y0209110D01*
X0233490Y0210708D02*
X0234350Y0210708D01*
X0235673Y0212307D02*
X0232361Y0212307D01*
X0239300Y0212307D02*
X0239300Y0212307D01*
X0239300Y0210708D02*
X0239300Y0210708D01*
X0239300Y0209110D02*
X0239300Y0209110D01*
X0239300Y0207511D02*
X0239300Y0207511D01*
X0239300Y0205912D02*
X0239300Y0205912D01*
X0239300Y0204314D02*
X0239300Y0204314D01*
X0241681Y0204314D02*
X0276004Y0204314D01*
X0277602Y0205912D02*
X0243280Y0205912D01*
X0244250Y0207511D02*
X0279201Y0207511D01*
X0280799Y0209110D02*
X0261617Y0209110D01*
X0262551Y0210708D02*
X0282398Y0210708D01*
X0283997Y0212307D02*
X0262490Y0212307D01*
X0261900Y0213905D02*
X0284200Y0213905D01*
X0283634Y0215504D02*
X0261900Y0215504D01*
X0261900Y0217102D02*
X0283526Y0217102D01*
X0284427Y0218701D02*
X0261900Y0218701D01*
X0262389Y0220299D02*
X0266211Y0220299D01*
X0265173Y0221898D02*
X0263427Y0221898D01*
X0263700Y0223496D02*
X0264900Y0223496D01*
X0264900Y0225095D02*
X0263700Y0225095D01*
X0263700Y0226693D02*
X0264900Y0226693D01*
X0264900Y0228292D02*
X0263700Y0228292D01*
X0263700Y0229890D02*
X0264900Y0229890D01*
X0265389Y0231489D02*
X0263211Y0231489D01*
X0255389Y0231489D02*
X0143211Y0231489D01*
X0143700Y0229890D02*
X0254900Y0229890D01*
X0254900Y0228292D02*
X0143700Y0228292D01*
X0151180Y0226693D02*
X0157420Y0226693D01*
X0161180Y0226693D02*
X0254900Y0226693D01*
X0254900Y0225095D02*
X0162370Y0225095D01*
X0162581Y0223496D02*
X0254900Y0223496D01*
X0255173Y0221898D02*
X0161905Y0221898D01*
X0161484Y0210708D02*
X0056750Y0210708D01*
X0056750Y0209110D02*
X0161019Y0209110D01*
X0139300Y0221433D02*
X0136800Y0218933D01*
X0115550Y0218933D01*
X0105550Y0228933D01*
X0086800Y0228933D01*
X0089200Y0226693D02*
X0104679Y0226693D01*
X0106277Y0225095D02*
X0021008Y0225095D01*
X0021200Y0226693D02*
X0084400Y0226693D01*
X0187081Y0220299D02*
X0191519Y0220299D01*
X0189921Y0218701D02*
X0188679Y0218701D01*
X0189000Y0217102D02*
X0189600Y0217102D01*
X0189600Y0215504D02*
X0189000Y0215504D01*
X0188419Y0213905D02*
X0190181Y0213905D01*
X0191780Y0212307D02*
X0186820Y0212307D01*
X0187238Y0210708D02*
X0191362Y0210708D01*
X0189764Y0209110D02*
X0188836Y0209110D01*
X0194116Y0209110D02*
X0194484Y0209110D01*
X0194484Y0210708D02*
X0194116Y0210708D01*
X0198419Y0213905D02*
X0256700Y0213905D01*
X0256700Y0215504D02*
X0199000Y0215504D01*
X0199000Y0217102D02*
X0256700Y0217102D01*
X0256700Y0218701D02*
X0198679Y0218701D01*
X0197081Y0220299D02*
X0256211Y0220299D01*
X0256110Y0212307D02*
X0242927Y0212307D01*
X0244250Y0210708D02*
X0256049Y0210708D01*
X0256983Y0209110D02*
X0244250Y0209110D01*
X0236919Y0204314D02*
X0216185Y0204314D01*
X0214805Y0202715D02*
X0274405Y0202715D01*
X0272807Y0201117D02*
X0213411Y0201117D01*
X0215991Y0199518D02*
X0270675Y0199518D01*
X0268864Y0197920D02*
X0216864Y0197920D01*
X0216791Y0194723D02*
X0268957Y0194723D01*
X0268519Y0196321D02*
X0209500Y0196321D01*
X0209100Y0196321D02*
X0194484Y0196321D01*
X0194484Y0197920D02*
X0194116Y0197920D01*
X0194116Y0199518D02*
X0194484Y0199518D01*
X0194484Y0201117D02*
X0194116Y0201117D01*
X0194116Y0202715D02*
X0194484Y0202715D01*
X0194484Y0204314D02*
X0194116Y0204314D01*
X0194116Y0205912D02*
X0194484Y0205912D01*
X0194484Y0207511D02*
X0194116Y0207511D01*
X0209100Y0201117D02*
X0209500Y0201117D01*
X0209500Y0199518D02*
X0209100Y0199518D01*
X0209100Y0197920D02*
X0209500Y0197920D01*
X0209500Y0194723D02*
X0209100Y0194723D01*
X0209100Y0193124D02*
X0209500Y0193124D01*
X0242704Y0180336D02*
X0283703Y0180336D01*
X0283030Y0178738D02*
X0284855Y0178738D01*
X0284771Y0177139D02*
X0303992Y0177139D01*
X0304018Y0177074D02*
X0304941Y0176151D01*
X0306147Y0175652D01*
X0307453Y0175652D01*
X0308659Y0176151D01*
X0309582Y0177074D01*
X0310081Y0178280D01*
X0310081Y0178537D01*
X0322196Y0190652D01*
X0322453Y0190652D01*
X0323659Y0191151D01*
X0324582Y0192074D01*
X0325081Y0193280D01*
X0325081Y0194586D01*
X0324582Y0195792D01*
X0323659Y0196715D01*
X0322453Y0197214D01*
X0321147Y0197214D01*
X0319941Y0196715D01*
X0319018Y0195792D01*
X0318519Y0194586D01*
X0318519Y0194329D01*
X0306404Y0182214D01*
X0306147Y0182214D01*
X0304941Y0181715D01*
X0304018Y0180792D01*
X0303519Y0179586D01*
X0303519Y0178280D01*
X0304018Y0177074D01*
X0303519Y0178738D02*
X0288745Y0178738D01*
X0289897Y0180336D02*
X0303830Y0180336D01*
X0305473Y0181935D02*
X0290081Y0181935D01*
X0289340Y0183533D02*
X0307723Y0183533D01*
X0309322Y0185132D02*
X0286778Y0185132D01*
X0285180Y0186730D02*
X0310920Y0186730D01*
X0312519Y0188329D02*
X0283581Y0188329D01*
X0281983Y0189927D02*
X0314117Y0189927D01*
X0315716Y0191526D02*
X0280384Y0191526D01*
X0278786Y0193124D02*
X0317314Y0193124D01*
X0318576Y0194723D02*
X0277187Y0194723D01*
X0275589Y0196321D02*
X0319548Y0196321D01*
X0324052Y0196321D02*
X0369100Y0196321D01*
X0369100Y0196233D02*
X0364500Y0196233D01*
X0364500Y0193055D01*
X0364618Y0192309D01*
X0364852Y0191591D01*
X0365195Y0190917D01*
X0365639Y0190306D01*
X0366173Y0189772D01*
X0366784Y0189328D01*
X0367457Y0188985D01*
X0368176Y0188751D01*
X0368922Y0188633D01*
X0369100Y0188633D01*
X0369100Y0196233D01*
X0369500Y0196233D01*
X0369500Y0188633D01*
X0369678Y0188633D01*
X0370424Y0188751D01*
X0371143Y0188985D01*
X0371816Y0189328D01*
X0372427Y0189772D01*
X0372961Y0190306D01*
X0373405Y0190917D01*
X0373748Y0191591D01*
X0373982Y0192309D01*
X0374100Y0193055D01*
X0374100Y0196233D01*
X0369500Y0196233D01*
X0369500Y0196633D01*
X0374100Y0196633D01*
X0374100Y0199811D01*
X0373982Y0200557D01*
X0373748Y0201276D01*
X0373405Y0201949D01*
X0372961Y0202560D01*
X0372427Y0203094D01*
X0371816Y0203538D01*
X0371143Y0203881D01*
X0370424Y0204115D01*
X0369678Y0204233D01*
X0369500Y0204233D01*
X0369500Y0196633D01*
X0369100Y0196633D01*
X0369100Y0196233D01*
X0369100Y0196633D02*
X0364500Y0196633D01*
X0364500Y0199811D01*
X0364618Y0200557D01*
X0364852Y0201276D01*
X0365195Y0201949D01*
X0365639Y0202560D01*
X0366173Y0203094D01*
X0366784Y0203538D01*
X0367457Y0203881D01*
X0368176Y0204115D01*
X0368922Y0204233D01*
X0369100Y0204233D01*
X0369100Y0196633D01*
X0369500Y0196321D02*
X0379100Y0196321D01*
X0379100Y0196233D02*
X0374500Y0196233D01*
X0374500Y0193055D01*
X0374618Y0192309D01*
X0374852Y0191591D01*
X0375195Y0190917D01*
X0375411Y0190620D01*
X0374308Y0190163D01*
X0373070Y0188925D01*
X0372400Y0187308D01*
X0372400Y0185558D01*
X0373070Y0183941D01*
X0374308Y0182703D01*
X0375925Y0182033D01*
X0377675Y0182033D01*
X0379292Y0182703D01*
X0380530Y0183941D01*
X0381200Y0185558D01*
X0381200Y0187308D01*
X0380581Y0188802D01*
X0381143Y0188985D01*
X0381816Y0189328D01*
X0382427Y0189772D01*
X0382961Y0190306D01*
X0383405Y0190917D01*
X0383748Y0191591D01*
X0383982Y0192309D01*
X0384100Y0193055D01*
X0384100Y0196233D01*
X0379500Y0196233D01*
X0379500Y0196633D01*
X0384100Y0196633D01*
X0384100Y0199811D01*
X0383982Y0200557D01*
X0383748Y0201276D01*
X0383405Y0201949D01*
X0382961Y0202560D01*
X0382427Y0203094D01*
X0381816Y0203538D01*
X0381143Y0203881D01*
X0380581Y0204064D01*
X0381200Y0205558D01*
X0381200Y0207308D01*
X0380530Y0208925D01*
X0379292Y0210163D01*
X0377675Y0210833D01*
X0375925Y0210833D01*
X0374308Y0210163D01*
X0373070Y0208925D01*
X0372400Y0207308D01*
X0372400Y0205558D01*
X0373070Y0203941D01*
X0374308Y0202703D01*
X0375411Y0202246D01*
X0375195Y0201949D01*
X0374852Y0201276D01*
X0374618Y0200557D01*
X0374500Y0199811D01*
X0374500Y0196633D01*
X0379100Y0196633D01*
X0379100Y0196233D01*
X0379500Y0196321D02*
X0389100Y0196321D01*
X0389100Y0194723D02*
X0389500Y0194723D01*
X0389500Y0193124D02*
X0389100Y0193124D01*
X0389100Y0191526D02*
X0389500Y0191526D01*
X0389500Y0189927D02*
X0389100Y0189927D01*
X0386017Y0189927D02*
X0382583Y0189927D01*
X0383715Y0191526D02*
X0384885Y0191526D01*
X0384500Y0193124D02*
X0384100Y0193124D01*
X0384100Y0194723D02*
X0384500Y0194723D01*
X0384500Y0197920D02*
X0384100Y0197920D01*
X0384100Y0199518D02*
X0384500Y0199518D01*
X0384800Y0201117D02*
X0383800Y0201117D01*
X0382806Y0202715D02*
X0385794Y0202715D01*
X0389100Y0202715D02*
X0389500Y0202715D01*
X0389500Y0201117D02*
X0389100Y0201117D01*
X0389100Y0199518D02*
X0389500Y0199518D01*
X0389500Y0197920D02*
X0389100Y0197920D01*
X0392000Y0204314D02*
X0380685Y0204314D01*
X0381200Y0205912D02*
X0392000Y0205912D01*
X0392000Y0207511D02*
X0381116Y0207511D01*
X0380346Y0209110D02*
X0392000Y0209110D01*
X0392000Y0210708D02*
X0377977Y0210708D01*
X0377675Y0212033D02*
X0379292Y0212703D01*
X0380530Y0213941D01*
X0381200Y0215558D01*
X0381200Y0217308D01*
X0380530Y0218925D01*
X0379292Y0220163D01*
X0377675Y0220833D01*
X0375925Y0220833D01*
X0374308Y0220163D01*
X0373070Y0218925D01*
X0372400Y0217308D01*
X0372400Y0215558D01*
X0373070Y0213941D01*
X0374308Y0212703D01*
X0375925Y0212033D01*
X0377675Y0212033D01*
X0378335Y0212307D02*
X0392000Y0212307D01*
X0392000Y0213905D02*
X0380495Y0213905D01*
X0381177Y0215504D02*
X0392000Y0215504D01*
X0392000Y0217102D02*
X0381200Y0217102D01*
X0380623Y0218701D02*
X0392000Y0218701D01*
X0392000Y0220299D02*
X0378964Y0220299D01*
X0377675Y0222033D02*
X0379292Y0222703D01*
X0380530Y0223941D01*
X0381200Y0225558D01*
X0381200Y0227308D01*
X0380530Y0228925D01*
X0379292Y0230163D01*
X0377675Y0230833D01*
X0375925Y0230833D01*
X0374308Y0230163D01*
X0373070Y0228925D01*
X0372400Y0227308D01*
X0372400Y0225558D01*
X0373070Y0223941D01*
X0374308Y0222703D01*
X0375925Y0222033D01*
X0377675Y0222033D01*
X0380086Y0223496D02*
X0392000Y0223496D01*
X0392000Y0221898D02*
X0343831Y0221898D01*
X0343831Y0222086D02*
X0343332Y0223292D01*
X0342409Y0224215D01*
X0341203Y0224714D01*
X0339897Y0224714D01*
X0338691Y0224215D01*
X0338510Y0224033D01*
X0310090Y0224033D01*
X0309909Y0224215D01*
X0308703Y0224714D01*
X0307397Y0224714D01*
X0306191Y0224215D01*
X0305268Y0223292D01*
X0304769Y0222086D01*
X0304769Y0220780D01*
X0305268Y0219574D01*
X0306191Y0218651D01*
X0307021Y0218308D01*
X0306191Y0217965D01*
X0305268Y0217042D01*
X0304769Y0215836D01*
X0304769Y0214530D01*
X0305268Y0213324D01*
X0306191Y0212401D01*
X0307397Y0211902D01*
X0308703Y0211902D01*
X0309909Y0212401D01*
X0310090Y0212583D01*
X0329473Y0212583D01*
X0331019Y0211037D01*
X0331019Y0210780D01*
X0331518Y0209574D01*
X0332441Y0208651D01*
X0333647Y0208152D01*
X0334953Y0208152D01*
X0336159Y0208651D01*
X0337082Y0209574D01*
X0337581Y0210780D01*
X0337581Y0212086D01*
X0337082Y0213292D01*
X0336159Y0214215D01*
X0334953Y0214714D01*
X0334696Y0214714D01*
X0332023Y0217387D01*
X0331067Y0217783D01*
X0310090Y0217783D01*
X0309909Y0217965D01*
X0309079Y0218308D01*
X0309909Y0218651D01*
X0310090Y0218833D01*
X0338510Y0218833D01*
X0338691Y0218651D01*
X0339897Y0218152D01*
X0341203Y0218152D01*
X0342409Y0218651D01*
X0343332Y0219574D01*
X0343831Y0220780D01*
X0343831Y0222086D01*
X0343127Y0223496D02*
X0373514Y0223496D01*
X0372592Y0225095D02*
X0283700Y0225095D01*
X0283700Y0223496D02*
X0305473Y0223496D01*
X0304769Y0221898D02*
X0283427Y0221898D01*
X0282389Y0220299D02*
X0304968Y0220299D01*
X0306142Y0218701D02*
X0289173Y0218701D01*
X0290074Y0217102D02*
X0305329Y0217102D01*
X0304769Y0215504D02*
X0289966Y0215504D01*
X0289400Y0213905D02*
X0305028Y0213905D01*
X0306421Y0212307D02*
X0289400Y0212307D01*
X0289314Y0210708D02*
X0331049Y0210708D01*
X0331983Y0209110D02*
X0288153Y0209110D01*
X0286555Y0207511D02*
X0339350Y0207511D01*
X0339350Y0206883D02*
X0342250Y0203983D01*
X0344300Y0203983D01*
X0346350Y0203983D01*
X0349250Y0206883D01*
X0349250Y0208933D01*
X0344300Y0208933D01*
X0344300Y0203983D01*
X0344300Y0208933D01*
X0344300Y0208933D01*
X0344300Y0208933D01*
X0339350Y0208933D01*
X0339350Y0206883D01*
X0340320Y0205912D02*
X0284956Y0205912D01*
X0283358Y0204314D02*
X0341919Y0204314D01*
X0344300Y0204314D02*
X0344300Y0204314D01*
X0344300Y0205912D02*
X0344300Y0205912D01*
X0344300Y0207511D02*
X0344300Y0207511D01*
X0344300Y0208933D02*
X0344300Y0208933D01*
X0349250Y0208933D01*
X0349250Y0210983D01*
X0346350Y0213883D01*
X0344300Y0213883D01*
X0344300Y0208933D01*
X0339350Y0208933D01*
X0339350Y0210983D01*
X0342250Y0213883D01*
X0344300Y0213883D01*
X0344300Y0208933D01*
X0344300Y0208933D01*
X0344300Y0209110D02*
X0344300Y0209110D01*
X0344300Y0210708D02*
X0344300Y0210708D01*
X0344300Y0212307D02*
X0344300Y0212307D01*
X0347927Y0212307D02*
X0351239Y0212307D01*
X0351723Y0212790D02*
X0350443Y0211510D01*
X0349750Y0209838D01*
X0349750Y0208028D01*
X0350443Y0206356D01*
X0351723Y0205076D01*
X0353395Y0204383D01*
X0355205Y0204383D01*
X0356877Y0205076D01*
X0358157Y0206356D01*
X0358850Y0208028D01*
X0358850Y0209838D01*
X0358157Y0211510D01*
X0356877Y0212790D01*
X0355205Y0213483D01*
X0353395Y0213483D01*
X0351723Y0212790D01*
X0350110Y0210708D02*
X0349250Y0210708D01*
X0349250Y0209110D02*
X0349750Y0209110D01*
X0349964Y0207511D02*
X0349250Y0207511D01*
X0348280Y0205912D02*
X0350886Y0205912D01*
X0357714Y0205912D02*
X0372400Y0205912D01*
X0372484Y0207511D02*
X0358636Y0207511D01*
X0358850Y0209110D02*
X0373254Y0209110D01*
X0375623Y0210708D02*
X0358490Y0210708D01*
X0357361Y0212307D02*
X0365265Y0212307D01*
X0365925Y0212033D02*
X0367675Y0212033D01*
X0369292Y0212703D01*
X0370530Y0213941D01*
X0371200Y0215558D01*
X0371200Y0217308D01*
X0370530Y0218925D01*
X0369292Y0220163D01*
X0367675Y0220833D01*
X0365925Y0220833D01*
X0364308Y0220163D01*
X0363070Y0218925D01*
X0362400Y0217308D01*
X0362400Y0215558D01*
X0363070Y0213941D01*
X0364308Y0212703D01*
X0365925Y0212033D01*
X0368335Y0212307D02*
X0375265Y0212307D01*
X0373105Y0213905D02*
X0370495Y0213905D01*
X0371177Y0215504D02*
X0372422Y0215504D01*
X0372400Y0217102D02*
X0371200Y0217102D01*
X0370623Y0218701D02*
X0372977Y0218701D01*
X0374636Y0220299D02*
X0368964Y0220299D01*
X0364636Y0220299D02*
X0343632Y0220299D01*
X0342458Y0218701D02*
X0362977Y0218701D01*
X0362400Y0217102D02*
X0332308Y0217102D01*
X0333906Y0215504D02*
X0362422Y0215504D01*
X0363105Y0213905D02*
X0336468Y0213905D01*
X0337490Y0212307D02*
X0340673Y0212307D01*
X0339350Y0210708D02*
X0337551Y0210708D01*
X0336617Y0209110D02*
X0339350Y0209110D01*
X0346681Y0204314D02*
X0372915Y0204314D01*
X0372806Y0202715D02*
X0374295Y0202715D01*
X0373800Y0201117D02*
X0374800Y0201117D01*
X0374500Y0199518D02*
X0374100Y0199518D01*
X0374100Y0197920D02*
X0374500Y0197920D01*
X0374500Y0194723D02*
X0374100Y0194723D01*
X0374100Y0193124D02*
X0374500Y0193124D01*
X0374885Y0191526D02*
X0373715Y0191526D01*
X0374072Y0189927D02*
X0372583Y0189927D01*
X0372823Y0188329D02*
X0355577Y0188329D01*
X0355205Y0188483D02*
X0353395Y0188483D01*
X0351723Y0187790D01*
X0350443Y0186510D01*
X0349750Y0184838D01*
X0349750Y0183028D01*
X0350443Y0181356D01*
X0351723Y0180076D01*
X0353395Y0179383D01*
X0355205Y0179383D01*
X0356877Y0180076D01*
X0358157Y0181356D01*
X0358850Y0183028D01*
X0358850Y0184838D01*
X0358157Y0186510D01*
X0356877Y0187790D01*
X0355205Y0188483D01*
X0353023Y0188329D02*
X0346905Y0188329D01*
X0346350Y0188883D02*
X0349250Y0185983D01*
X0349250Y0183933D01*
X0344300Y0183933D01*
X0344300Y0178983D01*
X0346350Y0178983D01*
X0349250Y0181883D01*
X0349250Y0183933D01*
X0344300Y0183933D01*
X0344300Y0183933D01*
X0344300Y0178983D01*
X0342250Y0178983D01*
X0339350Y0181883D01*
X0339350Y0183933D01*
X0344300Y0183933D01*
X0344300Y0183933D01*
X0344300Y0183933D01*
X0339350Y0183933D01*
X0339350Y0185983D01*
X0342250Y0188883D01*
X0344300Y0188883D01*
X0346350Y0188883D01*
X0344300Y0188883D02*
X0344300Y0183933D01*
X0344300Y0183933D01*
X0344300Y0188883D01*
X0344300Y0188329D02*
X0344300Y0188329D01*
X0344300Y0186730D02*
X0344300Y0186730D01*
X0344300Y0185132D02*
X0344300Y0185132D01*
X0344300Y0183533D02*
X0344300Y0183533D01*
X0344300Y0181935D02*
X0344300Y0181935D01*
X0344300Y0180336D02*
X0344300Y0180336D01*
X0347704Y0180336D02*
X0351462Y0180336D01*
X0350203Y0181935D02*
X0349250Y0181935D01*
X0349250Y0183533D02*
X0349750Y0183533D01*
X0349872Y0185132D02*
X0349250Y0185132D01*
X0348503Y0186730D02*
X0350663Y0186730D01*
X0357937Y0186730D02*
X0372400Y0186730D01*
X0372576Y0185132D02*
X0358728Y0185132D01*
X0358850Y0183533D02*
X0373477Y0183533D01*
X0374726Y0180336D02*
X0357138Y0180336D01*
X0358397Y0181935D02*
X0392000Y0181935D01*
X0392000Y0183533D02*
X0380123Y0183533D01*
X0381024Y0185132D02*
X0392000Y0185132D01*
X0392000Y0186730D02*
X0381200Y0186730D01*
X0380777Y0188329D02*
X0392000Y0188329D01*
X0392000Y0180336D02*
X0388874Y0180336D01*
X0389292Y0180163D02*
X0387675Y0180833D01*
X0385925Y0180833D01*
X0384308Y0180163D01*
X0383070Y0178925D01*
X0382400Y0177308D01*
X0382400Y0175558D01*
X0383070Y0173941D01*
X0384308Y0172703D01*
X0385925Y0172033D01*
X0387675Y0172033D01*
X0389292Y0172703D01*
X0390530Y0173941D01*
X0391200Y0175558D01*
X0391200Y0177308D01*
X0390530Y0178925D01*
X0389292Y0180163D01*
X0390608Y0178738D02*
X0392000Y0178738D01*
X0392000Y0177139D02*
X0391200Y0177139D01*
X0391193Y0175541D02*
X0392000Y0175541D01*
X0392000Y0173942D02*
X0390531Y0173942D01*
X0392000Y0172344D02*
X0388425Y0172344D01*
X0385175Y0172344D02*
X0378425Y0172344D01*
X0377675Y0172033D02*
X0379292Y0172703D01*
X0380530Y0173941D01*
X0381200Y0175558D01*
X0381200Y0177308D01*
X0380530Y0178925D01*
X0379292Y0180163D01*
X0377675Y0180833D01*
X0375925Y0180833D01*
X0374308Y0180163D01*
X0373070Y0178925D01*
X0372400Y0177308D01*
X0372400Y0175558D01*
X0373070Y0173941D01*
X0374308Y0172703D01*
X0375925Y0172033D01*
X0377675Y0172033D01*
X0377675Y0170833D02*
X0375925Y0170833D01*
X0374308Y0170163D01*
X0373070Y0168925D01*
X0372400Y0167308D01*
X0372400Y0165558D01*
X0373070Y0163941D01*
X0374308Y0162703D01*
X0375925Y0162033D01*
X0377675Y0162033D01*
X0379292Y0162703D01*
X0380530Y0163941D01*
X0381200Y0165558D01*
X0381200Y0167308D01*
X0380530Y0168925D01*
X0379292Y0170163D01*
X0377675Y0170833D01*
X0377887Y0170745D02*
X0392000Y0170745D01*
X0392000Y0169147D02*
X0380309Y0169147D01*
X0381101Y0167548D02*
X0392000Y0167548D01*
X0392000Y0165950D02*
X0381200Y0165950D01*
X0380700Y0164351D02*
X0392000Y0164351D01*
X0392000Y0162753D02*
X0379342Y0162753D01*
X0378268Y0161154D02*
X0372832Y0161154D01*
X0374100Y0159556D02*
X0377000Y0159556D01*
X0377000Y0157957D02*
X0374100Y0157957D01*
X0374100Y0156359D02*
X0377000Y0156359D01*
X0377000Y0154760D02*
X0374100Y0154760D01*
X0374100Y0153162D02*
X0377000Y0153162D01*
X0374258Y0162753D02*
X0332362Y0162753D01*
X0336858Y0164351D02*
X0372900Y0164351D01*
X0372400Y0165950D02*
X0337581Y0165950D01*
X0337390Y0167548D02*
X0372499Y0167548D01*
X0373291Y0169147D02*
X0336227Y0169147D01*
X0333665Y0170745D02*
X0375713Y0170745D01*
X0375175Y0172344D02*
X0293831Y0172344D01*
X0293580Y0173942D02*
X0373069Y0173942D01*
X0372407Y0175541D02*
X0292225Y0175541D01*
X0288875Y0175541D02*
X0286369Y0175541D01*
X0283811Y0170745D02*
X0283519Y0170745D01*
X0283700Y0169147D02*
X0306019Y0169147D01*
X0306322Y0167548D02*
X0301862Y0167548D01*
X0306499Y0170745D02*
X0293252Y0170745D01*
X0282621Y0181935D02*
X0243837Y0181935D01*
X0244248Y0183533D02*
X0281023Y0183533D01*
X0279424Y0185132D02*
X0244115Y0185132D01*
X0243386Y0186730D02*
X0277826Y0186730D01*
X0276964Y0197920D02*
X0364500Y0197920D01*
X0364500Y0199518D02*
X0278562Y0199518D01*
X0280161Y0201117D02*
X0364800Y0201117D01*
X0365794Y0202715D02*
X0281759Y0202715D01*
X0309679Y0212307D02*
X0329750Y0212307D01*
X0338642Y0218701D02*
X0309958Y0218701D01*
X0332950Y0226693D02*
X0372400Y0226693D01*
X0372807Y0228292D02*
X0333831Y0228292D01*
X0333705Y0229890D02*
X0374035Y0229890D01*
X0379565Y0229890D02*
X0392000Y0229890D01*
X0392000Y0228292D02*
X0380793Y0228292D01*
X0381200Y0226693D02*
X0392000Y0226693D01*
X0392000Y0225095D02*
X0381008Y0225095D01*
X0392000Y0231489D02*
X0332635Y0231489D01*
X0369100Y0202715D02*
X0369500Y0202715D01*
X0369500Y0201117D02*
X0369100Y0201117D01*
X0369100Y0199518D02*
X0369500Y0199518D01*
X0369500Y0197920D02*
X0369100Y0197920D01*
X0369100Y0194723D02*
X0369500Y0194723D01*
X0369500Y0193124D02*
X0369100Y0193124D01*
X0369100Y0191526D02*
X0369500Y0191526D01*
X0369500Y0189927D02*
X0369100Y0189927D01*
X0366017Y0189927D02*
X0321471Y0189927D01*
X0319873Y0188329D02*
X0341695Y0188329D01*
X0340097Y0186730D02*
X0318274Y0186730D01*
X0316676Y0185132D02*
X0339350Y0185132D01*
X0339350Y0183533D02*
X0315077Y0183533D01*
X0313479Y0181935D02*
X0339350Y0181935D01*
X0340896Y0180336D02*
X0311880Y0180336D01*
X0310282Y0178738D02*
X0372992Y0178738D01*
X0372400Y0177139D02*
X0309608Y0177139D01*
X0324033Y0191526D02*
X0364885Y0191526D01*
X0364500Y0193124D02*
X0325016Y0193124D01*
X0325024Y0194723D02*
X0364500Y0194723D01*
X0378874Y0180336D02*
X0384726Y0180336D01*
X0382992Y0178738D02*
X0380608Y0178738D01*
X0381200Y0177139D02*
X0382400Y0177139D01*
X0382407Y0175541D02*
X0381193Y0175541D01*
X0380531Y0173942D02*
X0383069Y0173942D01*
X0394500Y0148366D02*
X0332007Y0148366D01*
X0332581Y0146768D02*
X0394500Y0146768D01*
X0276211Y0220299D02*
X0272389Y0220299D01*
X0273427Y0221898D02*
X0275173Y0221898D01*
X0274900Y0223496D02*
X0273700Y0223496D01*
X0273700Y0225095D02*
X0274900Y0225095D01*
X0274900Y0226693D02*
X0273700Y0226693D01*
X0273700Y0228292D02*
X0274900Y0228292D01*
X0274900Y0229890D02*
X0273700Y0229890D01*
X0273211Y0231489D02*
X0275389Y0231489D01*
X0092189Y0103608D02*
X0031411Y0103608D01*
D17*
X0059300Y0113933D03*
X0059300Y0123933D03*
X0085550Y0116433D03*
X0069300Y0086433D03*
X0146800Y0110183D03*
X0164300Y0116433D03*
X0171800Y0116433D03*
X0176800Y0142683D03*
X0149300Y0173933D03*
X0159300Y0176433D03*
X0139300Y0177683D03*
X0161800Y0195183D03*
X0164300Y0208933D03*
X0159300Y0216433D03*
X0149300Y0216433D03*
X0149300Y0223933D03*
X0159300Y0223933D03*
X0139300Y0215183D03*
X0134300Y0201433D03*
X0101800Y0183933D03*
X0102300Y0178933D03*
X0084300Y0173933D03*
X0083050Y0168933D03*
X0068050Y0165183D03*
X0081800Y0178933D03*
X0066800Y0191433D03*
X0071800Y0201433D03*
X0086800Y0201433D03*
X0086800Y0218933D03*
X0086800Y0228933D03*
X0064300Y0221433D03*
X0026800Y0226433D03*
X0026800Y0166433D03*
X0069300Y0146433D03*
X0220550Y0090183D03*
X0234300Y0116433D03*
X0250550Y0122683D03*
X0301800Y0123933D03*
X0320550Y0116433D03*
X0301800Y0108933D03*
X0329300Y0086433D03*
X0329300Y0146433D03*
X0329300Y0163933D03*
X0334300Y0166433D03*
X0309300Y0168933D03*
X0306800Y0178933D03*
X0290550Y0172683D03*
X0286800Y0181433D03*
X0271800Y0196433D03*
X0259300Y0211433D03*
X0286800Y0216433D03*
X0308050Y0215183D03*
X0308050Y0221433D03*
X0330550Y0228933D03*
X0340550Y0221433D03*
X0334300Y0211433D03*
X0314300Y0196433D03*
X0321800Y0193933D03*
X0366800Y0166433D03*
X0366800Y0226433D03*
X0238050Y0171433D03*
D18*
X0235550Y0168933D01*
X0154300Y0168933D01*
X0149300Y0173933D01*
X0139300Y0177683D02*
X0138050Y0178933D01*
X0114300Y0178933D01*
X0109300Y0173933D01*
X0084300Y0173933D01*
X0083050Y0168933D02*
X0110550Y0168933D01*
X0116800Y0175183D01*
X0133050Y0175183D01*
X0139300Y0168933D01*
X0119300Y0146433D02*
X0069300Y0146433D01*
X0068050Y0165183D02*
X0061800Y0171433D01*
X0039300Y0171433D01*
X0021800Y0188933D01*
X0021800Y0191433D01*
X0016800Y0196433D01*
X0021800Y0201433D01*
X0021800Y0206433D01*
X0036800Y0221433D01*
X0064300Y0221433D01*
X0086800Y0218933D02*
X0109300Y0218933D01*
X0113050Y0215183D01*
X0139300Y0215183D01*
X0149300Y0216433D02*
X0159300Y0216433D01*
X0159300Y0223933D02*
X0149300Y0223933D01*
X0164300Y0208933D02*
X0164300Y0205183D01*
X0161800Y0202683D01*
X0161800Y0195183D01*
X0134300Y0201433D02*
X0129300Y0206433D01*
X0076800Y0206433D01*
X0071800Y0201433D01*
X0066800Y0191433D02*
X0074300Y0183933D01*
X0101800Y0183933D01*
X0116800Y0123933D02*
X0059300Y0123933D01*
X0059300Y0113933D02*
X0061800Y0111433D01*
X0116800Y0111433D01*
X0120550Y0115183D01*
X0154300Y0115183D01*
X0163050Y0106433D01*
X0209300Y0106433D01*
X0171800Y0116433D02*
X0166800Y0121433D01*
X0119300Y0121433D01*
X0116800Y0123933D01*
X0119300Y0086433D02*
X0069300Y0086433D01*
X0259300Y0166433D02*
X0259300Y0173933D01*
X0261800Y0176433D01*
X0281800Y0176433D01*
X0285550Y0172683D01*
X0290550Y0172683D01*
X0286800Y0181433D02*
X0271800Y0196433D01*
X0286800Y0211433D01*
X0286800Y0216433D01*
X0279300Y0226433D02*
X0281800Y0228933D01*
X0330550Y0228933D01*
X0340550Y0221433D02*
X0308050Y0221433D01*
X0308050Y0215183D02*
X0330550Y0215183D01*
X0334300Y0211433D01*
X0321800Y0193933D02*
X0306800Y0178933D01*
X0309300Y0168933D02*
X0331800Y0168933D01*
X0334300Y0166433D01*
X0329300Y0163933D02*
X0301800Y0163933D01*
X0299300Y0166433D01*
X0279300Y0166433D01*
X0279300Y0146433D02*
X0329300Y0146433D01*
X0329300Y0086433D02*
X0279300Y0086433D01*
X0259300Y0211433D02*
X0259300Y0226433D01*
M02*
