G75*
%MOIN*%
%OFA0B0*%
%FSLAX25Y25*%
%IPPOS*%
%LPD*%
%AMOC8*
5,1,8,0,0,1.08239X$1,22.5*
%
%ADD10C,0.00800*%
%ADD11C,0.00900*%
%ADD12C,0.01000*%
D10*
X0177796Y0093253D02*
X0177796Y0095522D01*
X0176662Y0094387D02*
X0181199Y0094387D01*
X0182333Y0095522D01*
X0182333Y0097918D02*
X0177796Y0097918D01*
X0180064Y0097918D02*
X0177796Y0100187D01*
X0177796Y0101321D01*
X0177796Y0103750D02*
X0177796Y0104884D01*
X0182333Y0104884D01*
X0182333Y0103750D02*
X0182333Y0106019D01*
X0181199Y0108415D02*
X0182333Y0109550D01*
X0182333Y0112952D01*
X0183467Y0112952D02*
X0177796Y0112952D01*
X0177796Y0109550D01*
X0178930Y0108415D01*
X0181199Y0108415D01*
X0184602Y0110684D02*
X0184602Y0111818D01*
X0183467Y0112952D01*
X0175527Y0104884D02*
X0174393Y0104884D01*
X0112333Y0106538D02*
X0112333Y0103135D01*
X0111199Y0102000D01*
X0107796Y0102000D01*
X0108930Y0099540D02*
X0107796Y0098405D01*
X0107796Y0096137D01*
X0108930Y0095002D01*
X0111199Y0095002D01*
X0112333Y0096137D01*
X0112333Y0098405D01*
X0111199Y0099540D01*
X0108930Y0099540D01*
X0107796Y0106538D02*
X0112333Y0106538D01*
X0107796Y0108998D02*
X0107796Y0111267D01*
X0106662Y0110133D02*
X0111199Y0110133D01*
X0112333Y0111267D01*
X0177796Y0133253D02*
X0177796Y0135522D01*
X0176662Y0134387D02*
X0181199Y0134387D01*
X0182333Y0135522D01*
X0182333Y0137918D02*
X0177796Y0137918D01*
X0180064Y0137918D02*
X0177796Y0140187D01*
X0177796Y0141321D01*
X0177796Y0143750D02*
X0177796Y0144884D01*
X0182333Y0144884D01*
X0182333Y0143750D02*
X0182333Y0146019D01*
X0181199Y0148415D02*
X0182333Y0149550D01*
X0182333Y0152952D01*
X0183467Y0152952D02*
X0177796Y0152952D01*
X0177796Y0149550D01*
X0178930Y0148415D01*
X0181199Y0148415D01*
X0184602Y0150684D02*
X0184602Y0151818D01*
X0183467Y0152952D01*
X0175527Y0144884D02*
X0174393Y0144884D01*
X0112333Y0146538D02*
X0112333Y0143135D01*
X0111199Y0142000D01*
X0107796Y0142000D01*
X0108930Y0139540D02*
X0107796Y0138405D01*
X0107796Y0136137D01*
X0108930Y0135002D01*
X0111199Y0135002D01*
X0112333Y0136137D01*
X0112333Y0138405D01*
X0111199Y0139540D01*
X0108930Y0139540D01*
X0107796Y0146538D02*
X0112333Y0146538D01*
X0111199Y0150133D02*
X0106662Y0150133D01*
X0107796Y0151267D02*
X0107796Y0148998D01*
X0111199Y0150133D02*
X0112333Y0151267D01*
X0244393Y0139636D02*
X0245527Y0139636D01*
X0247796Y0139636D02*
X0252333Y0139636D01*
X0252333Y0140770D02*
X0252333Y0138501D01*
X0247796Y0138501D02*
X0247796Y0139636D01*
X0247796Y0143167D02*
X0247796Y0146570D01*
X0248930Y0147704D01*
X0252333Y0147704D01*
X0252333Y0143167D02*
X0247796Y0143167D01*
X0309393Y0139636D02*
X0310527Y0139636D01*
X0312796Y0139636D02*
X0317333Y0139636D01*
X0317333Y0140770D02*
X0317333Y0138501D01*
X0312796Y0138501D02*
X0312796Y0139636D01*
X0312796Y0143167D02*
X0312796Y0146570D01*
X0313930Y0147704D01*
X0317333Y0147704D01*
X0317333Y0143167D02*
X0312796Y0143167D01*
X0379393Y0144884D02*
X0380527Y0144884D01*
X0382796Y0144884D02*
X0382796Y0143750D01*
X0382796Y0144884D02*
X0387333Y0144884D01*
X0387333Y0143750D02*
X0387333Y0146019D01*
X0386199Y0148415D02*
X0387333Y0149550D01*
X0387333Y0152952D01*
X0388467Y0152952D02*
X0382796Y0152952D01*
X0382796Y0149550D01*
X0383930Y0148415D01*
X0386199Y0148415D01*
X0389602Y0150684D02*
X0389602Y0151818D01*
X0388467Y0152952D01*
X0382796Y0141321D02*
X0382796Y0140187D01*
X0385064Y0137918D01*
X0382796Y0137918D02*
X0387333Y0137918D01*
X0387333Y0135522D02*
X0386199Y0134387D01*
X0381662Y0134387D01*
X0382796Y0133253D02*
X0382796Y0135522D01*
X0451662Y0150133D02*
X0456199Y0150133D01*
X0457333Y0151267D01*
X0452796Y0151267D02*
X0452796Y0148998D01*
X0452796Y0146538D02*
X0457333Y0146538D01*
X0457333Y0143135D01*
X0456199Y0142000D01*
X0452796Y0142000D01*
X0453930Y0139540D02*
X0452796Y0138405D01*
X0452796Y0136137D01*
X0453930Y0135002D01*
X0456199Y0135002D01*
X0457333Y0136137D01*
X0457333Y0138405D01*
X0456199Y0139540D01*
X0453930Y0139540D01*
X0389602Y0111818D02*
X0388467Y0112952D01*
X0382796Y0112952D01*
X0382796Y0109550D01*
X0383930Y0108415D01*
X0386199Y0108415D01*
X0387333Y0109550D01*
X0387333Y0112952D01*
X0389602Y0111818D02*
X0389602Y0110684D01*
X0387333Y0106019D02*
X0387333Y0103750D01*
X0387333Y0104884D02*
X0382796Y0104884D01*
X0382796Y0103750D01*
X0382796Y0101321D02*
X0382796Y0100187D01*
X0385064Y0097918D01*
X0382796Y0097918D02*
X0387333Y0097918D01*
X0387333Y0095522D02*
X0386199Y0094387D01*
X0381662Y0094387D01*
X0382796Y0093253D02*
X0382796Y0095522D01*
X0380527Y0104884D02*
X0379393Y0104884D01*
X0317333Y0103167D02*
X0312796Y0103167D01*
X0312796Y0106570D01*
X0313930Y0107704D01*
X0317333Y0107704D01*
X0317333Y0100770D02*
X0317333Y0098501D01*
X0317333Y0099636D02*
X0312796Y0099636D01*
X0312796Y0098501D01*
X0310527Y0099636D02*
X0309393Y0099636D01*
X0252333Y0099636D02*
X0247796Y0099636D01*
X0247796Y0098501D01*
X0245527Y0099636D02*
X0244393Y0099636D01*
X0252333Y0098501D02*
X0252333Y0100770D01*
X0252333Y0103167D02*
X0247796Y0103167D01*
X0247796Y0106570D01*
X0248930Y0107704D01*
X0252333Y0107704D01*
X0451662Y0110133D02*
X0456199Y0110133D01*
X0457333Y0111267D01*
X0452796Y0111267D02*
X0452796Y0108998D01*
X0452796Y0106538D02*
X0457333Y0106538D01*
X0457333Y0103135D01*
X0456199Y0102000D01*
X0452796Y0102000D01*
X0453930Y0099540D02*
X0452796Y0098405D01*
X0452796Y0096137D01*
X0453930Y0095002D01*
X0456199Y0095002D01*
X0457333Y0096137D01*
X0457333Y0098405D01*
X0456199Y0099540D01*
X0453930Y0099540D01*
D11*
X0511326Y0098552D02*
X0519033Y0103690D01*
X0511326Y0103690D01*
X0511326Y0106471D02*
X0516464Y0106471D01*
X0519033Y0109039D01*
X0516464Y0111608D01*
X0511326Y0111608D01*
X0512611Y0114389D02*
X0511326Y0115674D01*
X0511326Y0118243D01*
X0512611Y0119527D01*
X0513895Y0122308D02*
X0511326Y0124877D01*
X0513895Y0127446D01*
X0519033Y0127446D01*
X0515180Y0127446D02*
X0515180Y0122308D01*
X0513895Y0122308D02*
X0519033Y0122308D01*
X0517749Y0119527D02*
X0519033Y0118243D01*
X0519033Y0115674D01*
X0517749Y0114389D01*
X0512611Y0114389D01*
X0511326Y0098552D02*
X0519033Y0098552D01*
X0519033Y0095771D02*
X0519033Y0090633D01*
X0511326Y0090633D01*
X0511326Y0095771D01*
X0515180Y0093202D02*
X0515180Y0090633D01*
D12*
X0481433Y0103933D02*
X0461433Y0103933D01*
X0448933Y0103933D02*
X0391433Y0103933D01*
X0376433Y0103933D02*
X0321433Y0103933D01*
X0276433Y0103933D02*
X0256433Y0103933D01*
X0243933Y0103933D02*
X0186433Y0103933D01*
X0171433Y0103933D02*
X0116433Y0103933D01*
X0116433Y0143933D02*
X0171433Y0143933D01*
X0186433Y0143933D02*
X0243933Y0143933D01*
X0256433Y0143933D02*
X0273933Y0143933D01*
X0321433Y0143933D02*
X0376433Y0143933D01*
X0391433Y0143933D02*
X0448933Y0143933D01*
X0461433Y0143933D02*
X0481433Y0143933D01*
M02*
