%
M48
M72
T01C0.0236
T02C0.0320
T03C0.0354
T04C0.0394
T05C0.0400
T06C0.0433
%
T01
X6930Y8643
X5930Y11393
X5930Y12393
X8555Y11643
X6930Y14643
X6805Y16518
X8305Y16893
X8430Y17393
X8180Y17893
X6680Y19143
X7180Y20143
X8680Y20143
X8680Y21893
X8680Y22893
X6430Y22143
X2680Y22643
X10180Y18393
X10230Y17893
X13930Y17768
X14930Y17393
X15930Y17643
X16180Y19518
X16430Y20893
X15930Y21643
X14930Y21643
X14930Y22393
X15930Y22393
X13930Y21518
X13430Y20143
X17680Y14268
X17180Y11643
X16430Y11643
X14680Y11018
X22055Y9018
X23430Y11643
X25055Y12268
X30180Y12393
X32055Y11643
X30180Y10893
X32930Y8643
X32930Y14643
X32930Y16393
X33430Y16643
X30930Y16893
X30680Y17893
X29055Y17268
X28680Y18143
X27180Y19643
X25930Y21143
X28680Y21643
X30805Y21518
X30805Y22143
X33055Y22893
X34055Y22143
X33430Y21143
X31430Y19643
X32180Y19393
X36680Y16643
X36680Y22643
X23805Y17143
X2680Y16643
T02
X4180Y18393
X5180Y18393
X5180Y20893
X4180Y20893
X22930Y20893
X23930Y20893
X23930Y18393
X22930Y18393
X34430Y18393
X35430Y18393
X35430Y20893
X34430Y20893
T03
X36680Y21643
X37680Y21643
X37680Y20643
X37680Y22643
X37680Y18643
X37680Y17643
X38680Y17643
X37680Y16643
X2680Y17643
X1680Y17643
X1680Y16643
X1680Y18643
X1680Y20643
X1680Y21643
X680Y21643
X1680Y22643
T04
X18430Y21643
X19430Y21643
X19430Y20643
X18430Y20643
X18430Y19643
X19430Y19643
X19430Y18643
X18430Y18643
X18430Y17643
X19430Y17643
T05
X20930Y18643
X20930Y19643
X20930Y20643
X25930Y22643
X26930Y22643
X27930Y22643
X36930Y19643
X37930Y19643
X38930Y19643
X27930Y16643
X26930Y16643
X25930Y16643
X25930Y14643
X26930Y14643
X27930Y14643
X20930Y12643
X20930Y11643
X20930Y10643
X25930Y8643
X26930Y8643
X27930Y8643
X36930Y11643
X37930Y11643
X38930Y11643
X13930Y8643
X12930Y8643
X11930Y8643
X2680Y11643
X1680Y11643
X680Y11643
X11930Y14643
X12930Y14643
X13930Y14643
X13930Y16643
X12930Y16643
X11930Y16643
X2680Y19643
X1680Y19643
X680Y19643
X11930Y22643
X12930Y22643
X13930Y22643
T06
X14711Y13643
X12239Y13643
X11058Y13643
X7711Y13643
X5239Y13643
X4058Y13643
X711Y13643
X711Y9643
X4058Y9643
X5239Y9643
X7711Y9643
X11058Y9643
X12239Y9643
X14711Y9643
X18058Y9643
X19239Y9643
X20621Y9643
X21802Y9643
X25149Y9643
X27621Y9643
X28802Y9643
X32149Y9643
X34621Y9643
X35802Y9643
X39149Y9643
X39149Y13643
X35802Y13643
X34621Y13643
X32149Y13643
X28802Y13643
X27621Y13643
X25149Y13643
X21802Y13643
X20621Y13643
X19239Y13643
X18058Y13643
M30
