G75*
%MOIN*%
%OFA0B0*%
%FSLAX25Y25*%
%IPPOS*%
%LPD*%
%AMOC8*
5,1,8,0,0,1.08239X$1,22.5*
%
%ADD10R,0.05118X0.05906*%
%ADD11OC8,0.06600*%
%ADD12C,0.06496*%
%ADD13OC8,0.06300*%
%ADD14C,0.06300*%
%ADD15R,0.02600X0.08000*%
%ADD16R,0.05906X0.05118*%
%ADD17R,0.03937X0.05512*%
%ADD18R,0.05512X0.05512*%
%ADD19C,0.06000*%
%ADD20C,0.06000*%
%ADD21R,0.02600X0.06500*%
%ADD22R,0.08661X0.02362*%
%ADD23C,0.02400*%
%ADD24C,0.01600*%
%ADD25C,0.03762*%
D10*
X0078060Y0083933D03*
X0085540Y0083933D03*
X0090560Y0093933D03*
X0098040Y0093933D03*
X0103060Y0083933D03*
X0110540Y0083933D03*
X0110540Y0108933D03*
X0103060Y0108933D03*
X0085540Y0108933D03*
X0078060Y0108933D03*
X0078060Y0123933D03*
X0085540Y0123933D03*
X0103060Y0123933D03*
X0110540Y0123933D03*
X0098040Y0138933D03*
X0090560Y0138933D03*
X0085540Y0148933D03*
X0078060Y0148933D03*
X0090560Y0163933D03*
X0098040Y0163933D03*
X0098040Y0173933D03*
X0090560Y0173933D03*
X0103060Y0148933D03*
X0110540Y0148933D03*
X0170560Y0148933D03*
X0178040Y0148933D03*
X0200560Y0148933D03*
X0208040Y0148933D03*
X0220560Y0148933D03*
X0228040Y0148933D03*
X0228040Y0123933D03*
X0220560Y0123933D03*
X0220560Y0108933D03*
X0228040Y0108933D03*
X0198040Y0108933D03*
X0190560Y0108933D03*
X0178040Y0108933D03*
X0170560Y0108933D03*
X0170560Y0123933D03*
X0178040Y0123933D03*
X0190560Y0123933D03*
X0198040Y0123933D03*
X0200560Y0083933D03*
X0208040Y0083933D03*
X0220560Y0083933D03*
X0228040Y0083933D03*
X0178040Y0083933D03*
X0170560Y0083933D03*
X0288060Y0083933D03*
X0295540Y0083933D03*
X0300560Y0093933D03*
X0308040Y0093933D03*
X0313060Y0083933D03*
X0320540Y0083933D03*
X0320540Y0108933D03*
X0313060Y0108933D03*
X0295540Y0108933D03*
X0288060Y0108933D03*
X0288060Y0123933D03*
X0295540Y0123933D03*
X0313060Y0123933D03*
X0320540Y0123933D03*
X0308040Y0140183D03*
X0300560Y0140183D03*
X0295540Y0148933D03*
X0288060Y0148933D03*
X0313060Y0148933D03*
X0320540Y0148933D03*
X0323040Y0163933D03*
X0315560Y0163933D03*
X0315560Y0173933D03*
X0323040Y0173933D03*
X0368060Y0146433D03*
X0375540Y0146433D03*
X0375540Y0086433D03*
X0368060Y0086433D03*
X0220540Y0176433D03*
X0213060Y0176433D03*
X0213060Y0216433D03*
X0220540Y0216433D03*
X0315560Y0218933D03*
X0323040Y0218933D03*
X0323040Y0228933D03*
X0315560Y0228933D03*
X0100540Y0228933D03*
X0093060Y0228933D03*
X0093060Y0218933D03*
X0100540Y0218933D03*
X0030540Y0148933D03*
X0023060Y0148933D03*
X0023060Y0131433D03*
X0030540Y0131433D03*
X0030540Y0101433D03*
X0023060Y0101433D03*
X0023060Y0086433D03*
X0030540Y0086433D03*
D11*
X0184300Y0176433D03*
X0194300Y0176433D03*
X0194300Y0186433D03*
X0184300Y0186433D03*
X0184300Y0196433D03*
X0194300Y0196433D03*
X0194300Y0206433D03*
X0184300Y0206433D03*
X0184300Y0216433D03*
X0194300Y0216433D03*
D12*
X0192391Y0136433D03*
X0180580Y0136433D03*
X0206209Y0136433D03*
X0218020Y0136433D03*
X0251485Y0136433D03*
X0276209Y0136433D03*
X0288020Y0136433D03*
X0321485Y0136433D03*
X0346209Y0136433D03*
X0358020Y0136433D03*
X0391485Y0136433D03*
X0391485Y0096433D03*
X0358020Y0096433D03*
X0346209Y0096433D03*
X0321485Y0096433D03*
X0288020Y0096433D03*
X0276209Y0096433D03*
X0251485Y0096433D03*
X0218020Y0096433D03*
X0206209Y0096433D03*
X0192391Y0096433D03*
X0180580Y0096433D03*
X0147115Y0096433D03*
X0122391Y0096433D03*
X0110580Y0096433D03*
X0077115Y0096433D03*
X0052391Y0096433D03*
X0040580Y0096433D03*
X0007115Y0096433D03*
X0007115Y0136433D03*
X0040580Y0136433D03*
X0052391Y0136433D03*
X0077115Y0136433D03*
X0110580Y0136433D03*
X0122391Y0136433D03*
X0147115Y0136433D03*
D13*
X0229300Y0183933D03*
X0239300Y0208933D03*
X0344300Y0208933D03*
X0344300Y0183933D03*
X0051800Y0183933D03*
X0051800Y0208933D03*
D14*
X0041800Y0208933D03*
X0041800Y0183933D03*
X0229300Y0208933D03*
X0239300Y0183933D03*
X0354300Y0183933D03*
X0354300Y0208933D03*
D15*
X0159300Y0208533D03*
X0154300Y0208533D03*
X0149300Y0208533D03*
X0144300Y0208533D03*
X0139300Y0208533D03*
X0134300Y0208533D03*
X0129300Y0208533D03*
X0124300Y0208533D03*
X0124300Y0184333D03*
X0129300Y0184333D03*
X0134300Y0184333D03*
X0139300Y0184333D03*
X0144300Y0184333D03*
X0149300Y0184333D03*
X0154300Y0184333D03*
X0159300Y0184333D03*
D16*
X0168050Y0192693D03*
X0168050Y0200173D03*
X0116800Y0185173D03*
X0116800Y0177693D03*
X0108050Y0177673D03*
X0108050Y0170193D03*
X0105550Y0192693D03*
X0105550Y0200173D03*
X0046800Y0220193D03*
X0036800Y0220193D03*
X0036800Y0227673D03*
X0046800Y0227673D03*
X0046800Y0172673D03*
X0036800Y0172673D03*
X0036800Y0165193D03*
X0046800Y0165193D03*
X0134300Y0135173D03*
X0134300Y0127693D03*
X0134300Y0105173D03*
X0134300Y0097693D03*
X0264300Y0097693D03*
X0264300Y0105173D03*
X0264300Y0127693D03*
X0264300Y0135173D03*
X0346800Y0165193D03*
X0356800Y0165193D03*
X0356800Y0172673D03*
X0346800Y0172673D03*
X0284300Y0192693D03*
X0284300Y0200173D03*
X0346800Y0220193D03*
X0356800Y0220193D03*
X0356800Y0227673D03*
X0346800Y0227673D03*
D17*
X0300540Y0217102D03*
X0293060Y0217102D03*
X0296800Y0225764D03*
X0299300Y0177014D03*
X0295560Y0168352D03*
X0303040Y0168352D03*
X0245540Y0140852D03*
X0238060Y0140852D03*
X0241800Y0149514D03*
X0241800Y0130764D03*
X0238060Y0122102D03*
X0245540Y0122102D03*
X0245540Y0110764D03*
X0238060Y0110764D03*
X0241800Y0102102D03*
X0238060Y0092014D03*
X0245540Y0092014D03*
X0241800Y0083352D03*
X0160540Y0092014D03*
X0153060Y0092014D03*
X0156800Y0083352D03*
X0156800Y0102102D03*
X0153060Y0110764D03*
X0160540Y0110764D03*
X0160540Y0122102D03*
X0153060Y0122102D03*
X0156800Y0130764D03*
X0153060Y0140852D03*
X0160540Y0140852D03*
X0156800Y0149514D03*
X0078040Y0173264D03*
X0070560Y0173264D03*
X0074300Y0164602D03*
X0074300Y0219602D03*
X0070560Y0228264D03*
X0078040Y0228264D03*
D18*
X0059300Y0228913D03*
X0059300Y0213953D03*
X0059300Y0178913D03*
X0059300Y0163953D03*
X0086820Y0131433D03*
X0101780Y0131433D03*
X0101780Y0101433D03*
X0086820Y0101433D03*
X0296820Y0101433D03*
X0311780Y0101433D03*
X0311780Y0132683D03*
X0296820Y0132683D03*
X0334300Y0173953D03*
X0334300Y0188913D03*
X0334300Y0203953D03*
X0334300Y0218913D03*
D19*
X0366800Y0216433D03*
X0376800Y0216433D03*
X0376800Y0206433D03*
X0376800Y0226433D03*
X0376800Y0186433D03*
X0376800Y0176433D03*
X0386800Y0176433D03*
X0376800Y0166433D03*
X0026800Y0176433D03*
X0016800Y0176433D03*
X0016800Y0166433D03*
X0016800Y0186433D03*
X0016800Y0206433D03*
X0016800Y0216433D03*
X0006800Y0216433D03*
X0016800Y0226433D03*
D20*
X0119300Y0089433D02*
X0119300Y0083433D01*
X0129300Y0083433D02*
X0129300Y0089433D01*
X0139300Y0089433D02*
X0139300Y0083433D01*
X0206300Y0106433D02*
X0212300Y0106433D01*
X0212300Y0116433D02*
X0206300Y0116433D01*
X0206300Y0126433D02*
X0212300Y0126433D01*
X0259300Y0143433D02*
X0259300Y0149433D01*
X0269300Y0149433D02*
X0269300Y0143433D01*
X0279300Y0143433D02*
X0279300Y0149433D01*
X0279300Y0163433D02*
X0279300Y0169433D01*
X0269300Y0169433D02*
X0269300Y0163433D01*
X0259300Y0163433D02*
X0259300Y0169433D01*
X0212300Y0186433D02*
X0206300Y0186433D01*
X0206300Y0196433D02*
X0212300Y0196433D01*
X0212300Y0206433D02*
X0206300Y0206433D01*
X0259300Y0223433D02*
X0259300Y0229433D01*
X0269300Y0229433D02*
X0269300Y0223433D01*
X0279300Y0223433D02*
X0279300Y0229433D01*
X0369300Y0199433D02*
X0369300Y0193433D01*
X0379300Y0193433D02*
X0379300Y0199433D01*
X0389300Y0199433D02*
X0389300Y0193433D01*
X0389300Y0119433D02*
X0389300Y0113433D01*
X0379300Y0113433D02*
X0379300Y0119433D01*
X0369300Y0119433D02*
X0369300Y0113433D01*
X0279300Y0089433D02*
X0279300Y0083433D01*
X0269300Y0083433D02*
X0269300Y0089433D01*
X0259300Y0089433D02*
X0259300Y0083433D01*
X0139300Y0143433D02*
X0139300Y0149433D01*
X0129300Y0149433D02*
X0129300Y0143433D01*
X0119300Y0143433D02*
X0119300Y0149433D01*
X0119300Y0163433D02*
X0119300Y0169433D01*
X0129300Y0169433D02*
X0129300Y0163433D01*
X0139300Y0163433D02*
X0139300Y0169433D01*
X0139300Y0223433D02*
X0139300Y0229433D01*
X0129300Y0229433D02*
X0129300Y0223433D01*
X0119300Y0223433D02*
X0119300Y0229433D01*
X0026800Y0199433D02*
X0026800Y0193433D01*
X0016800Y0193433D02*
X0016800Y0199433D01*
X0006800Y0199433D02*
X0006800Y0193433D01*
X0006800Y0119433D02*
X0006800Y0113433D01*
X0016800Y0113433D02*
X0016800Y0119433D01*
X0026800Y0119433D02*
X0026800Y0113433D01*
D21*
X0066800Y0185183D03*
X0071800Y0185183D03*
X0076800Y0185183D03*
X0081800Y0185183D03*
X0086800Y0185183D03*
X0091800Y0185183D03*
X0096800Y0185183D03*
X0096800Y0207683D03*
X0091800Y0207683D03*
X0086800Y0207683D03*
X0081800Y0207683D03*
X0076800Y0207683D03*
X0071800Y0207683D03*
X0066800Y0207683D03*
X0294300Y0207683D03*
X0299300Y0207683D03*
X0304300Y0207683D03*
X0309300Y0207683D03*
X0314300Y0207683D03*
X0319300Y0207683D03*
X0324300Y0207683D03*
X0324300Y0185183D03*
X0319300Y0185183D03*
X0314300Y0185183D03*
X0309300Y0185183D03*
X0304300Y0185183D03*
X0299300Y0185183D03*
X0294300Y0185183D03*
D22*
X0066300Y0123933D03*
X0066300Y0118933D03*
X0066300Y0113933D03*
X0066300Y0108933D03*
X0042300Y0108933D03*
X0042300Y0113933D03*
X0042300Y0118933D03*
X0042300Y0123933D03*
D23*
X0038040Y0123933D01*
X0030540Y0131433D01*
X0030540Y0137693D01*
X0029300Y0138933D01*
X0019300Y0138933D01*
X0016800Y0136433D01*
X0016800Y0116433D01*
X0026800Y0116433D02*
X0028040Y0116433D01*
X0035540Y0108933D01*
X0033050Y0106433D01*
X0030540Y0103923D01*
X0030540Y0101433D01*
X0035540Y0108933D02*
X0042300Y0108933D01*
X0042300Y0113933D02*
X0051800Y0113933D01*
X0056800Y0108933D01*
X0052391Y0104524D01*
X0052391Y0096433D01*
X0069300Y0086433D02*
X0030540Y0086433D01*
X0023060Y0086433D02*
X0017115Y0086433D01*
X0007115Y0096433D01*
X0042300Y0123933D02*
X0049300Y0123933D01*
X0059300Y0113933D01*
X0056800Y0108933D02*
X0066300Y0108933D01*
X0066300Y0113933D02*
X0066300Y0118933D01*
X0066300Y0123933D02*
X0059300Y0123933D01*
X0061800Y0146433D02*
X0059300Y0148933D01*
X0030540Y0148933D01*
X0023060Y0148933D02*
X0019615Y0148933D01*
X0007115Y0136433D01*
X0028040Y0165193D02*
X0026800Y0166433D01*
X0028040Y0165193D02*
X0036800Y0165193D01*
X0046800Y0165193D01*
X0049310Y0172673D02*
X0058050Y0163933D01*
X0059300Y0163953D02*
X0068611Y0173264D01*
X0070560Y0173264D01*
X0074280Y0178913D02*
X0076800Y0181433D01*
X0076800Y0185183D01*
X0071800Y0185183D02*
X0066800Y0185183D01*
X0066800Y0191433D01*
X0071800Y0193933D02*
X0080550Y0193933D01*
X0081800Y0192683D01*
X0081800Y0185183D01*
X0086800Y0185183D02*
X0086800Y0180183D01*
X0085550Y0178933D01*
X0081800Y0178933D01*
X0084300Y0173933D02*
X0090560Y0173933D01*
X0090560Y0163933D01*
X0098040Y0163933D02*
X0114300Y0163933D01*
X0116790Y0166423D01*
X0116810Y0166423D01*
X0119300Y0166433D01*
X0109300Y0170193D02*
X0116800Y0177693D01*
X0117640Y0184333D02*
X0116800Y0185173D01*
X0117640Y0184333D02*
X0124300Y0184333D01*
X0129300Y0184333D02*
X0129300Y0166433D01*
X0139300Y0177683D02*
X0139300Y0184333D01*
X0134300Y0184333D02*
X0134300Y0188933D01*
X0133050Y0190183D01*
X0111800Y0190183D01*
X0105550Y0183933D01*
X0101800Y0183933D01*
X0096800Y0185183D02*
X0096800Y0175183D01*
X0098040Y0173933D01*
X0098040Y0163933D01*
X0108050Y0170193D02*
X0109300Y0170193D01*
X0108050Y0177673D02*
X0103060Y0177673D01*
X0102300Y0178933D01*
X0091800Y0178933D02*
X0091800Y0185183D01*
X0091800Y0178933D02*
X0090560Y0177693D01*
X0090560Y0173933D01*
X0082371Y0168933D02*
X0078040Y0173264D01*
X0074280Y0178913D02*
X0059300Y0178913D01*
X0049310Y0172673D02*
X0046800Y0172673D01*
X0036800Y0172673D02*
X0033060Y0176423D01*
X0026800Y0176433D01*
X0016800Y0176433D01*
X0016800Y0166433D01*
X0019300Y0183933D02*
X0041800Y0183933D01*
X0026800Y0196433D02*
X0069300Y0196433D01*
X0071800Y0193933D01*
X0081800Y0192683D02*
X0083060Y0193943D01*
X0090540Y0193943D01*
X0091800Y0192683D01*
X0105550Y0192693D01*
X0105560Y0192683D01*
X0109300Y0192683D01*
X0110550Y0193933D01*
X0143050Y0193933D01*
X0144300Y0195183D01*
X0161800Y0195183D01*
X0164300Y0192693D01*
X0168050Y0192693D01*
X0168050Y0181433D01*
X0179300Y0170183D01*
X0218050Y0170183D01*
X0220550Y0172683D01*
X0220550Y0175173D01*
X0220540Y0176433D01*
X0221790Y0176423D01*
X0229300Y0183933D01*
X0235550Y0190183D01*
X0275550Y0190183D01*
X0278050Y0192683D01*
X0284310Y0192683D01*
X0308050Y0192683D01*
X0309300Y0191433D01*
X0309300Y0185183D01*
X0304300Y0185183D02*
X0304300Y0181433D01*
X0306800Y0178933D01*
X0299300Y0177014D02*
X0291219Y0177014D01*
X0286800Y0181433D01*
X0294300Y0185183D02*
X0251800Y0185183D01*
X0238050Y0171433D01*
X0239300Y0166433D02*
X0251800Y0178933D01*
X0278050Y0178933D01*
X0286800Y0170183D01*
X0286800Y0165183D01*
X0289300Y0162683D01*
X0308050Y0162683D01*
X0309300Y0163933D01*
X0315560Y0163933D01*
X0315560Y0173933D01*
X0315560Y0177693D01*
X0319300Y0181433D01*
X0319300Y0185183D01*
X0324300Y0185183D02*
X0324300Y0175173D01*
X0323040Y0173933D02*
X0323040Y0163933D01*
X0329300Y0163933D01*
X0334300Y0166433D02*
X0334300Y0173953D01*
X0335520Y0172673D02*
X0346800Y0172673D01*
X0356800Y0172673D02*
X0360560Y0176433D01*
X0376800Y0176433D01*
X0386800Y0176433D01*
X0376800Y0176433D02*
X0376800Y0166433D01*
X0366800Y0166433D02*
X0365560Y0165193D01*
X0356800Y0165193D01*
X0346800Y0165193D01*
X0329300Y0146433D02*
X0368060Y0146433D01*
X0375540Y0146433D02*
X0381485Y0146433D01*
X0391485Y0136433D01*
X0391485Y0096433D02*
X0381485Y0086433D01*
X0375540Y0086433D01*
X0368060Y0086433D02*
X0329300Y0086433D01*
X0209300Y0126433D02*
X0200540Y0126433D01*
X0198040Y0123933D01*
X0198040Y0120173D01*
X0194300Y0116433D01*
X0171800Y0116433D01*
X0194300Y0116433D02*
X0198040Y0112693D01*
X0198040Y0108933D01*
X0198040Y0097673D01*
X0199300Y0096433D01*
X0200560Y0095173D01*
X0200560Y0083933D01*
X0198040Y0123933D02*
X0198040Y0135173D01*
X0200560Y0137693D01*
X0200560Y0148933D01*
X0169300Y0166433D02*
X0239300Y0166433D01*
X0243050Y0162683D02*
X0255550Y0175183D01*
X0265550Y0175183D01*
X0269300Y0171433D01*
X0269300Y0166433D01*
X0290550Y0172683D02*
X0294290Y0168943D01*
X0303040Y0167673D02*
X0308050Y0167683D01*
X0309300Y0168933D01*
X0314300Y0185183D02*
X0314300Y0196433D01*
X0314300Y0207683D01*
X0309300Y0207683D02*
X0309300Y0201433D01*
X0308050Y0200183D01*
X0284310Y0200183D01*
X0278050Y0200183D01*
X0275550Y0202683D01*
X0235550Y0202683D01*
X0229300Y0208933D01*
X0220540Y0208943D01*
X0218030Y0206433D01*
X0209300Y0206433D01*
X0220540Y0208943D02*
X0220540Y0216433D01*
X0220540Y0217673D01*
X0220550Y0218933D02*
X0216800Y0222683D01*
X0179300Y0222683D01*
X0174300Y0217683D01*
X0174300Y0206433D01*
X0168050Y0200173D01*
X0155560Y0200173D01*
X0140550Y0200183D01*
X0138050Y0197683D01*
X0128050Y0197683D01*
X0124300Y0201433D01*
X0124300Y0208533D01*
X0129300Y0208533D02*
X0129300Y0226433D01*
X0119300Y0226433D02*
X0115560Y0226443D01*
X0114300Y0226433D02*
X0111800Y0228933D01*
X0100540Y0228933D01*
X0100540Y0218933D01*
X0100550Y0215183D01*
X0096800Y0211433D01*
X0096800Y0207683D01*
X0091800Y0207683D02*
X0091800Y0213933D01*
X0093060Y0215173D01*
X0093060Y0218933D01*
X0086800Y0218933D01*
X0093060Y0218933D02*
X0093060Y0228933D01*
X0086800Y0228933D02*
X0079310Y0228923D01*
X0070560Y0228264D02*
X0059950Y0228264D01*
X0059300Y0228913D02*
X0050580Y0220193D01*
X0046800Y0220193D01*
X0046800Y0213933D02*
X0059280Y0213933D01*
X0059300Y0213953D02*
X0074280Y0213953D01*
X0076800Y0211433D01*
X0076800Y0207683D01*
X0071800Y0207683D02*
X0071800Y0201433D01*
X0071800Y0207683D02*
X0066800Y0207683D01*
X0081800Y0207683D02*
X0081800Y0198933D01*
X0083060Y0197673D01*
X0090540Y0197673D01*
X0093050Y0200183D01*
X0105550Y0200173D01*
X0109310Y0200173D01*
X0119300Y0200183D01*
X0123040Y0200173D01*
X0124300Y0201433D01*
X0134300Y0201433D02*
X0134300Y0208533D01*
X0139300Y0208533D02*
X0139300Y0215183D01*
X0144300Y0218933D02*
X0144300Y0208533D01*
X0149300Y0208533D02*
X0149300Y0216433D01*
X0144300Y0218933D02*
X0149300Y0223933D01*
X0159700Y0208933D02*
X0164300Y0208933D01*
X0184300Y0216433D02*
X0194300Y0216433D01*
X0199290Y0216423D01*
X0213060Y0216433D01*
X0226800Y0196433D02*
X0271800Y0196433D01*
X0294300Y0185183D02*
X0299300Y0185183D01*
X0321800Y0193933D02*
X0329280Y0193933D01*
X0334300Y0188913D01*
X0336820Y0191433D01*
X0346800Y0191433D01*
X0354300Y0183933D01*
X0374300Y0183933D01*
X0376800Y0186433D01*
X0354300Y0208933D02*
X0346800Y0201433D01*
X0341800Y0201433D01*
X0339300Y0203933D01*
X0334300Y0203953D01*
X0334300Y0211433D01*
X0324300Y0207683D02*
X0324300Y0217693D01*
X0323040Y0218933D01*
X0323040Y0228933D01*
X0330550Y0228933D01*
X0336820Y0221433D02*
X0334300Y0218913D01*
X0336820Y0221433D02*
X0340550Y0221433D01*
X0341790Y0220193D01*
X0346800Y0220193D01*
X0356800Y0220193D02*
X0363040Y0220193D01*
X0366800Y0216433D01*
X0376800Y0216433D01*
X0376800Y0226433D01*
X0366800Y0226433D02*
X0365560Y0227673D01*
X0356800Y0227673D01*
X0346800Y0227673D01*
X0319300Y0211433D02*
X0319300Y0207683D01*
X0319300Y0211433D02*
X0315560Y0215173D01*
X0315560Y0218933D01*
X0315560Y0228933D01*
X0308050Y0221433D02*
X0304871Y0221433D01*
X0300540Y0217102D01*
X0304300Y0211433D02*
X0308050Y0215183D01*
X0304300Y0211433D02*
X0304300Y0207683D01*
X0299300Y0207683D02*
X0294300Y0207683D01*
X0289300Y0211433D02*
X0293050Y0215183D01*
X0289300Y0211433D02*
X0259300Y0211433D01*
X0286800Y0216433D02*
X0286800Y0218933D01*
X0294300Y0226433D01*
X0296131Y0226433D01*
X0296800Y0225764D01*
X0354300Y0208933D02*
X0374300Y0208933D01*
X0376800Y0206433D01*
X0243050Y0162683D02*
X0165550Y0162683D01*
X0154300Y0173933D01*
X0154300Y0184333D01*
X0149300Y0184333D02*
X0149300Y0173933D01*
X0159300Y0176433D02*
X0159300Y0184333D01*
X0164300Y0187683D02*
X0164300Y0171433D01*
X0169300Y0166433D01*
X0184300Y0176433D02*
X0194300Y0176433D01*
X0199290Y0176443D01*
X0213060Y0176433D01*
X0216800Y0186433D02*
X0209300Y0186433D01*
X0216800Y0186433D02*
X0226800Y0196433D01*
X0164300Y0187683D02*
X0161800Y0190183D01*
X0145550Y0190183D01*
X0144300Y0188933D01*
X0144300Y0184333D01*
X0073631Y0163933D02*
X0069300Y0163933D01*
X0068050Y0165183D01*
X0069300Y0146433D02*
X0061800Y0146433D01*
X0019300Y0183933D02*
X0016800Y0186433D01*
X0016800Y0206433D02*
X0019300Y0208933D01*
X0041800Y0208933D01*
X0046800Y0213933D01*
X0036800Y0220193D02*
X0020560Y0220193D01*
X0016800Y0216433D01*
X0006800Y0216433D01*
X0016800Y0216433D02*
X0016800Y0226433D01*
X0026800Y0226433D02*
X0028040Y0227673D01*
X0036800Y0227673D01*
X0046800Y0227673D01*
X0064300Y0221433D02*
X0066800Y0221433D01*
X0069300Y0218933D01*
X0073631Y0218933D01*
D24*
X0074300Y0219602D01*
X0073631Y0219514D01*
X0078040Y0228264D02*
X0079310Y0228923D01*
X0059950Y0228264D02*
X0059300Y0228913D01*
X0059300Y0213953D02*
X0059280Y0213933D01*
X0086800Y0207683D02*
X0086800Y0201433D01*
X0059300Y0178913D02*
X0046820Y0178913D01*
X0041800Y0183933D01*
X0058050Y0163933D02*
X0059300Y0163953D01*
X0073631Y0163933D02*
X0074300Y0164602D01*
X0082371Y0168933D02*
X0083050Y0168933D01*
X0085540Y0148933D02*
X0085540Y0143953D01*
X0090560Y0138933D01*
X0084300Y0138933D01*
X0081800Y0136433D01*
X0081800Y0131433D01*
X0078060Y0127693D01*
X0078060Y0123933D01*
X0085540Y0123933D02*
X0085550Y0116433D01*
X0085550Y0113933D01*
X0085540Y0108933D01*
X0086820Y0110154D01*
X0086820Y0101433D01*
X0081800Y0103933D02*
X0081800Y0096433D01*
X0084300Y0093933D01*
X0090560Y0093933D01*
X0085540Y0088913D01*
X0085540Y0083933D01*
X0078060Y0083933D02*
X0078060Y0095488D01*
X0077115Y0096433D01*
X0081800Y0103933D02*
X0078060Y0107673D01*
X0078060Y0108933D01*
X0085540Y0123933D02*
X0086820Y0125213D01*
X0086820Y0131433D01*
X0078060Y0137378D02*
X0077115Y0136433D01*
X0078060Y0137378D02*
X0078060Y0148933D01*
X0098040Y0138933D02*
X0103060Y0143953D01*
X0103060Y0148933D01*
X0110540Y0148933D02*
X0110540Y0145193D01*
X0116800Y0138933D01*
X0116800Y0131433D01*
X0126800Y0121433D01*
X0152391Y0121433D01*
X0153060Y0122102D01*
X0160540Y0122102D02*
X0160540Y0120193D01*
X0164300Y0116433D01*
X0160540Y0113943D02*
X0159300Y0115183D01*
X0129300Y0115183D01*
X0116800Y0102683D01*
X0110550Y0108933D01*
X0110540Y0108933D01*
X0103060Y0108933D02*
X0103060Y0123933D01*
X0085540Y0123933D01*
X0101780Y0131433D02*
X0101780Y0135193D01*
X0098040Y0138933D01*
X0111800Y0126433D02*
X0116800Y0131433D01*
X0111800Y0126433D02*
X0110540Y0123933D01*
X0134300Y0127693D02*
X0138375Y0127693D01*
X0147115Y0136433D01*
X0153060Y0134504D02*
X0153060Y0140852D01*
X0153060Y0134504D02*
X0156800Y0130764D01*
X0163729Y0130764D01*
X0170560Y0123933D01*
X0178040Y0123933D02*
X0184300Y0123933D01*
X0184300Y0128933D01*
X0186800Y0131433D01*
X0186800Y0146433D01*
X0184300Y0148933D01*
X0178040Y0148933D01*
X0170560Y0148933D02*
X0157469Y0148933D01*
X0156800Y0149514D01*
X0156131Y0148933D01*
X0149300Y0148933D01*
X0146800Y0146433D01*
X0139300Y0146433D01*
X0129300Y0146433D02*
X0129300Y0140173D01*
X0134300Y0135173D01*
X0159881Y0140852D02*
X0161800Y0142683D01*
X0176800Y0142683D01*
X0160540Y0140852D02*
X0159881Y0140852D01*
X0184300Y0123933D02*
X0190560Y0123933D01*
X0190560Y0108933D02*
X0178040Y0108933D01*
X0178040Y0105173D01*
X0174300Y0101433D01*
X0174300Y0091433D01*
X0178040Y0087693D01*
X0178040Y0083933D01*
X0170560Y0083933D02*
X0158631Y0083933D01*
X0156800Y0083352D01*
X0156131Y0083933D01*
X0149300Y0083933D01*
X0146800Y0086433D01*
X0139300Y0086433D01*
X0129300Y0086433D02*
X0129300Y0092693D01*
X0134300Y0097693D01*
X0134300Y0105173D02*
X0138375Y0105173D01*
X0147115Y0096433D01*
X0153060Y0092014D02*
X0153060Y0110764D01*
X0147469Y0110764D01*
X0146800Y0110183D01*
X0156800Y0102102D02*
X0160540Y0098362D01*
X0170560Y0108382D01*
X0170560Y0108933D01*
X0160540Y0110764D02*
X0160540Y0113943D01*
X0160540Y0098362D02*
X0160540Y0092014D01*
X0116800Y0093933D02*
X0116800Y0102683D01*
X0116800Y0093933D02*
X0110540Y0087673D01*
X0110540Y0083933D01*
X0103060Y0083933D02*
X0103060Y0088913D01*
X0098040Y0093933D01*
X0101780Y0097673D01*
X0101780Y0101433D01*
X0042300Y0118933D02*
X0036800Y0118933D01*
X0031800Y0123933D01*
X0024300Y0123933D01*
X0023060Y0125173D01*
X0023060Y0131433D01*
X0024300Y0123933D02*
X0021800Y0121433D01*
X0021800Y0108933D01*
X0023060Y0107673D01*
X0023060Y0101433D01*
X0154300Y0208533D02*
X0154300Y0226433D01*
X0159300Y0231433D01*
X0240550Y0231433D01*
X0253050Y0218933D01*
X0266800Y0218933D01*
X0269300Y0221433D01*
X0269300Y0226433D01*
X0279300Y0216433D02*
X0248050Y0216433D01*
X0235550Y0228933D01*
X0164300Y0228933D01*
X0159300Y0223933D01*
X0159300Y0216433D02*
X0169300Y0226433D01*
X0231800Y0226433D01*
X0250550Y0207683D01*
X0294300Y0207683D01*
X0293050Y0215183D02*
X0293050Y0217093D01*
X0293060Y0217102D01*
X0279300Y0216433D02*
X0294300Y0231433D01*
X0304300Y0231433D01*
X0306800Y0228933D01*
X0315560Y0228933D01*
X0284310Y0200183D02*
X0284300Y0200173D01*
X0284300Y0192693D02*
X0284310Y0192683D01*
X0294290Y0168943D02*
X0295560Y0168352D01*
X0303040Y0168352D02*
X0303040Y0167673D01*
X0323040Y0173933D02*
X0324300Y0175173D01*
X0334300Y0173953D02*
X0335520Y0172673D01*
X0320540Y0148933D02*
X0320540Y0136433D01*
X0321485Y0136433D01*
X0315550Y0132683D02*
X0315550Y0132663D01*
X0320540Y0127673D01*
X0320540Y0123933D01*
X0320550Y0123933D02*
X0320550Y0116433D01*
X0320540Y0116423D01*
X0320540Y0108933D01*
X0320540Y0105173D01*
X0316800Y0101433D01*
X0311780Y0101433D01*
X0306800Y0107683D02*
X0306800Y0095173D01*
X0308040Y0093933D01*
X0308050Y0093923D01*
X0308050Y0088933D01*
X0313050Y0083933D01*
X0313060Y0083933D01*
X0320540Y0083933D02*
X0321485Y0084878D01*
X0321485Y0096433D01*
X0308050Y0108933D02*
X0306800Y0107683D01*
X0308050Y0108933D02*
X0313060Y0108933D01*
X0301800Y0108933D02*
X0295540Y0108933D01*
X0288060Y0108933D02*
X0288050Y0108923D01*
X0288050Y0107683D01*
X0281800Y0101433D01*
X0270550Y0112683D01*
X0253050Y0112683D01*
X0251131Y0110764D01*
X0245540Y0110764D01*
X0238060Y0110764D02*
X0238050Y0113933D01*
X0235560Y0116423D01*
X0234310Y0116423D01*
X0234300Y0116433D01*
X0238050Y0118933D02*
X0239290Y0117693D01*
X0268060Y0117693D01*
X0281800Y0131433D01*
X0281800Y0138923D01*
X0285540Y0142673D01*
X0288050Y0145183D01*
X0288060Y0148933D01*
X0295540Y0148933D02*
X0300560Y0143913D01*
X0300560Y0140183D01*
X0296820Y0136443D01*
X0296820Y0132683D01*
X0306800Y0136433D02*
X0306790Y0125193D01*
X0308050Y0123933D01*
X0313060Y0123933D01*
X0301800Y0123933D02*
X0295540Y0123933D01*
X0288060Y0123933D02*
X0288060Y0125173D01*
X0281800Y0131433D01*
X0269300Y0138933D02*
X0269300Y0146433D01*
X0259300Y0146433D02*
X0251800Y0146433D01*
X0249300Y0148933D01*
X0240540Y0148933D01*
X0228040Y0148933D01*
X0220560Y0148933D02*
X0220560Y0145173D01*
X0224300Y0141433D01*
X0224300Y0132683D01*
X0220550Y0128933D01*
X0220550Y0123943D01*
X0220560Y0123933D01*
X0220560Y0125193D01*
X0228040Y0125173D02*
X0228040Y0123933D01*
X0228040Y0125173D02*
X0238060Y0135193D01*
X0238060Y0135173D01*
X0240550Y0132683D01*
X0240550Y0132014D01*
X0241800Y0130764D01*
X0238060Y0135193D02*
X0238060Y0140852D01*
X0245540Y0140852D02*
X0245540Y0122102D01*
X0249881Y0122102D01*
X0250550Y0122683D01*
X0260235Y0127683D02*
X0251485Y0136433D01*
X0260235Y0127683D02*
X0264300Y0127693D01*
X0264300Y0135173D02*
X0265540Y0135173D01*
X0269300Y0138933D01*
X0241800Y0149514D02*
X0240540Y0148933D01*
X0220560Y0148933D02*
X0208040Y0148933D01*
X0238060Y0122102D02*
X0238050Y0118933D01*
X0228040Y0108933D02*
X0234871Y0102102D01*
X0241800Y0102102D01*
X0242469Y0101433D01*
X0241800Y0101433D01*
X0245540Y0097693D01*
X0245540Y0092014D01*
X0251485Y0096433D02*
X0260225Y0105173D01*
X0264300Y0105173D01*
X0264300Y0097693D02*
X0269300Y0092693D01*
X0269300Y0086433D01*
X0259300Y0086433D02*
X0256219Y0083352D01*
X0241800Y0083352D01*
X0228621Y0083352D01*
X0228040Y0083933D01*
X0220560Y0083933D02*
X0214300Y0083933D01*
X0214300Y0091433D01*
X0211800Y0093933D01*
X0211800Y0098933D01*
X0215550Y0102683D01*
X0218050Y0102683D01*
X0220560Y0105173D01*
X0220560Y0108933D01*
X0238060Y0092014D02*
X0236229Y0090183D01*
X0220550Y0090183D01*
X0214300Y0083933D02*
X0208040Y0083933D01*
X0281800Y0093933D02*
X0281800Y0101433D01*
X0281800Y0093933D02*
X0288060Y0087673D01*
X0288060Y0083933D01*
X0295540Y0083933D02*
X0295550Y0083933D01*
X0300550Y0088933D01*
X0300550Y0093923D01*
X0300560Y0093933D01*
X0296820Y0097673D01*
X0296820Y0101433D01*
X0311780Y0132683D02*
X0315550Y0132683D01*
X0308040Y0137673D02*
X0306800Y0136433D01*
X0308040Y0137673D02*
X0308040Y0140183D01*
X0308040Y0143913D01*
X0313060Y0148933D01*
X0220540Y0217673D02*
X0220550Y0218933D01*
X0159700Y0208933D02*
X0159300Y0208533D01*
X0115560Y0226443D02*
X0114300Y0226433D01*
D25*
X0139300Y0215183D03*
X0149300Y0216433D03*
X0159300Y0216433D03*
X0159300Y0223933D03*
X0149300Y0223933D03*
X0164300Y0208933D03*
X0161800Y0195183D03*
X0134300Y0201433D03*
X0101800Y0183933D03*
X0102300Y0178933D03*
X0084300Y0173933D03*
X0083050Y0168933D03*
X0068050Y0165183D03*
X0081800Y0178933D03*
X0066800Y0191433D03*
X0071800Y0201433D03*
X0086800Y0201433D03*
X0086800Y0218933D03*
X0086800Y0228933D03*
X0064300Y0221433D03*
X0026800Y0226433D03*
X0026800Y0166433D03*
X0069300Y0146433D03*
X0059300Y0123933D03*
X0059300Y0113933D03*
X0085550Y0116433D03*
X0069300Y0086433D03*
X0146800Y0110183D03*
X0164300Y0116433D03*
X0171800Y0116433D03*
X0176800Y0142683D03*
X0149300Y0173933D03*
X0159300Y0176433D03*
X0139300Y0177683D03*
X0238050Y0171433D03*
X0271800Y0196433D03*
X0259300Y0211433D03*
X0286800Y0216433D03*
X0308050Y0215183D03*
X0308050Y0221433D03*
X0330550Y0228933D03*
X0340550Y0221433D03*
X0334300Y0211433D03*
X0314300Y0196433D03*
X0321800Y0193933D03*
X0306800Y0178933D03*
X0309300Y0168933D03*
X0290550Y0172683D03*
X0286800Y0181433D03*
X0329300Y0163933D03*
X0334300Y0166433D03*
X0329300Y0146433D03*
X0301800Y0123933D03*
X0320550Y0116433D03*
X0301800Y0108933D03*
X0329300Y0086433D03*
X0250550Y0122683D03*
X0234300Y0116433D03*
X0220550Y0090183D03*
X0366800Y0166433D03*
X0366800Y0226433D03*
M02*
